<?xml version="1.0" standalone="no"?>
<!DOCTYPE svg PUBLIC "-//W3C//DTD SVG 20010904//EN"
 "http://www.w3.org/TR/2001/REC-SVG-20010904/DTD/svg10.dtd">
<svg version="1.0" xmlns="http://www.w3.org/2000/svg"
 width="200.000000pt" height="85.000000pt" viewBox="0 0 200.000000 85.000000"
 preserveAspectRatio="xMidYMid meet">

<g transform="translate(0.000000,85.000000) scale(0.100000,-0.100000)"
fill="#000000" stroke="none">
<path d="M440 449 c0 -175 9 -199 80 -199 71 0 80 24 80 199 l0 141 -24 0 -24
0 -4 -140 c-2 -98 -7 -143 -16 -152 -11 -11 -16 -10 -28 6 -10 15 -14 53 -14
153 l0 133 -25 0 -25 0 0 -141z"/>
<path d="M654 577 c-2 -7 -3 -82 -2 -167 l3 -155 28 -3 27 -3 0 73 1 73 27
-70 c25 -65 30 -70 60 -73 l32 -3 -21 53 c-12 29 -28 70 -37 90 -14 35 -13 40
13 105 15 37 29 74 32 81 3 8 -5 12 -25 12 -27 0 -31 -5 -53 -62 l-24 -63 -3
63 c-3 59 -4 62 -28 62 -13 0 -27 -6 -30 -13z"/>
<path d="M864 569 c-17 -18 -19 -37 -19 -149 0 -148 9 -170 75 -170 50 0 70
18 77 68 6 41 5 42 -25 42 -27 0 -31 -4 -34 -32 -2 -21 -8 -33 -18 -33 -12 0
-15 21 -18 115 -1 63 2 121 7 129 13 20 31 4 31 -30 0 -24 4 -29 25 -29 26 0
30 10 26 60 -3 33 -27 50 -71 50 -25 0 -43 -7 -56 -21z"/>
<path d="M1030 421 l0 -171 30 0 c29 0 29 0 32 68 l3 67 24 -67 c23 -62 27
-68 53 -68 34 0 34 3 6 70 -21 50 -21 54 -5 82 24 41 23 129 -2 159 -14 18
-31 23 -80 27 l-61 4 0 -171z m94 113 c27 -27 13 -114 -19 -114 -12 0 -15 13
-15 65 0 67 7 77 34 49z"/>
<path d="M1240 420 l0 -170 25 0 25 0 0 170 0 170 -25 0 -25 0 0 -170z"/>
<path d="M1362 569 c-22 -23 -32 -69 -32 -149 0 -126 23 -170 89 -170 48 0 71
24 71 73 0 33 -3 37 -25 37 -21 0 -25 -5 -25 -29 0 -37 -19 -50 -37 -26 -19
27 -18 205 2 231 13 16 16 17 25 4 5 -8 10 -25 10 -37 0 -18 6 -23 25 -23 22
0 25 4 25 38 0 25 -7 45 -18 55 -26 24 -87 22 -110 -4z"/>
</g>
</svg>
