<?xml version="1.0" encoding="UTF-8"?>
<svg width="50px" height="50px" viewBox="0 0 50 50" version="1.1" xmlns="http://www.w3.org/2000/svg" xmlns:xlink="http://www.w3.org/1999/xlink">
    <!-- Generator: Sketch 50.2 (55047) - http://www.bohemiancoding.com/sketch -->
    <title>Icons/Navbar/Data-white</title>
    <desc>Created with Sketch.</desc>
    <defs>
        <polygon id="path-1" points="0.284522368 0.385714286 19.3429434 0.385714286 19.3429434 3.8961039 0.284522368 3.8961039"></polygon>
        <polygon id="path-3" points="0.458472368 0.190714286 6.49959211 0.190714286 6.49959211 19.1192857 0.458472368 19.1192857"></polygon>
        <polygon id="path-5" points="0.555182895 0.593506494 18.2209724 0.593506494 18.2209724 10.4115584 0.555182895 10.4115584"></polygon>
        <polygon id="path-7" points="0.336230263 0.593506494 17.8021513 0.593506494 17.8021513 9.98298701 0.336230263 9.98298701"></polygon>
    </defs>
    <g id="Symbols" stroke="none" stroke-width="1" fill="none" fill-rule="evenodd">
        <g id="Button/Navbar" transform="translate(-169.000000, -15.000000)">
            <g id="Group-2">
                <g id="Icons/Navbar/Data-white" transform="translate(169.000000, 15.000000)">
                    <path d="M1.585245,25.2207792 C1.57745279,20.487013 3.03329694,15.8668831 5.75407616,11.9935065 L4.50082941,11 C1.56251772,15.1590909 -0.00956019891,20.1285714 0.000829411475,25.2207792 C-0.0128069522,26.7980519 0.141738502,28.3720779 0.461868373,29.9149351 L1.9878424,29.5779221 C1.71641383,28.1415584 1.58199824,26.6824675 1.585245,25.2207792" id="Fill-17" fill="#FFFFFF"></path>
                    <g id="Group-4" stroke-width="1" transform="translate(1.000000, 0.000000)">
                        <g id="Group-13" transform="translate(14.184196, 46.103896)">
                            <mask id="mask-2" fill="white">
                                <use xlink:href="#path-1"></use>
                            </mask>
                            <g id="Clip-12"></g>
                            <path d="M18.6595224,0.385714286 C13.0045355,2.81363636 6.62035132,2.86298701 0.929259211,0.522077922 L0.284522368,1.97662338 C6.38308816,4.55844156 13.2617855,4.53506494 19.3429434,1.91168831 L18.9496539,1.04805195 L18.6595224,0.385714286 Z" id="Fill-11" fill="#FFFFFF" mask="url(#mask-2)"></path>
                        </g>
                        <g id="Group-16" transform="translate(41.907880, 10.389610)">
                            <mask id="mask-4" fill="white">
                                <use xlink:href="#path-3"></use>
                            </mask>
                            <g id="Clip-15"></g>
                            <path d="M1.64478816,0.190714286 L0.458472368,1.18422078 C3.34366974,5.13876623 4.90844605,9.91344156 4.92649868,14.8205844 C4.91295921,16.1498052 4.80335395,17.4757792 4.59768289,18.7881169 L6.10636711,19.1192857 C6.37135395,17.7017532 6.50288026,16.2627922 6.49965658,14.8205844 C6.45065658,9.5511039 4.75113026,4.43162338 1.64478816,0.190714286" id="Fill-14" fill="#FFFFFF" mask="url(#mask-4)"></path>
                        </g>
                        <path d="M23.8560867,44.1775974 C21.4441261,44.1977273 19.0534419,43.725 16.8284551,42.787987 L15.9774025,44.6386364 C21.0882314,46.7827922 26.8412183,46.7594156 31.9346393,44.5737013 L31.0771393,42.7237013 C28.7857446,43.6730519 26.3338104,44.1659091 23.8560867,44.1775974" id="Fill-19" fill="#FFFFFF"></path>
                        <g id="Group-3" transform="translate(4.513143, 0.000000)">
                            <mask id="mask-6" fill="white">
                                <use xlink:href="#path-5"></use>
                            </mask>
                            <g id="Clip-2"></g>
                            <path d="M18.2209724,2.17779221 L18.2209724,0.593376623 C11.3525908,0.868051948 4.92585395,4.08038961 0.555182895,9.42454545 L1.80597237,10.4115584 C5.88844605,5.4687013 11.844525,2.48103896 18.2209724,2.17779221" id="Fill-1" fill="#FFFFFF" mask="url(#mask-6)"></path>
                        </g>
                        <path d="M1.78674457,31.5482468 L0.27806036,31.8794156 C2.12136299,38.4326623 6.56037615,43.932013 12.5538498,47.0872078 L13.1985867,45.632013 C7.63192878,42.719026 3.50432352,37.6242208 1.78674457,31.5482468" id="Fill-4" fill="#FFFFFF"></path>
                        <path d="M34.6875367,45.5675974 L35.4096419,47.0221429 C41.4031156,43.7701948 45.7976419,38.1714935 47.556484,31.5481169 L46.0477998,31.2162987 C44.3676156,37.3630519 40.2625761,42.5487662 34.6875367,45.5675974" id="Fill-6" fill="#FFFFFF"></path>
                        <g id="Group-10" transform="translate(24.499985, 0.000000)">
                            <mask id="mask-8" fill="white">
                                <use xlink:href="#path-7"></use>
                            </mask>
                            <g id="Clip-9"></g>
                            <path d="M16.5578092,9.98298701 L17.8021513,8.99597403 C13.3792566,3.88948052 7.05954605,0.849220779 0.336230263,0.593376623 L0.336230263,2.17779221 C6.58759868,2.38818182 12.4675987,5.2174026 16.5578092,9.98298701" id="Fill-8" fill="#FFFFFF" mask="url(#mask-8)"></path>
                        </g>
                        <path d="M24.7715485,4.22987013 L24.7715485,6.28181818 C29.780509,6.54675325 34.4793511,8.80519481 37.8339169,12.561039 L39.4135222,11.3077922 C35.685009,7.05 30.4020354,4.4961039 24.7715485,4.22987013" id="Fill-21" fill="#FFFFFF"></path>
                        <path d="M22.7341156,6.28188312 L22.7341156,4.22993506 C17.004984,4.54162338 11.6575367,7.22279221 7.9567472,11.639026 L9.53635247,12.8922727 C12.8747998,8.99162338 17.6316683,6.60915584 22.7341156,6.28188312" id="Fill-23" fill="#FFFFFF"></path>
                        <path d="M42.6954261,25.1974026 C42.7089656,26.2402597 42.6206367,27.2824675 42.431084,28.3077922 L44.4039788,28.7038961 C44.6154525,27.5467532 44.7250577,26.374026 44.7327946,25.1974026 C44.7334393,20.7707792 43.3304919,16.4597403 40.7289788,12.8922078 L39.1493735,14.1519481 C41.4472156,17.3707792 42.6870446,21.2331169 42.6954261,25.1974026" id="Fill-25" fill="#FFFFFF"></path>
                        <path d="M32.8437183,41.8922078 L33.7012183,43.7493506 C38.7430604,41.0220779 42.4477183,36.3253247 43.9460867,30.7623377 L41.9731919,30.3662338 C40.5908761,35.287013 37.300784,39.4415584 32.8437183,41.8922078" id="Fill-27" fill="#FFFFFF"></path>
                        <path d="M5.00385247,25.1974026 C4.98322089,21.3922078 6.12956299,17.6727273 8.28556299,14.5480519 L6.7124051,13.3207792 C4.29141826,16.7987013 3.00452352,20.9493506 3.03095773,25.1974026 C3.04191826,26.4831169 3.15152352,27.7662338 3.35977352,29.0350649 L5.33266826,28.5668831 C5.11797089,27.4564935 5.00772089,26.3285714 5.00385247,25.1974026" id="Fill-29" fill="#FFFFFF"></path>
                        <path d="M5.8034551,30.6192208 L3.83700773,31.0802597 C5.40758668,36.528961 9.09419194,41.1075325 14.062534,43.7822078 L14.920034,41.9309091 C10.5203498,39.5166234 7.24444194,35.4516883 5.8034551,30.6192208" id="Fill-31" fill="#FFFFFF"></path>
                        <path d="M34.4234525,15.3401299 L36.2609525,13.8206494 C33.3061235,10.5277922 29.1727156,8.55376623 24.7717419,8.33363636 L24.7717419,10.7232468 C28.4551235,10.9693506 31.9063998,12.6206494 34.4234525,15.3401299" id="Fill-33" fill="#FFFFFF"></path>
                        <path d="M11.1741775,14.1517532 L13.0116775,15.6062987 C15.4835985,12.7472078 18.9793617,10.9907143 22.734309,10.7231818 L22.734309,8.33357143 C18.2662827,8.64915584 14.1064406,10.7426623 11.1741775,14.1517532" id="Fill-35" fill="#FFFFFF"></path>
                        <path d="M9.40115115,25.1974026 C9.38954589,22.374026 10.2135196,19.6116883 11.7673354,17.2623377 L9.92983536,15.8077922 C8.09104589,18.5902597 7.10459852,21.8551948 7.09299326,25.1974026 C7.07880904,26.174026 7.16713799,27.1487013 7.35733536,28.1058442 L9.67194062,27.6064935 C9.4772301,26.8188312 9.3863222,26.0090909 9.40115115,25.1974026" id="Fill-37" fill="#FFFFFF"></path>
                        <path d="M38.2981275,25.1974026 C38.2981275,25.9246753 38.2336538,26.6519481 38.1627327,27.3792208 L40.4644433,27.8402597 C40.5933906,26.9655844 40.6578643,26.0818182 40.6578643,25.1974026 C40.6875222,21.7025974 39.607588,18.2902597 37.5760222,15.4571429 L35.7385222,16.9116883 C37.3871143,19.3571429 38.2781406,22.2409091 38.2981275,25.1974026" id="Fill-39" fill="#FFFFFF"></path>
                        <path d="M30.9481919,37.8920779 L31.999113,40.008961 C35.8720472,37.8433766 38.7469288,34.2342857 40.0067446,29.957013 L37.6405604,29.431039 C36.5889946,33.0212987 34.1873498,36.057013 30.9481919,37.8920779" id="Fill-41" fill="#FFFFFF"></path>
                        <path d="M10.0587827,29.6261688 L7.7377301,30.157987 C9.04654589,34.3826623 11.9246511,37.9352597 15.7711511,40.0742208 L16.7640459,37.9962987 C13.5854933,36.1287662 11.1993222,33.1501948 10.0587827,29.6261688" id="Fill-43" fill="#FFFFFF"></path>
                        <path d="M23.8560867,39.7494805 C22.0785472,39.7592208 20.3158367,39.4215584 18.6659551,38.755974 L17.6859551,40.9377922 C19.6543367,41.705974 21.7452183,42.1085714 23.8560867,42.1261039 C26.018534,42.1176623 28.1584156,41.6923377 30.161613,40.8722078 L29.1106919,38.755974 C27.4382446,39.4215584 25.6549025,39.7592208 23.8560867,39.7494805" id="Fill-45" fill="#FFFFFF"></path>
                        <path d="M30.6129288,18.5155844 L32.8437183,16.7298701 C30.7573498,14.4707792 27.8934288,13.0980519 24.8360867,12.8922078 L24.8360867,15.7363636 C27.0320604,15.9279221 29.0849025,16.9155844 30.6129288,18.5155844" id="Fill-47" fill="#FFFFFF"></path>
                        <path d="M22.7341156,15.7361688 L22.7341156,12.892013 C19.614234,13.1517532 16.7167867,14.6231818 14.655563,16.9959091 L16.8863525,18.7816234 C18.3898788,17.0666883 20.4762472,15.9803247 22.7341156,15.7361688" id="Fill-49" fill="#FFFFFF"></path>
                        <path d="M11.6381946,27.1131169 L14.3912209,26.4637662 C14.3377077,26.0481818 14.3164314,25.6293506 14.3267472,25.2105195 C14.3422209,23.4955844 14.7857998,21.8118182 15.6162209,20.3144156 L13.4112209,18.5157143 C12.1617209,20.4942857 11.4911946,22.7871429 11.4770104,25.1325974 C11.4905498,25.7955844 11.5447077,26.4566234 11.6381946,27.1131169" id="Fill-51" fill="#FFFFFF"></path>
                        <path d="M14.920163,28.5024675 L12.1606893,29.1518182 C13.0878209,32.0381818 15.0574919,34.4693506 17.6796367,35.9635065 L18.8595051,33.3661039 C17.0458604,32.231039 15.6596761,30.5193506 14.920163,28.5024675" id="Fill-53" fill="#FFFFFF"></path>
                        <path d="M28.7753643,33.3986364 L30.0197064,35.996039 C32.6753775,34.4551299 34.6656801,31.973961 35.6031275,29.035 L32.7791801,28.3856494 C32.0628775,30.473961 30.6470354,32.2466883 28.7753643,33.3986364" id="Fill-55" fill="#FFFFFF"></path>
                        <path d="M23.8560867,34.787987 C22.8051656,34.7775974 21.7619814,34.5983766 20.7677972,34.2561688 L19.5879288,36.8535714 C20.9567051,37.3535714 22.3996261,37.6172078 23.8560867,37.6321429 C25.3370472,37.637987 26.8057577,37.3672078 28.1887183,36.8334416 L26.9443761,34.236039 C25.9508367,34.5853896 24.9082972,34.7724026 23.8560867,34.787987" id="Fill-57" fill="#FFFFFF"></path>
                        <path d="M33.3722735,25.1974026 C33.3851683,25.5733766 33.3632472,25.9493506 33.3077998,26.3201299 L36.0608261,26.9175325 C36.1414183,26.3474026 36.1865498,25.7733766 36.1962209,25.1974026 C36.1949314,22.7227273 35.4637998,20.3038961 34.0943788,18.2493506 L31.8635893,20.0350649 C32.8139314,21.5896104 33.334234,23.3720779 33.3722735,25.1974026" id="Fill-59" fill="#FFFFFF"></path>
                        <path d="M23.8498327,22.417987 C25.3739906,22.417987 26.6093064,23.6627922 26.6093064,25.1972078 C26.6093064,26.7322727 25.3739906,27.9770779 23.8498327,27.9770779 C22.3256748,27.9770779 21.090359,26.7322727 21.090359,25.1972078 C21.090359,23.6627922 22.3256748,22.417987 23.8498327,22.417987" id="Fill-61" fill="#FFFFFF"></path>
                    </g>
                </g>
            </g>
        </g>
    </g>
</svg>