<?xml version="1.0" encoding="UTF-8"?>
<svg width="347px" height="53px" viewBox="0 0 347 53" version="1.1" xmlns="http://www.w3.org/2000/svg" xmlns:xlink="http://www.w3.org/1999/xlink">
    <!-- Generator: Sketch 50.2 (55047) - http://www.bohemiancoding.com/sketch -->
    <title>Group</title>
    <desc>Created with Sketch.</desc>
    <defs>
        <path d="M19.4889655,0.631125 C11.902069,0.9109375 5.16,4.4818125 0.593793103,9.944 L1.92827586,10.9945 C6.21310345,5.952375 12.4648276,2.591875 19.4889655,2.311375 L19.4889655,0.631125 Z" id="path-1"></path>
        <linearGradient x1="-32.4811826%" y1="49.9964183%" x2="245.01915%" y2="49.9964183%" id="linearGradient-3">
            <stop stop-color="#081A3B" offset="0%"></stop>
            <stop stop-color="#00B1B6" offset="100%"></stop>
        </linearGradient>
        <path d="M0.304285714,0.74324 C2.34142857,7.66904 7.36142857,13.41776 13.9085714,16.67292 L14.6364286,15.14904 C8.525,12.17064 3.94214286,6.83808 1.97714286,0.39712 L0.304285714,0.74324 Z" id="path-4"></path>
        <linearGradient x1="-7.29725592%" y1="49.9983359%" x2="371.618971%" y2="49.9983359%" id="linearGradient-6">
            <stop stop-color="#081A3B" offset="0%"></stop>
            <stop stop-color="#00B1B6" offset="100%"></stop>
        </linearGradient>
        <path d="M0.568571429,15.079 L1.36857143,16.60356 C7.91642857,13.27904 12.8628571,7.39228 14.8271429,0.39712 L13.1542857,0.05032 C11.2628571,6.56064 6.67928571,11.96256 0.568571429,15.079" id="path-7"></path>
        <linearGradient x1="-274.692888%" y1="50.000198%" x2="106.178472%" y2="50.000198%" id="linearGradient-9">
            <stop stop-color="#081A3B" offset="0%"></stop>
            <stop stop-color="#00B1B6" offset="100%"></stop>
        </linearGradient>
        <path d="M0.3515,0.631125 L0.3515,2.311375 C7.12432143,2.5210625 13.2063571,5.6725625 17.4223214,10.5744375 L18.7353571,9.52325 C14.174,4.272125 7.67735714,0.9109375 0.3515,0.631125 Z" id="path-10"></path>
        <linearGradient x1="-146.006919%" y1="49.9958715%" x2="134.627737%" y2="49.9958715%" id="linearGradient-12">
            <stop stop-color="#081A3B" offset="0%"></stop>
            <stop stop-color="#00B1B6" offset="100%"></stop>
        </linearGradient>
        <path d="M10.493,2.30266667 C7.1421,2.30266667 3.934,1.69133333 1.0108,0.536666667 L0.2982,2.03133333 C3.4349,3.25333333 6.9286,4 10.493,4 C14.2002,4 17.7653,3.25333333 20.9734,1.96333333 L20.5457,1.08 L20.2601,0.401333333 C17.2662,1.62333333 13.9867,2.30266667 10.493,2.30266667" id="path-13"></path>
        <linearGradient x1="-79.442695%" y1="49.9991534%" x2="177.970431%" y2="49.9991534%" id="linearGradient-15">
            <stop stop-color="#081A3B" offset="0%"></stop>
            <stop stop-color="#00B1B6" offset="100%"></stop>
        </linearGradient>
        <path d="M0.518545455,1.2775 C3.62836364,5.4124 5.55490909,10.4741 5.55490909,15.9642 C5.55490909,17.3894 5.40727273,18.816 5.18472727,20.2419 L6.888,20.5989 C7.18472727,19.1009 7.33236364,17.5329 7.33236364,15.9642 C7.25890909,10.1178 5.25818182,4.6284 1.85163636,0.2079 L0.518545455,1.2775 Z" id="path-16"></path>
        <linearGradient x1="-712.46872%" y1="49.9986756%" x2="99.0324111%" y2="49.9986756%" id="linearGradient-18">
            <stop stop-color="#081A3B" offset="0%"></stop>
            <stop stop-color="#00B1B6" offset="100%"></stop>
        </linearGradient>
        <path d="M0,15.4492258 C0,17.1048387 0.135333333,18.761129 0.475333333,20.3476452 L2.03666667,20.0028387 C1.76533333,18.5538387 1.62933333,17.0357419 1.62933333,15.4492258 C1.62933333,10.3435161 3.19133333,5.5826129 5.90733333,1.65019355 L4.61733333,0.615096774 C1.69733333,4.82390323 0,9.9296129 0,15.4492258" id="path-19"></path>
        <linearGradient x1="-0.431039386%" y1="50.000746%" x2="857.593348%" y2="50.000746%" id="linearGradient-21">
            <stop stop-color="#081A3B" offset="0%"></stop>
            <stop stop-color="#00B1B6" offset="100%"></stop>
        </linearGradient>
        <path d="M8.99307692,2.16928571 C6.31384615,2.16928571 3.77515385,1.66 1.449,0.641428571 L0.531692308,2.67857143 C3.14030769,3.77 5.96146154,4.42428571 8.99307692,4.42428571 C12.0253846,4.42428571 14.9870769,3.77 17.6663077,2.60571429 L16.7496923,0.569285714 C14.2816154,1.58714286 11.7429231,2.16928571 8.99307692,2.16928571" id="path-22"></path>
        <linearGradient x1="-81.3172327%" y1="49.9992329%" x2="179.980406%" y2="49.9992329%" id="linearGradient-24">
            <stop stop-color="#081A3B" offset="0%"></stop>
            <stop stop-color="#00B1B6" offset="100%"></stop>
        </linearGradient>
        <path d="M0.294666667,2.62571429 C5.99391667,2.91714286 11.0443333,5.53642857 14.6511667,9.53714286 L16.3830417,8.155 C12.4149583,3.645 6.71570833,0.662142857 0.294666667,0.370714286 L0.294666667,2.62571429 Z" id="path-25"></path>
        <linearGradient x1="-148.699049%" y1="50.0030406%" x2="136.03289%" y2="50.0030406%" id="linearGradient-27">
            <stop stop-color="#081A3B" offset="0%"></stop>
            <stop stop-color="#00B1B6" offset="100%"></stop>
        </linearGradient>
        <path d="M0.24225,8.51928571 L1.974125,9.90142857 C5.50870833,5.75428571 10.703625,2.99 16.475125,2.62571429 L16.475125,0.370714286 C9.98254167,0.735 4.21033333,3.79 0.24225,8.51928571" id="path-28"></path>
        <linearGradient x1="-33.5995772%" y1="50.0001304%" x2="248.597768%" y2="50.0001304%" id="linearGradient-30">
            <stop stop-color="#081A3B" offset="0%"></stop>
            <stop stop-color="#00B1B6" offset="100%"></stop>
        </linearGradient>
        <path d="M0.5054,1.93638462 C2.9288,5.32107692 4.3554,9.33992308 4.3554,13.7118462 C4.3554,14.8403077 4.2833,15.9687692 4.0698,17.0259231 L6.209,17.4489231 C6.4232,16.2498462 6.5653,14.9815385 6.5653,13.7118462 C6.5653,8.77569231 4.9252,4.26323077 2.2162,0.596769231 L0.5054,1.93638462 Z" id="path-31"></path>
        <linearGradient x1="-647.799643%" y1="49.9995806%" x2="99.2393485%" y2="49.9995806%" id="linearGradient-33">
            <stop stop-color="#081A3B" offset="0%"></stop>
            <stop stop-color="#00B1B6" offset="100%"></stop>
        </linearGradient>
        <path d="M0.645210526,12.5952273 L1.55178947,14.5390909 C6.84826316,11.6918182 10.8201053,6.83045455 12.4232105,0.927954545 L10.3322632,0.511363636 C8.86873684,5.71977273 5.31494737,10.0254545 0.645210526,12.5952273" id="path-34"></path>
        <linearGradient x1="-268.973017%" y1="50.0012268%" x2="106.716338%" y2="50.0012268%" id="linearGradient-36">
            <stop stop-color="#081A3B" offset="0%"></stop>
            <stop stop-color="#00B1B6" offset="100%"></stop>
        </linearGradient>
        <path d="M0.468666667,12.78808 C0.468666667,14.17256 0.605333333,15.48904 0.808666667,16.80484 L2.84533333,16.32 C2.642,15.21228 2.50666667,14.0352 2.50666667,12.78808 C2.50666667,8.6326 3.728,4.82324 5.90133333,1.63744 L4.272,0.32164 C1.82733333,3.85424 0.468666667,8.14776 0.468666667,12.78808" id="path-37"></path>
        <linearGradient x1="-0.748743404%" y1="50.0003243%" x2="792.859865%" y2="50.0003243%" id="linearGradient-39">
            <stop stop-color="#081A3B" offset="0%"></stop>
            <stop stop-color="#00B1B6" offset="100%"></stop>
        </linearGradient>
        <path d="M0.633578947,0.622142857 C2.30578947,6.66 6.27831579,11.68 11.5043158,14.59 L12.4108947,12.5528571 C7.81163158,9.93357143 4.25715789,5.49571429 2.72384211,0.112857143 L0.633578947,0.622142857 Z" id="path-40"></path>
        <linearGradient x1="-7.45956603%" y1="49.9993966%" x2="368.251614%" y2="49.9993966%" id="linearGradient-42">
            <stop stop-color="#081A3B" offset="0%"></stop>
            <stop stop-color="#00B1B6" offset="100%"></stop>
        </linearGradient>
        <path d="M0.284631579,3.00066667 C4.32694737,3.272 7.95052632,5.03733333 10.5286316,7.75333333 L12.48,6.19133333 C9.41405263,2.932 5.09326316,0.76 0.284631579,0.556 L0.284631579,3.00066667 Z" id="path-43"></path>
        <linearGradient x1="-156.41197%" y1="50.0011866%" x2="140.277522%" y2="50.0011866%" id="linearGradient-45">
            <stop stop-color="#081A3B" offset="0%"></stop>
            <stop stop-color="#00B1B6" offset="100%"></stop>
        </linearGradient>
        <path d="M0.227842105,6.78253846 L2.17921053,8.334 C4.75731579,5.37230769 8.38157895,3.39784615 12.493,3.11607692 L12.493,0.577384615 C7.61457895,0.929769231 3.22468421,3.25661538 0.227842105,6.78253846" id="path-46"></path>
        <linearGradient x1="-37.9106862%" y1="49.9984755%" x2="257.090625%" y2="49.9984755%" id="linearGradient-48">
            <stop stop-color="#081A3B" offset="0%"></stop>
            <stop stop-color="#00B1B6" offset="100%"></stop>
        </linearGradient>
        <path d="M0.01425,10.3642 C0.01425,11.4338 0.09,12.5027 0.31875,13.5009 L2.9925,12.9304 C2.76375,12.1471 2.68725,11.291 2.68725,10.3642 C2.68725,7.2275 3.68025,4.2329 5.4375,1.8088 L3.2985,0.2401 C1.236,3.1633 0.01425,6.6563 0.01425,10.3642" id="path-49"></path>
        <linearGradient x1="-6.66394136%" y1="50.0015029%" x2="724.65863%" y2="50.0015029%" id="linearGradient-51">
            <stop stop-color="#081A3B" offset="0%"></stop>
            <stop stop-color="#00B1B6" offset="100%"></stop>
        </linearGradient>
        <path d="M0.284,2.1518 C1.91333333,4.7187 2.93133333,7.7847 2.93133333,11.0642 C2.93133333,11.8482 2.864,12.6329 2.796,13.4169 L5.17266667,13.916 C5.308,12.9885 5.376,11.991 5.376,11.0642 C5.376,7.1428 4.22133333,3.5063 2.18533333,0.5838 L0.284,2.1518 Z" id="path-52"></path>
        <linearGradient x1="-587.704499%" y1="49.9997716%" x2="104.648671%" y2="49.9997716%" id="linearGradient-54">
            <stop stop-color="#081A3B" offset="0%"></stop>
            <stop stop-color="#00B1B6" offset="100%"></stop>
        </linearGradient>
        <path d="M0.6813125,9.43129412 L1.80125,11.7324706 C5.8623125,9.43129412 9.013125,5.47694118 10.3434375,0.804705882 L7.8230625,0.228705882 C6.7024375,4.18376471 4.1119375,7.41882353 0.6813125,9.43129412" id="path-55"></path>
        <linearGradient x1="-266.499713%" y1="49.9998589%" x2="109.777042%" y2="49.9998589%" id="linearGradient-57">
            <stop stop-color="#081A3B" offset="0%"></stop>
            <stop stop-color="#00B1B6" offset="100%"></stop>
        </linearGradient>
        <path d="M0.0264285714,1.02 C1.48142857,5.62094118 4.68214286,9.50329412 8.90214286,11.8044706 L9.99285714,9.50329412 C6.57428571,7.49011765 3.80928571,4.32705882 2.57214286,0.444705882 L0.0264285714,1.02 Z" id="path-58"></path>
        <linearGradient x1="-10.7494417%" y1="49.9979991%" x2="368.251025%" y2="49.9979991%" id="linearGradient-60">
            <stop stop-color="#081A3B" offset="0%"></stop>
            <stop stop-color="#00B1B6" offset="100%"></stop>
        </linearGradient>
        <path d="M6.993,1.47533333 C4.9973,1.47533333 3.143,1.136 1.3608,0.457333333 L0.2919,2.69733333 C2.359,3.44466667 4.6403,3.92 6.993,3.92 C9.4171,3.92 11.6984,3.44466667 13.8376,2.63 L12.6973,0.457333333 C10.9144,1.136 8.9894,1.47533333 6.993,1.47533333" id="path-61"></path>
        <linearGradient x1="-87.2299602%" y1="49.9916461%" x2="186.047571%" y2="49.9916461%" id="linearGradient-63">
            <stop stop-color="#081A3B" offset="0%"></stop>
            <stop stop-color="#00B1B6" offset="100%"></stop>
        </linearGradient>
        <path d="M0.358615385,3.6687 C2.75607692,3.8829 4.94238462,4.9518 6.56376923,6.6633 L8.96053846,4.7383 C6.77492308,2.3856 3.74330769,0.8176 0.358615385,0.6034 L0.358615385,3.6687 Z" id="path-64"></path>
        <linearGradient x1="-166.546646%" y1="49.9987917%" x2="141.75949%" y2="49.9987917%" id="linearGradient-66">
            <stop stop-color="#081A3B" offset="0%"></stop>
            <stop stop-color="#00B1B6" offset="100%"></stop>
        </linearGradient>
        <path d="M0.522142857,5.0239 L2.99571429,6.9482 C4.66857143,5.0946 6.92357143,3.9543 9.47071429,3.6687 L9.47071429,0.6034 C5.90571429,0.8883 2.77714286,2.5284 0.522142857,5.0239" id="path-67"></path>
        <linearGradient x1="-39.1636398%" y1="50.0010635%" x2="266.607731%" y2="50.0010635%" id="linearGradient-69">
            <stop stop-color="#081A3B" offset="0%"></stop>
            <stop stop-color="#00B1B6" offset="100%"></stop>
        </linearGradient>
        <path d="M0.6315,7.64571429 C0.6315,8.44571429 0.708,9.17285714 0.7845,9.82857143 L3.993,9.10071429 C3.9165,8.66428571 3.9165,8.155 3.9165,7.71857143 C3.9165,5.75428571 4.527,3.935 5.4435,2.335 L2.847,0.370714286 C1.47225,2.48071429 0.6315,4.95428571 0.6315,7.64571429" id="path-70"></path>
        <linearGradient x1="-0.271521197%" y1="49.9988453%" x2="596.783301%" y2="49.9988453%" id="linearGradient-72">
            <stop stop-color="#081A3B" offset="0%"></stop>
            <stop stop-color="#00B1B6" offset="100%"></stop>
        </linearGradient>
        <path d="M0.574,1.32715385 C1.52466667,4.43007692 3.62933333,7.03869231 6.278,8.59015385 L7.5,5.84030769 C5.666,4.64123077 4.172,2.80730769 3.426,0.621692308 L0.574,1.32715385 Z" id="path-73"></path>
        <linearGradient x1="-9.9761363%" y1="50.0006455%" x2="358.750761%" y2="50.0006455%" id="linearGradient-75">
            <stop stop-color="#081A3B" offset="0%"></stop>
            <stop stop-color="#00B1B6" offset="100%"></stop>
        </linearGradient>
        <path d="M0.419333333,5.84030769 L1.70933333,8.59015385 C4.42533333,6.96807692 6.53066667,4.28884615 7.48133333,1.18592308 L4.56133333,0.481153846 C3.814,2.73738462 2.32066667,4.64123077 0.419333333,5.84030769" id="path-76"></path>
        <linearGradient x1="-253.038996%" y1="49.9976582%" x2="108.586959%" y2="49.9976582%" id="linearGradient-78">
            <stop stop-color="#081A3B" offset="0%"></stop>
            <stop stop-color="#00B1B6" offset="100%"></stop>
        </linearGradient>
        <path d="M4.99285714,1.04933333 C3.82928571,1.04933333 2.665,0.846 1.57357143,0.506 L0.264285714,3.154 C1.71928571,3.62933333 3.32,3.96933333 4.99285714,3.96933333 C6.66642857,3.96933333 8.26714286,3.69733333 9.79428571,3.154 L8.41214286,0.506 C7.32142857,0.846 6.15714286,1.04933333 4.99285714,1.04933333" id="path-79"></path>
        <linearGradient x1="-94.0295368%" y1="50.0041617%" x2="193.086618%" y2="50.0041617%" id="linearGradient-81">
            <stop stop-color="#081A3B" offset="0%"></stop>
            <stop stop-color="#00B1B6" offset="100%"></stop>
        </linearGradient>
        <path d="M0.312,2.04357143 C1.3815,3.79 2.06925,5.68142857 2.06925,7.71857143 C2.06925,8.155 2.06925,8.59142857 1.992,8.955 L5.20125,9.61 C5.27775,8.955 5.3535,8.37357143 5.3535,7.71857143 C5.3535,4.88142857 4.437,2.26214286 2.9085,0.08 L0.312,2.04357143 Z" id="path-82"></path>
        <linearGradient x1="-469.970556%" y1="49.9990346%" x2="99.9050372%" y2="49.9990346%" id="linearGradient-84">
            <stop stop-color="#081A3B" offset="0%"></stop>
            <stop stop-color="#00B1B6" offset="100%"></stop>
        </linearGradient>
    </defs>
    <g id="Symbols" stroke="none" stroke-width="1" fill="none" fill-rule="evenodd">
        <g id="Logos/UrbanObservatory/solid">
            <g id="Group">
                <g id="Group-3" transform="translate(6.000000, 0.000000)">
                    <mask id="mask-2" fill="white">
                        <use xlink:href="#path-1"></use>
                    </mask>
                    <g id="Clip-2"></g>
                    <path d="M19.4889655,0.631125 C11.902069,0.9109375 5.16,4.4818125 0.593793103,9.944 L1.92827586,10.9945 C6.21310345,5.952375 12.4648276,2.591875 19.4889655,2.311375 L19.4889655,0.631125 Z" id="Fill-1" fill="url(#linearGradient-3)" mask="url(#mask-2)"></path>
                </g>
                <g id="Group-6" transform="translate(1.000000, 33.000000)">
                    <mask id="mask-5" fill="white">
                        <use xlink:href="#path-4"></use>
                    </mask>
                    <g id="Clip-5"></g>
                    <path d="M0.304285714,0.74324 C2.34142857,7.66904 7.36142857,13.41776 13.9085714,16.67292 L14.6364286,15.14904 C8.525,12.17064 3.94214286,6.83808 1.97714286,0.39712 L0.304285714,0.74324 Z" id="Fill-4" fill="url(#linearGradient-6)" mask="url(#mask-5)"></path>
                </g>
                <g id="Group-9" transform="translate(37.000000, 33.000000)">
                    <mask id="mask-8" fill="white">
                        <use xlink:href="#path-7"></use>
                    </mask>
                    <g id="Clip-8"></g>
                    <path d="M0.568571429,15.079 L1.36857143,16.60356 C7.91642857,13.27904 12.8628571,7.39228 14.8271429,0.39712 L13.1542857,0.05032 C11.2628571,6.56064 6.67928571,11.96256 0.568571429,15.079" id="Fill-7" fill="url(#linearGradient-9)" mask="url(#mask-8)"></path>
                </g>
                <g id="Group-12" transform="translate(27.000000, 0.000000)">
                    <mask id="mask-11" fill="white">
                        <use xlink:href="#path-10"></use>
                    </mask>
                    <g id="Clip-11"></g>
                    <path d="M0.3515,0.631125 L0.3515,2.311375 C7.12432143,2.5210625 13.2063571,5.6725625 17.4223214,10.5744375 L18.7353571,9.52325 C14.174,4.272125 7.67735714,0.9109375 0.3515,0.631125 Z" id="Fill-10" fill="url(#linearGradient-12)" mask="url(#mask-11)"></path>
                </g>
                <g id="Group-15" transform="translate(16.000000, 49.000000)">
                    <mask id="mask-14" fill="white">
                        <use xlink:href="#path-13"></use>
                    </mask>
                    <g id="Clip-14"></g>
                    <path d="M10.493,2.30266667 C7.1421,2.30266667 3.934,1.69133333 1.0108,0.536666667 L0.2982,2.03133333 C3.4349,3.25333333 6.9286,4 10.493,4 C14.2002,4 17.7653,3.25333333 20.9734,1.96333333 L20.5457,1.08 L20.2601,0.401333333 C17.2662,1.62333333 13.9867,2.30266667 10.493,2.30266667" id="Fill-13" fill="url(#linearGradient-15)" mask="url(#mask-14)"></path>
                </g>
                <g id="Group-18" transform="translate(46.000000, 11.000000)">
                    <mask id="mask-17" fill="white">
                        <use xlink:href="#path-16"></use>
                    </mask>
                    <g id="Clip-17"></g>
                    <path d="M0.518545455,1.2775 C3.62836364,5.4124 5.55490909,10.4741 5.55490909,15.9642 C5.55490909,17.3894 5.40727273,18.816 5.18472727,20.2419 L6.888,20.5989 C7.18472727,19.1009 7.33236364,17.5329 7.33236364,15.9642 C7.25890909,10.1178 5.25818182,4.6284 1.85163636,0.2079 L0.518545455,1.2775 Z" id="Fill-16" fill="url(#linearGradient-18)" mask="url(#mask-17)"></path>
                </g>
                <g id="Group-21" transform="translate(0.000000, 11.000000)">
                    <mask id="mask-20" fill="white">
                        <use xlink:href="#path-19"></use>
                    </mask>
                    <g id="Clip-20"></g>
                    <path d="M0,15.4492258 C0,17.1048387 0.135333333,18.761129 0.475333333,20.3476452 L2.03666667,20.0028387 C1.76533333,18.5538387 1.62933333,17.0357419 1.62933333,15.4492258 C1.62933333,10.3435161 3.19133333,5.5826129 5.90733333,1.65019355 L4.61733333,0.615096774 C1.69733333,4.82390323 0,9.9296129 0,15.4492258" id="Fill-19" fill="url(#linearGradient-21)" mask="url(#mask-20)"></path>
                </g>
                <g id="Group-24" transform="translate(17.000000, 45.000000)">
                    <mask id="mask-23" fill="white">
                        <use xlink:href="#path-22"></use>
                    </mask>
                    <g id="Clip-23"></g>
                    <path d="M8.99307692,2.16928571 C6.31384615,2.16928571 3.77515385,1.66 1.449,0.641428571 L0.531692308,2.67857143 C3.14030769,3.77 5.96146154,4.42428571 8.99307692,4.42428571 C12.0253846,4.42428571 14.9870769,3.77 17.6663077,2.60571429 L16.7496923,0.569285714 C14.2816154,1.58714286 11.7429231,2.16928571 8.99307692,2.16928571" id="Fill-22" fill="url(#linearGradient-24)" mask="url(#mask-23)"></path>
                </g>
                <g id="Group-27" transform="translate(27.000000, 4.000000)">
                    <mask id="mask-26" fill="white">
                        <use xlink:href="#path-25"></use>
                    </mask>
                    <g id="Clip-26"></g>
                    <path d="M0.294666667,2.62571429 C5.99391667,2.91714286 11.0443333,5.53642857 14.6511667,9.53714286 L16.3830417,8.155 C12.4149583,3.645 6.71570833,0.662142857 0.294666667,0.370714286 L0.294666667,2.62571429 Z" id="Fill-25" fill="url(#linearGradient-27)" mask="url(#mask-26)"></path>
                </g>
                <g id="Group-30" transform="translate(9.000000, 4.000000)">
                    <mask id="mask-29" fill="white">
                        <use xlink:href="#path-28"></use>
                    </mask>
                    <g id="Clip-29"></g>
                    <path d="M0.24225,8.51928571 L1.974125,9.90142857 C5.50870833,5.75428571 10.703625,2.99 16.475125,2.62571429 L16.475125,0.370714286 C9.98254167,0.735 4.21033333,3.79 0.24225,8.51928571" id="Fill-28" fill="url(#linearGradient-30)" mask="url(#mask-29)"></path>
                </g>
                <g id="Group-33" transform="translate(42.000000, 13.000000)">
                    <mask id="mask-32" fill="white">
                        <use xlink:href="#path-31"></use>
                    </mask>
                    <g id="Clip-32"></g>
                    <path d="M0.5054,1.93638462 C2.9288,5.32107692 4.3554,9.33992308 4.3554,13.7118462 C4.3554,14.8403077 4.2833,15.9687692 4.0698,17.0259231 L6.209,17.4489231 C6.4232,16.2498462 6.5653,14.9815385 6.5653,13.7118462 C6.5653,8.77569231 4.9252,4.26323077 2.2162,0.596769231 L0.5054,1.93638462 Z" id="Fill-31" fill="url(#linearGradient-33)" mask="url(#mask-32)"></path>
                </g>
                <g id="Group-36" transform="translate(35.000000, 32.000000)">
                    <mask id="mask-35" fill="white">
                        <use xlink:href="#path-34"></use>
                    </mask>
                    <g id="Clip-35"></g>
                    <path d="M0.645210526,12.5952273 L1.55178947,14.5390909 C6.84826316,11.6918182 10.8201053,6.83045455 12.4232105,0.927954545 L10.3322632,0.511363636 C8.86873684,5.71977273 5.31494737,10.0254545 0.645210526,12.5952273" id="Fill-34" fill="url(#linearGradient-36)" mask="url(#mask-35)"></path>
                </g>
                <g id="Group-39" transform="translate(3.000000, 14.000000)">
                    <mask id="mask-38" fill="white">
                        <use xlink:href="#path-37"></use>
                    </mask>
                    <g id="Clip-38"></g>
                    <path d="M0.468666667,12.78808 C0.468666667,14.17256 0.605333333,15.48904 0.808666667,16.80484 L2.84533333,16.32 C2.642,15.21228 2.50666667,14.0352 2.50666667,12.78808 C2.50666667,8.6326 3.728,4.82324 5.90133333,1.63744 L4.272,0.32164 C1.82733333,3.85424 0.468666667,8.14776 0.468666667,12.78808" id="Fill-37" fill="url(#linearGradient-39)" mask="url(#mask-38)"></path>
                </g>
                <g id="Group-42" transform="translate(4.000000, 33.000000)">
                    <mask id="mask-41" fill="white">
                        <use xlink:href="#path-40"></use>
                    </mask>
                    <g id="Clip-41"></g>
                    <path d="M0.633578947,0.622142857 C2.30578947,6.66 6.27831579,11.68 11.5043158,14.59 L12.4108947,12.5528571 C7.81163158,9.93357143 4.25715789,5.49571429 2.72384211,0.112857143 L0.633578947,0.622142857 Z" id="Fill-40" fill="url(#linearGradient-42)" mask="url(#mask-41)"></path>
                </g>
                <g id="Group-45" transform="translate(27.000000, 8.000000)">
                    <mask id="mask-44" fill="white">
                        <use xlink:href="#path-43"></use>
                    </mask>
                    <g id="Clip-44"></g>
                    <path d="M0.284631579,3.00066667 C4.32694737,3.272 7.95052632,5.03733333 10.5286316,7.75333333 L12.48,6.19133333 C9.41405263,2.932 5.09326316,0.76 0.284631579,0.556 L0.284631579,3.00066667 Z" id="Fill-43" fill="url(#linearGradient-45)" mask="url(#mask-44)"></path>
                </g>
                <g id="Group-48" transform="translate(12.000000, 8.000000)">
                    <mask id="mask-47" fill="white">
                        <use xlink:href="#path-46"></use>
                    </mask>
                    <g id="Clip-47"></g>
                    <path d="M0.227842105,6.78253846 L2.17921053,8.334 C4.75731579,5.37230769 8.38157895,3.39784615 12.493,3.11607692 L12.493,0.577384615 C7.61457895,0.929769231 3.22468421,3.25661538 0.227842105,6.78253846" id="Fill-46" fill="url(#linearGradient-48)" mask="url(#mask-47)"></path>
                </g>
                <g id="Group-51" transform="translate(8.000000, 17.000000)">
                    <mask id="mask-50" fill="white">
                        <use xlink:href="#path-49"></use>
                    </mask>
                    <g id="Clip-50"></g>
                    <path d="M0.01425,10.3642 C0.01425,11.4338 0.09,12.5027 0.31875,13.5009 L2.9925,12.9304 C2.76375,12.1471 2.68725,11.291 2.68725,10.3642 C2.68725,7.2275 3.68025,4.2329 5.4375,1.8088 L3.2985,0.2401 C1.236,3.1633 0.01425,6.6563 0.01425,10.3642" id="Fill-49" fill="url(#linearGradient-51)" mask="url(#mask-50)"></path>
                </g>
                <g id="Group-54" transform="translate(39.000000, 16.000000)">
                    <mask id="mask-53" fill="white">
                        <use xlink:href="#path-52"></use>
                    </mask>
                    <g id="Clip-53"></g>
                    <path d="M0.284,2.1518 C1.91333333,4.7187 2.93133333,7.7847 2.93133333,11.0642 C2.93133333,11.8482 2.864,12.6329 2.796,13.4169 L5.17266667,13.916 C5.308,12.9885 5.376,11.991 5.376,11.0642 C5.376,7.1428 4.22133333,3.5063 2.18533333,0.5838 L0.284,2.1518 Z" id="Fill-52" fill="url(#linearGradient-54)" mask="url(#mask-53)"></path>
                </g>
                <g id="Group-57" transform="translate(33.000000, 31.000000)">
                    <mask id="mask-56" fill="white">
                        <use xlink:href="#path-55"></use>
                    </mask>
                    <g id="Clip-56"></g>
                    <path d="M0.6813125,9.43129412 L1.80125,11.7324706 C5.8623125,9.43129412 9.013125,5.47694118 10.3434375,0.804705882 L7.8230625,0.228705882 C6.7024375,4.18376471 4.1119375,7.41882353 0.6813125,9.43129412" id="Fill-55" fill="url(#linearGradient-57)" mask="url(#mask-56)"></path>
                </g>
                <g id="Group-60" transform="translate(9.000000, 31.000000)">
                    <mask id="mask-59" fill="white">
                        <use xlink:href="#path-58"></use>
                    </mask>
                    <g id="Clip-59"></g>
                    <path d="M0.0264285714,1.02 C1.48142857,5.62094118 4.68214286,9.50329412 8.90214286,11.8044706 L9.99285714,9.50329412 C6.57428571,7.49011765 3.80928571,4.32705882 2.57214286,0.444705882 L0.0264285714,1.02 Z" id="Fill-58" fill="url(#linearGradient-60)" mask="url(#mask-59)"></path>
                </g>
                <g id="Group-63" transform="translate(19.000000, 41.000000)">
                    <mask id="mask-62" fill="white">
                        <use xlink:href="#path-61"></use>
                    </mask>
                    <g id="Clip-62"></g>
                    <path d="M6.993,1.47533333 C4.9973,1.47533333 3.143,1.136 1.3608,0.457333333 L0.2919,2.69733333 C2.359,3.44466667 4.6403,3.92 6.993,3.92 C9.4171,3.92 11.6984,3.44466667 13.8376,2.63 L12.6973,0.457333333 C10.9144,1.136 8.9894,1.47533333 6.993,1.47533333" id="Fill-61" fill="url(#linearGradient-63)" mask="url(#mask-62)"></path>
                </g>
                <g id="Group-66" transform="translate(27.000000, 13.000000)">
                    <mask id="mask-65" fill="white">
                        <use xlink:href="#path-64"></use>
                    </mask>
                    <g id="Clip-65"></g>
                    <path d="M0.358615385,3.6687 C2.75607692,3.8829 4.94238462,4.9518 6.56376923,6.6633 L8.96053846,4.7383 C6.77492308,2.3856 3.74330769,0.8176 0.358615385,0.6034 L0.358615385,3.6687 Z" id="Fill-64" fill="url(#linearGradient-66)" mask="url(#mask-65)"></path>
                </g>
                <g id="Group-69" transform="translate(16.000000, 13.000000)">
                    <mask id="mask-68" fill="white">
                        <use xlink:href="#path-67"></use>
                    </mask>
                    <g id="Clip-68"></g>
                    <path d="M0.522142857,5.0239 L2.99571429,6.9482 C4.66857143,5.0946 6.92357143,3.9543 9.47071429,3.6687 L9.47071429,0.6034 C5.90571429,0.8883 2.77714286,2.5284 0.522142857,5.0239" id="Fill-67" fill="url(#linearGradient-69)" mask="url(#mask-68)"></path>
                </g>
                <g id="Group-72" transform="translate(12.000000, 19.000000)">
                    <mask id="mask-71" fill="white">
                        <use xlink:href="#path-70"></use>
                    </mask>
                    <g id="Clip-71"></g>
                    <path d="M0.6315,7.64571429 C0.6315,8.44571429 0.708,9.17285714 0.7845,9.82857143 L3.993,9.10071429 C3.9165,8.66428571 3.9165,8.155 3.9165,7.71857143 C3.9165,5.75428571 4.527,3.935 5.4435,2.335 L2.847,0.370714286 C1.47225,2.48071429 0.6315,4.95428571 0.6315,7.64571429" id="Fill-70" fill="url(#linearGradient-72)" mask="url(#mask-71)"></path>
                </g>
                <g id="Group-75" transform="translate(13.000000, 30.000000)">
                    <mask id="mask-74" fill="white">
                        <use xlink:href="#path-73"></use>
                    </mask>
                    <g id="Clip-74"></g>
                    <path d="M0.574,1.32715385 C1.52466667,4.43007692 3.62933333,7.03869231 6.278,8.59015385 L7.5,5.84030769 C5.666,4.64123077 4.172,2.80730769 3.426,0.621692308 L0.574,1.32715385 Z" id="Fill-73" fill="url(#linearGradient-75)" mask="url(#mask-74)"></path>
                </g>
                <g id="Group-78" transform="translate(31.000000, 30.000000)">
                    <mask id="mask-77" fill="white">
                        <use xlink:href="#path-76"></use>
                    </mask>
                    <g id="Clip-77"></g>
                    <path d="M0.419333333,5.84030769 L1.70933333,8.59015385 C4.42533333,6.96807692 6.53066667,4.28884615 7.48133333,1.18592308 L4.56133333,0.481153846 C3.814,2.73738462 2.32066667,4.64123077 0.419333333,5.84030769" id="Fill-76" fill="url(#linearGradient-78)" mask="url(#mask-77)"></path>
                </g>
                <g id="Group-81" transform="translate(21.000000, 36.000000)">
                    <mask id="mask-80" fill="white">
                        <use xlink:href="#path-79"></use>
                    </mask>
                    <g id="Clip-80"></g>
                    <path d="M4.99285714,1.04933333 C3.82928571,1.04933333 2.665,0.846 1.57357143,0.506 L0.264285714,3.154 C1.71928571,3.62933333 3.32,3.96933333 4.99285714,3.96933333 C6.66642857,3.96933333 8.26714286,3.69733333 9.79428571,3.154 L8.41214286,0.506 C7.32142857,0.846 6.15714286,1.04933333 4.99285714,1.04933333" id="Fill-79" fill="url(#linearGradient-81)" mask="url(#mask-80)"></path>
                </g>
                <g id="Group-84" transform="translate(35.000000, 19.000000)">
                    <mask id="mask-83" fill="white">
                        <use xlink:href="#path-82"></use>
                    </mask>
                    <g id="Clip-83"></g>
                    <path d="M0.312,2.04357143 C1.3815,3.79 2.06925,5.68142857 2.06925,7.71857143 C2.06925,8.155 2.06925,8.59142857 1.992,8.955 L5.20125,9.61 C5.27775,8.955 5.3535,8.37357143 5.3535,7.71857143 C5.3535,4.88142857 4.437,2.26214286 2.9085,0.08 L0.312,2.04357143 Z" id="Fill-82" fill="url(#linearGradient-84)" mask="url(#mask-83)"></path>
                </g>
                <g id="Group-119" transform="translate(23.000000, 12.000000)">
                    <path d="M3,12 C4.65708275,12 6,13.3429173 6,15 C6,16.6570827 4.65708275,18 3,18 C1.34361851,18 0,16.6570827 0,15 C0,13.3429173 1.34361851,12 3,12" id="Fill-85" fill="#00B2B6"></path>
                    <path d="M54.4132641,22.7267539 L54.4132641,19.9231286 C53.1154118,22.1111111 50.8071749,23 48.499646,23 C44.1005428,23 41,20.4018127 41,16.094327 L41,7 L42.6582488,7 L42.6582488,16.0258476 C42.6582488,19.5814032 44.9657777,21.4961396 48.5718669,21.4276603 C51.9612934,21.4276603 54.3410432,18.9657603 54.3410432,15.6841222 L54.3410432,7 L56,7 L56,22.7267539 L54.4132641,22.7267539 Z" id="Fill-87" fill="#091B3B"></path>
                    <path d="M61.4866658,7.13813534 L61.554332,9.96584705 C62.5003317,7.82813492 64.7299987,7 66.6890009,7 C67.8379992,7 68.9869975,7.27627068 70,7.89720259 L69.3240016,9.20745694 C68.5133342,8.72466037 67.5679979,8.44838969 66.6890009,8.44838969 C63.7839989,8.44838969 61.554332,10.8623725 61.554332,13.7591519 L61.554332,23 L60,23 L60,7.13813534 L61.4866658,7.13813534 Z" id="Fill-89" fill="#091B3B"></path>
                    <path d="M73.5796393,14.6810409 C73.5796393,18.6661792 76.3263105,21.4625026 80.034384,21.4625026 C83.6049216,21.4625026 86.4891286,19.1555701 86.4891286,14.751052 C86.4891286,10.2071981 83.6049216,7.97027664 80.034384,7.97027664 C76.3950784,7.97027664 73.5796393,10.696589 73.5796393,14.6810409 Z M73.5796393,0 L73.5796393,10.2071981 C74.884207,7.62022143 77.4252486,6.43209287 80.1031519,6.43209287 C84.497556,6.43209287 88,9.43776299 88,14.6810409 C88,19.9943299 84.497556,23 80.1031519,23 C77.4252486,23 74.8154391,21.6725357 73.5108714,19.2248948 L73.5108714,22.7899669 L72,22.7899669 L72,0 L73.5796393,0 Z" id="Fill-91" fill="#091B3B"></path>
                    <path d="M93.671184,14.0338056 C93.671184,17.9499544 96.7225392,20.5152042 100.5,20.5152042 C109.798859,20.5152042 109.798859,7.55240699 100.5,7.55240699 C96.7225392,7.55240699 93.671184,10.1183197 93.671184,14.0338056 Z M109,6.26978209 L109,21.7302179 L107.328816,21.7302179 L107.328816,18.4225702 C105.730385,20.8525976 103.187589,22 100.5,22 C95.8509272,22 92,18.7593007 92,13.9661944 C92,9.24069931 95.8509272,6 100.5,6 C103.187589,6 105.948645,7.14740244 107.328816,9.57809263 L107.328816,6.20283371 L109,6.26978209 Z" id="Fill-93" fill="#091B3B"></path>
                    <path d="M114.586736,6.27324606 L114.586736,9.07687143 C115.884588,6.88888889 118.192825,6 120.500354,6 C124.899457,6 128,8.59818731 128,12.905673 L128,21.932192 L126.341751,21.932192 L126.341751,12.905673 C126.341751,9.35011749 124.033514,7.435381 120.428133,7.50386036 C117.038707,7.50386036 114.658957,9.96576032 114.658957,13.2480698 L114.658957,22 L113,22 L113,6.27324606 L114.586736,6.27324606 Z" id="Fill-95" fill="#091B3B"></path>
                    <path d="M153.328816,15.0341356 C153.328816,11.0512034 150.277461,8.41845147 146.5,8.41845147 C142.721826,8.41845147 139.671184,11.0512034 139.671184,15.0341356 C139.671184,19.0170678 142.721826,21.4469945 146.5,21.4469945 C150.277461,21.4469945 153.328816,19.0170678 153.328816,15.0341356 M138,15.0341356 C138,10.1053482 141.778174,7 146.5,7 C151.221826,7 155,10.1053482 155,15.0341356 C155,19.9622602 151.221826,23 146.5,23 C141.778174,22.9330544 138,19.9622602 138,15.0341356" id="Fill-97" fill="#091B3B"></path>
                    <path d="M159.579032,14.6810409 C159.579032,18.6661792 162.325819,21.4625026 166.034048,21.4625026 C169.605411,21.4625026 172.489065,19.1555701 172.489065,14.751052 C172.489065,10.2065117 169.604736,7.96959026 166.034048,7.96959026 C162.395264,7.96959026 159.579032,10.6959026 159.579032,14.6810409 Z M159.579032,0 L159.579032,10.2065117 C160.884329,7.62022143 163.424803,6.43140649 166.102819,6.43140649 C170.497408,6.43140649 174,9.43776299 174,14.751052 C174,20.0643409 170.497408,23 166.102819,23 C163.424803,23 160.815558,21.6018383 159.510261,19.2248948 L159.510261,22.7899669 L158,22.7899669 L158,0 L159.579032,0 Z" id="Fill-99" fill="#091B3B"></path>
                    <path d="M190.265061,10.3591307 C188.6054,8.9308151 186.945738,8.64543246 185.07003,8.64543246 C182.473223,8.64543246 180.020211,9.57380252 180.092463,11.6444043 C180.164006,13.8587492 183.049819,14.2871737 185.14299,14.6440773 C188.100347,15.1440228 192.140061,15.6439683 191.996266,19.4289695 C191.924014,23.0709288 188.100347,24 185.214534,24 C182.32872,24 179.442907,22.928588 178,20.7149443 L179.226152,19.6435324 C180.597515,21.5717934 183.049819,22.4286425 185.286785,22.4286425 C187.306288,22.4286425 190.337313,21.928697 190.481108,19.2866288 C190.553359,16.9299432 187.812049,16.4299977 185.07003,16.0008719 C181.823667,15.5009264 178.649556,14.8586402 178.649556,11.5735845 C178.649556,8.35934864 181.895919,6.93103308 185.214534,7.00255404 C187.595294,7.00255404 189.760008,7.64554145 191.34671,9.21689892 L190.265061,10.3591307 Z" id="Fill-101" fill="#091B3B"></path>
                    <path d="M208.549863,14.4573184 C208.549863,10.592878 205.916616,8.4915968 202.105857,8.4915968 C198.849501,8.4915968 196.008778,10.6607686 195.663211,14.4573184 L208.549863,14.4573184 Z M194,15.0676683 C194,10.3898717 197.602603,7 202.105857,7 C206.60911,7 210.558641,9.71163112 209.934852,15.7452433 L195.593145,15.7452433 C195.940072,19.4060119 198.780796,21.5072931 202.037151,21.5072931 C204.115315,21.5072931 206.60911,20.6939368 207.787303,19.135115 L208.89611,20.0163619 C207.37167,21.9818618 204.600333,22.9988899 202.037151,22.9988899 C197.602603,23.0667805 194,20.0163619 194,15.0676683 Z" id="Fill-103" fill="#091B3B"></path>
                    <path d="M215.486101,7.13813534 L215.553772,9.96584705 C216.499171,7.82813492 218.729649,7 220.689445,7 C221.837856,7 222.98693,7.27627068 224,7.89652546 L223.323957,9.2067798 C222.513899,8.72398324 221.567837,8.44838969 220.689445,8.44838969 C217.783587,8.44838969 215.553772,10.8623725 215.553772,13.7584748 L215.553772,23 L214,23 L214,7.13813534 L215.486101,7.13813534 Z" id="Fill-105" fill="#091B3B"></path>
                    <polygon id="Fill-107" fill="#091B3B" points="227 7 228.728498 7 234.46505 21.182816 240.271502 7 242 7 235.363571 23 233.635751 23"></polygon>
                    <path d="M245.64075,14.9324375 C245.64075,18.8643758 248.512063,21.4404044 252.067469,21.4404044 C260.819704,21.4404044 260.819704,8.42380497 252.067469,8.42380497 C248.512063,8.4917003 245.64075,11.0677289 245.64075,14.9324375 Z M260,7.20368598 L260,22.796314 L258.427055,22.796314 L258.427055,19.4747681 C256.922586,21.915006 254.529266,23 251.999664,23 C247.623212,23 244,19.7456837 244,15.0003328 C244,10.2543163 247.623212,7 251.999664,7 C254.529266,7 257.127344,8.1528893 258.427055,10.5931273 L258.427055,7.20368598 L260,7.20368598 Z" id="Fill-109" fill="#091B3B"></path>
                    <path d="M268.044963,2 L268.044963,6.78234665 L273.509537,6.78234665 L273.509537,8.09905706 L268.044963,8.09905706 L268.044963,17.8018859 C268.044963,19.9501312 268.464574,21.4757461 270.987055,21.4757461 C271.757489,21.4757461 272.668939,21.1974337 273.439372,20.8517546 L274,22.1684651 C273.019073,22.6536405 271.967982,23 270.987055,23 C267.554499,23 266.433244,20.9905706 266.433244,17.8712939 L266.433244,8.16846505 L263,8.16846505 L263,6.85175464 L266.433244,6.85175464 L266.433244,2.20822397 L268.044963,2 Z" id="Fill-111" fill="#091B3B"></path>
                    <path d="M290.427055,15.0341356 C290.427055,11.0512034 287.555742,8.41845147 284.000336,8.41845147 C280.444258,8.41845147 277.572945,11.0512034 277.572945,15.0341356 C277.572945,19.0170678 280.444258,21.4469945 284.000336,21.4469945 C287.555742,21.4469945 290.427055,19.0170678 290.427055,15.0341356 M276,15.0341356 C276,10.1053482 279.555406,7 284.000336,7 C288.444594,7 292,10.1053482 292,15.0341356 C292,19.9622602 288.444594,23 284.000336,23 C279.555406,22.9330544 276,19.9622602 276,15.0341356" id="Fill-113" fill="#091B3B"></path>
                    <path d="M297.486666,7.13813534 L297.554332,9.96584705 C298.499668,7.82813492 300.729999,7 302.689001,7 C303.837336,7 304.986334,7.27627068 306,7.89652546 L305.324002,9.2067798 C304.513334,8.72398324 303.567334,8.44838969 302.689001,8.44838969 C299.783999,8.44838969 297.554332,10.8623725 297.554332,13.7584748 L297.554332,23 L296,23 L296,7.13813534 L297.486666,7.13813534 Z" id="Fill-115" fill="#091B3B"></path>
                    <polygon id="Fill-117" fill="#091B3B" points="324 7 314.140822 30 312.450954 30 315.479441 22.9938975 309 7 310.689868 7 314.492763 16.554092 316.39421 21.295701 318.225131 16.554092 322.310132 7"></polygon>
                </g>
            </g>
        </g>
    </g>
</svg>