<svg width="55" height="56" viewBox="0 0 55 56" xmlns="http://www.w3.org/2000/svg"><title>NTT_Icons-listing-categories_Food-drink</title><g fill="none" fill-rule="evenodd"><path d="M49.75 23.66a9.09 9.09 0 0 0-3.31-.33h-1.32v10.32H48a5.31 5.31 0 0 0 1-.1 5.21 5.21 0 0 0 4.37-4.84 5.13 5.13 0 0 0-3.62-5.05z"/><path d="M54.63 27.47A7.06 7.06 0 0 0 48 21.88c-1.24-.05-2.18 0-3.44 0l-.31.36a3.25 3.25 0 0 1-1.07 1.95v9.71a17.86 17.86 0 0 1-3.11 10.63 20.14 20.14 0 0 1-13 8.55 21.24 21.24 0 0 1-16.18-2.88 18.54 18.54 0 0 1-8.54-12A18 18 0 0 1 2 34.64V24.17a3.4 3.4 0 0 1-1.14-1.78l-.58-.55V34.5a19.7 19.7 0 0 0 8.41 16.09 22.59 22.59 0 0 0 13.63 4.48 26 26 0 0 0 3.6-.25A22.26 22.26 0 0 0 38.32 49a19.68 19.68 0 0 0 6.23-11.39c.1-.61.16-1.24.23-1.88v-.43h1.38a16 16 0 0 0 2.38-.1 7.29 7.29 0 0 0 4.77-2.7 6.39 6.39 0 0 0 1.32-5.03zm-6 6.14a5.2 5.2 0 0 1-.95.1h-2.87v-10.3h1.33a8.83 8.83 0 0 1 3.3.32 5.11 5.11 0 0 1 3.56 5 5.2 5.2 0 0 1-4.34 4.88h-.03z" fill="#000" fill-rule="nonzero"/><path d="M2.21 24.1c3.06 2.93 12 4.62 20.59 4.62S40.38 27 43.42 24.08l.63-.76.45-1.2a2.64 2.64 0 0 0 0-.28c0-4.31-11-6.88-21.72-6.88-10.72 0-21.69 2.57-21.69 6.88a2.61 2.61 0 0 0 0 .48l.41 1 .71.78zM17.42 1.16s-3.44 3-.75 5.67c0 0 4.1 3 .1 5.81" fill="#000" fill-rule="nonzero"/><path d="M17.7 13.79l-1.86-2.3c.773-.54 1.16-1.06 1.16-1.56 0-.83-.93-1.71-1.26-2a4.65 4.65 0 0 1-1.64-3.51A6.71 6.71 0 0 1 16.37.1l2.1 2.12-1-1.06 1.06 1.05c-.38.34-2.17 2.06-.75 3.57a5.77 5.77 0 0 1 2.33 4.16 4.75 4.75 0 0 1-2.41 3.85zM22.76 1.16s-3.44 3-.75 5.67c0 0 3.7 2.57.1 5.81" fill="#000" fill-rule="nonzero"/><path d="M23.18 13.68L21 11.6a2.64 2.64 0 0 0 1.1-1.94A2.63 2.63 0 0 0 21.08 8l-.19-.16a4.57 4.57 0 0 1-1.45-3.41A6.71 6.71 0 0 1 21.71.1l2.1 2.12-1-1.06 1.06 1.05c-.38.34-2.16 2.06-.76 3.56a5.41 5.41 0 0 1 2.16 3.69 5.22 5.22 0 0 1-2.09 4.22zM28.87 1.16s-3.45 3-.76 5.67c0 0 3.85 2.65.1 5.81" fill="#000" fill-rule="nonzero"/><path d="M29.24 13.71l-2.06-2.15a2.47 2.47 0 0 0 1.13-1.85A2.82 2.82 0 0 0 27.2 8l-.2-.17a4.57 4.57 0 0 1-1.45-3.41A6.76 6.76 0 0 1 27.82.1l2.1 2.12-1.05-1.06 1.05 1.05c-.37.34-2.15 2.06-.76 3.56a5.45 5.45 0 0 1 2.23 3.79 5.05 5.05 0 0 1-2.15 4.15zM16.54 35.83l-3.33 2.6a1.29 1.29 0 0 0-.53 1v5.35a1.4 1.4 0 0 0 1.45 1.35h6.68a1.4 1.4 0 0 0 1.45-1.35v-5.3a1.35 1.35 0 0 0-.51-1l-3.35-2.64a1.55 1.55 0 0 0-1.86-.01z" fill="#000" fill-rule="nonzero"/><path d="M17.47 37.34a.68.68 0 0 1-.7-.66v-9.06a.7.7 0 0 1 1.4 0v9.06a.68.68 0 0 1-.7.66z" fill="#000" fill-rule="nonzero"/></g></svg>