<svg width="55" height="55" viewBox="0 0 55 55" xmlns="http://www.w3.org/2000/svg"><title>NTT_Icons-listing-categories_Tranquility</title><g fill="#000" fill-rule="nonzero"><ellipse cx="47.49" cy="39.01" rx="2.25" ry="2.33"/><ellipse cx="46.9" cy="27.97" rx="2.15" ry="2.23"/><ellipse cx="51.67" cy="31.31" rx="2.25" ry="2.33"/><path d="M46.27 36.43A2.82 2.82 0 0 1 43.54 34a3 3 0 0 1 .46-2.14 2.73 2.73 0 0 1 1.83-1.18 2.8 2.8 0 0 1 3.17 2.4 2.94 2.94 0 0 1-.48 2.14 2.73 2.73 0 0 1-1.82 1.17 2.18 2.18 0 0 1-.43.04zm-.22-4.36a1.46 1.46 0 0 0-1 .62 1.52 1.52 0 0 0-.25 1.08 1.45 1.45 0 0 0 2.63.62 1.53 1.53 0 0 0 .24-1.08 1.46 1.46 0 0 0-1.62-1.24z"/><ellipse cx="41.81" cy="37.02" rx="2.25" ry="2.33"/><ellipse cx="41.37" cy="30.3" rx="2.25" ry="2.33"/><path d="M54.22 55a.69.69 0 0 1-.66-.7V41.36a4.33 4.33 0 0 0-2.18-3.82l-3.51-1.93a.73.73 0 0 1-.28-1 .64.64 0 0 1 .89-.31L52 36.28a5.74 5.74 0 0 1 2.9 5.08V54.3a.69.69 0 0 1-.68.7zM1 48.34a.93.93 0 0 1-.9-1v-33a.93.93 0 0 1 .9-1 .94.94 0 0 1 .9 1v33a.94.94 0 0 1-.9 1z"/><path d="M15.75 48.34a.93.93 0 0 1-.9-1V35.33a5.19 5.19 0 0 0-5.1-5.26H1.59a1 1 0 0 1 0-1.92h8.16a7.05 7.05 0 0 1 6.9 7.18v12.05a.94.94 0 0 1-.9.96zM20.4 34.02l-.12-5.35M20.4 35a.94.94 0 0 1-.9-.94l-.11-5.35a.92.92 0 0 1 .87-1 .88.88 0 0 1 .92.93L21.3 34a.94.94 0 0 1-.88 1h-.02zM20.34 16.71a.94.94 0 0 1-.9-1V1.06a.9.9 0 1 1 1.8 0v14.69a.93.93 0 0 1-.9.96z"/><path d="M34.51 35a.93.93 0 0 1-.9-1V22a5.19 5.19 0 0 0-5.1-5.26h-8.17a1 1 0 0 1 0-1.92h8.17A7 7 0 0 1 35.4 22v12a.93.93 0 0 1-.89 1z"/><path d="M1 30.07a.87.87 0 0 1-.76-.44 1 1 0 0 1 .27-1.32l19.34-13.37a.88.88 0 0 1 1.25.29 1 1 0 0 1-.27 1.32L1.51 29.92a.88.88 0 0 1-.51.15zM1 24.32a.27.27 0 0 1-.25-.15.33.33 0 0 1 .09-.44l19.34-13.36a.28.28 0 0 1 .41.09.33.33 0 0 1-.09.44L1.18 24.27a.33.33 0 0 1-.18.05zM8.2 29.43a.3.3 0 0 1-.2-.14.34.34 0 0 1 0-.45l19.36-13.36a.28.28 0 0 1 .42.1.33.33 0 0 1-.09.44L8.36 29.38a.24.24 0 0 1-.16.05zM13 29.43a.29.29 0 0 1-.25-.14.34.34 0 0 1 .09-.45l18.28-12.65a.29.29 0 0 1 .42.1.33.33 0 0 1-.09.44l-18.3 12.65a.24.24 0 0 1-.15.05zM1 19.2a.29.29 0 0 1-.25-.14.33.33 0 0 1 .09-.44L20.18 5.25a.29.29 0 0 1 .41.1.33.33 0 0 1-.09.44L1.18 19.15a.25.25 0 0 1-.18.05zM15.19 33.13a.91.91 0 0 1-.76-.44 1 1 0 0 1 .27-1.33l18.74-12.95a.86.86 0 0 1 1.24.28 1 1 0 0 1-.27 1.31L15.68 33a.82.82 0 0 1-.49.13zM1 15.28a.87.87 0 0 1-.76-.44 1 1 0 0 1 .27-1.32L19.85.15a.88.88 0 0 1 1.25.29 1 1 0 0 1-.27 1.32L1.51 15.13a.88.88 0 0 1-.51.15z"/></g></svg>