<svg width="55" height="55" viewBox="0 0 55 55" xmlns="http://www.w3.org/2000/svg" xmlns:xlink="http://www.w3.org/1999/xlink"><title>Icons/ILI/listing-categories/events</title><defs><path id="a" d="M0 .868h50.335v10.508H0z"/><path id="c" d="M.26 48.395h50.79V.895H.26z"/></defs><g transform="translate(2 2)" fill="none" fill-rule="evenodd"><mask id="b" fill="#fff"><use xlink:href="#a"/></mask><path d="M50.335 4.668s-7.49-3.8-25.09-3.8S0 4.76 0 4.76v2.687c0 2.17 1.71 3.929 3.822 3.929 1.626 0 3.004-1.047 3.557-2.517.167.443.406.866.737 1.239a3.75 3.75 0 0 0 5.4.25 3.924 3.924 0 0 0 1.091-1.84c.545 1.989 2.5 3.227 4.488 2.776 1.362-.31 2.378-1.334 2.79-2.602.505 1.561 1.921 2.694 3.61 2.694 1.623 0 3-1.044 3.556-2.511.186.495.468.96.857 1.36a3.748 3.748 0 0 0 5.405 0c.326-.336.568-.721.752-1.128.607 1.342 1.922 2.279 3.458 2.279 1.623 0 3.002-1.044 3.556-2.511.186.495.468.96.857 1.36a3.748 3.748 0 0 0 5.405 0c.63-.646.928-1.735.983-2.778h.011V4.668z" fill="#000" mask="url(#b)"/><path d="M43.247 19.257c-.213-.015-.41-.015-.6-.046a.439.439 0 0 1-.359-.404.432.432 0 0 1 .225-.441.75.75 0 0 1 .296-.072c.134-.013.27-.003.425-.003.01-.192.009-.376.032-.556.028-.218.217-.37.442-.385a.48.48 0 0 1 .476.324c.023.074.03.153.034.23.005.118.001.239.001.387.15 0 .287-.002.426 0 .31.005.524.187.532.452.01.272-.2.478-.514.496-.14.008-.279.002-.445.002 0 .16.007.307-.001.454a.494.494 0 0 1-.417.48.475.475 0 0 1-.504-.28.994.994 0 0 1-.047-.28c-.007-.118-.002-.236-.002-.358M20.346 28.904h-.524c-.39-.003-.652-.238-.651-.58 0-.343.257-.568.654-.573.164-.002.328 0 .521 0 0-.186-.003-.352 0-.518.01-.378.237-.621.58-.629.36-.007.595.227.61.616.006.168 0 .336 0 .531.205 0 .382-.003.56 0 .36.007.618.24.626.563.008.321-.266.583-.624.59-.179.003-.357 0-.561 0 0 .19.005.356-.001.522-.014.392-.247.634-.599.63-.351-.002-.582-.252-.59-.642-.004-.16 0-.32 0-.51M27.085 15.358h-.718c-.535-.005-.893-.326-.892-.796 0-.468.353-.776.897-.784.225-.003.449 0 .713 0 0-.255-.004-.483 0-.71.013-.516.324-.852.794-.86.494-.01.815.31.836.843.01.23 0 .46 0 .727.28 0 .524-.004.768 0 .493.01.845.329.857.77.012.442-.364.8-.856.809-.244.004-.489.001-.767.001 0 .258.006.488-.002.716-.019.536-.338.867-.822.863-.48-.004-.796-.347-.808-.88-.004-.22 0-.44 0-.699" fill="#000"/><path d="M9.934 21.708l-.123-.123" stroke="#000" stroke-width=".228" stroke-linecap="round"/><path d="M9.295 21.051l-2.732-2.674" stroke="#000" stroke-width=".228" stroke-linecap="round" stroke-dasharray="0.325,0.455"/><path d="M6.008 18.763l-.121-.121M9.934 18.642l-.123.121" stroke="#000" stroke-width=".228" stroke-linecap="round"/><path d="M9.295 18.377l-2.732 2.674" stroke="#000" stroke-width=".228" stroke-linecap="round" stroke-dasharray="0.325,0.455"/><path d="M6.008 21.585l-.121.123" stroke="#000" stroke-width=".228" stroke-linecap="round"/><path d="M35.425 35.425l-.104-.104" stroke="#000" stroke-width=".5" stroke-linecap="round"/><path d="M34.64 34.548l-2.861-2.802" stroke="#000" stroke-width=".5" stroke-linecap="round" stroke-dasharray="0.312,0.51"/><path d="M31.5 31.5l-.104-.104M35.425 31.396l-.104.104" stroke="#000" stroke-width=".5" stroke-linecap="round"/><path d="M34.64 31.746l-2.861 2.801" stroke="#000" stroke-width=".5" stroke-linecap="round" stroke-dasharray="0.312,0.51"/><path d="M31.5 35.32l-.104.105" stroke="#000" stroke-width=".5" stroke-linecap="round"/><path d="M7.614 47.642V45.07c0-2.805 2.343-5.098 5.208-5.098 2.864 0 5.207 2.293 5.207 5.098v2.57M17.772 36.717c0-1.61-1.333-2.914-2.978-2.914-1.644 0-2.978 1.305-2.978 2.914 0 1.61 1.334 2.916 2.978 2.916 1.645 0 2.978-1.305 2.978-2.916M20.221 47.642V45.07c0-2.805 2.343-5.098 5.209-5.098 2.864 0 5.206 2.293 5.206 5.098v2.57M28.279 36.717c0-1.61-1.333-2.914-2.978-2.914-1.645 0-2.978 1.305-2.978 2.914 0 1.61 1.333 2.916 2.978 2.916 1.645 0 2.978-1.305 2.978-2.916M32.83 47.642V45.07c0-2.805 2.342-5.098 5.207-5.098 2.864 0 5.207 2.293 5.207 5.098v2.57M38.785 36.717c0-1.61-1.334-2.914-2.978-2.914-1.645 0-2.978 1.305-2.978 2.914 0 1.61 1.333 2.916 2.978 2.916 1.644 0 2.978-1.305 2.978-2.916" fill="#000"/><path d="M16.092 30.192c-.944.1-1.022-.594-1.966-.492-.943.1-.865.796-1.809.896-.944.101-1.022-.594-1.967-.492-.947.1-.87.796-1.816.897-.947.101-1.024-.594-1.97-.492M38.252 18.403c-.386-.47.172-.908-.214-1.378-.387-.472-.945-.035-1.332-.507-.389-.473.17-.911-.22-1.384-.388-.475-.946-.037-1.335-.511-.389-.476.168-.913-.22-1.388M26.525 24.528H28.9M31.779 24.528h5.644M26.525 26.49h6.89M35.981 26.49h1.288M21.365 20.807h-6.732c-.254 0-1.156 1.468-1.39 1.405-.235-.062.198-1.656-.01-1.772a2.754 2.754 0 0 1-1.417-2.39c0-1.517 1.268-2.758 2.817-2.758h6.732c1.55 0 2.816 1.241 2.816 2.757 0 1.517-1.267 2.758-2.816 2.758z" stroke="#000" stroke-linecap="round" stroke-linejoin="round"/><mask id="d" fill="#fff"><use xlink:href="#c"/></mask><path stroke="#000" stroke-linecap="round" mask="url(#d)" d="M3.411 36.152h43.9V5.008h-43.9z"/><path stroke="#000" stroke-width=".5" stroke-linecap="round" mask="url(#d)" d="M24.424 37.852h1.706v-.964h-1.706z"/><path d="M42.285 28.767v-5.248s1.828 1.14 1.755 1.788M42.386 29.135c.117.398-.276.857-.878 1.029-.603.17-1.186-.013-1.303-.41-.118-.397.275-.858.877-1.029.603-.171 1.186.013 1.304.41z" stroke="#000" stroke-width=".75" stroke-linecap="round" stroke-linejoin="round" mask="url(#d)"/></g></svg>