<svg width="55" height="55" viewBox="0 0 55 55" xmlns="http://www.w3.org/2000/svg" xmlns:xlink="http://www.w3.org/1999/xlink"><title>Icons/ILI/listing-categories/food-drink</title><defs><path id="a" d="M.658.712h32.007v15.98H.658z"/></defs><g fill="none" fill-rule="evenodd"><path fill="#FFF" d="M1.324 16.534l2.292 31.428h19.017l2.519-31.428z"/><path stroke="#000" stroke-linecap="round" stroke-linejoin="round" d="M22.632 47.961H3.615l-2.29-31.427h23.827z"/><path fill="#000" d="M1.813 23.24l1.802 24.72h19.017l1.982-24.72z"/><path d="M19.67 26.64l-.596 6.435M18.677 37.347l-.596 6.434M8.156 43.781l-.596-6.434M7.164 33.074l-.597-6.434M13.213 43.781l-.07-6.462M13.095 33.101l-.071-6.461" stroke="#FFF" stroke-linecap="round" stroke-linejoin="round"/><path d="M23.504 14.53c-.225 0-.439.04-.646.097a4.581 4.581 0 0 0-4.335-3.101c-.73 0-1.42.175-2.032.48a6.154 6.154 0 0 0-5.875-4.318 6.148 6.148 0 0 0-5.983 4.734c-.123-.013-.244-.038-.371-.038A3.72 3.72 0 0 0 .54 16.102c0 .982.388 1.87 1.012 2.534h3.322v9.484c0 1.342 1.09 2.43 2.433 2.43a2.43 2.43 0 0 0 2.433-2.43v-9.484h15.52a2.417 2.417 0 0 0 .677-1.676c0-1.342-1.09-2.43-2.433-2.43" fill="#FFF"/><path d="M23.504 14.53c-.225 0-.439.04-.646.097a4.581 4.581 0 0 0-4.335-3.101c-.73 0-1.42.175-2.032.48a6.154 6.154 0 0 0-5.875-4.318 6.148 6.148 0 0 0-5.983 4.734c-.123-.013-.244-.038-.371-.038A3.72 3.72 0 0 0 .54 16.102c0 .982.388 1.87 1.012 2.534h3.322v9.484c0 1.342 1.09 2.43 2.433 2.43a2.43 2.43 0 0 0 2.433-2.43v-9.484h15.52a2.417 2.417 0 0 0 .677-1.676c0-1.342-1.09-2.43-2.433-2.43zM39.656 30.884c0-4.634-3.763-8.391-8.403-8.391-4.642 0-8.405 3.757-8.405 8.391" stroke="#000" stroke-linecap="round" stroke-linejoin="round"/><path d="M25.46 30.884a5.788 5.788 0 0 1 5.793-5.784 5.788 5.788 0 0 1 5.79 5.784" stroke="#000" stroke-linecap="round" stroke-linejoin="round"/><path d="M34.47 30.884a3.216 3.216 0 0 0-3.217-3.213 3.217 3.217 0 0 0-3.22 3.213M53.212 30.884a6.157 6.157 0 0 0-6.16-6.152 6.157 6.157 0 0 0-6.163 6.152" stroke="#000" stroke-linecap="round" stroke-linejoin="round"/><path d="M42.804 30.884a4.244 4.244 0 0 1 4.247-4.24 4.244 4.244 0 0 1 4.247 4.24" stroke="#000" stroke-linecap="round" stroke-linejoin="round"/><path d="M49.41 30.884c0-1.3-1.055-2.356-2.359-2.356a2.359 2.359 0 0 0-2.36 2.356" stroke="#000" stroke-linecap="round" stroke-linejoin="round"/><g transform="translate(21.569 31.77)"><mask id="b" fill="#fff"><use xlink:href="#a"/></mask><path d="M27.638 3.696l-2.467.733-1.713-.723-1.854.727-2.017-.736-2.136.736-1.783-.73-2 .73-1.755-.727-1.855.739-1.37-.724-1.53.724-1.68-.735-1.54.662-.315-.732 1.858-.8 1.665.728 1.561-.739 1.398.738 1.814-.723 1.767.734 1.999-.732 1.791.734 2.118-.728 2 .728 1.875-.736 1.748.739 2.456-.729 2.013.78-.288.744-1.76-.682zM.658.712c0 8.825 7.165 15.98 16.004 15.98 8.838 0 16.003-7.155 16.003-15.98H.658z" fill="#000" mask="url(#b)"/></g></g></svg>