<svg width="55" height="55" viewBox="0 0 55 55" xmlns="http://www.w3.org/2000/svg"><title>Icons/ILI/listing-categories/culture</title><g fill="none" fill-rule="evenodd"><path d="M5.258 29.918h30.978V4.116H5.258v25.802zm2.166-2.08H34.07V6.199H7.424v21.64z" fill="#000"/><path fill="#FFF" d="M24.188 49.035h24.7V11.542h-24.7z"/><g fill="#000"><path d="M25.27 47.995h22.534V12.582H25.27v35.413zm23.618 2.08H24.187c-.598 0-1.083-.466-1.083-1.04V11.542c0-.575.485-1.04 1.083-1.04h24.701c.598 0 1.083.465 1.083 1.04v37.493c0 .574-.485 1.04-1.083 1.04z"/><path d="M27.808 40.834c-.23 0-.462-.07-.66-.215a1.012 1.012 0 0 1-.198-1.458c.52-.65 1.106-.806 1.458-.9.234-.063.243-.066.323-.165.078-.099.078-.107.081-.34.004-.35.01-.937.53-1.586.52-.648 1.106-.805 1.458-.9.237-.063.244-.066.32-.161.076-.096.078-.102.08-.337.003-.35.01-.936.527-1.584.52-.648 1.107-.805 1.458-.898.237-.064.244-.067.32-.163a1.112 1.112 0 0 1 1.519-.19c.474.35.563 1.003.198 1.458-.519.648-1.106.805-1.458.899-.237.063-.243.066-.32.162-.075.093-.076.1-.078.335-.003.35-.009.936-.528 1.585-.518.648-1.106.805-1.458.9-.237.063-.244.066-.32.16-.079.1-.079.109-.082.343-.004.35-.01.936-.53 1.585-.52.648-1.106.806-1.458.9-.234.063-.243.065-.323.164a1.093 1.093 0 0 1-.859.406M43.065 45.647l-6.59-6.328h6.59z"/><path d="M37.783 39.84l4.74 4.552v-4.553h-4.74zm5.282 6.327a.554.554 0 0 1-.384-.153l-6.588-6.326a.504.504 0 0 1-.117-.567.542.542 0 0 1 .5-.322h6.589c.299 0 .541.233.541.52v6.328c0 .21-.132.4-.334.48a.553.553 0 0 1-.207.04zM27.02 24.78c-.598 0-1.083-.466-1.083-1.04 0-.574.485-1.04 1.083-1.04 3.12 0 5.903-2.006 6.77-4.879a6.52 6.52 0 0 0 .28-1.89c0-.575.484-1.04 1.082-1.04.599 0 1.083.465 1.083 1.04 0 .839-.122 1.67-.364 2.47-1.135 3.756-4.774 6.38-8.85 6.38M47.903 33.655c-4.784 0-8.674-3.737-8.674-8.33s3.89-8.33 8.674-8.33c.298 0 .541.233.541.52a.53.53 0 0 1-.541.52c-4.186 0-7.59 3.271-7.59 7.29 0 4.02 3.404 7.29 7.59 7.29.298 0 .541.233.541.52 0 .287-.243.52-.541.52M14.7 21.212h.01-.01zm1.918 5.57a.574.574 0 0 1-.084-.006c-2.049-.31-3.997-.702-5.307-2.074-.812-.849-1.207-1.943-1.433-2.69-1.106-3.65 1.074-6.466 3.595-8.965a.557.557 0 0 1 .766-.012c.215.2.22.529.012.736-2.65 2.628-4.231 4.985-3.333 7.95.312 1.03.69 1.754 1.19 2.278 1.023 1.07 2.66 1.434 4.412 1.709.487-.505.744-1.201.764-2.078-.477-.277-1.717-.914-2.362-1.246-.403-.207-.72-.37-.82-.427-.272-.152-.999-.558.604-3.78a.552.552 0 0 1 .722-.245.51.51 0 0 1 .256.692c-.502 1.009-.9 2.116-.907 2.505l.658.339c2.922 1.502 2.922 1.502 2.931 1.884.037 1.401-.413 2.542-1.305 3.299a.552.552 0 0 1-.36.131zM22.502 24.893c-.016 0-.033 0-.05-.002a.527.527 0 0 1-.49-.566 4.117 4.117 0 0 0-.025-1.013c-.022-.147-.058-.33-.14-.444-.173-.237-.64-.287-1.002-.287l-.191.001c-.527.002-1.122.01-1.654-.306a.508.508 0 0 1-.175-.715.557.557 0 0 1 .746-.169c.265.157.657.152 1.073.15l.202-.001c.911 0 1.529.24 1.887.73.216.294.287.632.326.894.062.415.073.838.032 1.256a.535.535 0 0 1-.539.472"/><path d="M16.506 7.855c-1.41 0-2.559 1.202-2.559 2.68 0 1.478 1.148 2.68 2.56 2.68 1.41 0 2.558-1.202 2.558-2.68 0-1.478-1.148-2.68-2.559-2.68m0 6.4c-2.008 0-3.642-1.668-3.642-3.72 0-2.052 1.634-3.72 3.642-3.72s3.642 1.668 3.642 3.72c0 2.052-1.634 3.72-3.642 3.72"/><path d="M21.472 22.235a.554.554 0 0 1-.229-.048.512.512 0 0 1-.26-.692c1.547-3.175-.007-6.989-1.81-9.29a.506.506 0 0 1 .109-.728.557.557 0 0 1 .758.103c1.98 2.53 3.673 6.763 1.922 10.356a.542.542 0 0 1-.49.3M18.516 23.4a.554.554 0 0 1-.168-.026.515.515 0 0 1-.347-.655c.162-.475.573-1.858.544-2.552-.038-.897-.25-1.81-.455-2.69a.52.52 0 0 1 .41-.621.543.543 0 0 1 .647.394c.216.927.439 1.884.48 2.875.042 1.005-.53 2.724-.597 2.917a.54.54 0 0 1-.514.358M11.838 29.96h-.007a.55.55 0 0 1-.39-.165c-1.072-1.105-1.45-2.488-1.58-3.453-.14-1.05-.084-2.175.183-3.649a.54.54 0 0 1 .626-.423c.295.05.492.32.44.602-.246 1.367-.301 2.395-.175 3.338.087.647.303 1.512.828 2.293a.546.546 0 0 1 .125-.038.536.536 0 0 1 .632.412c.063.332-.051.687-.296.927a.553.553 0 0 1-.386.156"/></g></g></svg>