<svg width="55" height="55" viewBox="0 0 55 55" xmlns="http://www.w3.org/2000/svg"><title>NTT_Icons-listing-categories_Culture</title><g fill="none" fill-rule="evenodd"><path d="M46.554 14.08l.53-.57c1.895-2.11 3.791-4.21 5.687-6.33a4.426 4.426 0 0 0 1.247-2.78A4.102 4.102 0 0 0 52.054.46a3.088 3.088 0 0 0-3.929.94c-2.288 2.79-4.528 5.6-6.747 8.38a.987.987 0 0 1-.605.513.967.967 0 0 1-.78-.103c-8.84-3.83-17.679-3.72-26.331.81A25.449 25.449 0 0 0 2.946 21.33 19.797 19.797 0 0 0 .275 33.38c.448 5.697 3.241 10.935 7.69 14.42a30.326 30.326 0 0 0 17.198 6.52c2.425.178 4.853-.31 7.032-1.41 2.327-1.18 3.133-3.63 2.092-6.36a11.79 11.79 0 0 0-.983-1.94c-.461-.74-.982-1.43-1.463-2.16a12.428 12.428 0 0 1-.56-1.18c.982.1 1.739.11 2.485.26a23.56 23.56 0 0 0 7.612.65 12.534 12.534 0 0 0 6.58-2.67c6.158-5.14 7.1-14.82 2.063-21.51-1.032-1.37-2.25-2.55-3.467-3.92z"/><path d="M46.554 14.08c1.217 1.37 2.435 2.55 3.467 3.92 5.038 6.69 4.095 16.37-2.112 21.51a12.534 12.534 0 0 1-6.58 2.67 23.56 23.56 0 0 1-7.612-.65c-.746-.15-1.522-.16-2.485-.26.166.403.353.797.56 1.18.471.73.982 1.42 1.463 2.16.386.614.715 1.264.982 1.94 1.042 2.73.236 5.18-2.091 6.36a13.415 13.415 0 0 1-7.033 1.41A30.327 30.327 0 0 1 7.965 47.8C3.516 44.315.723 39.077.275 33.38a19.797 19.797 0 0 1 2.671-12.05A25.449 25.449 0 0 1 13.662 11c8.672-4.53 17.472-4.64 26.33-.81a.967.967 0 0 0 .781.103.987.987 0 0 0 .605-.513c2.22-2.78 4.459-5.59 6.747-8.38a3.088 3.088 0 0 1 3.929-.94 4.102 4.102 0 0 1 1.964 3.94 4.426 4.426 0 0 1-1.238 2.78c-1.895 2.12-3.79 4.22-5.686 6.33l-.54.57zm-7.268-1.81c-.295-.14-.52-.27-.757-.37a27.852 27.852 0 0 0-8.534-2.11c-6.9-.648-13.789 1.35-19.32 5.6a22.497 22.497 0 0 0-7.14 9 16.696 16.696 0 0 0-1.414 9.18c.565 5.033 3.15 9.605 7.14 12.63a29.783 29.783 0 0 0 13.26 5.69c2.844.59 5.795.326 8.495-.76 1.964-.85 2.377-2.4 1.228-4.46-.177-.3-.383-.58-.58-.87-.599-.93-1.218-1.8-1.777-2.8-.983-1.81-.167-3.78 1.63-3.8 1.381.024 2.756.188 4.105.49 3.033.72 6.21.479 9.105-.69 3.84-1.68 6.54-6 6.649-10.83.118-5.67-2.613-9.35-6.266-12.43-.167.17-.305.3-.432.44-3.765 4.187-7.527 8.373-11.285 12.56-.37.44-.638.96-.786 1.52-.982 3.47-2.583 6.3-5.559 7.61-4.567 2-7.405-.7-8.84-5.25h2.496c1.026.07 2-.472 2.494-1.39.334-.56.658-1.12.982-1.69 1.11-2.16 2.416-4 4.675-4.52.276-.114.512-.309.678-.56 3.117-3.86 6.22-7.723 9.31-11.59.178-.17.295-.36.443-.6zm-2.947 10.07l.56-.58 8.28-9.17 6.295-7a2.025 2.025 0 0 0 .481-2.31c-.53-1.2-1.787-1.3-2.68-.19-4.584 5.7-9.168 11.41-13.75 17.13-.158.19-.286.41-.404.57l1.218 1.55zM21.391 34.82a3.705 3.705 0 0 0 3.929 1.36c3.398-.73 5.254-4.34 5.755-7.61a1.567 1.567 0 0 0-1.385-1.46c-1.964.24-2.946 1.83-3.86 3.62-1.03 2-2.14 3.83-4.439 4.09zm10.627-7.56l3.447-3.83-1.218-1.59L30.908 26l1.11 1.26z" fill="#000" fill-rule="nonzero"/><path d="M27.726 13c-.108 0-.442.06-.472 0l-.432.18c.253-.102.524-.15.796-.14 0 0 .069-.04.108-.04zM18.955 16.07zM17.148 15.2l-.088.24a5.111 5.111 0 0 1 1.886.62c-.57-.33-1.209-.56-1.798-.86z"/><path d="M7.287 36a3.225 3.225 0 0 0 0 4 5.044 5.044 0 0 0 4.096 2 4.946 4.946 0 0 0 4.155-2 3.216 3.216 0 0 0 0-3.86 5.29 5.29 0 0 0-4.093-2.065A5.284 5.284 0 0 0 7.287 36zM12.768 27.67a2.596 2.596 0 0 0 0-3.24 3.902 3.902 0 0 0-3.36-1.6 3.905 3.905 0 0 0-3.397 1.7 2.577 2.577 0 0 0 0 3.1A4.304 4.304 0 0 0 9.38 29.3a4.302 4.302 0 0 0 3.388-1.63zM19.574 19.63c.434-.416.674-1 .661-1.606a2.156 2.156 0 0 0-.73-1.574 3.602 3.602 0 0 0-.55-.38 5.111 5.111 0 0 0-1.885-.62 3.22 3.22 0 0 0-2.524 1 2.28 2.28 0 0 0 0 3.16 3.578 3.578 0 0 0 5.028.02zM30.083 16.54a1.844 1.844 0 0 0 0-2.46A2.74 2.74 0 0 0 27.765 13s-.088.08-.108 0a1.933 1.933 0 0 0-.795.14 4.577 4.577 0 0 0-1.326.86c-.345.337-.54.803-.54 1.29s.195.953.54 1.29a3.068 3.068 0 0 0 2.282.994 3.07 3.07 0 0 0 2.265-1.034z" fill="#000" fill-rule="nonzero"/><path d="M25.536 14c.369-.34.79-.617 1.247-.82a4.098 4.098 0 0 0-1.247.82zM27.726 13s.02 0 0 0z" fill="#000" fill-rule="nonzero"/></g></svg>