<svg width="41" height="55" viewBox="0 0 41 55" xmlns="http://www.w3.org/2000/svg"><title>NTT_Icons-listing-categories_Attractions</title><path d="M33.36 15.33V41.1c0 .36.06.54.45.66a2.09 2.09 0 0 1 1.56 2v3c.206.098.407.208.6.33a4.43 4.43 0 0 1 2.2 3.71c.06 1.37 0 2.74 0 4.15H3.27v-3.8a6 6 0 0 1 .17-1.41 4.53 4.53 0 0 1 2.62-3V44a2.22 2.22 0 0 1 1.64-2.25c.32-.1.41-.23.41-.54V15.38A13.9 13.9 0 0 1 5.79 15 6.9 6.9 0 0 1 1 9.24C.18 4.64 4 .56 8.08.06a6.23 6.23 0 0 1 .74 0C16.56 0 24.29.07 32 0c3.35 0 7.45 2.8 8.11 6.7.62 3.66-1.59 7.65-5.25 8.42-.45.11-.94.14-1.5.21zM30.68 41.6V15a.59.59 0 0 0-.35-.57 5.49 5.49 0 0 1-2.88-4.08 13.52 13.52 0 0 1 0-1.91H13.14v.24a5.56 5.56 0 0 1-2.89 5.79c-.32.17-.3.39-.3.65V41.6h20.73zm2.89-31.78c.54-.9.54-1.68-.08-2.18a2.35 2.35 0 0 0-2.13-.51 2.71 2.71 0 0 0-1.48 4.05 4.06 4.06 0 0 0 6.25.7A5.36 5.36 0 0 0 37.56 7c-.4-2.28-3.21-4.67-5.89-4.65-7.47.06-14.94 0-22.41 0a6.3 6.3 0 0 0-4 1.37 5.39 5.39 0 0 0-.87 8 3.93 3.93 0 0 0 6.16-.44A2.81 2.81 0 0 0 8.9 6.92a2 2 0 0 0-2.09.83A1.48 1.48 0 0 0 7 9.63l-1.51 1.51a3.38 3.38 0 0 1-.32-4.58 4.53 4.53 0 0 1 2.8-1.64 4.07 4.07 0 0 1 4 1.35.52.52 0 0 0 .35.11h16.03a.5.5 0 0 0 .35-.1 4.08 4.08 0 0 1 3.09-1.42 4 4 0 0 1 4.29 3.38 3.56 3.56 0 0 1-1 3.1l-1.51-1.52zm2.13 42.85v-1.26a2.46 2.46 0 0 0-2.76-2.78H7.22a2.34 2.34 0 0 0-2 1.89 16.75 16.75 0 0 0 0 2.13l30.48.02zm-3-8.83H8v2.27h24.72l-.02-2.27z" fill="#000" fill-rule="nonzero"/></svg>