<svg width="55" height="45" viewBox="0 0 55 45" xmlns="http://www.w3.org/2000/svg"><title>NTT_Icons-listing-categories_Events</title><g fill="#000" fill-rule="nonzero"><path d="M26 42.937l1.54-1.693c.6.484 1.282.854 2.012 1.091a4.55 4.55 0 0 0 2.234-.591c3.15-1.418 6.36-2.754 9.056-5.1a24.333 24.333 0 0 0 7.286-10.884c1.378-4.253 2.787-8.486 4.166-12.73.714-2.192-.212-3.722-2.455-4.16-4.026-.766-8.05-1.265-11.844-3.06-1.932-.837-3.814-1.857-5.686-2.795a3.123 3.123 0 0 0-3.11-.082l-1.7-1.795c1.097-1.234 3.502-1.54 5.575-.54a60.118 60.118 0 0 0 7.155 3.355c3.31 1.07 6.752 1.724 10.163 2.458 3.653.786 5.424 3.815 4.246 7.436-1.418 4.365-2.777 8.762-4.296 13.097-2.112 6.274-6.512 11.493-12.297 14.586-2.012 1.111-4.206 2.04-6.35 3.06A4.553 4.553 0 0 1 26 42.937z"/><path d="M43.225 18.001c1.274-.034 2.487.586 3.257 1.666.558.781.674 1.821.305 2.72-.37.897-1.168 1.513-2.086 1.607a5.459 5.459 0 0 1-2.393-.433 26.098 26.098 0 0 1-2.656-1.384c-.754-.4-.896-1.374-.204-2.25.978-1.136 2.331-1.826 3.777-1.926zM38 34l-6-3.015.24-.985A9.168 9.168 0 0 1 38 34zM32 15c2.02 1.402 2.67 4.084 1.202 5L32 15zM31.367 19.386c-1.276-5.166-2.673-10.331-4.02-15.57a3.133 3.133 0 0 0-.442-.898C25.786 1.14 23.553.497 21.699 1.42c-3.296 1.312-6.522 2.759-9.879 3.792A47.64 47.64 0 0 1 4.233 6.42C.866 6.865-.641 9.127.253 12.443c.895 3.316 1.84 6.695 2.643 10.073a30.676 30.676 0 0 0 5.297 11.808c3.457 4.525 8.26 7.035 13.144 9.422 1.537.65 3.303.015 4.11-1.477.972-1.57 1.923-3.151 2.855-4.742A27.284 27.284 0 0 0 32 24.293a41.953 41.953 0 0 0-.633-4.907zm-6.693-5.672c1.028.181 1.833 1.01 2.01 2.066a2.626 2.626 0 0 1-1.086 2.748 6.305 6.305 0 0 1-2.08.806c-.914.207-1.87.258-2.814.372-.944.114-1.326-.558-1.316-1.705a4.68 4.68 0 0 1 1.709-3.36 4.421 4.421 0 0 1 3.577-.927zM9.71 23.301c-1.44-.044-2.65-1.131-2.884-2.593-.03-1.703 1.216-3.145 2.864-3.316 1.74-.246 3.476.483 4.552 1.911.935 1.095.583 1.942-.733 2.386-.583.197-1.116.569-1.689.806-.572.238-1.406.548-2.11.806zm12.652 10.837c-3.485 1.183-7.32.355-10.05-2.17 5.72.94 10.402-1.394 15.146-4.235-.754 3.13-2.312 5.29-5.096 6.405z"/></g></svg>