<svg width="55" height="55" viewBox="0 0 55 55" xmlns="http://www.w3.org/2000/svg"><title>Icons/ILI/listing-categories/attractions</title><g fill="none" fill-rule="evenodd"><path d="M22.405 42.375H41.26v-1.693H22.405v1.693zm21.131 4.886v-.94c-.002-1.37-.714-2.07-2.105-2.07h-19.12c-.163 0-.327-.001-.489.017-.757.089-1.45.68-1.545 1.409-.068.516-.013 1.046-.013 1.584h23.272zm-1.622-31.942c.41-.667.406-1.25-.062-1.623-.47-.375-1.02-.532-1.623-.38-1.283.326-1.85 1.85-1.134 3.015.983 1.595 3.43 1.877 4.768.522 1.011-1.024 1.341-2.254 1.088-3.666-.304-1.695-2.446-3.479-4.485-3.464-5.696.041-11.39.024-17.085.007a4.825 4.825 0 0 0-3.033 1.02c-2.039 1.548-2.334 4.187-.668 5.996 1.292 1.403 3.627 1.238 4.699-.33.865-1.268.182-3.02-1.278-3.254-.644-.104-1.205.076-1.59.616-.351.493-.23.976.105 1.403l-1.15 1.12c-.964-.764-1.097-2.42-.245-3.407.562-.65 1.276-1.097 2.135-1.224 1.174-.176 2.243.058 3.054 1.002.052.06.175.086.266.086 4.086.005 8.172.005 12.258 0 .088 0 .213-.02.262-.08.615-.72 1.436-1.004 2.355-1.056 1.671-.094 3.05.961 3.274 2.519.126.882-.117 1.666-.748 2.312l-1.163-1.134zM39.708 39.01c.005-.114.012-.186.012-.259.002-6.515 0-13.03.007-19.546 0-.217-.085-.316-.267-.423-1.19-.697-2.012-1.667-2.2-3.046-.063-.465-.01-.946-.01-1.422H26.337l.022.176c.28 1.752-.592 3.482-2.203 4.32-.24.127-.224.288-.224.481V39.011h15.776zm2.04-19.581v.364c0 6.283.003 12.565-.006 18.848 0 .267.05.397.344.49.722.23 1.158.74 1.19 1.495.033.733.009 1.468.009 2.266.092.05.281.137.458.246 1.044.641 1.622 1.573 1.676 2.769.048 1.018.01 2.039.01 3.092H18.814c0-.945-.012-1.888.006-2.83.007-.353.035-.716.131-1.054.305-1.059 1.022-1.78 1.997-2.212v-2.109c0-.818.451-1.45 1.252-1.683.242-.07.308-.166.308-.4-.006-6.333-.004-12.664-.004-18.996v-.254c-.619-.091-1.224-.097-1.772-.273-2.122-.681-3.26-2.219-3.644-4.303-.632-3.425 2.246-6.464 5.393-6.84.187-.02.376-.029.564-.029 5.897 0 11.794.033 17.691-.017 2.552-.021 5.682 2.089 6.185 4.999.473 2.726-1.21 5.7-4 6.275-.366.076-.744.1-1.173.156z" fill="#000"/><path d="M27 19v17M37 19v17" stroke="#000" stroke-width=".286" stroke-linecap="round" stroke-dasharray="0.441,0.617"/><path d="M32 18v17" stroke="#000" stroke-width=".286" stroke-linecap="round" stroke-dasharray="0.437,0.612"/></g></svg>