<svg viewBox="0 0 16 16" xmlns="http://www.w3.org/2000/svg"><path d="M14 4a2 2 0 1 0-1.394-.569l-1.578 2.761A2.974 2.974 0 0 0 10 6c-.8 0-1.523.318-2.061.829L3.848 3.761A2 2 0 1 0 2 5c.472 0 .9-.17 1.242-.443l4.102 3.077A2.955 2.955 0 0 0 7 9c0 .313.062.61.151.894L2.86 12.201A1.988 1.988 0 0 0 2 12a2 2 0 1 0 1.669.901l3.933-2.115A2.986 2.986 0 0 0 10 12a2.97 2.97 0 0 0 1.375-.348l.977 1.217A2 2 0 1 0 14 12c-.321 0-.62.083-.889.217l-.934-1.164A2.98 2.98 0 0 0 13 9a2.98 2.98 0 0 0-1.105-2.308l1.583-2.77c.167.046.34.078.522.078z"/></svg>