<svg width="79" height="75" viewBox="0 0 79 75" xmlns="http://www.w3.org/2000/svg"><title>Group</title><g stroke="#DF1159" stroke-width="4" fill="none" fill-rule="evenodd" stroke-linecap="round"><path d="M2 38l9.906-9.213L39.699 3l27.994 26.267L77 38"/><path d="M47 30.51A7.5 7.5 0 0 1 39.49 38 7.5 7.5 0 1 1 47 30.51z"/><path d="M12 29.054v36.892C12 69.826 15.224 73 19.164 73h12.69-1.215V54.505c0-1.94 1.612-3.527 3.582-3.527h10.701c1.97 0 3.582 1.587 3.582 3.527V73h-1.36 12.692C63.776 73 67 69.826 67 65.946V29"/></g></svg>