<svg xmlns="http://www.w3.org/2000/svg" width="30" height="30" viewBox="0 0 30 30"><title>Fill 1</title><path d="M19.049 15.417l-1.795-5.383h-.513l3.077 9.229h-2.564v6.665c0 1.282-1.794 1.282-1.794 0l.008-18.458h1.017c1.282 0 2.05 1.025 2.307 1.795l1.795 5.64c.337 1.191-1.282 1.538-1.538.512zM13.293 5.032a1.932 1.932 0 0 1 1.92-1.92 1.917 1.917 0 0 1 1.918 1.92 1.904 1.904 0 0 1-1.918 1.92 1.918 1.918 0 0 1-1.92-1.92zm1.654 20.896c0 1.282-2.051 1.282-2.051 0V10.034h-.513v5.896c0 1.025-1.538 1.025-1.538 0v-5.896c0-1.282 1.025-2.564 2.307-2.564h1.795v18.458zM15 0C6.716 0 0 6.717 0 15c0 8.285 6.716 15 15 15 8.284 0 15-6.715 15-15 0-8.283-6.716-15-15-15z" fill="#0096c8" fill-rule="evenodd"/></svg>