<svg width="160" height="50" viewBox="0 0 160 50" xmlns="http://www.w3.org/2000/svg"><title>Icons/ILI/walk-times/03/active</title><g fill="none" fill-rule="evenodd"><path d="M0 0h160v50H0z"/><g stroke="#FFF"><path d="M41.156 37.311a5.428 5.428 0 1 1-9.454-5.334 5.428 5.428 0 0 1 9.454 5.334zM59.177 23.797a5.427 5.427 0 0 1-7.395 2.06 5.427 5.427 0 1 1 5.335-9.455 5.428 5.428 0 0 1 2.06 7.395zM84.348 36.312a5.428 5.428 0 1 1-9.454-5.334 5.428 5.428 0 0 1 9.454 5.334zM87.94 15.096a5.428 5.428 0 1 1-9.455-5.334 5.428 5.428 0 0 1 9.454 5.334zM120.26 16.923a5.427 5.427 0 0 1-7.395 2.059 5.427 5.427 0 1 1 5.334-9.454 5.428 5.428 0 0 1 2.06 7.395z" stroke-width="2"/><path d="M88.641 12.43c7.062-1.041 8.49 15.786 12.387 15.786 4.534 0 9.44-8.23 11.272-9.847M80.638 28.216c.97-3.585-2.168-7.06-.094-11.06M59.596 20.532c6.253-.29 10.694 9.202 14.938 11.236M41.156 36.529c3.177.461 13.293 10.285 16.101 6.4 3.087-4.27-5.263-11.828-3.978-16.37" stroke-width="3"/></g></g></svg>