<svg width="160" height="50" viewBox="0 0 160 50" xmlns="http://www.w3.org/2000/svg"><title>Icons/ILI/walk-times/02/active</title><g fill="none" fill-rule="evenodd"><path d="M0 0h160v50H0z"/><g stroke="#FFF"><path d="M42.534 38.135s18.063 5.217 19.518 3.29c1.453-1.925-1.755-19.82 7.063-25.612.572-.431.85-.344 1.535-.62M79.405 15.193s.427.325.58.882c2.007 2.761 5.577 13.815 14.182 13.019 8.604-.796 14.065-4.253 15.035-5.298" stroke-width="3"/><path d="M80.134 14.735A5.56 5.56 0 1 1 69.9 10.387a5.56 5.56 0 0 1 10.235 4.348zM118.76 22.928a5.56 5.56 0 1 1-10.235-4.347 5.56 5.56 0 0 1 10.235 4.347zM42.679 38.73a5.56 5.56 0 1 1-10.236-4.348A5.56 5.56 0 0 1 42.68 38.73z" stroke-width="2"/></g></g></svg>