<svg width="160" height="160" viewBox="0 0 160 160" xmlns="http://www.w3.org/2000/svg" xmlns:xlink="http://www.w3.org/1999/xlink"><title>Icons/Urbanobservatory/Data/solarradiation</title><defs><path id="a" d="M.408.14h7.386v28.45H.408z"/></defs><g fill="none" fill-rule="evenodd"><path d="M110.732 79.5c0 17.772-14.46 32.232-32.232 32.232S46.268 97.272 46.268 79.5c0-17.773 14.46-32.232 32.232-32.232s32.232 14.459 32.232 32.232M78.5 40C56.72 40 39 57.72 39 79.5S56.72 119 78.5 119 118 101.28 118 79.5 100.28 40 78.5 40" fill="#FFF"/><g transform="translate(75 2)"><mask id="b" fill="#fff"><use xlink:href="#a"/></mask><path d="M4.101 28.59c2.036 0 3.693-1.612 3.693-3.591V3.732C7.794 1.752 6.137.14 4.1.14S.408 1.752.408 3.73V25c0 1.98 1.657 3.59 3.693 3.59" fill="#FFF" mask="url(#b)"/></g><path d="M78.5 127c-1.93 0-3.5 1.642-3.5 3.66v21.68c0 2.018 1.57 3.66 3.5 3.66s3.5-1.642 3.5-3.66v-21.68c0-2.018-1.57-3.66-3.5-3.66M115.556 46c.95 0 1.843-.37 2.514-1.041L132.96 30.07A3.533 3.533 0 0 0 134 27.556c0-.95-.37-1.842-1.04-2.514A3.533 3.533 0 0 0 130.444 24c-.95 0-1.843.37-2.515 1.042L113.042 39.93A3.533 3.533 0 0 0 112 42.444c0 .95.37 1.843 1.042 2.515A3.532 3.532 0 0 0 115.556 46M41.444 113c-.95 0-1.842.37-2.514 1.041l-14.89 14.891a3.558 3.558 0 0 0 0 5.028 3.543 3.543 0 0 0 2.514 1.04c.91 0 1.821-.347 2.515-1.04l14.889-14.89A3.529 3.529 0 0 0 45 116.556c0-.95-.37-1.843-1.041-2.515A3.532 3.532 0 0 0 41.444 113M152.34 76h-21.68c-2.018 0-3.66 1.57-3.66 3.5s1.642 3.5 3.66 3.5h21.68c2.018 0 3.66-1.57 3.66-3.5s-1.642-3.5-3.66-3.5M30 79.5c0-1.93-1.642-3.5-3.66-3.5H4.66C2.643 76 1 77.57 1 79.5S2.642 83 4.66 83h21.68c2.018 0 3.66-1.57 3.66-3.5M118.07 114.041a3.533 3.533 0 0 0-2.514-1.041c-.95 0-1.843.37-2.515 1.041a3.532 3.532 0 0 0-1.041 2.515c0 .95.37 1.842 1.041 2.514l14.89 14.89a3.542 3.542 0 0 0 2.515 1.04c.91 0 1.821-.347 2.514-1.04a3.559 3.559 0 0 0 0-5.029l-14.89-14.89zM38.93 44.959A3.532 3.532 0 0 0 41.445 46c.95 0 1.842-.37 2.514-1.041A3.53 3.53 0 0 0 45 42.445c0-.95-.37-1.843-1.041-2.515l-14.89-14.889A3.532 3.532 0 0 0 26.556 24c-.95 0-1.842.37-2.514 1.041A3.533 3.533 0 0 0 23 27.556c0 .95.37 1.842 1.041 2.514l14.89 14.889z" fill="#FFF"/></g></svg>