<svg width="160" height="160" viewBox="0 0 160 160" xmlns="http://www.w3.org/2000/svg" xmlns:xlink="http://www.w3.org/1999/xlink"><title>Icons/Urbanobservatory/Data/CO2</title><defs><path id="a" d="M0 160h160V0H0z"/></defs><g fill="none" fill-rule="evenodd"><path d="M59.956 56.124c.148.889.593 1.63 1.185 2.074.741.445 1.334.74 2.223.593.889-.148 1.63-.593 2.074-1.185.444-.593.74-1.334.592-2.223-.148-.889-.592-1.63-1.185-2.074-.592-.444-1.333-.74-2.222-.592-.889.148-1.63.592-2.074 1.185-.445.444-.593 1.185-.593 1.778v.444zm13.334 7.111c-1.926 2.815-4.89 4.593-8.297 5.037-3.407.445-6.815-.296-9.481-2.37-5.63-4.148-6.815-12.148-2.667-17.778 1.926-2.815 4.889-4.593 8.296-5.037 3.408-.444 6.815.296 9.482 2.37 2.815 1.926 4.592 4.89 5.037 8.297.148.74.148 1.333.148 1.926 0 2.814-.889 5.333-2.518 7.555zM106.05 100.42c.148.89.593 1.63 1.185 2.073 1.333 1.038 3.26.74 4.296-.591.445-.593.741-1.482.593-2.222-.148-.89-.593-1.632-1.185-2.074-.593-.445-1.333-.741-2.222-.595-.89.15-1.63.595-2.074 1.187-.445.445-.593 1.185-.593 1.776v.446zm13.185 7.258c-4.148 5.63-12.148 6.816-17.778 2.667-2.814-1.926-4.592-4.89-5.037-8.295-.444-3.407.297-6.815 2.37-9.483 1.927-2.813 4.89-4.591 8.297-5.036 3.407-.444 6.815.297 9.481 2.37 2.815 1.925 4.593 4.888 5.038 8.297.148.74.148 1.332.148 1.926 0 2.667-.741 5.332-2.519 7.554z" fill="#FFF"/><mask id="b" fill="#fff"><use xlink:href="#a"/></mask><path fill="#FFF" mask="url(#b)" d="M81.481 96.296h11.852v-1.481H81.481zM81.481 103.704h11.852v-1.482H81.481zM63.124 87.407c-3.902 0-7.755 1.778-10.235 5.143-1.778 2.222-2.519 4.889-2.519 7.554 0 .594 0 1.186.149 1.927.444 3.408 2.222 6.37 5.037 8.296 2.171 1.69 4.835 2.494 7.592 2.494.625 0 1.258-.042 1.889-.125 3.407-.443 6.37-2.222 8.296-5.035 2.074-2.667 2.815-6.076 2.37-9.482-.444-3.407-2.222-6.37-5.036-8.296a12.674 12.674 0 0 0-7.543-2.476m.002 1.482c2.418 0 4.721.757 6.704 2.216 2.449 1.674 4.011 4.255 4.404 7.265.412 3.157-.323 6.134-2.07 8.381l-.028.036-.026.035c-1.673 2.45-4.255 4.014-7.264 4.406-.569.074-1.14.111-1.698.111-2.536 0-4.847-.754-6.683-2.18l-.037-.03-.035-.024c-2.448-1.675-4.012-4.256-4.406-7.266l-.005-.05-.01-.048c-.12-.599-.12-1.08-.12-1.637 0-2.543.758-4.834 2.23-6.677 2.094-2.84 5.475-4.538 9.044-4.538M66.667 82.652h1.481v-11.54h-1.481zM59.26 82.652h1.48v-11.54h-1.48z"/></g></svg>