<svg width="160" height="160" viewBox="0 0 160 160" xmlns="http://www.w3.org/2000/svg"><title>Icons/Urbanobservatory/Data/NO2</title><g fill="#FFF" fill-rule="evenodd"><path d="M37.556 68.622c.733.524 1.572.733 2.305.628.838-.209 1.465-.418 1.99-1.153.524-.731.733-1.57.628-2.303-.104-.734-.418-1.467-1.151-1.99-.734-.524-1.572-.735-2.306-.63-.733.106-1.466.42-1.99 1.153-.524.733-.734 1.572-.629 2.305 0 .628.42 1.256.839 1.676l.314.314m14.456-4.4c.63 3.352-.209 6.705-2.304 9.428-2.096 2.724-5.028 4.609-8.38 5.03-6.914 1.047-13.41-3.772-14.457-10.686-.63-3.353.21-6.706 2.304-9.428 2.095-2.723 5.028-4.61 8.38-5.029 3.353-.628 6.704.21 9.429 2.306.628.417 1.047.837 1.467 1.256 1.99 1.99 3.142 4.4 3.561 7.123M119.037 68.413c.734.524 1.572.733 2.305.628 1.676-.209 2.829-1.78 2.618-3.458-.103-.732-.523-1.57-1.152-1.99-.732-.522-1.57-.733-2.304-.627-.733.105-1.467.417-1.991 1.152-.523.733-.734 1.57-.628 2.304 0 .63.419 1.258.838 1.677l.314.314m14.457-4.191c1.047 6.914-3.772 13.409-10.686 14.456-3.351.63-6.704-.209-9.427-2.304-2.724-2.096-4.61-5.03-5.028-8.38-.63-3.353.209-6.706 2.304-9.428 2.094-2.723 5.028-4.61 8.38-5.029 3.353-.628 6.704.21 9.428 2.306.629.417 1.048.837 1.467 1.256 1.886 1.886 3.247 4.295 3.562 7.123M89.936 89.462l-1.047-1.047 15.822-15.822 1.048 1.047zM66.356 95.551L50.37 79.566l1.048-1.047 15.985 15.985zM95.862 95.388l-1.047-1.047 15.822-15.822 1.047 1.047zM68.291 105.032c-1.047-6.914 3.772-13.41 10.686-14.458 3.353-.628 6.704.21 9.428 2.305 2.723 2.095 4.61 5.029 5.028 8.381.629 3.353-.208 6.704-2.305 9.428-2.095 2.723-5.028 4.61-8.38 5.028-3.352.63-6.704-.21-9.427-2.305-.63-.417-1.05-.837-1.468-1.256-1.885-1.886-3.248-4.295-3.562-7.123"/></g></svg>