<svg width="160" height="160" viewBox="0 0 160 160" xmlns="http://www.w3.org/2000/svg" xmlns:xlink="http://www.w3.org/1999/xlink"><title>Icons/Urbanobservatory/Data/humidity</title><defs><path id="a" d="M2 2h154.957v154.957H2z"/></defs><g fill="none" fill-rule="evenodd"><mask id="b" fill="#fff"><use xlink:href="#a"/></mask><path d="M67.559 85.439c-.596 0-23.84 29.8-23.84 47.678 0 13.112 10.728 23.84 23.84 23.84 13.11 0 23.839-10.728 23.839-23.84 0-17.878-23.244-47.678-23.84-47.678m65.559-53.64c-.596 0-23.84 29.8-23.84 47.68 0 13.11 10.729 23.839 23.84 23.839 13.112 0 23.84-10.728 23.84-23.84 0-17.879-23.244-47.679-23.84-47.679M25.839 2C25.244 2 2 31.8 2 49.68 2 62.79 12.728 73.518 25.84 73.518c13.11 0 23.84-10.728 23.84-23.84C49.68 31.8 26.434 2 25.84 2" fill="#FFF" mask="url(#b)"/></g></svg>