<svg width="160" height="160" viewBox="0 0 160 160" xmlns="http://www.w3.org/2000/svg" xmlns:xlink="http://www.w3.org/1999/xlink"><title>Icons/Urbanobservatory/Data/wind</title><defs><path id="a" d="M1 2h152.976v152.976H1z"/></defs><g fill="none" fill-rule="evenodd"><mask id="b" fill="#fff"><use xlink:href="#a"/></mask><path d="M1 96.14v11.767h41.186c9.816 0 17.65 7.835 17.65 17.651 0 9.817-7.834 17.651-17.65 17.651-6.843 0-12.678-3.933-15.629-9.56a5.921 5.921 0 1 0-10.48 5.515c4.922 9.388 14.83 15.813 26.109 15.813 16.177 0 29.419-13.242 29.419-29.419S58.363 96.14 42.185 96.14H1zm0-23.535v11.767h117.674a23.45 23.45 0 0 1 23.535 23.535c0 13.063-10.44 23.13-23.719 23.535-10.026.306-17.866-5.448-21.511-15.445a5.885 5.885 0 1 0-11.033 4.045c5.132 14.068 17.862 23.627 32.912 23.167 19.201-.584 35.119-15.874 35.119-35.302 0-19.426-15.877-35.302-35.303-35.302H1zM77.488 2C65.053 2 54.365 9.763 50.092 20.755a5.884 5.884 0 1 0 10.849 4.228c2.552-6.565 9-11.216 16.547-11.216 9.817 0 17.652 7.835 17.652 17.651 0 9.818-7.835 17.652-17.652 17.652H1v11.768h76.488c16.178 0 29.418-13.242 29.418-29.42C106.906 15.241 93.666 2 77.488 2z" fill="#FFF" mask="url(#b)"/></g></svg>