<svg width="160" height="160" viewBox="0 0 160 160" xmlns="http://www.w3.org/2000/svg"><title>Icons/Urbanobservatory/Data/PM10</title><g fill="#FFF" fill-rule="evenodd"><path d="M81.481 49.63c0-6.954-5.638-12.593-12.592-12.593-6.954 0-12.593 5.639-12.593 12.593s5.639 12.592 12.593 12.592S81.48 56.584 81.48 49.63M62.222 77.778c0-6.954-5.638-12.593-12.592-12.593-6.954 0-12.593 5.639-12.593 12.593S42.676 90.37 49.63 90.37s12.592-5.638 12.592-12.592M72.593 105.926c0-6.954-5.639-12.593-12.593-12.593s-12.593 5.639-12.593 12.593S53.046 118.519 60 118.519s12.593-5.639 12.593-12.593M114.074 52.593c0-6.954-5.638-12.593-12.593-12.593-6.954 0-12.592 5.639-12.592 12.593s5.638 12.592 12.592 12.592c6.955 0 12.593-5.638 12.593-12.592M128.889 79.26c0-6.955-5.639-12.593-12.593-12.593s-12.592 5.638-12.592 12.592c0 6.954 5.638 12.593 12.592 12.593 6.954 0 12.593-5.639 12.593-12.593M96.296 80.74c0-6.953-5.638-12.592-12.592-12.592-6.954 0-12.593 5.639-12.593 12.593s5.639 12.592 12.593 12.592 12.592-5.638 12.592-12.592"/></g></svg>