<svg width="160" height="160" viewBox="0 0 160 160" xmlns="http://www.w3.org/2000/svg"><title>Icons/Urbanobservatory/Data/Ozone</title><g fill="none" fill-rule="evenodd"><path d="M77.3 67.656c.81.58 1.736.81 2.546.694 1.851-.23 3.124-1.967 2.892-3.82-.115-.808-.578-1.734-1.273-2.197-.809-.578-1.735-.81-2.545-.694-.81.116-1.62.462-2.199 1.273-.578.81-.81 1.735-.694 2.545 0 .695.463 1.39.926 1.852l.347.347m15.968-4.63c1.157 7.638-4.166 14.812-11.803 15.968-3.702.696-7.405-.23-10.412-2.544-3.01-2.316-5.093-5.556-5.554-9.257-.696-3.703.23-7.406 2.544-10.414 2.314-3.007 5.554-5.09 9.257-5.554 3.703-.693 7.405.231 10.414 2.547.694.461 1.157.924 1.62 1.387 2.083 2.083 3.587 4.744 3.934 7.868M38.028 103.655c.81.58 1.736.81 2.546.696 1.85-.233 3.124-1.967 2.891-3.82-.114-.81-.577-1.736-1.273-2.199-.808-.577-1.734-.808-2.544-.694-.81.117-1.62.463-2.2 1.275-.577.808-.81 1.735-.694 2.543 0 .695.464 1.39.927 1.852.114.115.23.233.347.347m15.967-4.627c1.157 7.637-4.166 14.81-11.803 15.967-3.701.694-7.404-.232-10.412-2.546-3.01-2.314-5.092-5.554-5.554-9.255-.695-3.703.23-7.406 2.545-10.414 2.313-3.01 5.553-5.092 9.257-5.555 3.703-.694 7.404.232 10.413 2.546.694.463 1.157.926 1.62 1.387 2.083 2.083 3.587 4.746 3.934 7.87M116.573 103.655c.81.58 1.736.81 2.546.696 1.85-.233 3.124-1.967 2.892-3.82-.115-.81-.578-1.736-1.273-2.199-.809-.577-1.735-.808-2.545-.694-.81.117-1.62.463-2.2 1.275-.577.808-.81 1.735-.693 2.543 0 .695.463 1.39.926 1.852.115.115.23.233.347.347m15.968-4.627c1.157 7.637-4.167 14.81-11.803 15.967-3.702.694-7.405-.232-10.413-2.546-3.009-2.314-5.092-5.554-5.553-9.255-.696-3.703.23-7.406 2.544-10.414 2.314-3.01 5.554-5.092 9.257-5.555 3.703-.694 7.405.232 10.414 2.546.694.463 1.157.926 1.62 1.387 2.083 2.083 3.587 4.746 3.934 7.87" fill="#FFF"/><path d="M62.92 71.348L48.065 86.206M93.882 71.348l14.857 14.858" stroke="#FFF"/></g></svg>