<svg width="175" height="195" viewBox="0 0 175 195" xmlns="http://www.w3.org/2000/svg"><title>Icons/ILI/Weather/Sun</title><g fill="none" fill-rule="evenodd"><path d="M48.282 97.24c0 20.38 16.578 36.96 36.958 36.96 20.382 0 36.96-16.58 36.96-36.96 0-20.38-16.578-36.96-36.96-36.96-20.38 0-36.958 16.58-36.958 36.96m-5.282 0C43 73.948 61.95 55 85.24 55c23.292 0 42.242 18.948 42.242 42.24 0 23.29-18.95 42.24-42.242 42.24-23.29 0-42.24-18.95-42.24-42.24" fill="#1D1D1B"/><path d="M48.282 97.24c0 20.38 16.578 36.96 36.958 36.96 20.382 0 36.96-16.58 36.96-36.96 0-20.38-16.578-36.96-36.96-36.96-20.38 0-36.958 16.58-36.958 36.96zm-5.282 0C43 73.948 61.95 55 85.24 55c23.292 0 42.242 18.948 42.242 42.24 0 23.29-18.95 42.24-42.242 42.24-23.29 0-42.24-18.95-42.24-42.24z" stroke="#1D1D1B" stroke-width=".75"/><path d="M85.639 42.041h.002a2.64 2.64 0 0 0 2.639-2.639v-23.76A2.64 2.64 0 0 0 85.641 13h-.002A2.639 2.639 0 0 0 83 15.641v23.761a2.638 2.638 0 0 0 2.639 2.64" fill="#1D1D1B"/><path d="M85.639 42.041h.002a2.64 2.64 0 0 0 2.639-2.639v-23.76A2.64 2.64 0 0 0 85.641 13h-.002A2.639 2.639 0 0 0 83 15.641v23.761a2.638 2.638 0 0 0 2.639 2.64z" stroke="#1D1D1B"/><path d="M85.639 153h.002a2.64 2.64 0 0 1 2.639 2.639V179.4a2.64 2.64 0 0 1-2.639 2.641h-.002A2.639 2.639 0 0 1 83 179.4v-23.761A2.638 2.638 0 0 1 85.639 153z" stroke="#1D1D1B" fill="#000"/><path d="M128.506 58.306l16.8-16.8a2.64 2.64 0 0 0-3.733-3.733l-16.8 16.8a2.64 2.64 0 0 0 3.733 3.733" fill="#1D1D1B"/><path d="M128.506 58.306l16.8-16.8a2.64 2.64 0 0 0-3.733-3.733l-16.8 16.8a2.64 2.64 0 0 0 3.733 3.733z" stroke="#1D1D1B"/><path d="M128.506 144.773l16.8 16.8a2.64 2.64 0 0 1-3.733 3.733l-16.8-16.8a2.64 2.64 0 0 1 3.733-3.733z" stroke="#1D1D1B" fill="#000"/><path d="M3.639 100.28H27.4a2.64 2.64 0 0 0 2.639-2.639v-.002A2.64 2.64 0 0 0 27.4 95H3.639A2.638 2.638 0 0 0 1 97.639v.002a2.638 2.638 0 0 0 2.639 2.639" fill="#1D1D1B"/><path d="M3.639 100.28H27.4a2.64 2.64 0 0 0 2.639-2.639v-.002A2.64 2.64 0 0 0 27.4 95H3.639A2.638 2.638 0 0 0 1 97.639v.002a2.638 2.638 0 0 0 2.639 2.639z" stroke="#1D1D1B"/><path d="M144.639 100.28H168.4a2.64 2.64 0 0 0 2.639-2.639v-.002A2.64 2.64 0 0 0 168.4 95h-23.761A2.638 2.638 0 0 0 142 97.639v.002a2.638 2.638 0 0 0 2.639 2.639z" stroke="#1D1D1B" fill="#000"/><path d="M46.306 58.306a2.64 2.64 0 0 0 0-3.733l-16.8-16.8a2.64 2.64 0 0 0-3.733 3.733l16.802 16.8a2.638 2.638 0 0 0 3.731 0" fill="#1D1D1B"/><path d="M46.306 58.306a2.64 2.64 0 0 0 0-3.733l-16.8-16.8a2.64 2.64 0 0 0-3.733 3.733l16.802 16.8a2.638 2.638 0 0 0 3.731 0z" stroke="#1D1D1B"/><path d="M46.306 144.773a2.64 2.64 0 0 1 0 3.733l-16.8 16.8a2.64 2.64 0 0 1-3.733-3.733l16.802-16.8a2.638 2.638 0 0 1 3.731 0z" stroke="#1D1D1B" fill="#000"/></g></svg>