<svg width="175" height="195" viewBox="0 0 175 195" xmlns="http://www.w3.org/2000/svg"><title>Icons/ILI/Weather/foggy</title><g fill="none" fill-rule="evenodd"><path d="M123.113 125.478h9.897c14.454 0 26.209-11.832 26.209-26.386-.001-10.322-6.032-19.562-15.184-23.857C143.495 48.55 121.81 27 95.172 27 74.806 27 57.32 39.614 49.977 57.478c-.071 0-.138-.008-.207-.008C31.152 57.47 16 72.724 16 91.467c0 17.262 12.846 31.524 29.41 33.694l77.703.317z" fill="#FEFEFE"/><path d="M133.008 118.42H49.769c-14.753 0-26.765-12.083-26.765-26.95 0-14.151 10.901-25.764 24.692-26.835-.902 3.723-1.43 7.597-1.43 11.602 0 1.954 1.566 3.533 3.503 3.533 1.94 0 3.506-1.577 3.506-3.533 0-23.253 18.795-42.177 41.893-42.177 22.045 0 40.118 17.23 41.743 39.006-3.401-.509-6.897-.411-10.243.42a3.518 3.518 0 0 0-2.56 4.268c.456 1.893 2.363 3.074 4.237 2.58 3.64-.897 7.521-.723 11.044.524h.006c7.664 2.716 12.816 10.05 12.816 18.23.002 10.662-8.617 19.333-19.203 19.333zm-9.895 7.059h9.896c14.455 0 26.21-11.833 26.21-26.386-.002-10.323-6.033-19.563-15.184-23.858C143.495 48.55 121.81 27 95.171 27 74.806 27 57.32 39.614 49.977 57.479c-.072 0-.139-.008-.208-.008C31.152 57.47 16 72.724 16 91.467c0 17.262 12.845 31.525 29.409 33.694l77.704.318z" fill="#1D1D1B"/><path d="M133.008 118.42H49.769c-14.753 0-26.765-12.083-26.765-26.95 0-14.151 10.901-25.764 24.692-26.835-.902 3.723-1.43 7.597-1.43 11.602 0 1.954 1.566 3.533 3.503 3.533 1.94 0 3.506-1.577 3.506-3.533 0-23.253 18.795-42.177 41.893-42.177 22.045 0 40.118 17.23 41.743 39.006-3.401-.509-6.897-.411-10.243.42a3.518 3.518 0 0 0-2.56 4.268c.456 1.893 2.363 3.074 4.237 2.58 3.64-.897 7.521-.723 11.044.524h.006c7.664 2.716 12.816 10.05 12.816 18.23.002 10.662-8.617 19.333-19.203 19.333zm-9.895 7.059h9.896c14.455 0 26.21-11.833 26.21-26.386-.002-10.323-6.033-19.563-15.184-23.858C143.495 48.55 121.81 27 95.171 27 74.806 27 57.32 39.614 49.977 57.479c-.072 0-.139-.008-.208-.008C31.152 57.47 16 72.724 16 91.467c0 17.262 12.845 31.525 29.409 33.694l77.704.318z" stroke="#1D1D1B"/><path d="M30 142h115.214M30 162h115.214" stroke="#1D1D1B" stroke-width="10" stroke-linecap="round" stroke-linejoin="round"/></g></svg>