<svg width="175" height="195" viewBox="0 0 175 195" xmlns="http://www.w3.org/2000/svg" xmlns:xlink="http://www.w3.org/1999/xlink"><title>Icons/ILI/Weather/windy</title><defs><path id="a" d="M.39.463H48.1v48.715H.39z"/><path id="c" d="M0 .588h153.017v6.798H0z"/></defs><g fill="none" fill-rule="evenodd"><path d="M100.87 86.362H36.985c-1.976 0-3.578-1.673-3.578-3.739 0-2.065 1.602-3.739 3.578-3.739h63.887c1.977 0 3.578 1.674 3.578 3.74 0 2.065-1.601 3.738-3.578 3.738" fill="#1D1D1B"/><g transform="translate(75 37.2)"><mask id="b" fill="#fff"><use xlink:href="#a"/></mask><path d="M24.246 49.178c-2.023 0-3.662-1.674-3.662-3.74 0-2.065 1.639-3.739 3.662-3.739 9.115 0 16.53-7.572 16.53-16.879 0-9.307-7.415-16.878-16.53-16.878-9.115 0-16.53 7.571-16.53 16.878 0 2.065-1.64 3.74-3.663 3.74-2.023 0-3.662-1.675-3.662-3.74C.39 11.39 11.09.463 24.246.463 37.399.463 48.1 11.39 48.1 24.82c0 13.432-10.7 24.358-23.854 24.358" fill="#1D1D1B" mask="url(#b)"/></g><g transform="translate(1 93.84)"><mask id="d" fill="#fff"><use xlink:href="#c"/></mask><path d="M149.452 7.386H3.565C1.596 7.386 0 5.865 0 3.986 0 2.11 1.596.589 3.565.589h145.887c1.969 0 3.565 1.521 3.565 3.399 0 1.878-1.596 3.399-3.565 3.399" fill="#1D1D1B" mask="url(#d)"/></g><path d="M150.5 101.319a3.454 3.454 0 1 1 0-6.908c8.597 0 15.591-6.995 15.591-15.592 0-8.597-6.994-15.592-15.591-15.592s-15.591 6.995-15.591 15.592a3.455 3.455 0 0 1-6.909 0c0-12.406 10.093-22.5 22.5-22.5s22.5 10.094 22.5 22.5c0 12.407-10.093 22.5-22.5 22.5M123.339 117.522H18.256c-1.959 0-3.546-1.674-3.546-3.74 0-2.065 1.587-3.739 3.546-3.739h105.083c1.958 0 3.545 1.674 3.545 3.74 0 2.065-1.587 3.739-3.545 3.739" fill="#1D1D1B"/><path d="M122.848 158c-13.222 0-23.978-10.756-23.978-23.978a3.68 3.68 0 1 1 7.362 0c0 9.161 7.454 16.616 16.616 16.616 9.162 0 16.616-7.455 16.616-16.616 0-9.163-7.454-16.616-16.616-16.616a3.68 3.68 0 1 1 0-7.363c13.222 0 23.978 10.758 23.978 23.979 0 13.222-10.756 23.978-23.978 23.978" fill="#1D1D1B"/></g></svg>