<svg width="175" height="195" viewBox="0 0 175 195" xmlns="http://www.w3.org/2000/svg"><title>Icons/ILI/Weather/cloudy</title><g fill="none" fill-rule="evenodd"><path d="M121.006 150.286h10.348c15.114 0 27.406-12.29 27.406-27.407 0-10.72-6.307-20.318-15.877-24.78C142.32 70.383 119.643 48 91.788 48c-21.296 0-39.58 13.102-47.26 31.657-.074 0-.143-.01-.216-.01C24.844 79.648 9 95.493 9 114.96c0 17.93 13.432 32.743 30.752 34.996l81.254.33z" fill="#FEFEFE"/><path d="M131.352 142.956h-87.04c-15.427 0-27.987-12.552-27.987-27.994 0-14.698 11.4-26.76 25.819-27.872-.942 3.867-1.494 7.891-1.494 12.05 0 2.03 1.636 3.67 3.662 3.67a3.662 3.662 0 0 0 3.666-3.67c0-24.152 19.654-43.808 43.807-43.808 23.052 0 41.95 17.897 43.65 40.515-3.557-.528-7.213-.427-10.712.437a3.652 3.652 0 0 0-2.676 4.432c.476 1.966 2.47 3.193 4.43 2.68 3.806-.932 7.865-.75 11.548.544h.006c8.015 2.821 13.401 10.439 13.401 18.936.003 11.074-9.01 20.08-20.08 20.08zm-10.346 7.33h10.348c15.115 0 27.407-12.29 27.407-27.406-.002-10.721-6.308-20.32-15.877-24.78-.565-27.718-23.24-50.1-51.096-50.1-21.295 0-39.58 13.102-47.259 31.657-.075 0-.144-.009-.217-.009C24.844 79.648 9 95.492 9 114.96c0 17.93 13.432 32.743 30.753 34.996l81.253.33z" fill="#1D1D1B"/><path d="M131.352 142.956h-87.04c-15.427 0-27.987-12.552-27.987-27.994 0-14.698 11.4-26.76 25.819-27.872-.942 3.867-1.494 7.891-1.494 12.05 0 2.03 1.636 3.67 3.662 3.67a3.662 3.662 0 0 0 3.666-3.67c0-24.152 19.654-43.808 43.807-43.808 23.052 0 41.95 17.897 43.65 40.515-3.557-.528-7.213-.427-10.712.437a3.652 3.652 0 0 0-2.676 4.432c.476 1.966 2.47 3.193 4.43 2.68 3.806-.932 7.865-.75 11.548.544h.006c8.015 2.821 13.401 10.439 13.401 18.936.003 11.074-9.01 20.08-20.08 20.08zm-10.346 7.33h10.348c15.115 0 27.407-12.29 27.407-27.406-.002-10.721-6.308-20.32-15.877-24.78-.565-27.718-23.24-50.1-51.096-50.1-21.295 0-39.58 13.102-47.259 31.657-.075 0-.144-.009-.217-.009C24.844 79.648 9 95.492 9 114.96c0 17.93 13.432 32.743 30.753 34.996l81.253.33z" stroke="#1D1D1B"/></g></svg>