<svg width="175" height="195" viewBox="0 0 175 195" xmlns="http://www.w3.org/2000/svg"><title>Icons/ILI/Weather/snowing</title><g fill="none" fill-rule="evenodd"><path d="M120.458 118.742h9.281c13.556 0 24.581-11.023 24.581-24.581-.002-9.616-5.657-18.225-14.24-22.225C139.574 47.075 119.236 27 94.251 27c-19.099 0-35.499 11.751-42.386 28.393-.066 0-.129-.007-.194-.007C34.211 55.386 20 69.596 20 87.057c0 16.082 12.047 29.368 27.582 31.389l72.876.296z" fill="#FEFEFE"/><path d="M129.737 112.168H51.671c-13.837 0-25.102-11.258-25.102-25.108 0-13.183 10.225-24.001 23.157-25-.844 3.47-1.34 7.078-1.34 10.81a3.285 3.285 0 0 0 3.285 3.29c1.82 0 3.288-1.47 3.288-3.29 0-21.664 17.627-39.293 39.29-39.293 20.675 0 37.625 16.051 39.15 36.338-3.19-.474-6.468-.383-9.608.392a3.276 3.276 0 0 0-2.4 3.975c.427 1.764 2.215 2.864 3.973 2.404 3.414-.837 7.054-.673 10.358.487h.005c7.19 2.531 12.02 9.364 12.02 16.985.002 9.932-8.082 18.01-18.01 18.01zm-9.28 6.575h9.282c13.556 0 24.581-11.024 24.581-24.581-.002-9.617-5.657-18.225-14.24-22.226C139.574 47.075 119.236 27 94.251 27c-19.099 0-35.499 11.751-42.386 28.394-.066 0-.129-.007-.194-.007-17.46 0-31.671 14.21-31.671 31.67 0 16.082 12.047 29.368 27.582 31.389l72.876.297z" fill="#1D1D1B"/><path d="M129.737 112.168H51.671c-13.837 0-25.102-11.258-25.102-25.108 0-13.183 10.225-24.001 23.157-25-.844 3.47-1.34 7.078-1.34 10.81a3.285 3.285 0 0 0 3.285 3.29c1.82 0 3.288-1.47 3.288-3.29 0-21.664 17.627-39.293 39.29-39.293 20.675 0 37.625 16.051 39.15 36.338-3.19-.474-6.468-.383-9.608.392a3.276 3.276 0 0 0-2.4 3.975c.427 1.764 2.215 2.864 3.973 2.404 3.414-.837 7.054-.673 10.358.487h.005c7.19 2.531 12.02 9.364 12.02 16.985.002 9.932-8.082 18.01-18.01 18.01zm-9.28 6.575h9.282c13.556 0 24.581-11.024 24.581-24.581-.002-9.617-5.657-18.225-14.24-22.226C139.574 47.075 119.236 27 94.251 27c-19.099 0-35.499 11.751-42.386 28.394-.066 0-.129-.007-.194-.007-17.46 0-31.671 14.21-31.671 31.67 0 16.082 12.047 29.368 27.582 31.389l72.876.297z" stroke="#1D1D1B"/><path d="M60.723 135.702a1.042 1.042 0 0 1-.817-.276l-2.48-2.23a1.35 1.35 0 0 1-.193-1.742c.378-.53 1.07-.607 1.555-.172l2.48 2.23a1.35 1.35 0 0 1 .193 1.742 1.043 1.043 0 0 1-.738.448" fill="#1D1D1B"/><path d="M60.723 135.702a1.042 1.042 0 0 1-.817-.276l-2.48-2.23a1.35 1.35 0 0 1-.193-1.742c.378-.53 1.07-.607 1.555-.172l2.48 2.23a1.35 1.35 0 0 1 .193 1.742 1.043 1.043 0 0 1-.738.448z" stroke="#1D1D1B"/><path d="M54.723 130.702a1.042 1.042 0 0 1-.817-.276l-2.48-2.23a1.35 1.35 0 0 1-.193-1.742 1.021 1.021 0 0 1 1.555-.172l2.48 2.23a1.35 1.35 0 0 1 .193 1.743 1.044 1.044 0 0 1-.738.447" fill="#1D1D1B"/><path d="M54.723 130.702a1.042 1.042 0 0 1-.817-.276l-2.48-2.23a1.35 1.35 0 0 1-.193-1.742 1.021 1.021 0 0 1 1.555-.172l2.48 2.23a1.35 1.35 0 0 1 .193 1.743 1.044 1.044 0 0 1-.738.447z" stroke="#1D1D1B"/><path d="M52.026 135.821a1.046 1.046 0 0 1-.757-.413 1.352 1.352 0 0 1 .112-1.75l2.375-2.343c.464-.457 1.16-.412 1.561.101a1.35 1.35 0 0 1-.112 1.75l-2.374 2.34c-.232.23-.52.332-.805.315" fill="#1D1D1B"/><path d="M52.026 135.821a1.046 1.046 0 0 1-.757-.413 1.352 1.352 0 0 1 .112-1.75l2.375-2.343c.464-.457 1.16-.412 1.561.101a1.35 1.35 0 0 1-.112 1.75l-2.374 2.34c-.232.23-.52.332-.805.315z" stroke="#1D1D1B"/><path d="M58.027 130.82a1.046 1.046 0 0 1-.758-.413 1.351 1.351 0 0 1 .112-1.75l2.375-2.341c.463-.458 1.16-.413 1.561.1a1.35 1.35 0 0 1-.112 1.75l-2.375 2.34c-.232.23-.52.332-.803.315" fill="#1D1D1B"/><path d="M58.027 130.82a1.046 1.046 0 0 1-.758-.413 1.351 1.351 0 0 1 .112-1.75l2.375-2.341c.463-.458 1.16-.413 1.561.1a1.35 1.35 0 0 1-.112 1.75l-2.375 2.34c-.232.23-.52.332-.803.315z" stroke="#1D1D1B"/><path d="M55.297 124.297c.201-.2.486-.314.811-.295a1.35 1.35 0 0 1 1.24 1.239l.19 3.33a1.021 1.021 0 0 1-1.107 1.106 1.351 1.351 0 0 1-1.24-1.24l-.19-3.33c-.017-.325.096-.61.296-.81" fill="#1D1D1B"/><path d="M55.297 124.297c.201-.2.486-.314.811-.295a1.35 1.35 0 0 1 1.24 1.239l.19 3.33a1.021 1.021 0 0 1-1.107 1.106 1.351 1.351 0 0 1-1.24-1.24l-.19-3.33c-.017-.325.096-.61.296-.81z" stroke="#1D1D1B"/><path d="M56.297 132.297c.201-.2.486-.314.811-.295a1.35 1.35 0 0 1 1.24 1.239l.19 3.33c.036.65-.456 1.143-1.107 1.106a1.351 1.351 0 0 1-1.24-1.24l-.19-3.33c-.017-.325.096-.61.296-.81" fill="#1D1D1B"/><path d="M56.297 132.297c.201-.2.486-.314.811-.295a1.35 1.35 0 0 1 1.24 1.239l.19 3.33c.036.65-.456 1.143-1.107 1.106a1.351 1.351 0 0 1-1.24-1.24l-.19-3.33c-.017-.325.096-.61.296-.81z" stroke="#1D1D1B"/><path d="M63.382 130.297c.2.2.313.486.295.81-.037.647-.594 1.204-1.24 1.24l-3.329.19a1.021 1.021 0 0 1-1.106-1.106 1.351 1.351 0 0 1 1.24-1.24l3.329-.189c.325-.019.61.095.81.295" fill="#1D1D1B"/><path d="M63.382 130.297c.2.2.313.486.295.81-.037.647-.594 1.204-1.24 1.24l-3.329.19a1.021 1.021 0 0 1-1.106-1.106 1.351 1.351 0 0 1 1.24-1.24l3.329-.189c.325-.019.61.095.81.295z" stroke="#1D1D1B"/><path d="M55.382 130.297c.2.2.313.486.295.81-.037.647-.594 1.204-1.24 1.24l-3.329.19c-.65.037-1.143-.456-1.106-1.106a1.351 1.351 0 0 1 1.24-1.24l3.329-.189c.325-.019.61.095.81.295" fill="#1D1D1B"/><path d="M55.382 130.297c.2.2.313.486.295.81-.037.647-.594 1.204-1.24 1.24l-3.329.19c-.65.037-1.143-.456-1.106-1.106a1.351 1.351 0 0 1 1.24-1.24l3.329-.189c.325-.019.61.095.81.295z" stroke="#1D1D1B"/><path d="M95.724 144.702a1.042 1.042 0 0 1-.818-.276l-2.48-2.23a1.35 1.35 0 0 1-.193-1.742c.377-.53 1.07-.607 1.555-.172l2.48 2.23c.482.432.568 1.215.193 1.742a1.046 1.046 0 0 1-.737.448" fill="#1D1D1B"/><path d="M95.724 144.702a1.042 1.042 0 0 1-.818-.276l-2.48-2.23a1.35 1.35 0 0 1-.193-1.742c.377-.53 1.07-.607 1.555-.172l2.48 2.23c.482.432.568 1.215.193 1.742a1.046 1.046 0 0 1-.737.448z" stroke="#1D1D1B"/><path d="M89.724 139.702a1.042 1.042 0 0 1-.818-.276l-2.48-2.23a1.35 1.35 0 0 1-.193-1.742c.377-.53 1.07-.607 1.555-.172l2.48 2.23c.482.432.568 1.215.193 1.742a1.046 1.046 0 0 1-.737.448" fill="#1D1D1B"/><path d="M89.724 139.702a1.042 1.042 0 0 1-.818-.276l-2.48-2.23a1.35 1.35 0 0 1-.193-1.742c.377-.53 1.07-.607 1.555-.172l2.48 2.23c.482.432.568 1.215.193 1.742a1.046 1.046 0 0 1-.737.448z" stroke="#1D1D1B"/><path d="M87.027 144.82a1.046 1.046 0 0 1-.758-.413 1.351 1.351 0 0 1 .112-1.75l2.375-2.341c.463-.457 1.159-.413 1.561.1a1.35 1.35 0 0 1-.112 1.749l-2.375 2.341c-.232.23-.52.332-.803.315" fill="#1D1D1B"/><path d="M87.027 144.82a1.046 1.046 0 0 1-.758-.413 1.351 1.351 0 0 1 .112-1.75l2.375-2.341c.463-.457 1.159-.413 1.561.1a1.35 1.35 0 0 1-.112 1.749l-2.375 2.341c-.232.23-.52.332-.803.315z" stroke="#1D1D1B"/><path d="M93.026 138.82a1.044 1.044 0 0 1-.757-.413 1.352 1.352 0 0 1 .112-1.75l2.375-2.341a1.022 1.022 0 0 1 1.561.1 1.35 1.35 0 0 1-.112 1.749l-2.374 2.341a1.04 1.04 0 0 1-.805.315" fill="#1D1D1B"/><path d="M93.026 138.82a1.044 1.044 0 0 1-.757-.413 1.352 1.352 0 0 1 .112-1.75l2.375-2.341a1.022 1.022 0 0 1 1.561.1 1.35 1.35 0 0 1-.112 1.749l-2.374 2.341a1.04 1.04 0 0 1-.805.315z" stroke="#1D1D1B"/><path d="M90.297 132.297c.2-.2.486-.314.811-.295a1.351 1.351 0 0 1 1.24 1.24l.19 3.329a1.022 1.022 0 0 1-1.107 1.106 1.352 1.352 0 0 1-1.24-1.24l-.189-3.33a1.04 1.04 0 0 1 .295-.81" fill="#1D1D1B"/><path d="M90.297 132.297c.2-.2.486-.314.811-.295a1.351 1.351 0 0 1 1.24 1.24l.19 3.329a1.022 1.022 0 0 1-1.107 1.106 1.352 1.352 0 0 1-1.24-1.24l-.189-3.33a1.04 1.04 0 0 1 .295-.81z" stroke="#1D1D1B"/><path d="M91.297 140.297c.2-.2.486-.314.811-.295a1.35 1.35 0 0 1 1.24 1.24l.19 3.329a1.022 1.022 0 0 1-1.107 1.106 1.351 1.351 0 0 1-1.24-1.24l-.189-3.33a1.04 1.04 0 0 1 .295-.81" fill="#1D1D1B"/><path d="M91.297 140.297c.2-.2.486-.314.811-.295a1.35 1.35 0 0 1 1.24 1.24l.19 3.329a1.022 1.022 0 0 1-1.107 1.106 1.351 1.351 0 0 1-1.24-1.24l-.189-3.33a1.04 1.04 0 0 1 .295-.81z" stroke="#1D1D1B"/><path d="M98.382 138.297c.201.2.314.486.295.811a1.351 1.351 0 0 1-1.24 1.24l-3.329.19a1.022 1.022 0 0 1-1.106-1.107 1.35 1.35 0 0 1 1.24-1.24l3.329-.189c.325-.019.61.095.81.295" fill="#1D1D1B"/><path d="M98.382 138.297c.201.2.314.486.295.811a1.351 1.351 0 0 1-1.24 1.24l-3.329.19a1.022 1.022 0 0 1-1.106-1.107 1.35 1.35 0 0 1 1.24-1.24l3.329-.189c.325-.019.61.095.81.295z" stroke="#1D1D1B"/><path d="M90.382 138.297c.201.2.314.486.295.811a1.351 1.351 0 0 1-1.24 1.24l-3.329.19a1.022 1.022 0 0 1-1.106-1.107 1.35 1.35 0 0 1 1.24-1.24l3.329-.189c.325-.019.61.095.81.295" fill="#1D1D1B"/><path d="M90.382 138.297c.201.2.314.486.295.811a1.351 1.351 0 0 1-1.24 1.24l-3.329.19a1.022 1.022 0 0 1-1.106-1.107 1.35 1.35 0 0 1 1.24-1.24l3.329-.189c.325-.019.61.095.81.295z" stroke="#1D1D1B"/><path d="M79.724 169.702a1.044 1.044 0 0 1-.818-.276l-2.48-2.23a1.35 1.35 0 0 1-.193-1.742 1.021 1.021 0 0 1 1.555-.172l2.48 2.23c.482.432.568 1.215.193 1.742a1.043 1.043 0 0 1-.737.448" fill="#1D1D1B"/><path d="M79.724 169.702a1.044 1.044 0 0 1-.818-.276l-2.48-2.23a1.35 1.35 0 0 1-.193-1.742 1.021 1.021 0 0 1 1.555-.172l2.48 2.23c.482.432.568 1.215.193 1.742a1.043 1.043 0 0 1-.737.448z" stroke="#1D1D1B"/><path d="M73.724 163.702a1.044 1.044 0 0 1-.818-.276l-2.48-2.23a1.35 1.35 0 0 1-.193-1.742 1.021 1.021 0 0 1 1.555-.172l2.48 2.23c.482.432.568 1.215.193 1.742a1.044 1.044 0 0 1-.737.448" fill="#1D1D1B"/><path d="M73.724 163.702a1.044 1.044 0 0 1-.818-.276l-2.48-2.23a1.35 1.35 0 0 1-.193-1.742 1.021 1.021 0 0 1 1.555-.172l2.48 2.23c.482.432.568 1.215.193 1.742a1.044 1.044 0 0 1-.737.448z" stroke="#1D1D1B"/><path d="M71.026 169.821a1.046 1.046 0 0 1-.757-.413 1.352 1.352 0 0 1 .112-1.75l2.375-2.343c.464-.457 1.16-.411 1.561.1a1.35 1.35 0 0 1-.112 1.75l-2.374 2.342c-.232.229-.52.332-.805.314" fill="#1D1D1B"/><path d="M71.026 169.821a1.046 1.046 0 0 1-.757-.413 1.352 1.352 0 0 1 .112-1.75l2.375-2.343c.464-.457 1.16-.411 1.561.1a1.35 1.35 0 0 1-.112 1.75l-2.374 2.342c-.232.229-.52.332-.805.314z" stroke="#1D1D1B"/><path d="M77.027 163.821a1.046 1.046 0 0 1-.758-.413 1.351 1.351 0 0 1 .112-1.75l2.375-2.343c.463-.457 1.159-.412 1.56.101.4.509.35 1.295-.11 1.75l-2.376 2.34c-.232.23-.52.332-.803.315" fill="#1D1D1B"/><path d="M77.027 163.821a1.046 1.046 0 0 1-.758-.413 1.351 1.351 0 0 1 .112-1.75l2.375-2.343c.463-.457 1.159-.412 1.56.101.4.509.35 1.295-.11 1.75l-2.376 2.34c-.232.23-.52.332-.803.315z" stroke="#1D1D1B"/><path d="M73.297 157.297c.2-.2.486-.314.811-.295a1.35 1.35 0 0 1 1.24 1.24l.19 3.329c.037.65-.456 1.144-1.107 1.107a1.351 1.351 0 0 1-1.24-1.24l-.189-3.33c-.019-.325.095-.61.295-.81" fill="#1D1D1B"/><path d="M73.297 157.297c.2-.2.486-.314.811-.295a1.35 1.35 0 0 1 1.24 1.24l.19 3.329c.037.65-.456 1.144-1.107 1.107a1.351 1.351 0 0 1-1.24-1.24l-.189-3.33c-.019-.325.095-.61.295-.81z" stroke="#1D1D1B"/><path d="M74.297 165.297c.2-.2.486-.314.811-.295a1.35 1.35 0 0 1 1.24 1.24l.19 3.329c.036.65-.456 1.144-1.107 1.107a1.351 1.351 0 0 1-1.24-1.24l-.19-3.33c-.017-.325.096-.61.296-.81" fill="#1D1D1B"/><path d="M74.297 165.297c.2-.2.486-.314.811-.295a1.35 1.35 0 0 1 1.24 1.24l.19 3.329c.036.65-.456 1.144-1.107 1.107a1.351 1.351 0 0 1-1.24-1.24l-.19-3.33c-.017-.325.096-.61.296-.81z" stroke="#1D1D1B"/><path d="M81.382 163.297c.2.2.313.486.295.81-.037.647-.594 1.204-1.24 1.24l-3.33.19a1.02 1.02 0 0 1-1.105-1.106 1.351 1.351 0 0 1 1.239-1.24l3.33-.189c.324-.019.61.095.81.295" fill="#1D1D1B"/><path d="M81.382 163.297c.2.2.313.486.295.81-.037.647-.594 1.204-1.24 1.24l-3.33.19a1.02 1.02 0 0 1-1.105-1.106 1.351 1.351 0 0 1 1.239-1.24l3.33-.189c.324-.019.61.095.81.295z" stroke="#1D1D1B"/><path d="M73.382 163.297c.2.2.313.486.295.81-.037.647-.594 1.204-1.24 1.24l-3.33.19a1.02 1.02 0 0 1-1.105-1.106 1.351 1.351 0 0 1 1.24-1.24l3.329-.189c.325-.019.61.095.81.295" fill="#1D1D1B"/><path d="M73.382 163.297c.2.2.313.486.295.81-.037.647-.594 1.204-1.24 1.24l-3.33.19a1.02 1.02 0 0 1-1.105-1.106 1.351 1.351 0 0 1 1.24-1.24l3.329-.189c.325-.019.61.095.81.295z" stroke="#1D1D1B"/><path d="M124.723 142.702a1.042 1.042 0 0 1-.817-.276l-2.48-2.23a1.35 1.35 0 0 1-.193-1.742 1.022 1.022 0 0 1 1.555-.172l2.48 2.23a1.35 1.35 0 0 1 .193 1.742 1.044 1.044 0 0 1-.738.448" fill="#1D1D1B"/><path d="M124.723 142.702a1.042 1.042 0 0 1-.817-.276l-2.48-2.23a1.35 1.35 0 0 1-.193-1.742 1.022 1.022 0 0 1 1.555-.172l2.48 2.23a1.35 1.35 0 0 1 .193 1.742 1.044 1.044 0 0 1-.738.448z" stroke="#1D1D1B"/><path d="M118.724 137.702a1.042 1.042 0 0 1-.818-.276l-2.48-2.23a1.35 1.35 0 0 1-.193-1.742 1.022 1.022 0 0 1 1.555-.172l2.48 2.23c.482.432.568 1.215.193 1.742a1.046 1.046 0 0 1-.737.448" fill="#1D1D1B"/><path d="M118.724 137.702a1.042 1.042 0 0 1-.818-.276l-2.48-2.23a1.35 1.35 0 0 1-.193-1.742 1.022 1.022 0 0 1 1.555-.172l2.48 2.23c.482.432.568 1.215.193 1.742a1.046 1.046 0 0 1-.737.448z" stroke="#1D1D1B"/><path d="M117.026 142.82a1.044 1.044 0 0 1-.757-.413 1.352 1.352 0 0 1 .112-1.75l2.375-2.341a1.022 1.022 0 0 1 1.561.1 1.35 1.35 0 0 1-.112 1.749l-2.374 2.341c-.232.23-.52.332-.805.315" fill="#1D1D1B"/><path d="M117.026 142.82a1.044 1.044 0 0 1-.757-.413 1.352 1.352 0 0 1 .112-1.75l2.375-2.341a1.022 1.022 0 0 1 1.561.1 1.35 1.35 0 0 1-.112 1.749l-2.374 2.341c-.232.23-.52.332-.805.315z" stroke="#1D1D1B"/><path d="M122.027 136.82a1.044 1.044 0 0 1-.758-.413 1.351 1.351 0 0 1 .112-1.75l2.375-2.341c.463-.457 1.159-.413 1.56.1.4.509.35 1.295-.11 1.749l-2.376 2.342c-.232.229-.52.332-.803.314" fill="#1D1D1B"/><path d="M122.027 136.82a1.044 1.044 0 0 1-.758-.413 1.351 1.351 0 0 1 .112-1.75l2.375-2.341c.463-.457 1.159-.413 1.56.1.4.509.35 1.295-.11 1.749l-2.376 2.342c-.232.229-.52.332-.803.314z" stroke="#1D1D1B"/><path d="M119.297 131.297c.2-.2.486-.314.811-.295a1.35 1.35 0 0 1 1.24 1.24l.19 3.329a1.021 1.021 0 0 1-1.107 1.106 1.35 1.35 0 0 1-1.24-1.24l-.19-3.33c-.017-.324.096-.61.296-.81" fill="#1D1D1B"/><path d="M119.297 131.297c.2-.2.486-.314.811-.295a1.35 1.35 0 0 1 1.24 1.24l.19 3.329a1.021 1.021 0 0 1-1.107 1.106 1.35 1.35 0 0 1-1.24-1.24l-.19-3.33c-.017-.324.096-.61.296-.81z" stroke="#1D1D1B"/><path d="M119.297 139.297c.201-.2.486-.314.811-.295a1.35 1.35 0 0 1 1.24 1.24l.19 3.329a1.021 1.021 0 0 1-1.107 1.106 1.351 1.351 0 0 1-1.24-1.24l-.19-3.33c-.017-.324.096-.61.296-.81" fill="#1D1D1B"/><path d="M119.297 139.297c.201-.2.486-.314.811-.295a1.35 1.35 0 0 1 1.24 1.24l.19 3.329a1.021 1.021 0 0 1-1.107 1.106 1.351 1.351 0 0 1-1.24-1.24l-.19-3.33c-.017-.324.096-.61.296-.81z" stroke="#1D1D1B"/><path d="M126.382 136.297c.2.2.313.486.295.811a1.352 1.352 0 0 1-1.24 1.24l-3.33.19a1.021 1.021 0 0 1-1.105-1.107 1.35 1.35 0 0 1 1.239-1.24l3.33-.189c.325-.019.61.095.81.295" fill="#1D1D1B"/><path d="M126.382 136.297c.2.2.313.486.295.811a1.352 1.352 0 0 1-1.24 1.24l-3.33.19a1.021 1.021 0 0 1-1.105-1.107 1.35 1.35 0 0 1 1.239-1.24l3.33-.189c.325-.019.61.095.81.295z" stroke="#1D1D1B"/><path d="M118.382 137.297c.2.2.313.486.295.811a1.352 1.352 0 0 1-1.24 1.24l-3.329.19a1.022 1.022 0 0 1-1.106-1.107 1.35 1.35 0 0 1 1.24-1.24l3.329-.189c.325-.019.61.095.81.295" fill="#1D1D1B"/><path d="M118.382 137.297c.2.2.313.486.295.811a1.352 1.352 0 0 1-1.24 1.24l-3.329.19a1.022 1.022 0 0 1-1.106-1.107 1.35 1.35 0 0 1 1.24-1.24l3.329-.189c.325-.019.61.095.81.295z" stroke="#1D1D1B"/></g></svg>