<svg width="175" height="195" viewBox="0 0 175 195" xmlns="http://www.w3.org/2000/svg" xmlns:xlink="http://www.w3.org/1999/xlink"><title>Icons/ILI/Weather/night</title><defs><path id="a" d="M.032.336h7.39V8H.031z"/></defs><g fill="none" fill-rule="evenodd"><path d="M76.636 139.188c-5.9 0-11.5-1.292-16.562-3.594 16.785-7.069 28.617-23.837 28.617-43.357a47.073 47.073 0 0 0-15.549-35.03 39.962 39.962 0 0 1 3.494-.165c22.37 0 40.569 18.426 40.569 41.073 0 22.646-18.2 41.072-40.569 41.072m0-87.187a46.17 46.17 0 0 0-10 1.101c-2.675.592-3.153 4.787-1.062 6.26 10.465 7.366 17.324 19.548 17.324 33.315 0 18.59-12.502 34.295-29.512 39.137-2.437.695-3.37 4.829-1.058 6.261A45.97 45.97 0 0 0 76.636 145C102.2 145 123 124.138 123 98.5 123 72.86 102.2 52 76.636 52" fill="#1D1D1B"/><path d="M76.636 139.188c-5.9 0-11.5-1.292-16.562-3.594 16.785-7.069 28.617-23.837 28.617-43.357a47.073 47.073 0 0 0-15.549-35.03 39.962 39.962 0 0 1 3.494-.165c22.37 0 40.569 18.426 40.569 41.073 0 22.646-18.2 41.072-40.569 41.072zm0-87.188a46.17 46.17 0 0 0-10 1.101c-2.675.592-3.153 4.787-1.062 6.26 10.465 7.366 17.324 19.548 17.324 33.315 0 18.59-12.502 34.295-29.512 39.137-2.437.695-3.37 4.829-1.058 6.261A45.97 45.97 0 0 0 76.636 145C102.2 145 123 124.138 123 98.5 123 72.86 102.2 52 76.636 52z" stroke="#1D1D1B" stroke-width=".75"/><path d="M17.416 59.693l7.41 7.905" fill="#1D1D1B"/><path d="M17.416 59.693l7.41 7.905" stroke="#1D1D1B" stroke-width="2.5" stroke-linecap="round"/><path d="M24.826 59.693l-7.41 7.905" fill="#1D1D1B"/><path d="M24.826 59.693l-7.41 7.905" stroke="#1D1D1B" stroke-width="2.5" stroke-linecap="round"/><path d="M136.68 132.057l7.146 8.132" fill="#1D1D1B"/><path d="M136.68 132.057l7.146 8.132" stroke="#1D1D1B" stroke-width="2.5" stroke-linecap="round"/><path d="M143.826 132.057l-7.146 8.132" fill="#1D1D1B"/><path d="M143.826 132.057l-7.146 8.132" stroke="#1D1D1B" stroke-width="2.5" stroke-linecap="round"/><g><path d="M98.423 35.467l4.982 5.512" fill="#1D1D1B"/><path d="M98.423 35.467l4.982 5.512" stroke="#1D1D1B" stroke-width="2.5" stroke-linecap="round"/></g><g><path d="M103.406 35.467l-4.982 5.512" fill="#1D1D1B"/><path d="M103.406 35.467l-4.982 5.512" stroke="#1D1D1B" stroke-width="2.5" stroke-linecap="round"/></g><path d="M36 109a4 4 0 1 1-8 0 4 4 0 0 1 8 0" fill="#1D1D1B"/><g transform="translate(116 154)"><mask id="b" fill="#fff"><use xlink:href="#a"/></mask><path d="M7.421 4.17C7.421 6.284 5.768 8 3.727 8S.032 6.284.032 4.17C.032 2.054 1.686.336 3.727.336c2.04 0 3.694 1.718 3.694 3.834" fill="#1D1D1B" mask="url(#b)"/></g></g></svg>