<svg width="175" height="195" viewBox="0 0 175 195" xmlns="http://www.w3.org/2000/svg"><title>Icons/ILI/Weather/cloud</title><g fill="none" fill-rule="evenodd"><path d="M132.965 107.488h7.045c10.286 0 18.654-8.366 18.654-18.656 0-7.296-4.294-13.83-10.807-16.867-.384-18.868-15.82-34.104-34.782-34.104-14.495 0-26.942 8.918-32.169 21.548-.051 0-.098-.005-.148-.005-13.25 0-24.036 10.785-24.036 24.038 0 12.205 9.142 22.288 20.933 23.823l55.31.223z" fill="#FFF"/><path d="M132.965 107.488h7.045c10.286 0 18.654-8.366 18.654-18.656 0-7.296-4.294-13.83-10.807-16.867-.384-18.868-15.82-34.104-34.782-34.104-14.495 0-26.942 8.918-32.169 21.548-.051 0-.098-.005-.148-.005-13.25 0-24.036 10.785-24.036 24.038 0 12.205 9.142 22.288 20.933 23.823l55.31.223z" stroke="#1D1D1B"/><path d="M140.008 102.498H80.759c-10.501 0-19.052-8.543-19.052-19.055 0-10.006 7.76-18.216 17.576-18.973-.641 2.632-1.018 5.371-1.018 8.203a2.494 2.494 0 1 0 4.989 0c0-16.442 13.378-29.822 29.82-29.822 15.69 0 28.554 12.184 29.71 27.58-2.419-.36-4.906-.29-7.29.298a2.486 2.486 0 0 0-1.821 3.016c.325 1.338 1.68 2.174 3.014 1.825a13.889 13.889 0 0 1 7.863.37h.005c5.453 1.92 9.12 7.105 9.12 12.89.001 7.538-6.132 13.668-13.667 13.668zm-7.044 4.99h7.045c10.287 0 18.657-8.365 18.657-18.655-.002-7.298-4.295-13.832-10.81-16.869-.383-18.868-15.82-34.104-34.78-34.104-14.496 0-26.942 8.919-32.17 21.55-.05 0-.098-.005-.147-.005-13.252 0-24.037 10.784-24.037 24.036 0 12.207 9.142 22.288 20.932 23.823l55.31.224z" fill="#1D1D1B"/><path d="M140.008 102.498H80.759c-10.501 0-19.052-8.543-19.052-19.055 0-10.006 7.76-18.216 17.576-18.973-.641 2.632-1.018 5.371-1.018 8.203a2.494 2.494 0 1 0 4.989 0c0-16.442 13.378-29.822 29.82-29.822 15.69 0 28.554 12.184 29.71 27.58-2.419-.36-4.906-.29-7.29.298a2.486 2.486 0 0 0-1.821 3.016c.325 1.338 1.68 2.174 3.014 1.825a13.889 13.889 0 0 1 7.863.37h.005c5.453 1.92 9.12 7.105 9.12 12.89.001 7.538-6.132 13.668-13.667 13.668zm-7.044 4.99h7.045c10.287 0 18.657-8.365 18.657-18.655-.002-7.298-4.295-13.832-10.81-16.869-.383-18.868-15.82-34.104-34.78-34.104-14.496 0-26.942 8.919-32.17 21.55-.05 0-.098-.005-.147-.005-13.252 0-24.037 10.784-24.037 24.036 0 12.207 9.142 22.288 20.932 23.823l55.31.224z" stroke="#1D1D1B" stroke-width=".25"/><path d="M77.566 142.303h7.043c10.29 0 18.656-8.365 18.656-18.657-.001-7.298-4.294-13.83-10.807-16.867-.384-18.868-15.82-34.104-34.782-34.104-14.495 0-26.942 8.919-32.169 21.548-.052 0-.098-.005-.148-.005-13.25 0-24.036 10.786-24.036 24.036 0 12.207 9.142 22.292 20.932 23.823l55.31.226z" fill="#FFF"/><path d="M77.566 142.303h7.043c10.29 0 18.656-8.365 18.656-18.657-.001-7.298-4.294-13.83-10.807-16.867-.384-18.868-15.82-34.104-34.782-34.104-14.495 0-26.942 8.919-32.169 21.548-.052 0-.098-.005-.148-.005-13.25 0-24.036 10.786-24.036 24.036 0 12.207 9.142 22.292 20.932 23.823l55.31.226z" stroke="#1D1D1B"/><path d="M84.608 137.313H25.36c-10.502 0-19.052-8.544-19.052-19.056 0-10.006 7.76-18.216 17.576-18.973-.642 2.632-1.017 5.371-1.017 8.203a2.493 2.493 0 1 0 4.987 0c0-16.442 13.38-29.822 29.82-29.822 15.69 0 28.556 12.184 29.712 27.579-2.42-.358-4.908-.29-7.29.3a2.487 2.487 0 0 0-1.823 3.015c.325 1.339 1.681 2.173 3.016 1.824a13.905 13.905 0 0 1 7.862.37h.004a13.69 13.69 0 0 1 9.122 12.89c.001 7.54-6.134 13.67-13.67 13.67zm-7.042 4.989h7.044c10.288 0 18.656-8.365 18.656-18.655-.002-7.3-4.294-13.832-10.81-16.869-.382-18.868-15.817-34.104-34.78-34.104-14.496 0-26.942 8.919-32.17 21.55-.05 0-.098-.006-.146-.006-13.253 0-24.038 10.785-24.038 24.037 0 12.207 9.144 22.29 20.934 23.823l55.31.224z" fill="#1D1D1B"/><path d="M84.608 137.313H25.36c-10.502 0-19.052-8.544-19.052-19.056 0-10.006 7.76-18.216 17.576-18.973-.642 2.632-1.017 5.371-1.017 8.203a2.493 2.493 0 1 0 4.987 0c0-16.442 13.38-29.822 29.82-29.822 15.69 0 28.556 12.184 29.712 27.579-2.42-.358-4.908-.29-7.29.3a2.487 2.487 0 0 0-1.823 3.015c.325 1.339 1.681 2.173 3.016 1.824a13.905 13.905 0 0 1 7.862.37h.004a13.69 13.69 0 0 1 9.122 12.89c.001 7.54-6.134 13.67-13.67 13.67zm-7.042 4.989h7.044c10.288 0 18.656-8.365 18.656-18.655-.002-7.3-4.294-13.832-10.81-16.869-.382-18.868-15.817-34.104-34.78-34.104-14.496 0-26.942 8.919-32.17 21.55-.05 0-.098-.006-.146-.006-13.253 0-24.038 10.785-24.038 24.037 0 12.207 9.144 22.29 20.934 23.823l55.31.224z" stroke="#1D1D1B"/><path d="M83.5 137.313H24.253c-10.501 0-19.052-8.544-19.052-19.056 0-10.006 7.761-18.216 17.576-18.973-.64 2.632-1.017 5.371-1.017 8.203a2.493 2.493 0 1 0 4.988 0c0-16.442 13.38-29.822 29.82-29.822 15.692 0 28.556 12.184 29.712 27.579-2.42-.358-4.908-.29-7.291.3a2.484 2.484 0 0 0-1.82 3.015c.323 1.339 1.68 2.173 3.014 1.824a13.904 13.904 0 0 1 7.862.37h.005a13.69 13.69 0 0 1 9.12 12.89c.002 7.54-6.131 13.67-13.668 13.67m7.85-30.535c-.384-18.868-15.82-34.104-34.782-34.104-14.495 0-26.942 8.919-32.169 21.55-.05 0-.098-.006-.148-.006C11 94.218.215 105.003.215 118.255c0 12.207 9.144 22.29 20.934 23.823L.947 162.28a2.497 2.497 0 0 0 1.764 4.264 2.49 2.49 0 0 0 1.762-.731l23.508-23.51h17.185l-4.833 4.83a2.5 2.5 0 0 0 1.765 4.262c.64 0 1.277-.242 1.764-.733l8.356-8.36h17.184L49.426 162.28a2.497 2.497 0 1 0 1.763 4.263c.637 0 1.278-.245 1.764-.73l23.506-23.51h7.043c10.288 0 18.657-8.365 18.657-18.655-.002-7.3-4.293-13.832-10.808-16.869" fill="#1D1D1B"/><path d="M83.5 137.313H24.253c-10.501 0-19.052-8.544-19.052-19.056 0-10.006 7.761-18.216 17.576-18.973-.64 2.632-1.017 5.371-1.017 8.203a2.493 2.493 0 1 0 4.988 0c0-16.442 13.38-29.822 29.82-29.822 15.692 0 28.556 12.184 29.712 27.579-2.42-.358-4.908-.29-7.291.3a2.484 2.484 0 0 0-1.82 3.015c.323 1.339 1.68 2.173 3.014 1.824a13.904 13.904 0 0 1 7.862.37h.005a13.69 13.69 0 0 1 9.12 12.89c.002 7.54-6.131 13.67-13.668 13.67zm7.85-30.535C90.968 87.91 75.533 72.674 56.57 72.674c-14.495 0-26.942 8.919-32.169 21.55-.05 0-.098-.006-.148-.006C11 94.218.215 105.003.215 118.255c0 12.207 9.144 22.29 20.934 23.823L.947 162.28a2.497 2.497 0 0 0 1.764 4.264 2.49 2.49 0 0 0 1.762-.731l23.508-23.51h17.185l-4.833 4.83a2.5 2.5 0 0 0 1.765 4.262c.64 0 1.277-.242 1.764-.733l8.356-8.36h17.184L49.426 162.28a2.497 2.497 0 1 0 1.763 4.263c.637 0 1.278-.245 1.764-.73l23.506-23.51h7.043c10.288 0 18.657-8.365 18.657-18.655-.002-7.3-4.293-13.832-10.808-16.869z" stroke="#1D1D1B" stroke-width=".25"/><path d="M32.814 154.653l-7.632 7.628a2.504 2.504 0 0 0 0 3.532 2.492 2.492 0 0 0 3.529 0l7.63-7.63a2.494 2.494 0 1 0-3.527-3.53" fill="#1D1D1B"/><path d="M32.814 154.653l-7.632 7.628a2.504 2.504 0 0 0 0 3.532 2.492 2.492 0 0 0 3.529 0l7.63-7.63a2.494 2.494 0 1 0-3.527-3.53z" stroke="#1D1D1B" stroke-width=".25"/></g></svg>