<svg width="175" height="195" viewBox="0 0 175 195" xmlns="http://www.w3.org/2000/svg"><title>Icons/ILI/Weather/night-cloud</title><g fill="none" fill-rule="evenodd"><path d="M72.511 42.79l4.633 5.128" fill="#1D1D1B"/><path d="M72.511 42.79l4.633 5.128" stroke="#1D1D1B" stroke-width="2.5" stroke-linecap="round"/><path d="M77.144 42.79l-4.632 5.128" fill="#1D1D1B"/><path d="M77.144 42.79l-4.632 5.128" stroke="#1D1D1B" stroke-width="2.5" stroke-linecap="round"/><path d="M55.266 125.048a31.783 31.783 0 0 1-13.16-2.847c13.337-5.598 22.738-18.883 22.738-34.347 0-11.024-4.78-20.936-12.352-27.751a31.77 31.77 0 0 1 2.774-.128c17.773 0 32.232 14.595 32.232 32.535 0 17.943-14.46 32.538-32.232 32.538m0-69.07c-2.73 0-5.386.307-7.946.873-2.125.469-2.504 3.791-.843 4.96 8.314 5.834 13.764 15.484 13.764 26.39 0 14.728-9.931 27.17-23.448 31.005-1.936.55-2.677 3.825-.84 4.96a36.604 36.604 0 0 0 19.313 5.487c20.31 0 36.837-16.527 36.837-36.838 0-20.312-16.526-36.837-36.837-36.837" fill="#1D1D1B"/><path d="M55.266 125.048a31.783 31.783 0 0 1-13.16-2.847c13.337-5.598 22.738-18.883 22.738-34.347 0-11.024-4.78-20.936-12.352-27.751a31.77 31.77 0 0 1 2.774-.128c17.773 0 32.232 14.595 32.232 32.535 0 17.943-14.46 32.538-32.232 32.538zm0-69.07c-2.73 0-5.386.307-7.946.873-2.125.469-2.504 3.791-.843 4.96 8.314 5.834 13.764 15.484 13.764 26.39 0 14.728-9.931 27.17-23.448 31.005-1.936.55-2.677 3.825-.84 4.96a36.604 36.604 0 0 0 19.313 5.487c20.31 0 36.837-16.527 36.837-36.838 0-20.312-16.526-36.837-36.837-36.837z" stroke="#1D1D1B" stroke-width=".75"/><path d="M138.389 160.432h7.619c11.125 0 20.173-9.045 20.173-20.175 0-7.892-4.644-14.956-11.688-18.24-.415-20.403-17.107-36.88-37.613-36.88-15.674 0-29.135 9.645-34.787 23.303-.054 0-.106-.006-.16-.006-14.33 0-25.992 11.663-25.992 25.993 0 13.2 9.886 24.106 22.638 25.761l59.81.244z" fill="#FFF"/><path d="M138.389 160.432h7.619c11.125 0 20.173-9.045 20.173-20.175 0-7.892-4.644-14.956-11.688-18.24-.415-20.403-17.107-36.88-37.613-36.88-15.674 0-29.135 9.645-34.787 23.303-.054 0-.106-.006-.16-.006-14.33 0-25.992 11.663-25.992 25.993 0 13.2 9.886 24.106 22.638 25.761l59.81.244z" stroke="#1D1D1B"/><path d="M146.005 155.036h-64.07c-11.357 0-20.603-9.239-20.603-20.606 0-10.82 8.39-19.699 19.006-20.518-.694 2.847-1.101 5.809-1.101 8.871a2.698 2.698 0 1 0 5.395 0c0-17.78 14.467-32.25 32.248-32.25 16.967 0 30.878 13.177 32.13 29.824-2.618-.387-5.308-.313-7.885.324a2.688 2.688 0 0 0-1.97 3.261c.352 1.448 1.818 2.35 3.261 1.972a15.037 15.037 0 0 1 8.503.4h.003a14.807 14.807 0 0 1 9.865 13.94c.001 8.153-6.633 14.782-14.782 14.782zm-7.617 5.395h7.62c11.125 0 20.174-9.045 20.174-20.173-.002-7.894-4.644-14.958-11.69-18.241-.414-20.404-17.106-36.88-37.61-36.88-15.677 0-29.135 9.644-34.79 23.304-.053 0-.105-.008-.157-.008-14.332 0-25.995 11.664-25.995 25.995 0 13.2 9.887 24.104 22.638 25.762l59.81.241z" fill="#1D1D1B"/><path d="M146.005 155.036h-64.07c-11.357 0-20.603-9.239-20.603-20.606 0-10.82 8.39-19.699 19.006-20.518-.694 2.847-1.101 5.809-1.101 8.871a2.698 2.698 0 1 0 5.395 0c0-17.78 14.467-32.25 32.248-32.25 16.967 0 30.878 13.177 32.13 29.824-2.618-.387-5.308-.313-7.885.324a2.688 2.688 0 0 0-1.97 3.261c.352 1.448 1.818 2.35 3.261 1.972a15.037 15.037 0 0 1 8.503.4h.003a14.807 14.807 0 0 1 9.865 13.94c.001 8.153-6.633 14.782-14.782 14.782zm-7.617 5.395h7.62c11.125 0 20.174-9.045 20.174-20.173-.002-7.894-4.644-14.958-11.69-18.241-.414-20.404-17.106-36.88-37.61-36.88-15.677 0-29.135 9.644-34.79 23.304-.053 0-.105-.008-.157-.008-14.332 0-25.995 11.664-25.995 25.995 0 13.2 9.887 24.104 22.638 25.762l59.81.241z" stroke="#1D1D1B" stroke-width=".25"/><path d="M8.396 61.534l5.907 6.538" fill="#1D1D1B"/><path d="M8.396 61.534l5.907 6.538" stroke="#1D1D1B" stroke-width="2.5" stroke-linecap="round"/><g><path d="M14.303 61.534l-5.907 6.538" fill="#1D1D1B"/><path d="M14.303 61.534l-5.907 6.538" stroke="#1D1D1B" stroke-width="2.5" stroke-linecap="round"/></g><path d="M22.955 100.635a3.055 3.055 0 1 1-6.11 0 3.055 3.055 0 0 1 6.11 0" fill="#1D1D1B"/></g></svg>