<svg width="172" height="191" viewBox="0 0 172 191" xmlns="http://www.w3.org/2000/svg"><title>Icons/Weather/Sun-cloud</title><g fill="none" fill-rule="evenodd"><path d="M48.588 85.547c0 20.38 16.578 36.96 36.958 36.96 20.382 0 36.96-16.58 36.96-36.96 0-20.38-16.578-36.96-36.96-36.96-20.38 0-36.958 16.58-36.958 36.96m-5.282 0c0-23.291 18.95-42.24 42.24-42.24 23.292 0 42.242 18.949 42.242 42.24 0 23.29-18.95 42.24-42.242 42.24-23.29 0-42.24-18.95-42.24-42.24" fill="#1D1D1B"/><path d="M48.588 85.547c0 20.38 16.578 36.96 36.958 36.96 20.382 0 36.96-16.58 36.96-36.96 0-20.38-16.578-36.96-36.96-36.96-20.38 0-36.958 16.58-36.958 36.96zm-5.282 0c0-23.291 18.95-42.24 42.24-42.24 23.292 0 42.242 18.949 42.242 42.24 0 23.29-18.95 42.24-42.242 42.24-23.29 0-42.24-18.95-42.24-42.24z" stroke="#1D1D1B" stroke-width=".75"/><path d="M85.546 30.107h.002a2.64 2.64 0 0 0 2.64-2.64V3.708a2.64 2.64 0 0 0-2.64-2.641h-.002a2.639 2.639 0 0 0-2.639 2.64v23.762a2.638 2.638 0 0 0 2.64 2.639" fill="#1D1D1B"/><path d="M85.546 30.107h.002a2.64 2.64 0 0 0 2.64-2.64V3.708a2.64 2.64 0 0 0-2.64-2.641h-.002a2.639 2.639 0 0 0-2.639 2.64v23.762a2.638 2.638 0 0 0 2.64 2.639z" stroke="#1D1D1B"/><path d="M128.484 46.344l16.8-16.8a2.64 2.64 0 0 0-3.733-3.733l-16.8 16.8a2.64 2.64 0 0 0 3.733 3.733" fill="#1D1D1B"/><path d="M128.484 46.344l16.8-16.8a2.64 2.64 0 0 0-3.733-3.733l-16.8 16.8a2.64 2.64 0 0 0 3.733 3.733z" stroke="#1D1D1B"/><path d="M3.707 88.187h23.76a2.64 2.64 0 0 0 2.64-2.64v-.001a2.64 2.64 0 0 0-2.64-2.64H3.708a2.638 2.638 0 0 0-2.64 2.64v.002a2.638 2.638 0 0 0 2.64 2.639" fill="#1D1D1B"/><path d="M3.639 88.28H27.4a2.64 2.64 0 0 0 2.639-2.639v-.002A2.64 2.64 0 0 0 27.4 83H3.639A2.638 2.638 0 0 0 1 85.639v.002a2.638 2.638 0 0 0 2.639 2.639z" stroke="#1D1D1B"/><path d="M144.639 88.28H168.4a2.64 2.64 0 0 0 2.639-2.639v-.002A2.64 2.64 0 0 0 168.4 83h-23.761A2.638 2.638 0 0 0 142 85.639v.002a2.638 2.638 0 0 0 2.639 2.639z" stroke="#1D1D1B" fill="#000"/><path d="M46.344 46.344a2.64 2.64 0 0 0 0-3.733l-16.8-16.8a2.64 2.64 0 0 0-3.733 3.733l16.802 16.8a2.638 2.638 0 0 0 3.731 0" fill="#1D1D1B"/><path d="M46.344 46.344a2.64 2.64 0 0 0 0-3.733l-16.8-16.8a2.64 2.64 0 0 0-3.733 3.733l16.802 16.8a2.638 2.638 0 0 0 3.731 0z" stroke="#1D1D1B"/><path d="M127.788 160.714l8.734.045c12.757.068 23.187-10.253 23.253-23.012.047-9.05-5.233-17.178-13.29-20.986-.355-23.398-19.395-42.392-42.908-42.515-17.974-.094-33.466 10.886-40.028 26.513-.064 0-.124-.007-.183-.007-16.431-.087-29.876 13.216-29.963 29.65-.08 15.133 11.193 27.694 25.805 29.674l68.58.638z" fill="#FFF"/><path d="M127.788 160.714l8.734.045c12.757.068 23.187-10.253 23.253-23.012.047-9.05-5.233-17.178-13.29-20.986-.355-23.398-19.395-42.392-42.908-42.515-17.974-.094-33.466 10.886-40.028 26.513-.064 0-.124-.007-.183-.007-16.431-.087-29.876 13.216-29.963 29.65-.08 15.133 11.193 27.694 25.805 29.674l68.58.638z" stroke="#1D1D1B"/><path d="M136.073 154.57l-17.482-.091-55.985-.295c-13.022-.068-23.567-10.718-23.499-23.75.064-12.408 9.739-22.539 21.916-23.414-.813 3.26-1.297 6.654-1.314 10.166a3.094 3.094 0 1 0 6.186.032C66 96.832 82.676 80.326 103.062 80.435c19.456.1 35.33 15.292 36.666 34.39-3-.464-6.087-.393-9.043.321a3.08 3.08 0 0 0-2.279 3.73c.393 1.661 2.07 2.704 3.727 2.28 3.215-.768 6.643-.597 9.745.51h.007c6.752 2.419 11.264 8.87 11.225 16.045-.045 9.346-7.693 16.906-17.037 16.86m9.931-37.814c-.354-23.396-19.396-42.39-42.906-42.513-17.975-.094-33.467 10.884-40.03 26.51-.061 0-.121-.006-.183-.006-16.433-.087-29.875 13.219-29.963 29.65-.078 15.135 11.196 27.697 25.803 29.676l-25.182 24.918a3.099 3.099 0 0 0 2.161 5.299 3.099 3.099 0 0 0 2.191-.896l29.3-28.999 21.311.111-6.024 5.959a3.103 3.103 0 0 0-.024 4.375c.6.61 1.394.915 2.185.92a3.061 3.061 0 0 0 2.19-.896l10.418-10.31 21.306.11-24.899 24.64a3.103 3.103 0 0 0-.023 4.382 3.106 3.106 0 0 0 2.182.92 3.095 3.095 0 0 0 2.191-.896l29.302-28.999 8.731.045c12.76.068 23.188-10.253 23.256-23.012.045-9.05-5.233-17.178-13.293-20.988" fill="#1D1D1B"/><path d="M136.073 154.57l-17.482-.091-55.985-.295c-13.022-.068-23.567-10.718-23.499-23.75.064-12.408 9.739-22.539 21.916-23.414-.813 3.26-1.297 6.654-1.314 10.166a3.094 3.094 0 1 0 6.186.032C66 96.832 82.676 80.326 103.062 80.435c19.456.1 35.33 15.292 36.666 34.39-3-.464-6.087-.393-9.043.321a3.08 3.08 0 0 0-2.279 3.73c.393 1.661 2.07 2.704 3.727 2.28 3.215-.768 6.643-.597 9.745.51h.007c6.752 2.419 11.264 8.87 11.225 16.045-.045 9.346-7.693 16.906-17.037 16.86zm9.931-37.813c-.354-23.396-19.396-42.39-42.906-42.513-17.975-.094-33.467 10.884-40.03 26.51-.061 0-.121-.006-.183-.006-16.433-.087-29.875 13.219-29.963 29.65-.078 15.135 11.196 27.697 25.803 29.676l-25.182 24.918a3.099 3.099 0 0 0 2.161 5.299 3.099 3.099 0 0 0 2.191-.896l29.3-28.999 21.311.111-6.024 5.959a3.103 3.103 0 0 0-.024 4.375c.6.61 1.394.915 2.185.92a3.061 3.061 0 0 0 2.19-.896l10.418-10.31 21.306.11-24.899 24.64a3.103 3.103 0 0 0-.023 4.382 3.106 3.106 0 0 0 2.182.92 3.095 3.095 0 0 0 2.191-.896l29.302-28.999 8.731.045c12.76.068 23.188-10.253 23.256-23.012.045-9.05-5.233-17.178-13.293-20.988z" stroke="#1D1D1B" stroke-width=".25"/><path d="M73.109 175.741l-9.51 9.41a3.107 3.107 0 0 0-.024 4.382c.6.602 1.39.913 2.189.917a3.107 3.107 0 0 0 2.184-.894l9.513-9.414a3.102 3.102 0 0 0 .023-4.378 3.097 3.097 0 0 0-4.375-.023" fill="#1D1D1B"/><path d="M73.109 175.741l-9.51 9.41a3.107 3.107 0 0 0-.024 4.382c.6.602 1.39.913 2.189.917a3.107 3.107 0 0 0 2.184-.894l9.513-9.414a3.102 3.102 0 0 0 .023-4.378 3.097 3.097 0 0 0-4.375-.023z" stroke="#1D1D1B" stroke-width=".25"/></g></svg>