<svg width="175" height="195" viewBox="0 0 175 195" xmlns="http://www.w3.org/2000/svg"><title>Icons/ILI/Weather/lightrain</title><g fill="none" fill-rule="evenodd"><path d="M123.414 139.22h10.12c14.783 0 26.804-11.939 26.804-26.625-.002-10.415-6.169-19.74-15.528-24.073-.552-26.927-22.729-48.672-49.973-48.672-20.826 0-38.709 12.73-46.219 30.754-.072 0-.141-.008-.211-.008-19.04 0-34.536 15.393-34.536 34.306 0 17.419 13.137 31.81 30.076 33.999l79.467.32z" fill="#FEFEFE"/><path d="M133.532 132.1H48.407c-15.09 0-27.373-12.194-27.373-27.196 0-14.28 11.15-25.997 25.251-27.078-.92 3.757-1.461 7.667-1.461 11.707a3.57 3.57 0 0 0 3.583 3.565 3.57 3.57 0 0 0 3.584-3.565c0-23.464 19.222-42.56 42.845-42.56 22.544 0 41.027 17.388 42.689 39.36-3.479-.513-7.053-.414-10.476.426-1.922.468-3.097 2.394-2.618 4.305.466 1.91 2.416 3.102 4.333 2.603 3.722-.905 7.692-.729 11.295.53h.005c7.84 2.74 13.108 10.14 13.108 18.395.001 10.758-8.813 19.508-19.64 19.508zm-10.118 7.121h10.12c14.783 0 26.804-11.94 26.804-26.625-.002-10.416-6.169-19.74-15.528-24.074-.552-26.927-22.729-48.672-49.973-48.672-20.826 0-38.709 12.73-46.219 30.755-.072 0-.141-.008-.211-.008-19.04 0-34.536 15.392-34.536 34.305 0 17.419 13.137 31.81 30.076 33.999l79.467.32z" fill="#1D1D1B"/><path d="M133.532 132.1H48.407c-15.09 0-27.373-12.194-27.373-27.196 0-14.28 11.15-25.997 25.251-27.078-.92 3.757-1.461 7.667-1.461 11.707a3.57 3.57 0 0 0 3.583 3.565 3.57 3.57 0 0 0 3.584-3.565c0-23.464 19.222-42.56 42.845-42.56 22.544 0 41.027 17.388 42.689 39.36-3.479-.513-7.053-.414-10.476.426-1.922.468-3.097 2.394-2.618 4.305.466 1.91 2.416 3.102 4.333 2.603 3.722-.905 7.692-.729 11.295.53h.005c7.84 2.74 13.108 10.14 13.108 18.395.001 10.758-8.813 19.508-19.64 19.508zm-10.118 7.121h10.12c14.783 0 26.804-11.94 26.804-26.625-.002-10.416-6.169-19.74-15.528-24.074-.552-26.927-22.729-48.672-49.973-48.672-20.826 0-38.709 12.73-46.219 30.755-19.251-.008-34.747 15.384-34.747 34.297 0 17.419 13.137 31.81 30.076 33.999l79.467.32z" stroke="#1D1D1B" stroke-width=".5"/><path d="M85.516 141.987l-10.964 10.886a3.558 3.558 0 0 0 0 5.043 3.604 3.604 0 0 0 5.07 0l10.963-10.89a3.553 3.553 0 0 0 0-5.039 3.602 3.602 0 0 0-5.069 0" fill="#1D1D1B"/><path d="M85.516 141.987l-10.964 10.886a3.558 3.558 0 0 0 0 5.043 3.604 3.604 0 0 0 5.07 0l10.963-10.89a3.553 3.553 0 0 0 0-5.039 3.602 3.602 0 0 0-5.069 0z" stroke="#1D1D1B"/><path d="M49.736 141.987l-10.964 10.886a3.558 3.558 0 0 0 0 5.043 3.604 3.604 0 0 0 5.069 0l10.964-10.89a3.553 3.553 0 0 0 0-5.039 3.602 3.602 0 0 0-5.069 0" fill="#1D1D1B"/><path d="M49.736 141.987l-10.964 10.886a3.558 3.558 0 0 0 0 5.043 3.604 3.604 0 0 0 5.069 0l10.964-10.89a3.553 3.553 0 0 0 0-5.039 3.602 3.602 0 0 0-5.069 0z" stroke="#1D1D1B"/><path d="M120.501 141.987l-10.964 10.886a3.558 3.558 0 0 0 0 5.043 3.604 3.604 0 0 0 5.07 0l10.963-10.89a3.553 3.553 0 0 0 0-5.039 3.602 3.602 0 0 0-5.069 0" fill="#1D1D1B"/><path d="M120.501 141.987l-10.964 10.886a3.558 3.558 0 0 0 0 5.043 3.604 3.604 0 0 0 5.07 0l10.963-10.89a3.553 3.553 0 0 0 0-5.039 3.602 3.602 0 0 0-5.069 0z" stroke="#1D1D1B"/></g></svg>