<svg xmlns="http://www.w3.org/2000/svg" width="511.874" height="169.549"><path d="M377.476 79.112c-6.55 0-12.068 7.653-14.334 16.21V79.805l-13.588.653v2.953h3.246c1.432 0 2.527.414 3.293 1.257.77.84 1.153 2.161 1.153 3.977v23.853c0 .693-.322 1.285-.96 1.778-.64.494-1.59.74-2.845.74h-3.725v2.943h23.418v-2.944h-4.767c-1.546 0-2.643-.239-3.281-.723-.638-.482-.963-1.175-.963-2.076v-6.957c0-7.199 3.048-19.497 9.14-19.497 1.665 0 1.33 2.659 4.654 2.659 2.661 0 4.544-1.996 4.544-4.544 0-2.88-2.327-4.765-4.985-4.765m88.416 24.608c-.215 3.946-.963 6.776-2.241 8.49-1.282 1.717-2.827 2.573-4.642 2.573-1.521 0-2.778-.565-3.76-1.69-.986-1.128-1.48-2.753-1.48-4.875v-24.5h11.761v-3.253H453.77V64.889h-2.753c-.246 5.234-1.524 9.33-3.848 12.268-1.61 2.014-3.958 3.277-7.037 3.795v2.766h6.669v25.632c0 2.799.883 5.062 2.658 6.785 1.775 1.726 4.234 2.587 7.377 2.587 3.41 0 6.187-1.23 8.33-3.688 2.14-2.459 3.29-6.23 3.453-11.314h-2.726m-15.646-56.718c-1.29.251-2.474.365-3.498.365-3.995 0-4.854-1.8-4.854-6.344v-18.09h8.352v-7.827h-8.352V3.431l-11.669 2.137v9.538h-5.194v7.828h5.194v19.343c0 9.867 3.759 14.174 13.23 14.174 2.161 0 4.44-.25 6.791-.69v-8.759M149.072 63.525h24.589v2.946h-4.118c-1.453 0-2.474.24-3.053.718-.58.484-.871 1.214-.871 2.201v29.716c0 3.492.307 6.129.917 7.916.904 2.64 2.56 4.747 4.967 6.316 2.403 1.576 5.549 2.358 9.434 2.358 5.368 0 9.464-1.389 12.285-4.176 2.815-2.784 4.225-6.509 4.225-11.172v-23.48c0-2.403-.169-4.219-.503-5.46-.34-1.236-.824-2.205-1.453-2.898-.629-.69-1.432-1.205-2.395-1.539-.968-.33-2.581-.5-4.835-.5v-2.946h22.474v2.946h-1.594c-2.505 0-4.366.675-5.593 2.018-1.226 1.352-1.836 3.305-1.836 5.868v25.43c0 6.35-1.812 11.221-5.442 14.606-4.084 3.82-9.511 5.727-16.29 5.727-5.868 0-10.486-.833-13.85-2.495-3.36-1.671-5.803-4.069-7.32-7.193-1.15-2.37-1.72-5.36-1.72-8.965V69.393c0-.904-.317-1.622-.936-2.143-.625-.518-1.56-.779-2.805-.779h-4.277v-2.946M155.91 1h14.754l20.579 33.542L191.23 1h11.51v54.345h-12.288l-23.026-37.736-.025 37.736h-11.49V1zm312.468 79.46h18.01v2.783h-1.684c-1.582 0-2.664.206-3.234.608-.577.404-.865.987-.865 1.741 0 .337.08.678.245 1.015l10.498 22.437 7.846-18.605c.558-1.318.84-2.609.84-3.872 0-.975-.39-1.735-1.156-2.272-.772-.543-2.317-.892-4.626-1.052V80.46h15.554v2.783c-2.953.292-4.94 1.61-5.951 3.962l-14.092 32.276c-2.394 5.488-4.78 9.247-7.159 11.28-2.404 2.057-4.985 3.084-7.739 3.084-2.005 0-3.617-.552-4.832-1.644-1.21-1.097-1.824-2.446-1.824-4.05 0-1.202.38-2.195 1.122-2.965.748-.778 1.684-1.168 2.806-1.168 1.015 0 1.87.334 2.566.994.69.659 1.04 1.453 1.04 2.379 0 .294-.053.687-.16 1.193-.107.392-.16.683-.16.87 0 .638.414.954 1.245.954.883 0 1.886-.316 3.002-.944 1.116-.632 2.158-1.64 3.121-3.033.969-1.392 2.652-4.537 5.056-9.452l-14.208-30.372c-.515-1.043-1.144-1.818-1.907-2.324-.766-.51-1.886-.856-3.354-1.04V80.46M387.39 104.04c1.656 4.633 3.569 7.834 5.724 9.612 2.15 1.781 4.808 2.67 7.969 2.67 2.913 0 5.154-.64 6.718-1.919 1.566-1.278 2.348-2.9 2.348-4.872 0-1.128-.285-2.112-.861-2.965-.574-.852-1.37-1.48-2.386-1.897-1.02-.417-3.657-1.03-7.91-1.846-4.066-.806-6.902-1.653-8.499-2.533-1.594-.88-2.842-2.097-3.731-3.645-.893-1.552-1.334-3.238-1.334-5.056 0-2.753.91-5.249 2.75-7.496 2.367-2.858 5.678-4.29 9.937-4.29 3.247 0 6.252 1.049 9.02 3.146l2.637-2.818h1.634l1.04 13.43h-2.622c-1.174-3.891-2.765-6.69-4.767-8.404-2.003-1.711-4.474-2.567-7.408-2.567-2.536 0-4.525.629-5.966 1.895-1.448 1.263-2.165 2.802-2.165 4.624 0 1.606.665 2.937 1.999 3.995 1.306 1.088 3.872 1.934 7.702 2.554 4.44.745 7.334 1.373 8.674 1.88 2.173.8 3.857 2.029 5.052 3.69 1.193 1.662 1.79 3.689 1.79 6.08 0 3.293-1.3 6.086-3.9 8.368-2.599 2.287-5.901 3.43-9.902 3.43-3.707 0-7.147-1.217-10.317-3.645l-2.925 3.317h-2.122l-.8-14.738h2.621m-66.943-7.369h16.554c.978 0 1.738-.325 2.28-.981.543-.653.816-1.77.816-3.348 0-2.934-.929-5.43-2.793-7.484-1.86-2.06-4.053-3.088-6.583-3.088-2.83 0-5.227 1.242-7.195 3.725-1.969 2.487-2.996 6.212-3.079 11.176m27.021 2.784h-27.02c.134 5.712 1.207 9.74 3.23 12.09 2.319 2.636 5.268 3.957 8.85 3.957 5.279 0 9.522-2.943 12.73-8.842l2.541 1.11c-3.906 7.564-9.535 11.338-16.9 11.338-5.025 0-9.247-1.821-12.675-5.451-3.43-3.637-5.147-8.279-5.147-13.945 0-6.089 1.689-11.016 5.065-14.769 3.375-3.752 7.53-5.629 12.472-5.629 3.627 0 6.767.938 9.41 2.803 2.637 1.87 4.623 4.556 5.96 8.048.938 2.456 1.432 5.555 1.484 9.29m-75.14-18.996h18.506v2.783c-2.462.056-4.038.273-4.716.657-.684.386-1.024.932-1.024 1.65 0 .588.12 1.164.356 1.747l9.885 22.149 9.112-21.462c.132-.375.199-.742.199-1.117 0-1.937-1.935-3.145-5.792-3.624V80.46h15.56v2.783c-1.579.16-2.836.583-3.768 1.27-.938.687-1.662 1.603-2.167 2.765l-13.782 31.832h-2.223l-14.603-32.718c-.54-1.153-1.19-1.959-1.95-2.416-.764-.466-1.963-.705-3.594-.733V80.46m156.694-15.557c1.199 0 2.253.456 3.16 1.364.905.904 1.362 1.975 1.362 3.2 0 1.203-.444 2.242-1.321 3.122-.886.88-1.938 1.322-3.164 1.322-1.224 0-2.288-.445-3.18-1.34-.898-.896-1.343-1.938-1.343-3.146 0-1.196.45-2.254 1.361-3.158.908-.908 1.947-1.364 3.125-1.364M418.48 80.625l15.063-.494v32.206c0 .883.212 1.505.638 1.876.62.53 1.389.8 2.327.8h4.24v2.947h-21.453v-2.947h3.968c1.171 0 2.033-.282 2.581-.858.546-.57.822-1.404.822-2.496V88.085c0-1.49-.43-2.616-1.285-3.373-.858-.76-2.127-1.137-3.814-1.137h-3.087v-2.95M263.206 64.903c1.198 0 2.253.456 3.164 1.364.904.904 1.358 1.975 1.358 3.2 0 1.203-.442 2.242-1.322 3.122-.883.88-1.934 1.322-3.164 1.322-1.223 0-2.284-.445-3.176-1.34-.901-.896-1.343-1.938-1.343-3.146 0-1.196.45-2.254 1.361-3.158.905-.908 1.947-1.364 3.122-1.364m-10.538 15.722l15.06-.494v32.206c0 .883.215 1.505.64 1.876.614.53 1.387.8 2.325.8h4.24v2.947h-21.45v-2.947h3.965c1.174 0 2.035-.282 2.584-.858.543-.57.819-1.404.819-2.496V88.085c0-1.49-.43-2.616-1.285-3.373-.855-.76-2.128-1.137-3.81-1.137h-3.088v-2.95m-32.547 7.51c1.661-2.778 3.624-4.86 5.88-6.248 2.257-1.386 4.81-2.082 7.662-2.082 2.45 0 4.51.49 6.172 1.462 1.665.978 2.995 2.52 4.001 4.627 1.003 2.11 1.506 4.473 1.506 7.092v18.264c0 1.361.297 2.33.904 2.9.604.577 1.616.865 3.038.865h2.606v2.943h-19.65v-2.943h1.865c1.747 0 2.964-.279 3.651-.84.687-.555 1.033-1.389 1.033-2.505V95.7c0-3.478-.524-6.05-1.575-7.724-1.472-2.389-3.704-3.584-6.694-3.584-2.97 0-5.445 1.208-7.425 3.62-1.984 2.417-2.974 5.565-2.974 9.44v13.82c0 1.355.306 2.314.929 2.888.619.57 1.634.855 3.056.855h2.567v2.943h-19.979v-2.943h2.579c1.297 0 2.281-.27 2.959-.8.674-.534 1.011-1.2 1.011-2.005V87.967c0-1.6-.429-2.812-1.284-3.643-.856-.828-2.088-1.245-3.695-1.245h-1.9v-2.618l13.266-.668.49 8.342M455.454 1h11.55v54.357h-11.55V1zm-57.972 41.746c.966 3.682 4.311 5.795 9.296 5.795 4.24 0 6.623-1.88 6.623-4.385 0-3.525-3.351-3.366-9.3-4.62-9.52-1.956-14.284-5.17-14.284-12.451 0-7.518 6.102-13.153 16.216-13.153 8.26 0 13.837 3.679 16.22 10.492l-9.002 1.723c-1.343-3.213-3.796-4.541-7.662-4.541-3.72 0-5.727 1.407-5.727 3.992 0 3.52 3.869 3.366 11.08 4.933 8.704 1.88 12.948 5.01 12.948 12.059 0 7.907-6.696 13.622-18.077 13.622-9.223 0-15.769-4.617-17.63-12.135l9.3-1.33m-38.8.626c0 3.286 2.088 5.245 5.807 5.245 4.682 0 8.254-3.915 8.254-9.397v-3.6c-9.3.157-14.06 2.978-14.06 7.752m14.287 5.482c-2.606 4.853-6.994 7.517-12.65 7.517-8.328 0-13.387-4.856-13.387-12.297 0-9.471 8.628-14.484 25.81-14.637V27.71c0-4.068-2.155-6.184-6.396-6.184-4.685 0-7.364 1.956-7.96 5.636l-10.411-1.175c1.784-7.907 8.183-11.979 18.966-11.979 12.05 0 16.734 4.697 16.734 15.738v17.854c0 3.29.3 5.874 1.116 7.753h-11.08c-.448-1.879-.672-4.071-.742-6.5m-47.37-26.7c-5.097 0-8.607 4.384-8.754 12.997-.148 8.615 3.378 13.076 8.309 13.076 3.866 0 7.517-2.974 8.18-8.22l10.029 1.171c-1.31 9.321-8.726 15.272-19.007 15.272-11.923 0-20.162-8.536-19.947-21.143.218-12.84 8.833-21.3 21.575-21.3 9.698 0 16.345 5.639 17.498 15.272l-10.39 1.095c-.65-5.323-3.959-8.22-7.494-8.22m-78.078-7.048h12.62l5.861 23.642 5.602-23.642h10.437l5.865 24.032 6.987-24.032h9.42l-11.6 40.248h-10.58l-6.657-26.156-6.656 26.156h-9.649l-11.65-40.248zm251.751 15.58c-.076-5.87-2.83-9.001-7.588-9.001-4.39 0-7.29 3.21-7.585 9.002h15.173zm-7.44 25.764c-11.977 0-19.786-8.536-19.786-21.143 0-12.371 8.33-21.3 20.306-21.3 11.381 0 18.522 8.067 18.522 21.613v1.646H483.95c0 7.046 3.047 10.885 8.33 10.885 3.719 0 6.546-2.193 7.588-6.031l10.783.941c-2.53 8.533-9.372 13.39-18.819 13.39M234.81 30.686c-.077-5.872-2.827-9.002-7.589-9.002-4.39 0-7.29 3.21-7.585 9.002h15.174zm-7.441 25.763c-11.976 0-19.785-8.536-19.785-21.143 0-12.371 8.33-21.3 20.306-21.3 11.384 0 18.522 8.067 18.522 21.613v1.646h-26.926c0 7.046 3.05 10.885 8.33 10.885 3.72 0 6.543-2.193 7.589-6.031l10.786.941c-2.533 8.533-9.373 13.39-18.822 13.39M1 1s.003 32.35.003 54.321c0 79.928 71.564 113.228 71.564 113.228s71.563-33.3 71.563-113.228c0-21.97.003-54.32.003-54.32H1" fill="#00457d"/><path d="M3.349 3.382h138.366v51.963H3.349V3.382zM118.338 108.102c0-4.52-.674-8.98-1.971-13.27-12.445 8.156-24.804 10.333-32.132 5.868a3.041 3.041 0 0 0-2.395-4.915c-.705 0-1.355.243-1.87.648-4.467-7.325-2.29-19.69 5.865-32.135a45.807 45.807 0 0 0-13.27-1.969v-.003c-4.516 0-8.977.675-13.266 1.972 8.156 12.445 10.332 24.807 5.865 32.132a3.019 3.019 0 0 0-1.87-.647 3.046 3.046 0 0 0-3.045 3.041c0 .708.246 1.355.647 1.873-7.324 4.468-19.686 2.288-32.131-5.868a45.81 45.81 0 0 0-1.972 13.27h.003c0 4.519.675 8.98 1.969 13.27 12.445-8.156 24.81-10.336 32.134-5.869a3.039 3.039 0 0 0 2.395 4.918c.705 0 1.355-.242 1.87-.647 4.467 7.325 2.29 19.687-5.865 32.132a45.91 45.91 0 0 0 13.267 1.971c4.519 0 8.98-.677 13.27-1.971-8.156-12.445-10.333-24.807-5.87-32.132a3.041 3.041 0 0 0 4.268-4.268c7.329-4.467 19.69-2.287 32.136 5.868a45.826 45.826 0 0 0 1.971-13.27h-.003" fill="#fff"/><path d="M80.845 108.099a8.279 8.279 0 1 1-16.558-.002 8.279 8.279 0 0 1 16.558.002" fill="#00457d"/><path d="M52.594 21.077c-.135.705-1 1.036-2.079.83-2.097-.4-2.112-1.9-1.438-2.182.26.196.908.622 1.493.739.886.177 1.264.012 1.83-.006.27-.01.25.337.194.619m-6.629 8.514c-.616 1.242-3.191 3.066-4.675 2.27.668-.219 2.443-1.522 3.378-3.125-.285-.144-.83-.497-.969-.69-.548.242-1.536 1.23-2.339 2.29-.196-.598.27-2.195.816-3.038-.442-.101-1.153-.402-1.438-.546-.736 1.705-.782 3.879-.564 4.547-1.521-.72-1.586-3.875-.954-5.111-1.92-1.343-1.29-2.959-.702-3.28.012.524.49 1.646 2.143 2.48 1.656.834 2.33.26 2.517-.11.338-.672-.487-1.298-1.073-1.935-.57-.623-.702-1.613-.306-2.094.5-.61 1.355-.482 1.769-.175-2.03.362.423 2.483 1.051 2.802.629.316 3.793 1.024 2.876-.821.494.15 1.104.763.91 1.526-.15.604-1.023 1.086-1.863 1-.862-.092-1.855-.386-2.196.285-.187.371-.245 1.254 1.408 2.091 1.655.831 2.839.549 3.271.248.086.663-.837 2.131-3.06 1.386m-3.838-13.794c.193-.211.463-.435.613-.214.322.469.41.873 1.082 1.477.442.4 1.171.669 1.481.76.175.712-1.036 1.592-2.61.142-.809-.745-1.054-1.634-.566-2.165m19.619-1.444c.116-.205.34-1.06-.46-1.303-1.165-.355-3.581.034-3.581.034 1.125-1.297.65-4.523-.72-5.406-.175 1.457-1.57 2.282-2.92 1.932-1.683-.435-1.036-2.811-.533-3.808-1.294-.083-3.51.242-5.365 2.937-.49-3.363-3.934-4.013-4.762-4.111.687 1.435-.147 3.654-1.398 3.191-.248-2.26-2.606-3.213-2.775-1.637-.282 2.612-2.713 5.801-4.715 5.97-.184 1.45 1.517 2.244 2.483 2.266-2.431 3.556-5.926 2.85-7.836 2.198-.065 1.358 1.413 4.213 4.243 4.213-1.484 2.247-4.608 2.416-5.547 1.943-.413 2.159 3.088 4.081 4.038 4.247-2.872 4.59-1.894 10.157-.297 12.374 0 0 .61-1.57 1.472-2.379.73-.696 1.272-.84 1.744-.6.666.336.47 1.363.09 2.118-.697 1.38-2.233 2.756-2.233 2.756 2.606.616 7.377-2.17 7.972-3.351.472 1.429-.476 3.848-1.14 5.004 5.067.542 7.594-3.87 8.688-6.556 1.733 1.938 3.934 2.156 5.136 1.886-1.647-3.081-.914-6.267-.178-7.398 1.72 1.67 4.256 2.023 5.494 1.613-1.634-2.266-1.665-7.87-1.199-9.827 1.147.77 2.656.978 3.278.549 0 0-1.046-1.929-.748-4.703.184-1.742 1.278-3.229 1.769-4.152m22.3 25.756c.662.469.349.99.033 1.288-.322.297-3.744 2.538-5.963 1.851-1.696-.527-1.69-3.562-4.032-4.546-1.883-.795-3.986.634-3.986.634.831.077 1.809.368 2.146.577 0 0-.383.683.32 1.067.704.386 1.216.199 1.725.763.65.72.117 2.201.117 2.201-5.062-3.97-9.762-1.272-10.097 1.297.442-.297 1.727-.984 2.472-.821 0 0 .018.77.65.935.735.193 1.628-.488 2.7-.32 1.138.179 2.104 1.209 2.104 1.209-1.6.227-5.053 2.775-2.459 6.843-.055-.733.028-1.692.51-2.017 0 0 .882.435 1.474-.065.589-.5.779-1.707 1.53-2.578.75-.87 1.701-.932 1.701-.932-.41 2.238 1.6 6.632 5.298 5.718-.77-.448-1.511-1.395-1.511-1.916 0 0 1.048-.374.938-.939-.187-.935-1.594-.73-1.594-1.876 0-.717.616-1.242 1.582-1.242 2.238 0 1.925 2.855 1.925 2.855 1.435-.141 3.649-1.79 4.084-3.643.816.515 1.168 2.404 1.067 3.477 1.846-.763 3.318-2.125 3.318-7.272 1.471 2.198 5.338 3.415 8.137 1.487-3.6-.583-4.323-4.302-4.513-4.98-.19-.677-.57-3.694-2.223-5.35-2.349-2.345-7.65-2.18-10.722-1.21-.803.254-1.76.753-1.76 2.293 0 1.41.3 2.958 2.477 3.942 1.497.678 2.205 1.025 2.551 1.27M14.947 41.76c-3.388.246-9.44 1.62-6.346 7.883 0-1.377.453-2.597 1.257-2.992.282.962.996 1.134 1.533.757.496-.346 1.1-1.41 1.692-1.815.567-.386 1.337-.61 2.352-.325-2.756 4.63.46 9.112 2.965 8.858-1.43-.988-1.37-2.297-1.331-2.769 0 0 .886.2 1.226-.503.273-.567-.171-1.695.126-2.75.209-.745.88-1.076 1.432-.99.858.131 1.162.91 1.128 1.606-.04.886-.506 1.659-.506 1.659 1.493 1.073 5.623-.224 8.082-2.355 0 .641-.064 1.794-.699 2.983 2.208.38 6.037-2.005 7.162-4.013.148.966-.055 3.038-1.174 4.363 1.674.392 6.221-.99 9.75-4.516.212 1.98 3.173 4.853 6.451 3.308 0 0-1.505-.843-1.505-2.027 0-1.931 2.121-3.403 4.758-4.556 3.06-1.337 8.076-1.944 13.153-4.353 9.355-4.437 11.029-8.73 18.721-8.73 3.354 0 6.644.776 8.327 3.542 1.68 2.76 1.258 6.025 3.146 7.824 1.889 1.8 5.179.476 6.966-.073 4.473-1.374 11.044-4.127 15.048-4.406 3.995-.276 5.059 2.716 5.145 2.959.31.87-.058 1.416-.635 1.38-1.333-.084-3.759-.697-5.163.097-2.014 1.144-1.447 3.906-1.447 3.906.512-.766 1.748-2.057 3.063-2.008.04.12.27 1.604 1.5 1.055.83-.371 1.756-1.505 3.378-1.217-1.555 1.34-4.461 6.595-.316 8.836-.616-.92-.702-2.621-.205-3.419 0 0 1.198.788 1.98-.355.322-.472-.122-1.785.147-2.815.233-.901 1.116-1.423 1.116-1.423.338 1.123 2.41 4.627 7.81 4.314-1.242-.49-2.015-1.355-2.22-1.974.638-.45.932-1.518.282-1.782-.604-.245-1.846-.03-2.428-.837-.684-.938-.528-2.41-.528-2.41 1.852.813 6.53 2.653 8.42-1.535-.57.41-2.196.9-3.122.821-.11-.481-.625-1.806-1.612-1.88-1.3-.097-2.239.304-3.468.47-.865.116-1.361-.35-1.57-.81-.18-.392-.006-.938.196-1.226.442-.632 1.441-1.036 1.441-1.036-.69-1.374-3.017-.785-3.522-.693.1-.788.895-2.192 2.416-2.82-.568-.982-2.328-1.856-5.203-1.375.33-1.19 1.336-2.468 2.195-2.765-1.549-.898-5.19-.524-8.472 1.87.13-.723.034-2.851-.956-3.75 0 0-4.277 5.384-8.475 4.67-4.19-.714-3.535-5.755-3.535-5.755s8.285 1.312 12.292-.54c4.01-1.854 3.98-4.718 7.337-6.466 2.701-1.404 5.92-.242 5.92-.242-.493-2.769-5.742-4.942-9.774-.699 0 0-.098-6.396-9.983-5.893-3.596.184-10.311 2.202-16.452 3.324-5.994 1.094-14.895 1.625-18.684 1.625-3.79 0-7.512-.828-7.512-3.305 0-2.478 2.74-2.824 4.55-2.824 2.876 0 6.904 1.695 10.148 2.817 2.318.804 4.6.816 5.853.816 3.397 0 7.675-1.702 9.818-2.539 2.143-.84 3.832-1.367 7.938-1.02-1.282-1.675-6.016-3.65-11.495-.733-.497-.877.546-2.527 2.674-3.207-.97-.617-4.078-1.475-7.831-1.377-5.933.15-7.812 2.946-13.58 2.698-5.77-.242-11.055.711-11.055 5.074 0 3.453 4.228 6.114 11.065 6.387-.175.545-1.1 1.214-1.395 1.392 2.358.383 5.831.095 10.314-2.812.12.485-.282 1.723-.77 2.045 1.613 0 4.612-.818 8.233-3.081 0 .484-.07 1.352-.942 2.226 4.222-.298 6.528-2.438 9.398-3.345 3.814-1.205 16.142-4.069 16.142 2.756 0 1.634-.797 3.967-5.047 3.967-4.246 0-11.525-1.953-12.935-2.195-1.413-.245-2.99-.588-6.705-.07-3.468.487-29.49 4.203-33.745 4.81 0 1.398.052 5.777 2.346 7.763-1.81.837-3.722 1.41-7.086-.113-.264 1.128.003 4.381 1.61 6.132-1.346.441-4.13 1.147-6.788-.58-1.07 1.914-3.903 7.043-11.578 5.461.488-.368 1.837-3.044 1.837-3.526-1.524 1.128-5.556 3.327-13.052 2.456-2.272-.26-4.66-.978-5.313-2.437-.693-1.537.282-3.72-.197-4.937-1.005-2.557-3.737-2.302-3.737-2.302.3.254 1.334.886 1.542 1.796 0 0-1.094-.07-1.153 1.184-.076 1.695.5 3.56.5 3.56-3.155-3.155-8.352-6.546-10.029-.979.684-.775 1.533-1.223 2.493-1.094 0 0-.623.966.604 1.812.576.395 2.008-.04 2.738.294.843.383 1.606 1.815 1.606 1.815m13.732-6.576c-3.526-2.615-7.972-2.606-8.744-2.606.873-1.612 1.477-1.993 3.01-2.866-5.543 0-6.175-1.5-6.368-2.781 1.493.211 3.213-.209 3.903-.899-4.022-.208-5.344-2.922-5.813-3.875 3.127-.233 3.094-1.815 2.674-2.781-.32-.739-1.38-1.358-2.444-1.027-.92.282-1.849 1.6-2.815 1.677-.895.07-1.011-.834-1.011-1.386-1.015 0-1.892.503-2.536 1.147.242-3.624 4.102-5.065 6.543-4.636 0 0-.113-1.53-.604-2.02-.745-.742-1.692-.663-2.385-1.175-.466-.343-.47-1.131.303-1.505-.766-1.006-2.857-1.104-2.857-1.104 4.326-3.21 7.171.88 8.082 4.017 1.155-1.435 1.275-2.242 1.125-3.033-.166-.874-.862-1.499-.788-2.002.113-.742.92-.592.92-.592-.098-1.155-1.034-2.057-1.822-2.474 0 0 3.496-.31 4.903 3.269 1.31 3.33-.392 5.399-.392 5.399s1.303.16 1.851-.543c.59-.745.252-1.68.85-2.189.604-.515 1.275.46 1.275.46.653-.653.212-2.257.083-2.701 0 0 1.827 1.15 1.597 3.28-.153 1.432-1.588 2.622-2.192 3.407-.604.782-2.36 2.48.472 7.38 1.733 2.995 3.44 4.19 4.37 4.623-.568 1.128-1.632 4.256-1.19 7.536" fill="#dc002e"/></svg>