<svg width="347" height="53" viewBox="0 0 347 53" xmlns="http://www.w3.org/2000/svg" xmlns:xlink="http://www.w3.org/1999/xlink"><title>Group</title><defs><path d="M19.489.631C11.902.911 5.16 4.481.594 9.944l1.334 1.05C6.213 5.953 12.465 2.593 19.49 2.312V.631z" id="a"/><linearGradient x1="-32.481%" y1="49.996%" x2="245.019%" y2="49.996%" id="b"><stop stop-color="#081A3B" offset="0%"/><stop stop-color="#00B1B6" offset="100%"/></linearGradient><path d="M.304.743C2.341 7.67 7.361 13.418 13.91 16.673l.727-1.524C8.525 12.171 3.942 6.839 1.977.397L.304.743z" id="d"/><linearGradient x1="-7.297%" y1="49.998%" x2="371.619%" y2="49.998%" id="e"><stop stop-color="#081A3B" offset="0%"/><stop stop-color="#00B1B6" offset="100%"/></linearGradient><path d="M.569 15.079l.8 1.525C7.916 13.279 12.863 7.392 14.827.397L13.154.05C11.263 6.56 6.68 11.963.57 15.08" id="g"/><linearGradient x1="-274.693%" y1="50%" x2="106.178%" y2="50%" id="h"><stop stop-color="#081A3B" offset="0%"/><stop stop-color="#00B1B6" offset="100%"/></linearGradient><path d="M.351.631v1.68c6.773.21 12.855 3.362 17.071 8.263l1.313-1.05C14.174 4.271 7.677.91.352.63z" id="j"/><linearGradient x1="-146.007%" y1="49.996%" x2="134.628%" y2="49.996%" id="k"><stop stop-color="#081A3B" offset="0%"/><stop stop-color="#00B1B6" offset="100%"/></linearGradient><path d="M10.493 2.303c-3.35 0-6.559-.612-9.482-1.766L.298 2.03C3.435 3.253 6.928 4 10.493 4c3.707 0 7.272-.747 10.48-2.037l-.427-.883-.286-.679a25.72 25.72 0 0 1-9.767 1.902" id="m"/><linearGradient x1="-79.443%" y1="49.999%" x2="177.97%" y2="49.999%" id="n"><stop stop-color="#081A3B" offset="0%"/><stop stop-color="#00B1B6" offset="100%"/></linearGradient><path d="M.519 1.278c3.11 4.134 5.036 9.196 5.036 14.686 0 1.425-.148 2.852-.37 4.278l1.703.357c.297-1.498.444-3.066.444-4.635A26.326 26.326 0 0 0 1.852.208L.519 1.278z" id="p"/><linearGradient x1="-712.469%" y1="49.999%" x2="99.032%" y2="49.999%" id="q"><stop stop-color="#081A3B" offset="0%"/><stop stop-color="#00B1B6" offset="100%"/></linearGradient><path d="M0 15.45c0 1.655.135 3.311.475 4.898l1.562-.345a24.706 24.706 0 0 1-.408-4.554c0-5.105 1.562-9.866 4.278-13.799L4.617.615C1.697 4.824 0 9.93 0 15.45" id="s"/><linearGradient x1="-.431%" y1="50.001%" x2="857.593%" y2="50.001%" id="t"><stop stop-color="#081A3B" offset="0%"/><stop stop-color="#00B1B6" offset="100%"/></linearGradient><path d="M8.993 2.17c-2.68 0-5.218-.51-7.544-1.529L.532 2.68C3.14 3.77 5.962 4.424 8.993 4.424c3.032 0 5.994-.654 8.673-1.818L16.75.569c-2.468 1.018-5.007 1.6-7.757 1.6" id="v"/><linearGradient x1="-81.317%" y1="49.999%" x2="179.98%" y2="49.999%" id="w"><stop stop-color="#081A3B" offset="0%"/><stop stop-color="#00B1B6" offset="100%"/></linearGradient><path d="M.295 2.626c5.699.291 10.75 2.91 14.356 6.911l1.732-1.382C12.415 3.645 6.716.662.295.371v2.255z" id="y"/><linearGradient x1="-148.699%" y1="50.003%" x2="136.033%" y2="50.003%" id="z"><stop stop-color="#081A3B" offset="0%"/><stop stop-color="#00B1B6" offset="100%"/></linearGradient><path d="M.242 8.52L1.974 9.9c3.535-4.147 8.73-6.911 14.501-7.275V.37C9.983.735 4.21 3.79.242 8.519" id="B"/><linearGradient x1="-33.6%" y1="50%" x2="248.598%" y2="50%" id="C"><stop stop-color="#081A3B" offset="0%"/><stop stop-color="#00B1B6" offset="100%"/></linearGradient><path d="M.505 1.936c2.424 3.385 3.85 7.404 3.85 11.776 0 1.128-.072 2.257-.285 3.314l2.139.423c.214-1.2.356-2.467.356-3.737 0-4.936-1.64-9.449-4.349-13.115l-1.71 1.34z" id="E"/><linearGradient x1="-647.8%" y1="50%" x2="99.239%" y2="50%" id="F"><stop stop-color="#081A3B" offset="0%"/><stop stop-color="#00B1B6" offset="100%"/></linearGradient><path d="M.645 12.595l.907 1.944C6.848 11.692 10.82 6.83 12.423.928l-2.09-.417C8.868 5.72 5.314 10.025.644 12.595" id="H"/><linearGradient x1="-268.973%" y1="50.001%" x2="106.716%" y2="50.001%" id="I"><stop stop-color="#081A3B" offset="0%"/><stop stop-color="#00B1B6" offset="100%"/></linearGradient><path d="M.469 12.788c0 1.385.136 2.701.34 4.017l2.036-.485a19.482 19.482 0 0 1-.338-3.532c0-4.155 1.221-7.965 3.394-11.15L4.272.321C1.827 3.854.469 8.148.469 12.788" id="K"/><linearGradient x1="-.749%" y1="50%" x2="792.86%" y2="50%" id="L"><stop stop-color="#081A3B" offset="0%"/><stop stop-color="#00B1B6" offset="100%"/></linearGradient><path d="M.634.622C2.306 6.66 6.278 11.68 11.504 14.59l.907-2.037C7.81 9.933 4.257 5.496 2.724.113l-2.09.51z" id="N"/><linearGradient x1="-7.46%" y1="49.999%" x2="368.252%" y2="49.999%" id="O"><stop stop-color="#081A3B" offset="0%"/><stop stop-color="#00B1B6" offset="100%"/></linearGradient><path d="M.285 3c4.042.272 7.666 2.037 10.244 4.753l1.951-1.562C9.414 2.932 5.093.76.285.556v2.445z" id="Q"/><linearGradient x1="-156.412%" y1="50.001%" x2="140.278%" y2="50.001%" id="R"><stop stop-color="#081A3B" offset="0%"/><stop stop-color="#00B1B6" offset="100%"/></linearGradient><path d="M.228 6.783l1.951 1.551c2.578-2.962 6.203-4.936 10.314-5.218V.577A17.796 17.796 0 0 0 .228 6.783" id="T"/><linearGradient x1="-37.911%" y1="49.998%" x2="257.091%" y2="49.998%" id="U"><stop stop-color="#081A3B" offset="0%"/><stop stop-color="#00B1B6" offset="100%"/></linearGradient><path d="M.014 10.364c0 1.07.076 2.139.305 3.137l2.674-.57c-.23-.784-.306-1.64-.306-2.567 0-3.137.993-6.131 2.75-8.555L3.299.24C1.237 3.163.015 6.656.015 10.364" id="W"/><linearGradient x1="-6.664%" y1="50.002%" x2="724.659%" y2="50.002%" id="X"><stop stop-color="#081A3B" offset="0%"/><stop stop-color="#00B1B6" offset="100%"/></linearGradient><path d="M.284 2.152c1.63 2.567 2.647 5.633 2.647 8.912 0 .784-.067 1.569-.135 2.353l2.377.499c.135-.928.203-1.925.203-2.852 0-3.921-1.155-7.558-3.19-10.48L.283 2.152z" id="Z"/><linearGradient x1="-587.704%" y1="50%" x2="104.649%" y2="50%" id="aa"><stop stop-color="#081A3B" offset="0%"/><stop stop-color="#00B1B6" offset="100%"/></linearGradient><path d="M.681 9.431l1.12 2.301c4.061-2.3 7.212-6.255 8.542-10.927L7.823.229C6.703 4.184 4.112 7.419.681 9.43" id="ac"/><linearGradient x1="-266.5%" y1="50%" x2="109.777%" y2="50%" id="ad"><stop stop-color="#081A3B" offset="0%"/><stop stop-color="#00B1B6" offset="100%"/></linearGradient><path d="M.026 1.02a18.756 18.756 0 0 0 8.876 10.784l1.09-2.3C6.575 7.49 3.81 4.326 2.573.443L.026 1.02z" id="af"/><linearGradient x1="-10.749%" y1="49.998%" x2="368.251%" y2="49.998%" id="ag"><stop stop-color="#081A3B" offset="0%"/><stop stop-color="#00B1B6" offset="100%"/></linearGradient><path d="M6.993 1.475A15.6 15.6 0 0 1 1.361.457L.29 2.697c2.068.748 4.35 1.223 6.702 1.223 2.424 0 4.705-.475 6.845-1.29L12.698.457c-1.784.679-3.709 1.018-5.705 1.018" id="ai"/><linearGradient x1="-87.23%" y1="49.992%" x2="186.048%" y2="49.992%" id="aj"><stop stop-color="#081A3B" offset="0%"/><stop stop-color="#00B1B6" offset="100%"/></linearGradient><path d="M.359 3.669a9.702 9.702 0 0 1 6.205 2.994L8.96 4.738C6.775 2.386 3.743.818.359.603V3.67z" id="al"/><linearGradient x1="-166.547%" y1="49.999%" x2="141.759%" y2="49.999%" id="am"><stop stop-color="#081A3B" offset="0%"/><stop stop-color="#00B1B6" offset="100%"/></linearGradient><path d="M.522 5.024l2.474 1.924c1.673-1.853 3.928-2.994 6.475-3.28V.604a13.438 13.438 0 0 0-8.949 4.42" id="ao"/><linearGradient x1="-39.164%" y1="50.001%" x2="266.608%" y2="50.001%" id="ap"><stop stop-color="#081A3B" offset="0%"/><stop stop-color="#00B1B6" offset="100%"/></linearGradient><path d="M.631 7.646c0 .8.077 1.527.153 2.183L3.994 9.1c-.076-.437-.076-.946-.076-1.382 0-1.965.61-3.784 1.527-5.384L2.847.371C1.472 2.48.631 4.954.631 7.646" id="ar"/><linearGradient x1="-.272%" y1="49.999%" x2="596.783%" y2="49.999%" id="as"><stop stop-color="#081A3B" offset="0%"/><stop stop-color="#00B1B6" offset="100%"/></linearGradient><path d="M.574 1.327C1.524 4.43 3.629 7.04 6.278 8.59L7.5 5.84C5.666 4.641 4.172 2.807 3.426.622l-2.852.705z" id="au"/><linearGradient x1="-9.976%" y1="50.001%" x2="358.751%" y2="50.001%" id="av"><stop stop-color="#081A3B" offset="0%"/><stop stop-color="#00B1B6" offset="100%"/></linearGradient><path d="M.42 5.84l1.29 2.75C4.424 6.968 6.53 4.29 7.48 1.186L4.561.48c-.747 2.256-2.24 4.16-4.142 5.36" id="ax"/><linearGradient x1="-253.039%" y1="49.998%" x2="108.587%" y2="49.998%" id="ay"><stop stop-color="#081A3B" offset="0%"/><stop stop-color="#00B1B6" offset="100%"/></linearGradient><path d="M4.993 1.05c-1.164 0-2.328-.204-3.42-.544L.265 3.154c1.455.475 3.056.815 4.729.815s3.274-.272 4.801-.815L8.412.506c-1.09.34-2.255.543-3.42.543" id="aA"/><linearGradient x1="-94.03%" y1="50.004%" x2="193.087%" y2="50.004%" id="aB"><stop stop-color="#081A3B" offset="0%"/><stop stop-color="#00B1B6" offset="100%"/></linearGradient><path d="M.312 2.044C1.382 3.79 2.069 5.68 2.069 7.719c0 .436 0 .872-.077 1.236l3.21.655c.076-.655.152-1.236.152-1.891 0-2.838-.917-5.457-2.446-7.639L.313 2.044z" id="aD"/><linearGradient x1="-469.971%" y1="49.999%" x2="99.905%" y2="49.999%" id="aE"><stop stop-color="#081A3B" offset="0%"/><stop stop-color="#00B1B6" offset="100%"/></linearGradient></defs><g fill="none" fill-rule="evenodd"><g transform="translate(6)"><mask id="c" fill="#fff"><use xlink:href="#a"/></mask><path d="M19.489.631C11.902.911 5.16 4.481.594 9.944l1.334 1.05C6.213 5.953 12.465 2.593 19.49 2.312V.631z" fill="url(#b)" mask="url(#c)"/></g><g transform="translate(1 33)"><mask id="f" fill="#fff"><use xlink:href="#d"/></mask><path d="M.304.743C2.341 7.67 7.361 13.418 13.91 16.673l.727-1.524C8.525 12.171 3.942 6.839 1.977.397L.304.743z" fill="url(#e)" mask="url(#f)"/></g><g transform="translate(37 33)"><mask id="i" fill="#fff"><use xlink:href="#g"/></mask><path d="M.569 15.079l.8 1.525C7.916 13.279 12.863 7.392 14.827.397L13.154.05C11.263 6.56 6.68 11.963.57 15.08" fill="url(#h)" mask="url(#i)"/></g><g transform="translate(27)"><mask id="l" fill="#fff"><use xlink:href="#j"/></mask><path d="M.351.631v1.68c6.773.21 12.855 3.362 17.071 8.263l1.313-1.05C14.174 4.271 7.677.91.352.63z" fill="url(#k)" mask="url(#l)"/></g><g transform="translate(16 49)"><mask id="o" fill="#fff"><use xlink:href="#m"/></mask><path d="M10.493 2.303c-3.35 0-6.559-.612-9.482-1.766L.298 2.03C3.435 3.253 6.928 4 10.493 4c3.707 0 7.272-.747 10.48-2.037l-.427-.883-.286-.679a25.72 25.72 0 0 1-9.767 1.902" fill="url(#n)" mask="url(#o)"/></g><g transform="translate(46 11)"><mask id="r" fill="#fff"><use xlink:href="#p"/></mask><path d="M.519 1.278c3.11 4.134 5.036 9.196 5.036 14.686 0 1.425-.148 2.852-.37 4.278l1.703.357c.297-1.498.444-3.066.444-4.635A26.326 26.326 0 0 0 1.852.208L.519 1.278z" fill="url(#q)" mask="url(#r)"/></g><g transform="translate(0 11)"><mask id="u" fill="#fff"><use xlink:href="#s"/></mask><path d="M0 15.45c0 1.655.135 3.311.475 4.898l1.562-.345a24.706 24.706 0 0 1-.408-4.554c0-5.105 1.562-9.866 4.278-13.799L4.617.615C1.697 4.824 0 9.93 0 15.45" fill="url(#t)" mask="url(#u)"/></g><g transform="translate(17 45)"><mask id="x" fill="#fff"><use xlink:href="#v"/></mask><path d="M8.993 2.17c-2.68 0-5.218-.51-7.544-1.529L.532 2.68C3.14 3.77 5.962 4.424 8.993 4.424c3.032 0 5.994-.654 8.673-1.818L16.75.569c-2.468 1.018-5.007 1.6-7.757 1.6" fill="url(#w)" mask="url(#x)"/></g><g transform="translate(27 4)"><mask id="A" fill="#fff"><use xlink:href="#y"/></mask><path d="M.295 2.626c5.699.291 10.75 2.91 14.356 6.911l1.732-1.382C12.415 3.645 6.716.662.295.371v2.255z" fill="url(#z)" mask="url(#A)"/></g><g transform="translate(9 4)"><mask id="D" fill="#fff"><use xlink:href="#B"/></mask><path d="M.242 8.52L1.974 9.9c3.535-4.147 8.73-6.911 14.501-7.275V.37C9.983.735 4.21 3.79.242 8.519" fill="url(#C)" mask="url(#D)"/></g><g transform="translate(42 13)"><mask id="G" fill="#fff"><use xlink:href="#E"/></mask><path d="M.505 1.936c2.424 3.385 3.85 7.404 3.85 11.776 0 1.128-.072 2.257-.285 3.314l2.139.423c.214-1.2.356-2.467.356-3.737 0-4.936-1.64-9.449-4.349-13.115l-1.71 1.34z" fill="url(#F)" mask="url(#G)"/></g><g transform="translate(35 32)"><mask id="J" fill="#fff"><use xlink:href="#H"/></mask><path d="M.645 12.595l.907 1.944C6.848 11.692 10.82 6.83 12.423.928l-2.09-.417C8.868 5.72 5.314 10.025.644 12.595" fill="url(#I)" mask="url(#J)"/></g><g transform="translate(3 14)"><mask id="M" fill="#fff"><use xlink:href="#K"/></mask><path d="M.469 12.788c0 1.385.136 2.701.34 4.017l2.036-.485a19.482 19.482 0 0 1-.338-3.532c0-4.155 1.221-7.965 3.394-11.15L4.272.321C1.827 3.854.469 8.148.469 12.788" fill="url(#L)" mask="url(#M)"/></g><g transform="translate(4 33)"><mask id="P" fill="#fff"><use xlink:href="#N"/></mask><path d="M.634.622C2.306 6.66 6.278 11.68 11.504 14.59l.907-2.037C7.81 9.933 4.257 5.496 2.724.113l-2.09.51z" fill="url(#O)" mask="url(#P)"/></g><g transform="translate(27 8)"><mask id="S" fill="#fff"><use xlink:href="#Q"/></mask><path d="M.285 3c4.042.272 7.666 2.037 10.244 4.753l1.951-1.562C9.414 2.932 5.093.76.285.556v2.445z" fill="url(#R)" mask="url(#S)"/></g><g transform="translate(12 8)"><mask id="V" fill="#fff"><use xlink:href="#T"/></mask><path d="M.228 6.783l1.951 1.551c2.578-2.962 6.203-4.936 10.314-5.218V.577A17.796 17.796 0 0 0 .228 6.783" fill="url(#U)" mask="url(#V)"/></g><g transform="translate(8 17)"><mask id="Y" fill="#fff"><use xlink:href="#W"/></mask><path d="M.014 10.364c0 1.07.076 2.139.305 3.137l2.674-.57c-.23-.784-.306-1.64-.306-2.567 0-3.137.993-6.131 2.75-8.555L3.299.24C1.237 3.163.015 6.656.015 10.364" fill="url(#X)" mask="url(#Y)"/></g><g transform="translate(39 16)"><mask id="ab" fill="#fff"><use xlink:href="#Z"/></mask><path d="M.284 2.152c1.63 2.567 2.647 5.633 2.647 8.912 0 .784-.067 1.569-.135 2.353l2.377.499c.135-.928.203-1.925.203-2.852 0-3.921-1.155-7.558-3.19-10.48L.283 2.152z" fill="url(#aa)" mask="url(#ab)"/></g><g transform="translate(33 31)"><mask id="ae" fill="#fff"><use xlink:href="#ac"/></mask><path d="M.681 9.431l1.12 2.301c4.061-2.3 7.212-6.255 8.542-10.927L7.823.229C6.703 4.184 4.112 7.419.681 9.43" fill="url(#ad)" mask="url(#ae)"/></g><g transform="translate(9 31)"><mask id="ah" fill="#fff"><use xlink:href="#af"/></mask><path d="M.026 1.02a18.756 18.756 0 0 0 8.876 10.784l1.09-2.3C6.575 7.49 3.81 4.326 2.573.443L.026 1.02z" fill="url(#ag)" mask="url(#ah)"/></g><g transform="translate(19 41)"><mask id="ak" fill="#fff"><use xlink:href="#ai"/></mask><path d="M6.993 1.475A15.6 15.6 0 0 1 1.361.457L.29 2.697c2.068.748 4.35 1.223 6.702 1.223 2.424 0 4.705-.475 6.845-1.29L12.698.457c-1.784.679-3.709 1.018-5.705 1.018" fill="url(#aj)" mask="url(#ak)"/></g><g transform="translate(27 13)"><mask id="an" fill="#fff"><use xlink:href="#al"/></mask><path d="M.359 3.669a9.702 9.702 0 0 1 6.205 2.994L8.96 4.738C6.775 2.386 3.743.818.359.603V3.67z" fill="url(#am)" mask="url(#an)"/></g><g transform="translate(16 13)"><mask id="aq" fill="#fff"><use xlink:href="#ao"/></mask><path d="M.522 5.024l2.474 1.924c1.673-1.853 3.928-2.994 6.475-3.28V.604a13.438 13.438 0 0 0-8.949 4.42" fill="url(#ap)" mask="url(#aq)"/></g><g transform="translate(12 19)"><mask id="at" fill="#fff"><use xlink:href="#ar"/></mask><path d="M.631 7.646c0 .8.077 1.527.153 2.183L3.994 9.1c-.076-.437-.076-.946-.076-1.382 0-1.965.61-3.784 1.527-5.384L2.847.371C1.472 2.48.631 4.954.631 7.646" fill="url(#as)" mask="url(#at)"/></g><g transform="translate(13 30)"><mask id="aw" fill="#fff"><use xlink:href="#au"/></mask><path d="M.574 1.327C1.524 4.43 3.629 7.04 6.278 8.59L7.5 5.84C5.666 4.641 4.172 2.807 3.426.622l-2.852.705z" fill="url(#av)" mask="url(#aw)"/></g><g transform="translate(31 30)"><mask id="az" fill="#fff"><use xlink:href="#ax"/></mask><path d="M.42 5.84l1.29 2.75C4.424 6.968 6.53 4.29 7.48 1.186L4.561.48c-.747 2.256-2.24 4.16-4.142 5.36" fill="url(#ay)" mask="url(#az)"/></g><g transform="translate(21 36)"><mask id="aC" fill="#fff"><use xlink:href="#aA"/></mask><path d="M4.993 1.05c-1.164 0-2.328-.204-3.42-.544L.265 3.154c1.455.475 3.056.815 4.729.815s3.274-.272 4.801-.815L8.412.506c-1.09.34-2.255.543-3.42.543" fill="url(#aB)" mask="url(#aC)"/></g><g transform="translate(35 19)"><mask id="aF" fill="#fff"><use xlink:href="#aD"/></mask><path d="M.312 2.044C1.382 3.79 2.069 5.68 2.069 7.719c0 .436 0 .872-.077 1.236l3.21.655c.076-.655.152-1.236.152-1.891 0-2.838-.917-5.457-2.446-7.639L.313 2.044z" fill="url(#aE)" mask="url(#aF)"/></g><path d="M26 24a3 3 0 1 1 0 6 3 3 0 0 1 0-6" fill="#00B2B6"/><path d="M77.413 34.727v-2.804C76.115 34.111 73.807 35 71.5 35c-4.4 0-7.5-2.598-7.5-6.906V19h1.658v9.026c0 3.555 2.308 5.47 5.914 5.402 3.39 0 5.769-2.462 5.769-5.744V19H79v15.727h-1.587zM84.487 19.138l.067 2.828C85.5 19.828 87.73 19 89.69 19c1.149 0 2.298.276 3.311.897l-.676 1.31c-.81-.482-1.756-.759-2.635-.759-2.905 0-5.135 2.414-5.135 5.311V35H83V19.138h1.487zM96.58 26.681c0 3.985 2.746 6.782 6.454 6.782 3.57 0 6.455-2.307 6.455-6.712 0-4.544-2.884-6.78-6.455-6.78-3.639 0-6.454 2.726-6.454 6.71zm0-14.681v10.207c1.304-2.587 3.845-3.775 6.523-3.775 4.395 0 7.897 3.006 7.897 8.249 0 5.313-3.502 8.319-7.897 8.319-2.678 0-5.288-1.327-6.592-3.775v3.565H95V12h1.58zM116.671 26.034c0 3.916 3.052 6.481 6.829 6.481 9.299 0 9.299-12.963 0-12.963-3.777 0-6.829 2.566-6.829 6.482zM132 18.27v15.46h-1.671v-3.307C128.73 32.853 126.188 34 123.5 34c-4.65 0-8.5-3.24-8.5-8.034 0-4.725 3.85-7.966 8.5-7.966 2.688 0 5.449 1.147 6.829 3.578v-3.375l1.671.067zM137.587 18.273v2.804C138.885 18.889 141.193 18 143.5 18c4.4 0 7.5 2.598 7.5 6.906v9.026h-1.658v-9.026c0-3.556-2.308-5.47-5.914-5.402-3.39 0-5.769 2.462-5.769 5.744V34H136V18.273h1.587zM176.329 27.034c0-3.983-3.052-6.616-6.829-6.616-3.778 0-6.829 2.633-6.829 6.616 0 3.983 3.05 6.413 6.829 6.413 3.777 0 6.829-2.43 6.829-6.413m-15.329 0c0-4.929 3.778-8.034 8.5-8.034 4.722 0 8.5 3.105 8.5 8.034 0 4.928-3.778 7.966-8.5 7.966-4.722-.067-8.5-3.038-8.5-7.966M182.579 26.681c0 3.985 2.747 6.782 6.455 6.782 3.571 0 6.455-2.307 6.455-6.712 0-4.544-2.884-6.781-6.455-6.781-3.639 0-6.455 2.726-6.455 6.711zm0-14.681v10.207c1.305-2.587 3.846-3.776 6.524-3.776 4.394 0 7.897 3.007 7.897 8.32 0 5.313-3.503 8.249-7.897 8.249-2.678 0-5.287-1.398-6.593-3.775v3.565H181V12h1.579zM213.265 22.36c-1.66-1.43-3.32-1.715-5.195-1.715-2.597 0-5.05.929-4.978 3 .072 2.214 2.958 2.642 5.051 3 2.957.499 6.997.999 6.853 4.784-.072 3.642-3.896 4.571-6.781 4.571-2.886 0-5.772-1.071-7.215-3.285l1.226-1.071c1.372 1.928 3.824 2.785 6.06 2.785 2.02 0 5.051-.5 5.195-3.142.072-2.357-2.669-2.857-5.411-3.286-3.246-.5-6.42-1.142-6.42-4.427 0-3.215 3.246-4.643 6.565-4.571 2.38 0 4.545.643 6.132 2.214l-1.082 1.142zM231.55 26.457c0-3.864-2.633-5.965-6.444-5.965-3.256 0-6.097 2.169-6.443 5.965h12.887zm-14.55.61c0-4.677 3.603-8.067 8.106-8.067s8.453 2.712 7.829 8.745h-14.342c.347 3.661 3.188 5.762 6.444 5.762 2.078 0 4.572-.813 5.75-2.372l1.11.881C230.371 33.982 227.6 35 225.036 35c-4.434.068-8.037-2.983-8.037-7.931zM238.486 19.138l.068 2.828c.945-2.138 3.176-2.966 5.135-2.966 1.149 0 2.298.276 3.311.897l-.676 1.31c-.81-.483-1.756-.759-2.635-.759-2.905 0-5.135 2.414-5.135 5.31V35H237V19.138h1.486zM250 19h1.728l5.737 14.183L263.272 19H265l-6.636 16h-1.728zM268.64 26.932c0 3.932 2.872 6.508 6.427 6.508 8.753 0 8.753-13.016 0-13.016-3.555.068-6.426 2.644-6.426 6.508zM283 19.204v15.592h-1.573v-3.321C279.923 33.915 277.53 35 275 35c-4.377 0-8-3.254-8-8s3.623-8 8-8c2.53 0 5.127 1.153 6.427 3.593v-3.39H283zM291.045 14v4.782h5.465V20.1h-5.465v9.703c0 2.148.42 3.674 2.942 3.674.77 0 1.682-.279 2.452-.624l.561 1.316c-.98.486-2.032.832-3.013.832-3.433 0-4.554-2.01-4.554-5.129v-9.703H286v-1.316h3.433v-4.644l1.612-.208zM313.427 27.034c0-3.983-2.871-6.616-6.427-6.616-3.556 0-6.427 2.633-6.427 6.616 0 3.983 2.871 6.413 6.427 6.413 3.556 0 6.427-2.43 6.427-6.413m-14.427 0c0-4.929 3.555-8.034 8-8.034s8 3.105 8 8.034c0 4.928-3.555 7.966-8 7.966-4.445-.067-8-3.038-8-7.966M320.487 19.138l.067 2.828C321.5 19.828 323.73 19 325.69 19c1.148 0 2.297.276 3.311.897l-.676 1.31c-.81-.483-1.757-.759-2.635-.759-2.905 0-5.135 2.414-5.135 5.31V35H319V19.138h1.487zM347 19l-9.86 23h-1.689l3.028-7.006L332 19h1.69l3.803 9.554 1.901 4.742 1.831-4.742L345.31 19z" fill="#091B3B"/></g></svg>