<svg width="50" height="50" viewBox="0 0 50 50" xmlns="http://www.w3.org/2000/svg" xmlns:xlink="http://www.w3.org/1999/xlink"><title>Icons/Navbar/Data-white</title><defs><path id="a" d="M.285.386h19.058v3.51H.285z"/><path id="c" d="M.458.19H6.5v18.93H.458z"/><path id="e" d="M.555.594h17.666v9.818H.555z"/><path id="g" d="M.336.594h17.466v9.389H.336z"/></defs><g fill="none" fill-rule="evenodd"><path d="M1.585 25.22a22.946 22.946 0 0 1 4.17-13.226L4.5 11A24.558 24.558 0 0 0 0 25.22c-.014 1.578.14 3.152.46 4.695l1.527-.337a23.19 23.19 0 0 1-.403-4.357" fill="#FFF"/><g transform="translate(15.184 46.104)"><mask id="b" fill="#fff"><use xlink:href="#a"/></mask><path d="M18.66.386A22.868 22.868 0 0 1 .93.522L.284 1.977a24.236 24.236 0 0 0 19.058-.065l-.393-.864-.29-.662z" fill="#FFF" mask="url(#b)"/></g><g transform="translate(42.908 10.39)"><mask id="d" fill="#fff"><use xlink:href="#c"/></mask><path d="M1.645.19l-1.187.994a23.285 23.285 0 0 1 4.468 13.637 27.428 27.428 0 0 1-.328 3.967l1.508.331a23.11 23.11 0 0 0 .394-4.298A25.158 25.158 0 0 0 1.645.19" fill="#FFF" mask="url(#d)"/></g><path d="M24.856 44.178a17.724 17.724 0 0 1-7.028-1.39l-.85 1.85a20.415 20.415 0 0 0 15.957-.064l-.858-1.85a19.098 19.098 0 0 1-7.22 1.454" fill="#FFF"/><g transform="translate(5.513)"><mask id="f" fill="#fff"><use xlink:href="#e"/></mask><path d="M18.221 2.178V.593A24.067 24.067 0 0 0 .555 9.425l1.251.987a22.69 22.69 0 0 1 16.415-8.234" fill="#FFF" mask="url(#f)"/></g><path d="M2.787 31.548l-1.509.331a24.744 24.744 0 0 0 12.276 15.208l.645-1.455A22.92 22.92 0 0 1 2.787 31.548M35.688 45.568l.722 1.454a24.847 24.847 0 0 0 12.146-15.474l-1.508-.332a23.292 23.292 0 0 1-11.36 14.352" fill="#FFF"/><g transform="translate(25.5)"><mask id="h" fill="#fff"><use xlink:href="#g"/></mask><path d="M16.558 9.983l1.244-.987A24.332 24.332 0 0 0 .336.593v1.585a22.37 22.37 0 0 1 16.222 7.805" fill="#FFF" mask="url(#h)"/></g><path d="M25.772 4.23v2.052a18.85 18.85 0 0 1 13.062 6.279l1.58-1.253A20.768 20.768 0 0 0 25.772 4.23M23.734 6.282V4.23a20.754 20.754 0 0 0-14.777 7.409l1.58 1.253a18.972 18.972 0 0 1 13.197-6.61M43.695 25.197a15.972 15.972 0 0 1-.264 3.11l1.973.397a20.24 20.24 0 0 0 .329-3.507c0-4.426-1.403-8.737-4.004-12.305l-1.58 1.26a19.083 19.083 0 0 1 3.546 11.045M33.844 41.892l.857 1.857a20.948 20.948 0 0 0 10.245-12.987l-1.973-.396a19.012 19.012 0 0 1-9.13 11.526M6.004 25.197a18.578 18.578 0 0 1 3.282-10.649l-1.574-1.227a20.567 20.567 0 0 0-3.681 11.876c.01 1.286.12 2.57.329 3.838l1.973-.468a18.074 18.074 0 0 1-.33-3.37M6.803 30.62l-1.966.46a21.03 21.03 0 0 0 10.226 12.702l.857-1.851a19.129 19.129 0 0 1-9.117-11.312M35.423 15.34l1.838-1.52a16.549 16.549 0 0 0-11.49-5.486v2.39a14.466 14.466 0 0 1 9.652 4.616M12.174 14.152l1.838 1.454a14.187 14.187 0 0 1 9.722-4.883v-2.39a16.813 16.813 0 0 0-11.56 5.819M10.401 25.197a14.28 14.28 0 0 1 2.366-7.935l-1.837-1.454a17.14 17.14 0 0 0-2.837 9.39c-.014.976.074 1.95.264 2.908l2.315-.5a9.328 9.328 0 0 1-.27-2.409M39.298 25.197c0 .728-.064 1.455-.135 2.182l2.301.461c.13-.874.194-1.758.194-2.643a16.477 16.477 0 0 0-3.082-9.74l-1.837 1.455a15.007 15.007 0 0 1 2.56 8.285M31.948 37.892L33 40.01a17.017 17.017 0 0 0 8.008-10.052l-2.366-.526a14.357 14.357 0 0 1-6.693 8.461M11.059 29.626l-2.321.532a17.144 17.144 0 0 0 8.033 9.916l.993-2.078a15.091 15.091 0 0 1-6.705-8.37M24.856 39.75c-1.777.01-3.54-.328-5.19-.994l-.98 2.182c1.968.768 4.06 1.17 6.17 1.188a16.811 16.811 0 0 0 6.306-1.254l-1.051-2.116a14.004 14.004 0 0 1-5.255.993M31.613 18.516l2.23-1.786a11.998 11.998 0 0 0-8.007-3.838v2.844a9.08 9.08 0 0 1 5.777 2.78M23.734 15.736v-2.844a12.024 12.024 0 0 0-8.078 4.104l2.23 1.786a9.076 9.076 0 0 1 5.848-3.046M12.638 27.113l2.753-.65a8.225 8.225 0 0 1-.064-1.252c.015-1.715.459-3.4 1.29-4.897l-2.206-1.798a12.535 12.535 0 0 0-1.934 6.617c.014.663.068 1.324.161 1.98M15.92 28.502l-2.76.65a12.091 12.091 0 0 0 5.52 6.812l1.18-2.598a9.657 9.657 0 0 1-3.94-4.864M29.775 33.399l1.245 2.597a12.398 12.398 0 0 0 5.583-6.961l-2.824-.65a9.505 9.505 0 0 1-4.004 5.014M24.856 34.788a9.787 9.787 0 0 1-3.088-.532l-1.18 2.598c1.369.5 2.812.763 4.268.778a11.9 11.9 0 0 0 4.333-.799l-1.245-2.597a9.745 9.745 0 0 1-3.088.552M34.372 25.197c.013.376-.009.752-.064 1.123l2.753.598c.08-.57.126-1.145.135-1.72a12.541 12.541 0 0 0-2.102-6.949l-2.23 1.786a10.31 10.31 0 0 1 1.508 5.162M24.85 22.418a2.77 2.77 0 0 1 2.76 2.78 2.77 2.77 0 0 1-2.76 2.78 2.77 2.77 0 0 1-2.76-2.78 2.77 2.77 0 0 1 2.76-2.78" fill="#FFF"/></g></svg>