<?xml version="1.0" encoding="UTF-8"?>
<svg width="55px" height="55px" viewBox="0 0 55 55" version="1.1" xmlns="http://www.w3.org/2000/svg" xmlns:xlink="http://www.w3.org/1999/xlink">
    <!-- Generator: Sketch 50.2 (55047) - http://www.bohemiancoding.com/sketch -->
    <title>Icons/ILI/listing-categories/events</title>
    <desc>Created with Sketch.</desc>
    <defs>
        <polygon id="path-1" points="0.000208240277 0.868355403 50.3347986 0.868355403 50.3347986 11.3755368 0.000208240277 11.3755368"></polygon>
        <polygon id="path-3" points="0.259248681 48.3945255 51.0504789 48.3945255 51.0504789 0.894758461 0.259248681 0.894758461"></polygon>
    </defs>
    <g id="Icons/ILI/listing-categories/events" stroke="none" stroke-width="1" fill="none" fill-rule="evenodd">
        <g id="Group" transform="translate(2.000000, 2.000000)">
            <g id="Group-3">
                <mask id="mask-2" fill="white">
                    <use xlink:href="#path-1"></use>
                </mask>
                <g id="Clip-2"></g>
                <path d="M50.3350069,4.66801235 C50.3350069,4.66801235 42.8446041,0.868355403 25.2441358,0.868355403 C7.64470882,0.868355403 0.000208240277,4.75899005 0.000208240277,4.75899005 L0.000208240277,7.44550806 C0.000208240277,9.61612899 1.71090212,11.3746744 3.82245853,11.3746744 C5.44777389,11.3746744 6.82632453,10.3278957 7.37920246,8.85833825 C7.54579469,9.30145317 7.78527101,9.7242319 8.11637305,10.0967053 C9.53969534,11.6979129 11.957365,11.8102971 13.5160434,10.3460913 C14.0626742,9.83233482 14.4208474,9.18906895 14.6072225,8.50620103 C15.1517708,10.4959369 17.1061058,11.7343039 19.0948005,11.2826264 C20.4566919,10.9733022 21.4729044,9.94900034 21.884179,8.68066415 C22.3902028,10.2422696 23.8062367,11.3746744 25.4950654,11.3746744 C27.1182983,11.3746744 28.4958078,10.3311067 29.0507681,8.86368988 C29.2371432,9.35925077 29.5193087,9.82484254 29.9076769,10.2240741 C31.3997184,11.7589214 33.8205117,11.7589214 35.3125533,10.2240741 C35.6394905,9.88799177 35.8810492,9.50267444 36.0653419,9.0959506 C36.6723623,10.4381393 37.9873996,11.3746744 39.5231717,11.3746744 C41.1464046,11.3746744 42.5249553,10.3311067 43.0788744,8.86368988 C43.2652494,9.35925077 43.547415,9.82484254 43.9357831,10.2240741 C45.4288659,11.7589214 47.8486179,11.7589214 49.3406595,10.2240741 C49.9705864,9.57759726 50.2694112,8.48907581 50.3235536,7.44550806 L50.3350069,7.44550806 L50.3350069,4.66801235 Z" id="Fill-1" fill="#000000" mask="url(#mask-2)"></path>
            </g>
            <path d="M43.2472113,19.2573366 C43.0339308,19.2419109 42.8374606,19.2419109 42.6472942,19.2110596 C42.4466214,19.1771231 42.3089872,19.0125826 42.2879743,18.8069069 C42.2680121,18.6176853 42.347861,18.4603434 42.5128119,18.3657326 C42.597914,18.3173988 42.7082315,18.3030015 42.8090932,18.2937461 C42.9425249,18.2814056 43.0780578,18.290661 43.2335529,18.290661 C43.2440594,18.0993826 43.2430087,17.9153029 43.2661229,17.7353367 C43.2944902,17.5173205 43.4825553,17.3640921 43.7084435,17.3496948 C43.9133189,17.3363259 44.1234475,17.4761853 44.1843848,17.673634 C44.2074989,17.7476772 44.2138028,17.8268623 44.2180054,17.9039907 C44.2232586,18.0222542 44.219056,18.1425745 44.219056,18.290661 C44.3682473,18.290661 44.5058815,18.2886042 44.6445664,18.2916894 C44.954506,18.2958029 45.1688372,18.4778258 45.1772423,18.7431474 C45.1877488,19.0146393 44.9765695,19.2213434 44.6634779,19.2388258 C44.5237424,19.2470528 44.3840069,19.2408826 44.2180054,19.2408826 C44.2180054,19.4013096 44.2253599,19.5483677 44.2169547,19.6954258 C44.2032964,19.9484069 44.0341428,20.1376285 43.7998495,20.1746501 C43.5960248,20.2065298 43.3722378,20.0903231 43.2955409,19.8949312 C43.2629709,19.8085474 43.2556164,19.7087947 43.2493126,19.6152123 C43.2419581,19.4969488 43.2472113,19.3786853 43.2472113,19.2573366" id="Fill-4" fill="#000000"></path>
            <path d="M20.3464936,28.9038327 C20.1500234,28.9038327 19.9861231,28.9048611 19.8222228,28.9038327 C19.4313837,28.9007475 19.1697736,28.6662773 19.1708242,28.3238273 C19.1708242,27.9813773 19.4282317,27.7561625 19.8253748,27.7510206 C19.9892751,27.7489638 20.1531754,27.7510206 20.3464936,27.7510206 C20.3464936,27.5648841 20.3433417,27.3993152 20.3464936,27.2327179 C20.3559494,26.855303 20.5828883,26.6115774 20.9253979,26.6043787 C21.2868191,26.5971801 21.5211124,26.8306219 21.5358214,27.2203773 C21.5421253,27.388003 21.5368721,27.5556287 21.5368721,27.7510206 C21.7406968,27.7510206 21.9182554,27.7479354 22.0958141,27.7510206 C22.4561846,27.7582192 22.7135921,27.9906327 22.7219973,28.3135435 C22.7304024,28.6354259 22.4561846,28.896634 22.0979154,28.9038327 C21.9193061,28.9069178 21.7406968,28.9038327 21.5368721,28.9038327 C21.5368721,29.0930543 21.5421253,29.2596516 21.5358214,29.4262489 C21.5221631,29.818061 21.2889203,30.0597299 20.936955,30.0566448 C20.5860402,30.0535597 20.3548988,29.8036637 20.3464936,29.4139083 C20.3433417,29.2534813 20.3464936,29.0930543 20.3464936,28.9038327" id="Fill-6" fill="#000000"></path>
            <path d="M27.0853164,15.358067 C26.8163518,15.358067 26.5915143,15.3590953 26.3666767,15.358067 C25.8318994,15.3529251 25.4736302,15.032071 25.4746808,14.5621021 C25.4746808,14.09419 25.8276969,13.7856765 26.3719299,13.7784778 C26.5967675,13.7753927 26.8205544,13.7774495 27.0853164,13.7774495 C27.0853164,13.52344 27.0811139,13.29514 27.0853164,13.0678684 C27.0979241,12.5516225 27.4089144,12.2163711 27.8785518,12.2071157 C28.3734046,12.1978603 28.6938507,12.517686 28.7148636,13.0514144 C28.7243194,13.2807427 28.7159142,13.5100711 28.7159142,13.7784778 C28.9943346,13.7784778 29.2391344,13.7743643 29.4828836,13.7784778 C29.9756351,13.7877332 30.3276005,14.1065305 30.3402082,14.5487332 C30.3517652,14.9899075 29.9756351,15.3477832 29.4839342,15.3570386 C29.240185,15.3611521 28.9953852,15.358067 28.7169649,15.358067 C28.7169649,15.6161899 28.7232687,15.8455183 28.7148636,16.0738183 C28.695952,16.6096034 28.3765566,16.9407412 27.8932608,16.9366277 C27.413117,16.9325142 27.0968735,16.5900642 27.0853164,16.0563359 C27.0811139,15.8362629 27.0853164,15.6161899 27.0853164,15.358067" id="Fill-8" fill="#000000"></path>
            <path d="M9.93396226,21.7075472 L9.81132075,21.5849057" id="Stroke-10" stroke="#000000" stroke-width="0.228" stroke-linecap="round"></path>
            <path d="M9.29477772,21.0509739 L6.56310615,18.3771902" id="Stroke-12" stroke="#000000" stroke-width="0.228" stroke-linecap="round" stroke-dasharray="0.325,0.455"></path>
            <path d="M6.00845283,18.7631698 L5.88679245,18.6415094" id="Stroke-14" stroke="#000000" stroke-width="0.228" stroke-linecap="round"></path>
            <path d="M9.93396226,18.6415094 L9.81132075,18.7631698" id="Stroke-16" stroke="#000000" stroke-width="0.228" stroke-linecap="round"></path>
            <path d="M9.29477772,18.3771902 L6.56310615,21.0509739" id="Stroke-18" stroke="#000000" stroke-width="0.228" stroke-linecap="round" stroke-dasharray="0.325,0.455"></path>
            <path d="M6.00845283,21.5849057 L5.88679245,21.7075472" id="Stroke-20" stroke="#000000" stroke-width="0.228" stroke-linecap="round"></path>
            <path d="M35.4247547,35.4247547 L35.3207547,35.3207547" id="Stroke-22" stroke="#000000" stroke-width="0.5" stroke-linecap="round"></path>
            <path d="M34.6404873,34.5484396 L31.778536,31.7461086" id="Stroke-24" stroke="#000000" stroke-width="0.5" stroke-linecap="round" stroke-dasharray="0.312,0.51"></path>
            <path d="M31.5002264,31.5002264 L31.3962264,31.3962264" id="Stroke-26" stroke="#000000" stroke-width="0.5" stroke-linecap="round"></path>
            <path d="M35.4247547,31.3962264 L35.3207547,31.5002264" id="Stroke-28" stroke="#000000" stroke-width="0.5" stroke-linecap="round"></path>
            <path d="M34.6404873,31.7461086 L31.778536,34.5474112" id="Stroke-30" stroke="#000000" stroke-width="0.5" stroke-linecap="round" stroke-dasharray="0.312,0.51"></path>
            <path d="M31.5002264,35.3207547 L31.3962264,35.4247547" id="Stroke-32" stroke="#000000" stroke-width="0.5" stroke-linecap="round"></path>
            <path d="M7.61374906,47.6417526 L7.61374906,45.0708067 C7.61374906,42.266419 9.95668275,39.9731353 12.821786,39.9731353 C15.6858385,39.9731353 18.0287722,42.266419 18.0287722,45.0708067 L18.0287722,47.6417526" id="Fill-34" fill="#000000"></path>
            <path d="M17.7724154,36.7172895 C17.7724154,35.1078774 16.4391495,33.8028653 14.7938427,33.8028653 C13.1495866,33.8028653 11.8163207,35.1078774 11.8163207,36.7172895 C11.8163207,38.32773 13.1495866,39.6327421 14.7938427,39.6327421 C16.4391495,39.6327421 17.7724154,38.32773 17.7724154,36.7172895" id="Fill-36" fill="#000000"></path>
            <path d="M20.221464,47.6417526 L20.221464,45.0708067 C20.221464,42.266419 22.5643977,39.9731353 25.4295009,39.9731353 C28.2935535,39.9731353 30.6364872,42.266419 30.6364872,45.0708067 L30.6364872,47.6417526" id="Fill-38" fill="#000000"></path>
            <path d="M28.2788445,36.7172895 C28.2788445,35.1078774 26.9455786,33.8028653 25.3013225,33.8028653 C23.6560157,33.8028653 22.3227498,35.1078774 22.3227498,36.7172895 C22.3227498,38.32773 23.6560157,39.6327421 25.3013225,39.6327421 C26.9455786,39.6327421 28.2788445,38.32773 28.2788445,36.7172895" id="Fill-40" fill="#000000"></path>
            <path d="M32.8291789,47.6417526 L32.8291789,45.0708067 C32.8291789,42.266419 35.1721126,39.9731353 38.0372158,39.9731353 C40.9012684,39.9731353 43.2442021,42.266419 43.2442021,45.0708067 L43.2442021,47.6417526" id="Fill-42" fill="#000000"></path>
            <path d="M38.7852736,36.7172895 C38.7852736,35.1078774 37.4509571,33.8028653 35.8067009,33.8028653 C34.1624448,33.8028653 32.8291789,35.1078774 32.8291789,36.7172895 C32.8291789,38.32773 34.1624448,39.6327421 35.8067009,39.6327421 C37.4509571,39.6327421 38.7852736,38.32773 38.7852736,36.7172895" id="Fill-44" fill="#000000"></path>
            <path d="M16.0924373,30.1921599 C15.1479094,30.292941 15.0701618,29.5977573 14.1256338,29.6995667 C13.1832071,29.8003478 13.2609547,30.4955316 12.3174774,30.5963126 C11.3729494,30.6970937 11.2952018,30.00191 10.3496232,30.1037194 C9.40299394,30.2045005 9.48074151,30.8996842 8.53411225,31.0014937 C7.58748299,31.1022748 7.50973541,30.407091 6.56310615,30.5089005" id="Stroke-46" stroke="#000000" stroke-linecap="round" stroke-linejoin="round"></path>
            <path d="M38.251547,18.4028997 C37.865961,17.9329308 38.4238524,17.4948416 38.0382665,17.0248727 C37.6505792,16.552847 37.0926879,16.9899078 36.7060513,16.5178822 C36.3173134,16.0448281 36.8752048,15.606739 36.4864669,15.1336849 C36.097729,14.6585741 35.5398376,15.0966633 35.1510998,14.6225809 C34.7623619,14.1474701 35.3192026,13.7104093 34.9304647,13.2352985" id="Stroke-48" stroke="#000000" stroke-linecap="round" stroke-linejoin="round"></path>
            <path d="M26.5253215,24.5283019 L28.8997744,24.5283019" id="Stroke-50" stroke="#000000" stroke-linecap="round" stroke-linejoin="round"></path>
            <path d="M31.778536,24.5283019 L37.4225897,24.5283019" id="Stroke-52" stroke="#000000" stroke-linecap="round" stroke-linejoin="round"></path>
            <path d="M26.5253215,26.490566 L33.414387,26.490566" id="Stroke-54" stroke="#000000" stroke-linecap="round" stroke-linejoin="round"></path>
            <path d="M35.9811077,26.490566 L37.2691959,26.490566" id="Stroke-56" stroke="#000000" stroke-linecap="round" stroke-linejoin="round"></path>
            <path d="M21.3645635,20.8072482 L14.6330943,20.8072482 C14.3788388,20.8072482 13.4773871,22.2747441 13.2430938,22.212013 C13.0077498,22.1503103 13.4406146,20.5563239 13.233638,20.4401172 C12.3889211,19.9629496 11.8163207,19.0692888 11.8163207,18.0491375 C11.8163207,16.5333079 13.0844467,15.2920552 14.6330943,15.2920552 L21.3645635,15.2920552 C22.9142618,15.2920552 24.1813371,16.5333079 24.1813371,18.0491375 C24.1813371,19.5659956 22.9142618,20.8072482 21.3645635,20.8072482 Z" id="Stroke-58" stroke="#000000" stroke-linecap="round" stroke-linejoin="round"></path>
            <mask id="mask-4" fill="white">
                <use xlink:href="#path-3"></use>
            </mask>
            <g id="Clip-61"></g>
            <polygon id="Stroke-60" stroke="#000000" stroke-linecap="round" mask="url(#mask-4)" points="3.41117741 36.1516814 47.3112408 36.1516814 47.3112408 5.00827182 3.41117741 5.00827182"></polygon>
            <polygon id="Stroke-62" stroke="#000000" stroke-width="0.5" stroke-linecap="round" mask="url(#mask-4)" points="24.4240356 37.8515908 26.1302797 37.8515908 26.1302797 36.8880003 24.4240356 36.8880003"></polygon>
            <path d="M42.2849651,28.7668966 L42.2849651,23.5190819 C42.2849651,23.5190819 44.1130838,24.6585251 44.0395388,25.3074318" id="Stroke-63" stroke="#000000" stroke-width="0.75" stroke-linecap="round" stroke-linejoin="round" mask="url(#mask-4)"></path>
            <path d="M42.3856389,29.1346079 C42.503311,29.5325904 42.1103705,29.9922755 41.5083521,30.1640147 C40.9052831,30.3347255 40.3221763,30.1506457 40.2045043,29.7536917 C40.0868323,29.3567377 40.4797727,28.8960242 41.0817911,28.7253134 C41.6848601,28.5535742 42.2679669,28.7376539 42.3856389,29.1346079 Z" id="Stroke-64" stroke="#000000" stroke-width="0.75" stroke-linecap="round" stroke-linejoin="round" mask="url(#mask-4)"></path>
        </g>
    </g>
</svg>