<?xml version="1.0" encoding="UTF-8"?>
<svg width="55px" height="45px" viewBox="0 0 55 45" version="1.1" xmlns="http://www.w3.org/2000/svg" xmlns:xlink="http://www.w3.org/1999/xlink">
    <!-- Generator: Sketch 50.2 (55047) - http://www.bohemiancoding.com/sketch -->
    <title>NTT_Icons-listing-categories_Events</title>
    <desc>Created with Sketch.</desc>
    <defs></defs>
    <g id="Symbols" stroke="none" stroke-width="1" fill="none" fill-rule="evenodd">
        <g id="Icons/ILI/listing-categories/events" transform="translate(0.000000, -5.000000)" fill="#000000" fill-rule="nonzero">
            <g id="NTT_Icons-listing-categories_Events" transform="translate(0.000000, 5.000000)">
                <path d="M26,42.9372413 L27.5395916,41.2440452 C28.1400165,41.7278911 28.8218413,42.0976441 29.5521297,42.3354427 C30.3342853,42.3340207 31.1031584,42.1304034 31.7860469,41.7438441 C34.935669,40.3260474 38.1456672,38.9898505 40.8424682,36.643856 C44.2110861,33.7632822 46.7317568,29.9977444 48.1278559,25.7604815 C49.5064445,21.5070915 50.9152211,17.2741014 52.2938097,13.0309113 C53.0082607,10.8379165 52.0824932,9.30792004 49.8385133,8.86932107 C45.8134372,8.10432286 41.788361,7.60452404 37.9947268,5.80932824 C36.0626903,4.9729302 34.1809672,3.95293259 32.3093068,3.01453479 C31.3587404,2.43630433 30.1787464,2.40533752 29.1999355,2.93293498 L27.4993409,1.13773918 C28.5961741,-0.0964579239 31.0011571,-0.402457207 33.0740713,0.597140451 C35.3844141,1.87222216 37.7743446,2.99319895 40.2286441,3.95293259 C43.5392692,5.02393008 46.9807092,5.67672855 50.3919612,6.41112683 C54.0447178,7.19652499 55.8157513,10.2259179 54.6384165,13.8469094 C53.2195772,18.2124992 51.861114,22.6086889 50.3416478,26.9436787 C48.2298777,33.2184822 43.8304617,38.4369729 38.0450403,41.5296446 C36.0325022,42.641442 33.8388357,43.5696398 31.6954827,44.5896374 C29.6535467,45.5213004 27.246409,44.822932 26,42.9372413 Z" id="Shape"></path>
                <path d="M43.2245936,18.0013695 C44.4994995,17.9668416 45.7120211,18.5869301 46.4820445,19.6672432 C47.0398169,20.4479904 47.1563445,21.4883533 46.7866098,22.386414 C46.416875,23.2844747 45.6187714,23.8996138 44.7006261,23.994188 C43.8833651,24.0320549 43.0678847,23.8845525 42.3084356,23.5614935 C41.3994284,23.1524572 40.5124493,22.6902078 39.6515772,22.1768712 C38.8982917,21.7766288 38.7557782,20.8030662 39.4479865,19.9268599 C40.4256264,18.7908495 41.7789675,18.1008531 43.2245936,18.0013695 Z" id="Shape"></path>
                <path d="M38,34 L32,30.9852217 L32.24,30 C34.6241298,30.524248 36.6974103,31.9640261 38,34 Z" id="Shape"></path>
                <path d="M32,15 C34.0208425,16.4018692 34.670717,19.0841121 33.2018226,20 L32,15 Z" id="Shape"></path>
                <path d="M31.3668773,19.3856217 C30.0905822,14.2201669 28.6936924,9.05471203 27.3470504,3.81694081 C27.248315,3.49456345 27.0989494,3.19095889 26.9048694,2.91815167 C25.7864784,1.13925908 23.5534419,0.496681933 21.6991937,1.42016976 C18.4029356,2.73219529 15.1770246,4.17852265 11.8204691,5.21161362 C9.32607715,5.81844661 6.78910867,6.22259904 4.23304593,6.42033006 C0.866440928,6.86455918 -0.640994146,9.1270284 0.253417331,12.4432504 C1.14782881,15.7594724 2.09248812,19.1376799 2.8964535,22.5158874 C3.80919078,26.7997787 5.61622361,30.8287378 8.19257539,34.3241172 C11.6496265,38.8490556 16.4533196,41.3594667 21.3374092,43.7459068 C22.8736936,44.3960547 24.6401586,43.7611493 25.4476822,42.2685867 C26.4191404,40.6982884 27.3704994,39.1176593 28.3017593,37.5266992 C30.637715,33.5231599 31.9127784,28.9604348 32,24.2928038 C31.8856052,22.6454283 31.6741766,21.0066958 31.3668773,19.3856217 Z M24.6738655,13.7139523 C25.7019653,13.8954448 26.5072291,14.7232523 26.683779,15.7801342 C26.91759,16.8394165 26.4843881,17.9362468 25.5984257,18.5281562 C24.9559381,18.9192306 24.2519384,19.1919324 23.5181653,19.3339672 C22.6036547,19.5405854 21.6489458,19.5922399 20.7042865,19.7058799 C19.7596272,19.8195199 19.3777436,19.1480108 19.3877932,18.0012798 C19.4656959,16.6819299 20.087424,15.4594071 21.0968578,14.6406947 C22.1062915,13.8219822 23.4075452,13.4848494 24.6738655,13.7139523 Z M9.71006003,23.3010365 C8.26926855,23.2566145 7.06062148,22.1699823 6.82583426,20.7079782 C6.79649286,19.005144 8.04167675,17.5634109 9.6899609,17.3917562 C11.43069,17.1464043 13.166405,17.8750949 14.2424148,19.3029745 C15.1770246,20.3980509 14.8252897,21.2451855 13.5087964,21.6894146 C12.9259215,21.8857019 12.3932945,22.2576146 11.8204691,22.4952256 C11.2476438,22.7328365 10.4135297,23.0427638 9.71006003,23.3010365 Z M22.3624651,34.1381608 C18.8765847,35.3207946 15.0415386,34.4928885 12.3128979,31.9686697 C18.0311016,32.9087825 22.7141999,30.5739969 27.4575956,27.7329968 C26.7038781,30.8632624 25.1461952,33.0224225 22.3624651,34.1381608 Z" id="Shape"></path>
            </g>
        </g>
    </g>
</svg>