<?xml version="1.0" encoding="UTF-8"?>
<svg width="55px" height="55px" viewBox="0 0 55 55" version="1.1" xmlns="http://www.w3.org/2000/svg" xmlns:xlink="http://www.w3.org/1999/xlink">
    <!-- Generator: Sketch 50.2 (55047) - http://www.bohemiancoding.com/sketch -->
    <title>Icons/ILI/listing-categories/attractions</title>
    <desc>Created with Sketch.</desc>
    <defs></defs>
    <g id="Icons/ILI/listing-categories/attractions" stroke="none" stroke-width="1" fill="none" fill-rule="evenodd">
        <path d="M22.4046234,42.37511 L41.2602384,42.37511 L41.2602384,40.681589 L22.4046234,40.681589 L22.4046234,42.37511 Z M43.5360968,47.2609237 C43.5360968,46.9295083 43.5360968,46.6254262 43.5360968,46.3202052 C43.5337674,44.9512663 42.8221249,44.2508524 41.4314519,44.2508524 C35.0581166,44.2508524 28.6847813,44.2508524 22.311446,44.2508524 C22.1483855,44.2508524 21.9841603,44.2497135 21.8222645,44.2679357 C21.065198,44.3567687 20.372191,44.9478496 20.2766841,45.6767356 C20.2091305,46.1926502 20.2638722,46.7233703 20.2638722,47.2609237 L43.5360968,47.2609237 Z M41.913645,15.3186355 C42.3247904,14.6523881 42.3201315,14.0692794 41.851915,13.6957253 C41.3825338,13.3210324 40.8316223,13.1638663 40.2294632,13.3164768 C38.9459443,13.6421978 38.3787268,15.166025 39.0950282,16.3311036 C40.0780499,17.9255416 42.5251218,18.207985 43.8633825,16.8527126 C44.8743575,15.8288556 45.2039726,14.5988606 44.9512288,13.186644 C44.6472375,11.4919842 42.5053216,9.70849136 40.4659009,9.72329685 C34.7704313,9.76429669 29.0761264,9.74721342 23.3806568,9.73013016 C22.2322452,9.7267135 21.2410704,10.0717955 20.3477319,10.7505705 C18.3094759,12.2983143 18.0136376,14.9371092 19.6803487,16.7456575 C20.9720206,18.148763 23.3072796,17.9836247 24.3788199,16.415381 C25.2442052,15.1478028 24.5605159,13.3950599 23.1011246,13.1615886 C22.4570357,13.0579501 21.8956417,13.2378938 21.5112849,13.777725 C21.1595402,14.2708619 21.2806708,14.7537488 21.6161095,15.1808305 C21.2259291,15.5612178 20.8473958,15.9302163 20.4665331,16.3014926 C19.5021469,15.5373012 19.369369,13.8802246 20.2207777,12.8939508 C20.7833363,12.2436478 21.4973083,11.7972052 22.3557052,11.6696501 C23.5297407,11.494262 24.5989516,11.7277332 25.4095951,12.6718683 C25.4620074,12.7322292 25.5854675,12.7584235 25.6763154,12.7584235 C29.7621452,12.7629791 33.8479749,12.7629791 37.9338046,12.7584235 C38.0223232,12.7584235 38.146948,12.7379236 38.1958661,12.6787016 C38.8108371,11.9577879 39.6319631,11.6742057 40.5509253,11.621817 C42.2222952,11.5284285 43.601321,12.5830354 43.8249468,14.1410291 C43.9507363,15.0225255 43.708475,15.8072168 43.077198,16.4529642 C42.6800293,16.0668825 42.3084844,15.7035784 41.913645,15.3186355 Z M39.7076697,39.0108457 C39.7134933,38.8969573 39.7204816,38.8252076 39.7204816,38.752319 C39.7216463,32.2367619 39.7204816,25.7223436 39.7274699,19.2056476 C39.7274699,18.9892596 39.6424455,18.8901767 39.4595848,18.7831215 C38.2692433,18.0861243 37.4481173,17.1157949 37.2594331,15.736606 C37.1965383,15.2719412 37.2501153,14.791332 37.2501153,14.3152784 L26.3367104,14.3152784 C26.3471928,14.3938614 26.3518517,14.4428334 26.35884,14.4906666 C26.6383723,16.2434095 25.7671634,17.9733748 24.1563588,18.8115936 C23.9152623,18.9380098 23.9315683,19.0985925 23.9315683,19.2922028 L23.9315683,38.6167918 L23.9315683,39.0108457 L39.7076697,39.0108457 Z M41.7482551,19.4300078 L41.7482551,19.7944508 C41.7482551,26.0765366 41.7505846,32.3586225 41.7424315,38.6418472 C41.7424315,38.909485 41.7913497,39.0393178 42.0860233,39.1327064 C42.8081483,39.3616221 43.2437527,39.8718423 43.2763648,40.6269226 C43.3089769,41.3603641 43.2845178,42.0949444 43.2845178,42.8933023 C43.3765305,42.9422744 43.5663795,43.0299685 43.7434166,43.1393013 C44.7870036,43.7804932 45.3647036,44.7121006 45.4194454,45.9079291 C45.4671988,46.9260917 45.4287631,47.946532 45.4287631,49 L18.8137987,49 C18.8137987,48.054726 18.8021515,47.1117298 18.8196223,46.1698725 C18.8266106,45.8168184 18.8545638,45.4535143 18.9512354,45.1164045 C19.2563914,44.0572421 19.9726928,43.3363283 20.9475615,42.9035523 C20.9475615,42.1871941 20.9475615,41.4913358 20.9475615,40.7954774 C20.9487262,39.9766196 21.399472,39.3445388 22.1996331,39.1122064 C22.4418944,39.0415956 22.5082833,38.9459293 22.5082833,38.7113192 C22.5024597,32.3791224 22.5036244,26.0480645 22.5036244,19.7158678 L22.5036244,19.4618966 C21.8851593,19.3707858 21.2795061,19.3650914 20.7320888,19.1885643 C18.6099731,18.5075115 17.4720439,16.9700177 17.087687,14.8858594 C16.45641,11.4612343 19.3344275,8.42155209 22.4814948,8.04685915 C22.6678496,8.02522035 22.8565339,8.01724816 23.0452181,8.01724816 C28.9421839,8.01610927 34.8391497,8.0502758 40.7361154,8.00016489 C43.2880119,7.97852609 46.4176084,10.0888787 46.9207665,12.9987281 C47.3936419,15.7252172 45.7106248,18.6988441 42.9211259,19.2739807 C42.5554045,19.3502859 42.1768713,19.3742025 41.7482551,19.4300078 Z" id="Fill-1" fill="#000000"></path>
        <path d="M27,19 L27,36" id="Stroke-3" stroke="#000000" stroke-width="0.286" stroke-linecap="round" stroke-dasharray="0.441,0.617"></path>
        <path d="M37,19 L37,36" id="Stroke-4" stroke="#000000" stroke-width="0.286" stroke-linecap="round" stroke-dasharray="0.441,0.617"></path>
        <path d="M32,18 L32,35" id="Stroke-6" stroke="#000000" stroke-width="0.286" stroke-linecap="round" stroke-dasharray="0.437,0.612"></path>
    </g>
</svg>