<?xml version="1.0" encoding="UTF-8"?>
<svg width="55px" height="55px" viewBox="0 0 55 55" version="1.1" xmlns="http://www.w3.org/2000/svg" xmlns:xlink="http://www.w3.org/1999/xlink">
    <!-- Generator: Sketch 50.2 (55047) - http://www.bohemiancoding.com/sketch -->
    <title>Icons/ILI/listing-categories/culture</title>
    <desc>Created with Sketch.</desc>
    <defs></defs>
    <g id="Icons/ILI/listing-categories/culture" stroke="none" stroke-width="1" fill="none" fill-rule="evenodd">
        <path d="M5.25784174,29.9175576 L36.2359102,29.9175576 L36.2359102,4.11603705 L5.25784174,4.11603705 L5.25784174,29.9175576 Z M7.42376157,27.8385846 L34.0699903,27.8385846 L34.0699903,6.19708999 L7.42376157,6.19708999 L7.42376157,27.8385846 Z" id="Fill-1" fill="#000000"></path>
        <polygon id="Fill-2" fill="#FFFFFF" points="24.1879811 49.0349565 48.8881309 49.0349565 48.8881309 11.5416832 24.1879811 11.5416832"></polygon>
        <g id="Group-16" transform="translate(8.506721, 6.394691)" fill="#000000">
            <path d="M16.7631366,41.6002588 L39.2973665,41.6002588 L39.2973665,6.18699849 L16.7631366,6.18699849 L16.7631366,41.6002588 Z M40.3814094,43.6802717 L15.6801766,43.6802717 C15.0823828,43.6802717 14.5972167,43.2143488 14.5972167,42.6402653 L14.5972167,5.14699202 C14.5972167,4.57186844 15.0823828,4.10698555 15.6801766,4.10698555 L40.3814094,4.10698555 C40.9792033,4.10698555 41.4643693,4.57186844 41.4643693,5.14699202 L41.4643693,42.6402653 C41.4643693,43.2143488 40.9792033,43.6802717 40.3814094,43.6802717 Z" id="Fill-3"></path>
            <path d="M19.301378,34.4395022 C19.0707076,34.4395022 18.8389541,34.3698218 18.6418554,34.2242209 C18.167519,33.8747787 18.0787163,33.2216547 18.4436738,32.7661318 C18.9624116,32.1171678 19.5493758,31.9601268 19.9013378,31.8654862 C20.1352572,31.8030858 20.1439208,31.7999658 20.2240599,31.7011652 C20.302033,31.6023646 20.302033,31.5940445 20.3052819,31.3610831 C20.3096137,31.0106009 20.3161115,30.4240373 20.8359322,29.7750732 C21.35467,29.1271492 21.9416343,28.9701082 22.2935963,28.8754676 C22.5307645,28.8120272 22.5372622,28.8089072 22.6141524,28.7142666 C22.6888766,28.618586 22.6910426,28.612346 22.6932085,28.3773045 C22.6964574,28.0268223 22.7029551,27.4412987 23.22061,26.7933747 C23.7393478,26.1454506 24.327395,25.9884097 24.678274,25.8948091 C24.9154422,25.8313687 24.92194,25.8282487 24.9977472,25.7325681 C25.3627047,25.2760052 26.0428035,25.1917647 26.5171399,25.5422469 C26.9914764,25.8916891 27.0802791,26.5448131 26.7153216,27.000336 C26.1965838,27.64826 25.6096195,27.805301 25.2576576,27.8989016 C25.0204893,27.9623419 25.0139916,27.965462 24.9381844,28.0611426 C24.8623772,28.1547431 24.8612942,28.1609832 24.8591283,28.3960246 C24.8558794,28.7465068 24.8504646,29.3320305 24.3317268,29.9809945 C23.812989,30.6289185 23.2249418,30.7859595 22.8729798,30.8806001 C22.6358116,30.9440405 22.6293138,30.9471605 22.5524237,31.0418011 C22.4744506,31.1416417 22.4744506,31.1499618 22.4712017,31.3839632 C22.4668699,31.7334054 22.4603721,32.3199691 21.9416343,32.9689331 C21.4218135,33.6168571 20.8348493,33.7749381 20.4828873,33.8695787 C20.2489679,33.9319791 20.2403043,33.9340591 20.1601652,34.0328597 C19.9479051,34.3001414 19.626266,34.4395022 19.301378,34.4395022" id="Fill-5"></path>
            <polygon id="Fill-6" points="34.5579007 39.2521322 27.9691726 32.9247328 34.5579007 32.9247328"></polygon>
            <path d="M29.2764135,33.4447361 L34.0165291,37.9968444 L34.0165291,33.4447361 L29.2764135,33.4447361 Z M34.558009,39.7721354 C34.4172242,39.7721354 34.2786054,39.7190951 34.1746412,39.6192545 L27.5859131,33.2928951 C27.4310498,33.1431342 27.3844825,32.9205728 27.4689534,32.7260916 C27.5523413,32.5316104 27.750523,32.4047296 27.9692809,32.4047296 L34.558009,32.4047296 C34.856906,32.4047296 35.099489,32.637691 35.099489,32.9247328 L35.099489,39.2521322 C35.099489,39.4622135 34.9673679,39.6525347 34.7648544,39.7326152 C34.6977109,39.7596553 34.6273185,39.7721354 34.558009,39.7721354 Z" id="Fill-7"></path>
            <path d="M18.5134164,18.3854424 C17.9156225,18.3854424 17.4304565,17.9195195 17.4304565,17.3454359 C17.4304565,16.7713523 17.9156225,16.3054294 18.5134164,16.3054294 C21.6323409,16.3054294 24.4166309,14.299257 25.2840818,11.4267591 C25.4692679,10.8152353 25.5624025,10.1787513 25.5624025,9.53602732 C25.5624025,8.96090374 26.0475685,8.49602085 26.6453624,8.49602085 C27.2442392,8.49602085 27.7283223,8.96090374 27.7283223,9.53602732 C27.7283223,10.3753125 27.6059478,11.2062777 27.3644478,12.0060427 C26.2295058,15.7625461 22.5907605,18.3854424 18.5134164,18.3854424" id="Fill-8"></path>
            <path d="M39.3958076,27.2605456 C34.6123736,27.2605456 30.7223816,23.5238023 30.7223816,18.9311338 C30.7223816,14.3374252 34.6123736,10.6006819 39.3958076,10.6006819 C39.6947045,10.6006819 39.9372875,10.8336434 39.9372875,11.1206852 C39.9372875,11.408767 39.6947045,11.6406884 39.3958076,11.6406884 C35.2101675,11.6406884 31.8053415,14.9115088 31.8053415,18.9311338 C31.8053415,22.9497188 35.2101675,26.2205391 39.3958076,26.2205391 C39.6947045,26.2205391 39.9372875,26.4535006 39.9372875,26.7405423 C39.9372875,27.0275841 39.6947045,27.2605456 39.3958076,27.2605456" id="Fill-9"></path>
            <path d="M6.19312288,14.8170762 L6.20395248,14.8170762 L6.19312288,14.8170762 Z M8.11104489,20.3873508 C8.08397089,20.3873508 8.05581394,20.3852708 8.02765698,20.3811108 C5.97869682,20.0711889 4.03045192,19.6791064 2.72007042,18.3073379 C1.90785049,17.4586926 1.51365308,16.3646058 1.28731445,15.6168411 C0.181612378,11.9674584 2.36161069,9.15112093 4.88274138,6.65198538 C5.09066968,6.44502409 5.43505094,6.44086407 5.64839404,6.64054531 C5.8628201,6.84022655 5.8682349,7.1688686 5.6603066,7.37582988 C3.01030368,10.0039262 1.4291822,12.3616209 2.32695597,15.3256393 C2.63884843,16.3562857 3.01680144,17.0801303 3.51821188,17.6042935 C4.54052605,18.6744602 6.17687848,19.0384624 7.92910763,19.3130241 C8.41643959,18.808621 8.67310109,18.1118167 8.69367733,17.2350912 C8.216092,16.9584495 6.9761029,16.3209255 6.33174175,15.9891635 C5.9277977,15.7822022 5.6115734,15.6189212 5.51194109,15.5627608 C5.23903519,15.4098799 4.51236909,15.0042773 6.11514977,11.7823373 C6.244022,11.5233757 6.56674405,11.413135 6.83748403,11.5368958 C7.10714105,11.6606565 7.2219348,11.9705785 7.09306257,12.2295401 C6.59165213,13.2383464 6.19420584,14.3449132 6.18662512,14.7338757 C6.33174175,14.8097961 6.56674405,14.9304369 6.84398179,15.0729178 C9.76580765,16.5757271 9.76580765,16.5757271 9.77555429,16.9574095 C9.81237492,18.3582982 9.3618636,19.4991853 8.47058759,20.25631 C8.37095527,20.3415905 8.243166,20.3873508 8.11104489,20.3873508 Z" id="Fill-10"></path>
            <path d="M13.9954159,18.4981791 C13.9791715,18.4981791 13.9618441,18.4981791 13.9445168,18.4960991 C13.6467028,18.4690589 13.4279449,18.2163373 13.4550189,17.9303355 C13.4885907,17.5923334 13.479927,17.2522513 13.4301108,16.9173692 C13.4084516,16.7707283 13.3727139,16.5866472 13.290409,16.4732865 C13.1171354,16.236165 12.6503797,16.1862447 12.2886711,16.1862447 L12.0969872,16.1872847 C11.5706686,16.1893647 10.9750407,16.1976848 10.4433074,15.8815228 C10.1888118,15.7307219 10.1108387,15.4103999 10.2678679,15.1659983 C10.42598,14.9226368 10.7584487,14.8467164 11.0140272,14.9975173 C11.2793524,15.1545583 11.6713839,15.1493582 12.0872405,15.1472782 L12.289754,15.1462382 C13.2005233,15.1462382 13.8178105,15.3854397 14.1762702,15.8763228 C14.3917792,16.1706446 14.4632546,16.5086467 14.5022411,16.7707283 C14.5639699,17.1856909 14.5747995,17.6079335 14.5347299,18.0260161 C14.5076559,18.2964178 14.2715707,18.4981791 13.9954159,18.4981791" id="Fill-11"></path>
            <path d="M7.99950002,1.45996108 C6.58840325,1.45996108 5.44046574,2.66220856 5.44046574,4.14005775 C5.44046574,5.61790695 6.58840325,6.82015443 7.99950002,6.82015443 C9.41059679,6.82015443 10.5585343,5.61790695 10.5585343,4.14005775 C10.5585343,2.66220856 9.41059679,1.45996108 7.99950002,1.45996108 M7.99950002,7.8601609 C5.99169233,7.8601609 4.35750582,6.19199052 4.35750582,4.14005775 C4.35750582,2.08812499 5.99169233,0.419954612 7.99950002,0.419954612 C10.0073077,0.419954612 11.6414942,2.08812499 11.6414942,4.14005775 C11.6414942,6.19199052 10.0073077,7.8601609 7.99950002,7.8601609" id="Fill-12"></path>
            <path d="M12.9648712,15.8407545 C12.8879811,15.8407545 12.810008,15.8251544 12.7363667,15.7918742 C12.4656267,15.6701935 12.348667,15.3602716 12.4753734,15.1002699 C14.0229231,11.9251302 12.4688756,8.11142646 10.6668303,5.80989214 C10.487059,5.58005071 10.5357921,5.25452869 10.7751263,5.08188761 C11.0133775,4.91028655 11.3523439,4.95500682 11.5331982,5.18484825 C13.5139319,7.716224 15.2065983,11.9480103 13.4554521,15.5412327 C13.3634005,15.7305139 13.1684677,15.8407545 12.9648712,15.8407545" id="Fill-13"></path>
            <path d="M10.0089321,17.0057698 C9.95370119,17.0057698 9.89630432,16.9974497 9.84107336,16.9797696 C9.55733786,16.8913691 9.40139163,16.5970472 9.49452619,16.3245656 C9.65588721,15.8492826 10.067412,14.466074 10.0381721,13.7723897 C10.0002685,12.8748641 9.78800832,11.9627784 9.5833289,11.0818929 C9.51835131,10.8010912 9.70245449,10.5234095 9.99377071,10.4610091 C10.2850869,10.3996487 10.5753202,10.5743698 10.6402978,10.8551715 C10.8558068,11.7818173 11.0788965,12.7396633 11.120049,13.7307894 C11.1622845,14.7354357 10.5893987,16.4545664 10.5233381,16.6469676 C10.4486139,16.8664089 10.2363537,17.0057698 10.0089321,17.0057698" id="Fill-14"></path>
            <path d="M3.33085982,23.5651946 L3.32436206,23.5651946 C3.17599655,23.5641546 3.03629472,23.5038342 2.93449649,23.3998336 C1.86236617,22.2953467 1.4833302,20.9121381 1.35337501,19.9470121 C1.21367318,18.8976456 1.2699871,17.7723586 1.53747819,16.2986694 C1.58946027,16.0168276 1.86453209,15.8285865 2.16342903,15.8753868 C2.45799412,15.9253071 2.65509283,16.1946687 2.60419371,16.4775505 C2.35727885,17.844119 2.3020479,18.8726854 2.42875421,19.8149313 C2.515391,20.4618153 2.73090002,21.3271007 3.25613558,22.1081455 C3.29512214,22.0915054 3.33735758,22.0779853 3.38175893,22.0707053 C3.67632403,22.017665 3.96005953,22.2007061 4.01312457,22.4825479 C4.07593624,22.8143099 3.96222545,23.1689521 3.71747651,23.4091936 C3.61567828,23.5090342 3.47597645,23.5651946 3.33085982,23.5651946" id="Fill-15"></path>
        </g>
    </g>
</svg>