<?xml version="1.0" encoding="UTF-8"?>
<svg width="55px" height="55px" viewBox="0 0 55 55" version="1.1" xmlns="http://www.w3.org/2000/svg" xmlns:xlink="http://www.w3.org/1999/xlink">
    <!-- Generator: Sketch 50.2 (55047) - http://www.bohemiancoding.com/sketch -->
    <title>Icons/ILI/listing-categories/food-drink</title>
    <desc>Created with Sketch.</desc>
    <defs></defs>
    <g id="Icons/ILI/listing-categories/food-drink" stroke="none" stroke-width="1" fill="none" fill-rule="evenodd">
        <g id="NTT_Icons-listing-categories_Food-drink">
            <path d="M49.75,23.66 C48.6763571,23.3473401 47.5542391,23.2354673 46.44,23.33 C46.01,23.33 45.57,23.33 45.12,23.33 L45.12,33.65 L48,33.65 C48.3357452,33.6483564 48.6705778,33.6148732 49,33.55 C51.4110475,33.1603687 53.2278324,31.148186 53.37,28.71 C53.435928,26.4042457 51.9547968,24.3380269 49.75,23.66 Z" id="Shape"></path>
            <path d="M54.63,27.47 C53.9596679,24.3089771 51.2288396,22.006514 48,21.88 C46.76,21.83 45.82,21.88 44.56,21.88 L44.25,22.24 C44.1337853,22.9956174 43.754916,23.6860802 43.18,24.19 L43.18,26.73 C43.18,29.12 43.18,31.51 43.18,33.9 C43.2959551,37.6833676 42.206905,41.4057477 40.07,44.53 C37.0570079,49.0064228 32.3737337,52.0865761 27.07,53.08 C21.5087106,54.3299454 15.6784044,53.2921653 10.89,50.2 C6.50844988,47.550843 3.41753221,43.2076331 2.35,38.2 C2.11541633,37.0278984 1.99817084,35.8353444 2,34.64 C2,31.92 2,29.19 2,26.47 L2,24.17 C1.44053087,23.7128593 1.04122742,23.0893854 0.86,22.39 L0.28,21.84 L0.28,25.92 C0.28,28.78 0.28,31.64 0.28,34.5 C0.297565532,40.9124345 3.43505078,46.9150668 8.69,50.59 C12.6258003,53.5247731 17.4105537,55.097458 22.32,55.07 C23.5243418,55.0701448 24.7272384,54.9866103 25.92,54.82 C30.5623234,54.2315798 34.9011489,52.195131 38.32,49 C41.6252265,46.0173132 43.8214553,42.0020571 44.55,37.61 C44.65,37 44.71,36.37 44.78,35.73 L44.78,35.3 L46.16,35.3 C46.954716,35.3258512 47.7502536,35.2924253 48.54,35.2 C50.420687,34.9547617 52.1317608,33.9862293 53.31,32.5 C54.4432087,31.0862939 54.9230046,29.2579808 54.63,27.47 Z M48.63,33.61 C48.3170722,33.6724104 47.9990641,33.705885 47.68,33.71 C46.88,33.71 46.09,33.71 45.28,33.71 L44.81,33.71 L44.81,23.41 C45.26,23.41 45.7,23.41 46.14,23.41 C47.2503378,23.3073439 48.3700725,23.4159243 49.44,23.73 C51.6069423,24.4189768 53.0579457,26.456903 53,28.73 C52.882577,31.1755402 51.0751124,33.2078967 48.66,33.61 L48.63,33.61 Z" id="Shape" fill="#000000" fill-rule="nonzero"></path>
            <path d="M2.21,24.1 C5.27,27.03 14.21,28.72 22.8,28.72 C31.39,28.72 40.38,27 43.42,24.08 L44.05,23.32 L44.5,22.12 C44.504953,22.0267324 44.504953,21.9332676 44.5,21.84 C44.5,17.53 33.5,14.96 22.78,14.96 C12.06,14.96 1.09,17.53 1.09,21.84 C1.07525612,21.9996603 1.07525612,22.1603397 1.09,22.32 L1.5,23.32 L2.21,24.1 Z" id="Shape" fill="#000000" fill-rule="nonzero"></path>
            <path d="M17.42,1.16 C17.42,1.16 13.98,4.16 16.67,6.83 C16.67,6.83 20.77,9.83 16.77,12.64" id="Shape" fill="#000000" fill-rule="nonzero"></path>
            <path d="M17.7,13.79 L15.84,11.49 C16.6133333,10.95 17,10.43 17,9.93 C17,9.1 16.07,8.22 15.74,7.93 C14.7087514,7.05428685 14.1100249,5.77286613 14.1,4.42 C14.2876408,2.74613015 15.0979463,1.20405104 16.37,0.1 L18.47,2.22 L17.47,1.16 L18.53,2.21 C18.15,2.55 16.36,4.27 17.78,5.78 C19.1200794,6.76591265 19.9693861,8.28227138 20.11,9.94 C20.0120553,11.549153 19.1046193,12.9987914 17.7,13.79 Z" id="Shape" fill="#000000" fill-rule="nonzero"></path>
            <path d="M22.76,1.16 C22.76,1.16 19.32,4.16 22.01,6.83 C22.01,6.83 25.71,9.4 22.11,12.64" id="Shape" fill="#000000" fill-rule="nonzero"></path>
            <path d="M23.18,13.68 L21,11.6 C21.6352135,11.1475504 22.0378773,10.437398 22.1,9.66 C21.9850538,8.99648963 21.6199778,8.4023464 21.08,8 L20.89,7.84 C19.9468562,6.95906364 19.4201588,5.72041677 19.44,4.43 C19.6252224,2.75255943 20.435737,1.20651166 21.71,0.1 L23.81,2.22 L22.81,1.16 L23.87,2.21 C23.49,2.55 21.71,4.27 23.11,5.77 C24.3061315,6.65123085 25.0872189,7.98558846 25.27,9.46 C25.2834657,11.1188531 24.5076436,12.6853456 23.18,13.68 Z" id="Shape" fill="#000000" fill-rule="nonzero"></path>
            <path d="M28.87,1.16 C28.87,1.16 25.42,4.16 28.11,6.83 C28.11,6.83 31.96,9.48 28.21,12.64" id="Shape" fill="#000000" fill-rule="nonzero"></path>
            <path d="M29.24,13.71 L27.18,11.56 C27.8216113,11.1504004 28.2385239,10.4678444 28.31,9.71 C28.1661923,9.02152195 27.7702992,8.4116327 27.2,8 L27,7.83 C26.0568562,6.94906364 25.5301588,5.71041677 25.55,4.42 C25.7423662,2.74758383 26.551824,1.20711797 27.82,0.1 L29.92,2.22 L28.87,1.16 L29.92,2.21 C29.55,2.55 27.77,4.27 29.16,5.77 C30.4026294,6.6640739 31.211942,8.03954236 31.39,9.56 C31.3951269,11.2116936 30.592212,12.7615061 29.24,13.71 Z" id="Shape" fill="#000000" fill-rule="nonzero"></path>
            <path d="M16.54,35.83 L13.21,38.43 C12.8887351,38.6639044 12.6932071,39.032825 12.68,39.43 L12.68,44.78 C12.6930266,45.1513841 12.8531727,45.5023521 13.1251536,45.7555757 C13.3971346,46.0087994 13.7586328,46.1435003 14.13,46.13 L20.81,46.13 C21.1813672,46.1435003 21.5428654,46.0087994 21.8148464,45.7555757 C22.0868273,45.5023521 22.2469734,45.1513841 22.26,44.78 L22.26,39.48 C22.2432147,39.08844 22.0570961,38.7235015 21.75,38.48 L18.4,35.84 C17.8511136,35.4236962 17.0933309,35.4196221 16.54,35.83 Z" id="Shape" fill="#000000" fill-rule="nonzero"></path>
            <path d="M17.47,37.34 C17.2896312,37.345383 17.1145188,37.2788539 16.9832259,37.1550634 C16.851933,37.031273 16.775227,36.8603734 16.77,36.68 L16.77,27.62 C16.77,27.2334007 17.0834007,26.92 17.47,26.92 C17.8565993,26.92 18.17,27.2334007 18.17,27.62 L18.17,36.68 C18.164773,36.8603734 18.088067,37.031273 17.9567741,37.1550634 C17.8254812,37.2788539 17.6503688,37.345383 17.47,37.34 Z" id="Shape" fill="#000000" fill-rule="nonzero"></path>
        </g>
    </g>
</svg>