<?xml version="1.0" encoding="UTF-8"?>
<svg width="55px" height="55px" viewBox="0 0 55 55" version="1.1" xmlns="http://www.w3.org/2000/svg" xmlns:xlink="http://www.w3.org/1999/xlink">
    <!-- Generator: Sketch 50.2 (55047) - http://www.bohemiancoding.com/sketch -->
    <title>NTT_Icons-listing-categories_Tranquility</title>
    <desc>Created with Sketch.</desc>
    <defs></defs>
    <g id="Symbols" stroke="none" stroke-width="1" fill="none" fill-rule="evenodd">
        <g id="Icons/ILI/listing-categories/Tranquility" fill="#000000" fill-rule="nonzero">
            <g id="NTT_Icons-listing-categories_Tranquility">
                <ellipse id="Oval" cx="47.49" cy="39.01" rx="2.25" ry="2.33"></ellipse>
                <ellipse id="Oval" cx="46.9" cy="27.97" rx="2.15" ry="2.23"></ellipse>
                <ellipse id="Oval" cx="51.67" cy="31.31" rx="2.25" ry="2.33"></ellipse>
                <path d="M46.27,36.43 C44.8872147,36.3991003 43.7309388,35.3698877 43.54,34 C43.4183397,33.2541907 43.5826178,32.4899403 44,31.86 C44.4199513,31.2298924 45.0827485,30.802515 45.83,30.68 C46.5691354,30.5747235 47.3197061,30.7689955 47.9149481,31.2196519 C48.5101901,31.6703083 48.9008033,32.3400241 49,33.08 C49.1220137,33.8285434 48.9500353,34.5952806 48.52,35.22 C48.1003668,35.8440187 47.4419153,36.267309 46.7,36.39 C46.5583439,36.4175326 46.414304,36.4309316 46.27,36.43 Z M46.05,32.07 C45.6444597,32.1272575 45.2816166,32.3522203 45.05,32.69 C44.8336806,33.005692 44.7444045,33.3913648 44.8,33.77 C44.8834333,34.361784 45.3214037,34.8417574 45.9030953,34.9788862 C46.4847868,35.116015 47.0910256,34.882205 47.43,34.39 C47.6419142,34.0725395 47.7275155,33.6873338 47.67,33.31 C47.5562548,32.5253689 46.8371101,31.9749124 46.05,32.07 Z" id="Shape"></path>
                <ellipse id="Oval" cx="41.81" cy="37.02" rx="2.25" ry="2.33"></ellipse>
                <ellipse id="Oval" cx="41.37" cy="30.3" rx="2.25" ry="2.33"></ellipse>
                <path d="M54.22,55 C53.8467817,54.9838023 53.5542346,54.6735251 53.56,54.3 L53.56,41.36 C53.5822795,39.7849233 52.7474191,38.3220027 51.38,37.54 L47.87,35.61 C47.6993899,35.515355 47.5737656,35.3563532 47.5211597,35.1684753 C47.4685539,34.9805974 47.4933447,34.7794793 47.59,34.61 C47.6610761,34.4455969 47.7977915,34.3185002 47.9669342,34.2595853 C48.1360769,34.2006705 48.3221677,34.215329 48.48,34.3 L52,36.28 C53.8216919,37.3168197 54.9333765,39.2641845 54.9,41.36 L54.9,54.3 C54.9026715,54.483005 54.8325251,54.6595738 54.7049963,54.7908535 C54.5774674,54.9221332 54.4030055,54.997367 54.22,55 Z" id="Shape"></path>
                <path d="M1,48.34 C0.745976326,48.3325314 0.506074195,48.2214348 0.336067884,48.0325389 C0.166061573,47.843643 0.080761906,47.5934042 0.1,47.34 L0.1,14.34 C0.080761906,14.0865958 0.166061573,13.836357 0.336067884,13.6474611 C0.506074195,13.4585652 0.745976326,13.3474686 1,13.34 C1.25304334,13.3502468 1.49124709,13.4621636 1.6606629,13.6504034 C1.8300787,13.8386432 1.91637233,14.0872791 1.9,14.34 L1.9,47.34 C1.91637233,47.5927209 1.8300787,47.8413568 1.6606629,48.0295966 C1.49124709,48.2178364 1.25304334,48.3297532 1,48.34 Z" id="Shape"></path>
                <path d="M15.75,48.34 C15.4959763,48.3325314 15.2560742,48.2214348 15.0860679,48.0325389 C14.9160616,47.843643 14.8307619,47.5934042 14.85,47.34 L14.85,35.33 C14.8889865,32.4712266 12.6086139,30.1193129 9.75,30.07 L1.59,30.07 C1.16333333,29.9455556 0.87,29.5544444 0.87,29.11 C0.87,28.6655556 1.16333333,28.2744444 1.59,28.15 L9.75,28.15 C13.6360244,28.2320229 16.7225387,31.443787 16.65,35.33 L16.65,47.38 C16.6613469,47.8916417 16.2613092,48.3183485 15.75,48.34 Z" id="Shape"></path>
                <path d="M20.4,34.02 L20.28,28.67" id="Shape"></path>
                <path d="M20.4,35 C19.8965367,34.9785568 19.4995436,34.5639196 19.5,34.06 L19.39,28.71 C19.3679388,28.4609329 19.4482054,28.213615 19.6123245,28.0249723 C19.7764436,27.8363297 20.0102761,27.7226141 20.26,27.71 C20.5091828,27.698242 20.7516473,27.7927948 20.9270862,27.9701406 C21.102525,28.1474863 21.1944511,28.3909589 21.18,28.64 L21.3,34 C21.3164311,34.2494265 21.2328389,34.4951256 21.0677037,34.6827793 C20.9025684,34.8704329 20.6694914,34.9845853 20.42,35 L20.4,35 Z" id="Shape"></path>
                <path d="M20.34,16.71 C20.0869567,16.6997532 19.8487529,16.5878364 19.6793371,16.3995966 C19.5099213,16.2113568 19.4236277,15.9627209 19.44,15.71 L19.44,1.06 C19.44,0.562943725 19.8429437,0.16 20.34,0.16 C20.8370563,0.16 21.24,0.562943725 21.24,1.06 L21.24,15.75 C21.2480861,15.9966865 21.1577785,16.2364696 20.9889688,16.4165333 C20.8201591,16.5965969 20.5866948,16.7021706 20.34,16.71 Z" id="Shape"></path>
                <path d="M34.51,35 C34.2559763,34.9925314 34.0160742,34.8814348 33.8460679,34.6925389 C33.6760616,34.503643 33.5907619,34.2534042 33.61,34 L33.61,22 C33.6489865,19.1412266 31.3686139,16.7893129 28.51,16.74 L20.34,16.74 C19.9133333,16.6155556 19.62,16.2244444 19.62,15.78 C19.62,15.3355556 19.9133333,14.9444444 20.34,14.82 L28.51,14.82 C30.3789769,14.8487493 32.1588258,15.6237958 33.4530312,16.9724743 C34.7472365,18.3211527 35.4482862,20.1314258 35.4,22 L35.4,34 C35.4192056,34.2517296 35.3352453,34.5004502 35.1674022,34.689038 C34.9995591,34.8776257 34.762258,34.989873 34.51,35 Z" id="Shape"></path>
                <path d="M1,30.07 C0.68579946,30.0713322 0.395293092,29.9031443 0.24,29.63 C-0.0243986598,29.1862992 0.0926125172,28.6142446 0.51,28.31 L19.85,14.94 C20.0520836,14.804979 20.3010103,14.7595458 20.5377624,14.8144723 C20.7745145,14.8693988 20.9780091,15.0197937 21.1,15.23 C21.3643987,15.6737008 21.2473875,16.2457554 20.83,16.55 L1.51,29.92 C1.35952844,30.0213801 1.18139843,30.0737713 1,30.07 Z" id="Shape"></path>
                <path d="M1,24.32 C0.89451306,24.3231552 0.796856874,24.2645615 0.75,24.17 C0.660179964,24.0223896 0.699433005,23.8304858 0.84,23.73 L20.18,10.37 C20.2448193,10.3226067 20.3268663,10.3053226 20.4052963,10.322539 C20.4837264,10.3397553 20.5509906,10.389815 20.59,10.46 C20.67982,10.6076104 20.640567,10.7995142 20.5,10.9 L1.18,24.27 C1.12606853,24.3036565 1.06356355,24.321019 1,24.32 Z" id="Shape"></path>
                <path d="M8.2,29.43 C8.11650122,29.4137956 8.04380569,29.3629088 8,29.29 C7.88653592,29.1614568 7.88653592,28.9685432 8,28.84 L27.36,15.48 C27.4266593,15.4296807 27.5123017,15.4117456 27.5935499,15.4310905 C27.6747981,15.4504353 27.7431691,15.5050401 27.78,15.58 C27.86982,15.7276104 27.830567,15.9195142 27.69,16.02 L8.36,29.38 C8.31440996,29.415356 8.25760944,29.4331061 8.2,29.43 Z" id="Shape"></path>
                <path d="M13,29.43 C12.8978219,29.4306353 12.8028498,29.3774509 12.75,29.29 C12.6589812,29.1393195 12.6980286,28.9440825 12.84,28.84 L31.12,16.19 C31.1877134,16.1430896 31.2721816,16.1271895 31.3523168,16.1462693 C31.4324521,16.1653491 31.5006919,16.2176083 31.54,16.29 C31.62982,16.4376104 31.590567,16.6295142 31.45,16.73 L13.15,29.38 C13.107083,29.4131312 13.0542123,29.4307548 13,29.43 Z" id="Shape"></path>
                <path d="M1,19.2 C0.897821905,19.2006353 0.802849785,19.1474509 0.75,19.06 C0.660179964,18.9123896 0.699433005,18.7204858 0.84,18.62 L20.18,5.25 C20.2470049,5.20651943 20.3289771,5.192601 20.4065785,5.21152817 C20.4841799,5.23045535 20.5505386,5.28055204 20.59,5.35 C20.67982,5.49761043 20.640567,5.68951419 20.5,5.79 L1.18,19.15 C1.12871545,19.1893006 1.06420684,19.2072197 1,19.2 Z" id="Shape"></path>
                <path d="M15.19,33.13 C14.8779765,33.1233622 14.5911209,32.9572879 14.43,32.69 C14.1593558,32.2440985 14.2769036,31.665067 14.7,31.36 L33.44,18.41 C33.6383403,18.2714873 33.8858477,18.2229182 34.121825,18.2762034 C34.3578024,18.3294886 34.5604239,18.4796997 34.68,18.69 C34.9382388,19.1314621 34.8217543,19.6966281 34.41,20 L15.68,33 C15.5344981,33.0940021 15.3629645,33.139511 15.19,33.13 Z" id="Shape"></path>
                <path d="M1,15.28 C0.68579946,15.2813322 0.395293092,15.1131443 0.24,14.84 C-0.0243986598,14.3962992 0.0926125172,13.8242446 0.51,13.52 L19.85,0.15 C20.0520836,0.0149789505 20.3010103,-0.030454157 20.5377624,0.0244723328 C20.7745145,0.0793988226 20.9780091,0.22979366 21.1,0.44 C21.3643987,0.883700807 21.2473875,1.45575545 20.83,1.76 L1.51,15.13 C1.35952844,15.2313801 1.18139843,15.2837713 1,15.28 Z" id="Shape"></path>
            </g>
        </g>
    </g>
</svg>