<?xml version="1.0" encoding="UTF-8"?>
<svg width="41px" height="55px" viewBox="0 0 41 55" version="1.1" xmlns="http://www.w3.org/2000/svg" xmlns:xlink="http://www.w3.org/1999/xlink">
    <!-- Generator: Sketch 50.2 (55047) - http://www.bohemiancoding.com/sketch -->
    <title>NTT_Icons-listing-categories_Attractions</title>
    <desc>Created with Sketch.</desc>
    <defs></defs>
    <g id="Symbols" stroke="none" stroke-width="1" fill="none" fill-rule="evenodd">
        <g id="Icons/ILI/listing-categories/attractions" transform="translate(-6.000000, 0.000000)" fill="#000000" fill-rule="nonzero">
            <g id="NTT_Icons-listing-categories_Attractions" transform="translate(6.000000, 0.000000)">
                <path d="M33.36,15.33 L33.36,15.82 C33.36,24.2533333 33.36,32.68 33.36,41.1 C33.36,41.46 33.42,41.64 33.81,41.76 C34.7213409,41.9988609 35.3602127,42.8179273 35.37,43.76 C35.37,44.76 35.37,45.76 35.37,46.76 C35.5762098,46.8583113 35.776546,46.9684962 35.97,47.09 C37.2965053,47.8620587 38.1288682,49.2657252 38.17,50.8 C38.23,52.17 38.17,53.54 38.17,54.95 L3.27,54.95 C3.27,53.68 3.27,52.42 3.27,51.15 C3.27064573,50.6749272 3.32771207,50.2016124 3.44,49.74 C3.80327938,48.3891054 4.77030463,47.2818246 6.06,46.74 L6.06,44 C6.00998421,42.9577905 6.69250671,42.0214029 7.7,41.75 C8.02,41.65 8.11,41.52 8.11,41.21 C8.11,32.71 8.11,24.2166667 8.11,15.73 L8.11,15.38 C7.32732339,15.3190751 6.55121496,15.1919539 5.79,15 C3.19931016,14.1893797 1.32463112,11.9350684 1,9.24 C0.18,4.64 4,0.56 8.08,0.06 C8.32644877,0.0453375141 8.57355123,0.0453375141 8.82,0.06 C16.56,0 24.29,0.07 32,0 C35.35,0 39.45,2.8 40.11,6.7 C40.73,10.36 38.52,14.35 34.86,15.12 C34.41,15.23 33.92,15.26 33.36,15.33 Z M30.68,41.6 C30.68,41.45 30.68,41.35 30.68,41.25 L30.68,15 C30.6927077,14.7558332 30.5535016,14.5291261 30.33,14.43 C28.7711871,13.6106274 27.7000604,12.0931979 27.45,10.35 C27.4049721,9.71412948 27.4049721,9.07587052 27.45,8.44 L13.14,8.44 C13.14,8.55 13.14,8.61 13.14,8.68 C13.5147269,11.0295505 12.3529404,13.3571435 10.25,14.47 C9.93,14.64 9.95,14.86 9.95,15.12 L9.95,41.6 L30.68,41.6 Z M33.57,9.82 C34.11,8.92 34.11,8.14 33.49,7.64 C32.9074648,7.12930583 32.1106609,6.93852181 31.36,7.13 C30.5519342,7.38041112 29.9071642,7.99381388 29.6167978,8.7883977 C29.3264313,9.58298152 29.4237837,10.4675796 29.88,11.18 C30.5411972,12.2040824 31.6275412,12.8768865 32.8389528,13.0125646 C34.0503643,13.1482427 35.2586328,12.7324352 36.13,11.88 C37.3970752,10.5973669 37.9344162,8.76364386 37.56,7 C37.16,4.72 34.35,2.33 31.67,2.35 C24.2,2.41 16.73,2.35 9.26,2.35 C7.80865962,2.33225459 6.39570785,2.81619057 5.26,3.72 C4.00880823,4.61267057 3.19822414,5.99703509 3.03205607,7.52501735 C2.865888,9.0529996 3.3599434,10.5792437 4.39,11.72 C5.20070311,12.6109804 6.37524552,13.080946 7.57679436,12.995121 C8.7783432,12.9092961 9.87416418,12.2771617 10.55,11.28 C11.0905219,10.5171126 11.2161993,9.53534795 10.8852749,8.66090516 C10.5543504,7.78646237 9.81017246,7.13388612 8.9,6.92 C8.09903088,6.7417221 7.27043272,7.07078261 6.81,7.75 C6.41299465,8.34081782 6.49280939,9.13056368 7,9.63 L5.49,11.14 C4.20376861,9.9311022 4.06437384,7.93601448 5.17,6.56 C5.8688008,5.68633661 6.86617571,5.10215988 7.97,4.92 C9.45073641,4.58925925 10.9925198,5.10961115 11.97,6.27 C12.0694275,6.34797204 12.1938437,6.38707427 12.32,6.38 L28.35,6.38 C28.4750872,6.39182641 28.6000418,6.35612508 28.7,6.28 C29.4742521,5.37951734 30.6024251,4.86106893 31.79,4.86 C33.8863435,4.68320416 35.7613551,6.16048609 36.08,8.24 C36.2666697,9.37417655 35.8942432,10.5286986 35.08,11.34 L33.57,9.82 Z M35.7,52.67 L35.7,51.41 C35.8067057,50.6485682 35.5512651,49.8810382 35.0095566,49.3354042 C34.4678481,48.7897703 33.7021824,48.5287947 32.94,48.63 L7.86,48.63 C7.65,48.63 7.43,48.63 7.22,48.63 C6.21420655,48.7600313 5.40666099,49.5231619 5.22,50.52 C5.174811,51.229281 5.174811,51.940719 5.22,52.65 L35.7,52.67 Z M32.7,43.84 L8,43.84 L8,46.11 L32.72,46.11 L32.7,43.84 Z" id="Shape"></path>
            </g>
        </g>
    </g>
</svg>