<?xml version="1.0" encoding="UTF-8"?>
<svg width="55px" height="55px" viewBox="0 0 55 55" version="1.1" xmlns="http://www.w3.org/2000/svg" xmlns:xlink="http://www.w3.org/1999/xlink">
    <!-- Generator: Sketch 50.2 (55047) - http://www.bohemiancoding.com/sketch -->
    <title>Icons/ILI/listing-categories/food-drink</title>
    <desc>Created with Sketch.</desc>
    <defs>
        <polygon id="path-1" points="0.658058824 0.711953846 32.6646078 0.711953846 32.6646078 16.6924154 0.658058824 16.6924154"></polygon>
    </defs>
    <g id="Icons/ILI/listing-categories/food-drink" stroke="none" stroke-width="1" fill="none" fill-rule="evenodd">
        <polygon id="Fill-1" fill="#FFFFFF" points="1.32388235 16.5338 3.61554902 47.9616462 22.6326078 47.9616462 25.1518235 16.5338"></polygon>
        <polygon id="Stroke-2" stroke="#000000" stroke-linecap="round" stroke-linejoin="round" points="22.6320686 47.9614308 3.6150098 47.9614308 1.32442157 16.5335846 25.1523627 16.5335846"></polygon>
        <polygon id="Fill-4" fill="#000000" points="1.81305882 23.2408769 3.61511765 47.9605692 22.6321765 47.9605692 24.6143333 23.2408769"></polygon>
        <path d="M19.670049,26.6401846 L19.0736765,33.0748" id="Stroke-5" stroke="#FFFFFF" stroke-linecap="round" stroke-linejoin="round"></path>
        <path d="M18.6774608,37.3473846 L18.0810882,43.7809231" id="Stroke-6" stroke="#FFFFFF" stroke-linecap="round" stroke-linejoin="round"></path>
        <path d="M8.15639216,43.7810308 L7.56001961,37.3474923" id="Stroke-7" stroke="#FFFFFF" stroke-linecap="round" stroke-linejoin="round"></path>
        <path d="M7.16380392,33.0743692 L6.56743137,26.6397538" id="Stroke-8" stroke="#FFFFFF" stroke-linecap="round" stroke-linejoin="round"></path>
        <path d="M13.2126176,43.7810308 L13.1425196,37.3194923" id="Stroke-9" stroke="#FFFFFF" stroke-linecap="round" stroke-linejoin="round"></path>
        <path d="M13.0951765,33.1011846 L13.024,26.6396462" id="Stroke-10" stroke="#FFFFFF" stroke-linecap="round" stroke-linejoin="round"></path>
        <g id="Group-30" transform="translate(0.000000, 7.000000)">
            <path d="M23.5040882,7.53049231 C23.2786961,7.53049231 23.0651667,7.57033846 22.8581078,7.62741538 C22.243402,5.82572308 20.5373235,4.52587692 18.5228137,4.52587692 C17.7927157,4.52587692 17.103598,4.70141538 16.491049,5.00510769 C15.7124216,2.50449231 13.3765392,0.687723077 10.6157549,0.687723077 C7.70506863,0.687723077 5.27104902,2.70910769 4.63261765,5.42187692 C4.50967647,5.40895385 4.38889216,5.38418462 4.26163725,5.38418462 C2.20614706,5.38418462 0.539970588,7.04910769 0.539970588,9.10172308 C0.539970588,10.0838769 0.928205882,10.9712615 1.55153922,11.6357231 L4.87418627,11.6357231 L4.87418627,21.1201846 C4.87418627,22.4620308 5.96340196,23.5497231 7.30712745,23.5497231 C8.65193137,23.5497231 9.74006863,22.4620308 9.74006863,21.1201846 L9.74006863,11.6357231 L14.4312451,11.6357231 L25.2597745,11.6357231 C25.6771275,11.1995692 25.9370294,10.6104923 25.9370294,9.96003077 C25.9370294,8.61818462 24.8478137,7.53049231 23.5040882,7.53049231" id="Fill-11" fill="#FFFFFF"></path>
            <path d="M23.5040882,7.53049231 C23.2786961,7.53049231 23.0651667,7.57033846 22.8581078,7.62741538 C22.243402,5.82572308 20.5373235,4.52587692 18.5228137,4.52587692 C17.7927157,4.52587692 17.103598,4.70141538 16.491049,5.00510769 C15.7124216,2.50449231 13.3765392,0.687723077 10.6157549,0.687723077 C7.70506863,0.687723077 5.27104902,2.70910769 4.63261765,5.42187692 C4.50967647,5.40895385 4.38889216,5.38418462 4.26163725,5.38418462 C2.20614706,5.38418462 0.539970588,7.04910769 0.539970588,9.10172308 C0.539970588,10.0838769 0.928205882,10.9712615 1.55153922,11.6357231 L4.87418627,11.6357231 L4.87418627,21.1201846 C4.87418627,22.4620308 5.96340196,23.5497231 7.30712745,23.5497231 C8.65193137,23.5497231 9.74006863,22.4620308 9.74006863,21.1201846 L9.74006863,11.6357231 L14.4312451,11.6357231 L25.2597745,11.6357231 C25.6771275,11.1995692 25.9370294,10.6104923 25.9370294,9.96003077 C25.9370294,8.61818462 24.8478137,7.53049231 23.5040882,7.53049231 Z" id="Stroke-13" stroke="#000000" stroke-linecap="round" stroke-linejoin="round"></path>
            <path d="M39.6557549,23.8841077 C39.6557549,19.2501077 35.8931078,15.4927231 31.2526176,15.4927231 C26.611049,15.4927231 22.848402,19.2501077 22.848402,23.8841077" id="Stroke-15" stroke="#000000" stroke-linecap="round" stroke-linejoin="round"></path>
            <path d="M25.4602549,23.8841077 C25.4602549,20.6899538 28.0528039,18.0999538 31.2525098,18.0999538 C34.4511373,18.0999538 37.0436863,20.6899538 37.0436863,23.8841077" id="Stroke-17" stroke="#000000" stroke-linecap="round" stroke-linejoin="round"></path>
            <path d="M34.470549,23.8841077 C34.470549,22.1093385 33.0297647,20.6705692 31.2525098,20.6705692 C29.4752549,20.6705692 28.0333922,22.1093385 28.0333922,23.8841077" id="Stroke-19" stroke="#000000" stroke-linecap="round" stroke-linejoin="round"></path>
            <path d="M53.2125,23.8841077 C53.2125,20.4864154 50.4538725,17.7316462 47.0514216,17.7316462 C43.6478922,17.7316462 40.8892647,20.4864154 40.8892647,23.8841077" id="Stroke-21" stroke="#000000" stroke-linecap="round" stroke-linejoin="round"></path>
            <path d="M42.8041275,23.8841077 C42.8041275,21.5418 44.705402,19.6431846 47.0509902,19.6431846 C49.3965784,19.6431846 51.2978529,21.5418 51.2978529,23.8841077" id="Stroke-23" stroke="#000000" stroke-linecap="round" stroke-linejoin="round"></path>
            <path d="M49.410598,23.8841077 C49.410598,22.5831846 48.3548137,21.5278 47.0509902,21.5278 C45.7482451,21.5278 44.6913824,22.5831846 44.6913824,23.8841077" id="Stroke-25" stroke="#000000" stroke-linecap="round" stroke-linejoin="round"></path>
            <g id="Group-29" transform="translate(21.568627, 24.769231)">
                <mask id="mask-2" fill="white">
                    <use xlink:href="#path-1"></use>
                </mask>
                <g id="Clip-28"></g>
                <path d="M27.6382549,3.69610769 L25.1708039,4.42949231 L23.4582549,3.7058 L21.6044314,4.43272308 L19.5866863,3.69718462 L17.4513922,4.43272308 L15.6676667,3.70256923 L13.6671765,4.4338 L11.9125686,3.7058 L10.0576667,4.44456923 L8.68805882,3.72087692 L7.15884314,4.44456923 L5.47864706,3.71010769 L3.93864706,4.37241538 L3.62266667,3.64010769 L5.48080392,2.83995385 L7.14590196,3.56795385 L8.70747059,2.82918462 L10.1051176,3.56687692 L11.9190392,2.84426154 L13.6855098,3.57764615 L15.6849216,2.84641538 L17.4761961,3.5798 L19.5942353,2.8518 L21.5936471,3.5798 L23.4690392,2.84426154 L25.2171765,3.58303077 L27.6727647,2.85395385 L29.6861961,3.63364615 L29.3982549,4.3778 L27.6382549,3.69610769 Z M0.658058824,0.711953846 C0.658058824,9.53733846 7.82315686,16.6924154 16.6619804,16.6924154 C25.4997255,16.6924154 32.6648235,9.53733846 32.6648235,0.711953846 L0.658058824,0.711953846 Z" id="Fill-27" fill="#000000" mask="url(#mask-2)"></path>
            </g>
        </g>
    </g>
</svg>