<?xml version="1.0" encoding="UTF-8"?>
<svg width="55px" height="55px" viewBox="0 0 55 55" version="1.1" xmlns="http://www.w3.org/2000/svg" xmlns:xlink="http://www.w3.org/1999/xlink">
    <!-- Generator: Sketch 50.2 (55047) - http://www.bohemiancoding.com/sketch -->
    <title>NTT_Icons-listing-categories_Culture</title>
    <desc>Created with Sketch.</desc>
    <defs></defs>
    <g id="Symbols" stroke="none" stroke-width="1" fill="none" fill-rule="evenodd">
        <g id="Icons/ILI/listing-categories/culture">
            <g id="NTT_Icons-listing-categories_Culture">
                <path d="M46.5535714,14.08 L47.0839286,13.51 C48.9794643,11.4 50.875,9.3 52.7705357,7.18 C53.4999312,6.4353688 53.9425487,5.44887363 54.0178571,4.4 C54.1786575,2.8080881 53.4105712,1.26744668 52.0535714,0.46 C50.6943387,-0.245792695 49.033214,0.151669144 48.125,1.4 C45.8366071,4.19 43.5973214,7 41.3776786,9.78 C41.2553043,10.0293957 41.0362344,10.2154556 40.7733139,10.2932977 C40.5103933,10.3711398 40.2274937,10.3336965 39.9928571,10.19 C31.1535714,6.36 22.3142857,6.47 13.6616071,11 C9.15936244,13.280212 5.42828721,16.8771662 2.94642857,21.33 C0.797579079,24.9460244 -0.139908769,29.1747464 0.275,33.38 C0.722813207,39.0768941 3.51636366,44.3151337 7.96517857,47.8 C12.9091836,51.7104521 18.9106351,53.9857752 25.1625,54.32 C27.5881368,54.4975376 30.0162284,54.0106861 32.1946429,52.91 C34.5223214,51.73 35.3276786,49.28 34.2866071,46.55 C34.0192575,45.8736116 33.6904487,45.2241246 33.3044643,44.61 C32.8428571,43.87 32.3223214,43.18 31.8410714,42.45 C31.6340528,42.0670487 31.4471818,41.6731592 31.28125,41.27 C32.2633929,41.37 33.0196429,41.38 33.7660714,41.53 C36.2528519,42.1594537 38.8226635,42.3789051 41.3776786,42.18 C43.7759731,41.9456759 46.0587995,41.0194121 47.9580357,39.51 C54.1160714,34.37 55.0589286,24.69 50.0205357,18 C48.9892857,16.63 47.7714286,15.45 46.5535714,14.08 Z" id="Shape"></path>
                <path d="M46.5535714,14.08 C47.7714286,15.45 48.9892857,16.63 50.0205357,18 C55.0589286,24.69 54.1160714,34.37 47.9089286,39.51 C46.0096923,41.0194121 43.7268659,41.9456759 41.3285714,42.18 C38.7735564,42.3789051 36.2037447,42.1594537 33.7169643,41.53 C32.9705357,41.38 32.1946429,41.37 31.2321429,41.27 C31.3980747,41.6731592 31.5849457,42.0670487 31.7919643,42.45 C32.2633929,43.18 32.7741071,43.87 33.2553571,44.61 C33.6413416,45.2241246 33.9701503,45.8736116 34.2375,46.55 C35.2785714,49.28 34.4732143,51.73 32.1455357,52.91 C29.9671212,54.0106861 27.5390296,54.4975376 25.1133929,54.32 C18.8785272,53.975717 12.8956206,51.7009291 7.96517857,47.8 C3.51636366,44.3151337 0.722813207,39.0768941 0.275,33.38 C-0.139908769,29.1747464 0.797579079,24.9460244 2.94642857,21.33 C5.42828721,16.8771662 9.15936244,13.280212 13.6616071,11 C22.3339286,6.47 31.1339286,6.36 39.9928571,10.19 C40.2274937,10.3336965 40.5103933,10.3711398 40.7733139,10.2932977 C41.0362344,10.2154556 41.2553043,10.0293957 41.3776786,9.78 C43.5973214,7 45.8366071,4.19 48.125,1.4 C49.033214,0.151669144 50.6943387,-0.245792695 52.0535714,0.46 C53.4105712,1.26744668 54.1786575,2.8080881 54.0178571,4.4 C53.9452056,5.4475441 53.5061503,6.43386645 52.7803571,7.18 C50.8848214,9.3 48.9892857,11.4 47.09375,13.51 L46.5535714,14.08 Z M39.2857143,12.27 C38.9910714,12.13 38.7651786,12 38.5294643,11.9 C35.8098747,10.7481891 32.93018,10.0362638 29.9946429,9.79 C23.0948653,9.14234021 16.2060056,11.1392403 10.6758929,15.39 C7.56825639,17.7073886 5.10734466,20.8093006 3.53571429,24.39 C2.20653726,27.2476866 1.71546593,30.435186 2.12142857,33.57 C2.6860628,38.6034109 5.27043504,43.1748121 9.26160714,46.2 C13.1637528,49.1614444 17.7137015,51.1140311 22.5205357,51.89 C25.3649125,52.4796656 28.3162608,52.2156417 31.0160714,51.13 C32.9803571,50.28 33.3928571,48.73 32.24375,46.67 C32.0669643,46.37 31.8607143,46.09 31.6642857,45.8 C31.0651786,44.87 30.4464286,44 29.8866071,43 C28.9044643,41.19 29.7196429,39.22 31.5169643,39.2 C32.897996,39.2242183 34.2732296,39.3883611 35.6223214,39.69 C38.6553488,40.4092842 41.8317677,40.168553 44.7267857,39 C48.5669643,37.32 51.2678571,33 51.3758929,28.17 C51.49375,22.5 48.7633929,18.82 45.1098214,15.74 C44.9428571,15.91 44.8053571,16.04 44.6776786,16.18 C40.9127976,20.3666667 37.1511905,24.5533333 33.3928571,28.74 C33.0229871,29.1807269 32.7545387,29.7000525 32.6071429,30.26 C31.625,33.73 30.0241071,36.56 27.0482143,37.87 C22.48125,39.87 19.6428571,37.17 18.2089286,32.62 C19.0339286,32.62 19.86875,32.62 20.7035714,32.62 C21.7299924,32.6907167 22.7033872,32.148347 23.1982143,31.23 C23.5321429,30.67 23.85625,30.11 24.1803571,29.54 C25.2901786,27.38 26.5964286,25.54 28.8553571,25.02 C29.1309949,24.9062357 29.3669748,24.7112335 29.5330357,24.46 C32.6497024,20.6 35.7532738,16.7366667 38.84375,12.87 C39.0205357,12.7 39.1383929,12.51 39.2857143,12.27 Z M36.3392857,22.34 L36.8991071,21.76 L45.1785714,12.59 L51.4741071,5.59 C52.1115002,5.00888534 52.3061551,4.07454214 51.9553571,3.28 C51.425,2.08 50.1678571,1.98 49.2741071,3.09 C44.6907738,8.79 40.1074405,14.5 35.5241071,20.22 C35.3669643,20.41 35.2392857,20.63 35.1214286,20.79 L36.3392857,22.34 Z M21.3910714,34.82 C22.3112133,36.0387777 23.8605689,36.5751365 25.3196429,36.18 C28.7178571,35.45 30.5741071,31.84 31.075,28.57 C31.0220277,27.8058783 30.4383547,27.190519 29.6901786,27.11 C27.7258929,27.35 26.74375,28.94 25.8303571,30.73 C24.7991071,32.73 23.6892857,34.56 21.3910714,34.82 Z M32.0178571,27.26 L35.4651786,23.43 L34.2473214,21.84 L30.9080357,26 L32.0178571,27.26 Z" id="Shape" fill="#000000" fill-rule="nonzero"></path>
                <path d="M27.7258929,13 C27.6178571,13 27.2839286,13.06 27.2544643,13 L26.8223214,13.18 C27.0751191,13.0777525 27.3460185,13.0300791 27.6178571,13.04 C27.6178571,13.04 27.6866071,13 27.7258929,13 Z" id="Shape"></path>
                <path d="M18.9553571,16.07 C19.1497939,16.1791487 19.3339099,16.3063561 19.5053571,16.45 C19.334698,16.3052868 19.1504786,16.1780079 18.9553571,16.07 Z" id="Shape"></path>
                <path d="M17.1482143,15.2 L17.0598214,15.44 C17.721744,15.5210824 18.3620479,15.7316065 18.9455357,16.06 C18.3758929,15.73 17.7375,15.5 17.1482143,15.2 Z" id="Shape"></path>
                <path d="M7.2875,36 C6.36078515,37.1663996 6.36078515,38.8336004 7.2875,40 C8.26739344,41.2858715 9.78477558,42.0268648 11.3830357,42 C13.005259,42.0627181 14.5556682,41.3163359 15.5375,40 C16.395557,38.8616387 16.395557,37.2783613 15.5375,36.14 C14.547366,34.8606676 13.0446541,34.1025478 11.4451496,34.0754047 C9.84564512,34.0482616 8.31895537,34.7549734 7.2875,36 Z" id="Shape" fill="#000000" fill-rule="nonzero"></path>
                <path d="M12.7678571,27.67 C13.5244725,26.727378 13.5244725,25.372622 12.7678571,24.43 C11.9814362,23.3583236 10.720904,22.7578787 9.40892857,22.83 C8.0650284,22.7668521 6.78284899,23.4082787 6.01071429,24.53 C5.31959681,25.4435341 5.31959681,26.7164659 6.01071429,27.63 C6.82679235,28.678319 8.06608761,29.2928291 9.37986053,29.3006062 C10.6936335,29.3083833 11.9398626,28.7085867 12.7678571,27.67 Z" id="Shape" fill="#000000" fill-rule="nonzero"></path>
                <path d="M19.5741071,19.63 C20.0079296,19.2143525 20.2481501,18.6307928 20.2350405,18.0244162 C20.221931,17.4180396 19.9567229,16.845808 19.5053571,16.45 C19.3339099,16.3063561 19.1497939,16.1791487 18.9553571,16.07 C18.3718694,15.7416065 17.7315654,15.5310824 17.0696429,15.45 C16.1254627,15.3936093 15.2039747,15.7586841 14.5455357,16.45 C13.69684,17.3261068 13.69684,18.7338932 14.5455357,19.61 C15.9437969,20.9922149 18.1652831,21.0010504 19.5741071,19.63 Z" id="Shape" fill="#000000" fill-rule="nonzero"></path>
                <path d="M30.0830357,16.54 C30.7097025,15.8441224 30.7097025,14.7758776 30.0830357,14.08 C29.5297566,13.3565111 28.6645844,12.9533862 27.7651786,13 C27.7651786,13 27.6767857,13.08 27.6571429,13 C27.3853043,12.9900791 27.1144048,13.0377525 26.8616071,13.14 C26.3743263,13.3468362 25.9257747,13.6377755 25.5357143,14 C25.1911819,14.3374629 24.9964858,14.8032357 24.9964858,15.29 C24.9964858,15.7767643 25.1911819,16.2425371 25.5357143,16.58 C26.126864,17.221132 26.9543209,17.5814705 27.8179778,17.5738734 C28.6816346,17.5662764 29.5028535,17.1914355 30.0830357,16.54 Z" id="Shape" fill="#000000" fill-rule="nonzero"></path>
                <path d="M25.5357143,14 C25.9049903,13.6595075 26.3262826,13.3825463 26.7830357,13.18 C26.3217703,13.3738749 25.8990854,13.6517517 25.5357143,14 Z" id="Shape" fill="#000000" fill-rule="nonzero"></path>
                <path d="M27.7258929,13 C27.7258929,13 27.7455357,13 27.7258929,13 Z" id="Shape" fill="#000000" fill-rule="nonzero"></path>
            </g>
        </g>
    </g>
</svg>