<?xml version="1.0" encoding="UTF-8"?>
<svg width="30px" height="30px" viewBox="0 0 30 30" version="1.1" xmlns="http://www.w3.org/2000/svg" xmlns:xlink="http://www.w3.org/1999/xlink">
    <!-- Generator: Sketch 50.2 (55047) - http://www.bohemiancoding.com/sketch -->
    <title>Group</title>
    <desc>Created with Sketch.</desc>
    <defs>
        <polygon id="path-1" points="0 0 29.9989091 0 29.9989091 29.9997273 0 29.9997273"></polygon>
    </defs>
    <g id="Symbols" stroke="none" stroke-width="1" fill="none" fill-rule="evenodd">
        <g id="Icons/Map/Trains">
            <g id="Group">
                <path d="M11.0214545,12.200587 C11.0746364,12.2033143 11.1278182,12.2033143 11.181,12.200587 L18.9523636,12.200587 C19.8155455,12.2728597 20.5737273,11.6319506 20.6473636,10.7701324 C20.6514545,10.7019506 20.6528182,10.6351324 20.6514545,10.5683143 L20.6514545,8.4696779 C20.7019091,7.61195063 20.0487273,6.87558699 19.191,6.82513245 C19.1337273,6.82104154 19.0750909,6.82104154 19.0178182,6.82513245 L11.2450909,6.82513245 C10.3900909,6.7446779 9.63190909,7.37195063 9.55281818,8.22558699 C9.54463636,8.30740517 9.54327273,8.38922335 9.54872727,8.4696779 L9.54872727,10.5683143 C9.50509091,11.4260415 10.1637273,12.1569506 11.0214545,12.200587" id="Fill-1" fill="#B8DAEC"></path>
                <path d="M14.1668182,7.41136364 L17.3413636,7.41136364 C17.6345455,7.41136364 17.8731818,7.17409091 17.8731818,6.88090909 L17.8731818,5.98636364 C17.8663636,5.69590909 17.6318182,5.46272727 17.3413636,5.45454545 L14.1668182,5.45454545 C13.8763636,5.46272727 13.6431818,5.69590909 13.6363636,5.98636364 L13.6363636,6.91909091 C13.6568182,7.19727273 13.8886364,7.41136364 14.1668182,7.41136364" id="Fill-3" fill="#B8DAEC"></path>
                <path d="M10.9827294,17.7272727 C10.1890931,17.7272727 9.54409307,18.3709091 9.5454567,19.1659091 C9.5454567,19.9595455 10.1890931,20.6031818 10.9827294,20.6031818 C11.7777294,20.6031818 12.4213658,19.9595455 12.4213658,19.1659091 L12.4213658,19.1522727 C12.4145476,18.3640909 11.7722749,17.7272727 10.9827294,17.7272727" id="Fill-5" fill="#B8DAEC"></path>
                <mask id="mask-2" fill="white">
                    <use xlink:href="#path-1"></use>
                </mask>
                <g id="Clip-8"></g>
                <path d="M21.3872727,27.2181818 L18.6804545,23.2663636 L11.3086364,23.2663636 L8.61409091,27.2181818 L6.43772727,27.2181818 L10.2081818,21.5686364 C8.75318182,21.2386364 7.71954545,19.9513636 7.70727273,18.4595455 L7.70727273,6.80045455 C7.74954545,5.03454545 9.20454545,3.63136364 10.9718182,3.65318182 L19.0295455,3.65318182 C20.79,3.63136364 22.245,5.01681818 22.3077273,6.77454545 L22.3077273,18.435 C22.29,19.9268182 21.2495455,21.2140909 19.7945455,21.5440909 L23.565,27.1909091 L21.3872727,27.2181818 Z M13.7972727,1.46318182 C14.2977273,1.45636364 14.7095455,1.85590909 14.715,2.35772727 C14.7231818,2.85818182 14.3222727,3.27 13.8218182,3.27681818 C13.3213636,3.28363636 12.9095455,2.88409091 12.9027273,2.38363636 C12.9013636,2.37954545 12.9013636,2.37409091 12.9013636,2.37 C12.9013636,1.875 13.2995455,1.47136364 13.7972727,1.46318182 Z M16.2054545,1.46318182 C16.7059091,1.46318182 17.1122727,1.86954545 17.1122727,2.37 C17.1122727,2.87181818 16.7059091,3.27681818 16.2054545,3.27681818 C15.705,3.27681818 15.2986364,2.87181818 15.2986364,2.37 C15.2986364,1.86954545 15.705,1.46318182 16.2054545,1.46318182 Z M15,0 C6.71590909,0 0,6.71590909 0,15 C0,23.2840909 6.71590909,30 15,30 C23.2854545,30 30,23.2840909 30,15 C30,6.71590909 23.2854545,0 15,0 Z" id="Fill-7" fill="#B8DAEC" mask="url(#mask-2)"></path>
                <path d="M20.6031818,19.1659091 C20.6031818,18.3722727 19.9581818,17.7272727 19.1645455,17.7272727 C18.3709091,17.7272727 17.7272727,18.3722727 17.7272727,19.1659091 C17.7272727,19.9595455 18.3709091,20.6045455 19.1645455,20.6045455 C19.9581818,20.6045455 20.6031818,19.9595455 20.6031818,19.1659091" id="Fill-10" fill="#B8DAEC" mask="url(#mask-2)"></path>
            </g>
        </g>
    </g>
</svg>