<?xml version="1.0" encoding="UTF-8"?>
<svg width="513px" height="180px" viewBox="0 0 513 180" version="1.1" xmlns="http://www.w3.org/2000/svg" xmlns:xlink="http://www.w3.org/1999/xlink">
    <!-- Generator: Sketch 50.2 (55047) - http://www.bohemiancoding.com/sketch -->
    <title>Icons/Screensaver/ILI</title>
    <desc>Created with Sketch.</desc>
    <defs></defs>
    <g id="Page-1" stroke="none" stroke-width="1" fill="none" fill-rule="evenodd">
        <g id="Template-01-SCREENSAVER" transform="translate(-162.000000, -1012.000000)">
            <g id="Icons/Screensaver/ILI" transform="translate(165.000000, 1015.000000)">
                <polyline id="Stroke-1" stroke="#000000" stroke-width="7" stroke-linecap="round" stroke-linejoin="round" points="506.5 161.4998 352.285 115.9148 304.683 172.8108 209.5 144.4998 259.033 88.6008 18 17.9998"></polyline>
                <path d="M36.5,18.4998 C36.5,8.5588 28.441,0.4998 18.5,0.4998 C8.559,0.4998 0.5,8.5588 0.5,18.4998 C0.5,28.4408 8.559,36.4998 18.5,36.4998 C28.441,36.4998 36.5,28.4408 36.5,18.4998" id="Fill-3" fill="#EEC003"></path>
                <path d="M36.5,18.4998 C36.5,8.5588 28.441,0.4998 18.5,0.4998 C8.559,0.4998 0.5,8.5588 0.5,18.4998 C0.5,28.4408 8.559,36.4998 18.5,36.4998 C28.441,36.4998 36.5,28.4408 36.5,18.4998 Z" id="Stroke-5" stroke="#000000" stroke-width="7"></path>
            </g>
        </g>
    </g>
</svg>