<?xml version="1.0" encoding="UTF-8"?>
<svg width="160px" height="50px" viewBox="0 0 160 50" version="1.1" xmlns="http://www.w3.org/2000/svg" xmlns:xlink="http://www.w3.org/1999/xlink">
    <!-- Generator: Sketch 50.2 (55047) - http://www.bohemiancoding.com/sketch -->
    <title>Icons/ILI/walk-times/03/active</title>
    <desc>Created with Sketch.</desc>
    <defs></defs>
    <g id="Icons/ILI/walk-times/03/active" stroke="none" stroke-width="1" fill="none" fill-rule="evenodd">
        <rect id="Rectangle-4" x="0" y="0" width="160" height="50"></rect>
        <g id="Group" transform="translate(31.000000, 7.000000)" stroke="#FFFFFF">
            <path d="M10.1564395,30.3112197 C8.68344012,32.9218226 5.37233398,33.8445899 2.76173106,32.3710191 C0.150556767,30.8980197 -0.771639143,27.5869136 0.701360273,24.9763107 C2.17435969,22.3657077 5.48546582,21.4429404 8.09664012,22.9165112 C10.707243,24.390082 11.6294389,27.7006168 10.1564395,30.3112197 Z" id="Stroke-1" stroke-width="2"></path>
            <path d="M28.1770275,16.7968786 C26.7034567,19.4074815 23.392922,20.3302488 20.7823191,18.8561066 C18.1711448,17.3831072 17.2489489,14.0725725 18.7219483,11.4619695 C20.1949477,8.85079525 23.5060538,7.92859934 26.1172281,9.40217013 C28.727831,10.8751695 29.650027,14.1862757 28.1770275,16.7968786 Z" id="Stroke-3" stroke-width="2"></path>
            <path d="M53.3481192,29.3124027 C51.8745484,31.9230056 48.5640137,32.8457729 45.9534107,31.3722021 C43.3422365,29.8992027 42.4200405,26.5880966 43.89304,23.9774936 C45.3660394,21.3668907 48.6771455,20.4441234 51.2883198,21.9176942 C53.8989227,23.3906936 54.8211186,26.7017998 53.3481192,29.3124027 Z" id="Stroke-5" stroke-width="2"></path>
            <path d="M56.9393124,8.09629729 C55.466313,10.7069002 52.1557782,11.6296675 49.5446039,10.1560967 C46.9334296,8.68309729 46.0112337,5.37199116 47.4848045,2.76138824 C48.9578039,0.150785316 52.2683387,-0.771981967 54.8800843,0.701588822 C57.4906872,2.17515961 58.4128832,5.48569437 56.9393124,8.09629729 Z" id="Stroke-7" stroke-width="2"></path>
            <path d="M89.2592507,9.92257659 C87.7862513,12.5331795 84.4751452,13.4559468 81.8645423,11.9818046 C79.253368,10.5088052 78.3311721,7.19827046 79.8041715,4.58766754 C81.2771709,1.97649324 84.588277,1.05429733 87.1994513,2.52786812 C89.8100543,4.00086754 90.7322502,7.31197367 89.2592507,9.92257659 Z" id="Stroke-9" stroke-width="2"></path>
            <path d="M57.641244,5.42912845 C64.7034134,4.38865834 66.1318458,21.2161625 70.0280378,21.2161625 C74.5624534,21.2161625 79.4671186,12.9861068 81.2995116,11.3685501" id="Stroke-11" stroke-width="3"></path>
            <path d="M49.6381376,21.2161054 C50.6089003,17.6313116 47.4697774,14.1556501 49.5444325,10.1566109" id="Stroke-13" stroke-width="3"></path>
            <path d="M28.5955011,13.5315966 C34.8491778,13.2424819 39.2904596,22.734129 43.5340463,24.7676453" id="Stroke-15" stroke-width="3"></path>
            <path d="M10.1564395,29.5288959 C13.3327017,29.9899938 23.4494308,39.8136086 26.2571574,35.9294155 C29.3437139,31.6584028 20.9936699,24.100853 22.279259,19.5584382" id="Stroke-17" stroke-width="3"></path>
        </g>
    </g>
</svg>