<svg width="30" height="30" viewBox="0 0 30 30" xmlns="http://www.w3.org/2000/svg" xmlns:xlink="http://www.w3.org/1999/xlink"><title>Group 2</title><defs><path id="a" d="M0 0h30v29.999H0z"/></defs><g fill="none" fill-rule="evenodd"><mask id="b" fill="#fff"><use xlink:href="#a"/></mask><path d="M22.672 8.693c.368 0 .67.303.67.672v4.247a.675.675 0 0 1-.67.672h-9.97c-.13 0-.217.11-.217.217v2.47a.675.675 0 0 1-.672.673H7.327a.675.675 0 0 1-.671-.672v-5.376c0-1.603 1.3-2.903 2.903-2.903h7.739V6.331h-4.033a.655.655 0 0 1-.672-.694.691.691 0 0 1 .694-.65h9.385c.388 0 .693.303.67.694 0 .368-.324.65-.693.65h-4.01v2.362h4.033zM9.559 26.66a2.267 2.267 0 0 1-2.254-2.254c0-.975 1.3-3.359 1.69-4.073l.174-.304a.447.447 0 0 1 .78 0l.173.304c.413.714 1.691 3.098 1.691 4.073a2.266 2.266 0 0 1-2.254 2.254zM15 0C6.716 0 0 6.715 0 15c0 8.284 6.716 15 15 15 8.284 0 15-6.716 15-15 0-8.285-6.716-15-15-15z" fill="#0096c8" mask="url(#b)"/></g></svg>