<?xml version="1.0" encoding="UTF-8" standalone="no"?>
<svg
   xmlns:dc="http://purl.org/dc/elements/1.1/"
   xmlns:cc="http://creativecommons.org/ns#"
   xmlns:rdf="http://www.w3.org/1999/02/22-rdf-syntax-ns#"
   xmlns:svg="http://www.w3.org/2000/svg"
   xmlns="http://www.w3.org/2000/svg"
   xmlns:sodipodi="http://sodipodi.sourceforge.net/DTD/sodipodi-0.dtd"
   xmlns:inkscape="http://www.inkscape.org/namespaces/inkscape"
   width="30"
   height="30"
   viewBox="0 0 30 30"
   version="1.1"
   id="svg7490"
   sodipodi:docname="map-toilets.svg"
   inkscape:version="0.92.2 5c3e80d, 2017-08-06">
  <metadata
     id="metadata7496">
    <rdf:RDF>
      <cc:Work
         rdf:about="">
        <dc:format>image/svg+xml</dc:format>
        <dc:type
           rdf:resource="http://purl.org/dc/dcmitype/StillImage" />
        <dc:title>Fill 1</dc:title>
      </cc:Work>
    </rdf:RDF>
  </metadata>
  <defs
     id="defs7494" />
  <sodipodi:namedview
     pagecolor="#ffffff"
     bordercolor="#666666"
     borderopacity="1"
     objecttolerance="10"
     gridtolerance="10"
     guidetolerance="10"
     inkscape:pageopacity="0"
     inkscape:pageshadow="2"
     inkscape:window-width="981"
     inkscape:window-height="835"
     id="namedview7492"
     showgrid="false"
     inkscape:zoom="7.8666667"
     inkscape:cx="-7.7542373"
     inkscape:cy="15"
     inkscape:window-x="56"
     inkscape:window-y="26"
     inkscape:window-maximized="0"
     inkscape:current-layer="svg7490" />
  <title
     id="title7486">Fill 1</title>
  <path
     d="M19.049 15.417l-1.795-5.383h-.513l3.077 9.229h-2.564v6.665c0 1.282-1.794 1.282-1.794 0l.008-18.458h1.017c1.282 0 2.05 1.025 2.307 1.795l1.795 5.64c.337 1.191-1.282 1.538-1.538.512zM13.293 5.032a1.932 1.932 0 0 1 1.92-1.92 1.917 1.917 0 0 1 1.918 1.92 1.904 1.904 0 0 1-1.918 1.92 1.918 1.918 0 0 1-1.92-1.92zm1.654 20.896c0 1.282-2.051 1.282-2.051 0V10.034h-.513v5.896c0 1.025-1.538 1.025-1.538 0v-5.896c0-1.282 1.025-2.564 2.307-2.564h1.795v18.458zM15 0C6.716 0 0 6.717 0 15c0 8.285 6.716 15 15 15 8.284 0 15-6.715 15-15 0-8.283-6.716-15-15-15z"
     fill="#B8DAEC"
     fill-rule="evenodd"
     id="path7488"
     style="fill:#0096c8;fill-opacity:1" />
</svg>
