<?xml version="1.0" encoding="UTF-8"?>
<svg width="160px" height="50px" viewBox="0 0 160 50" version="1.1" xmlns="http://www.w3.org/2000/svg" xmlns:xlink="http://www.w3.org/1999/xlink">
    <!-- Generator: Sketch 50.2 (55047) - http://www.bohemiancoding.com/sketch -->
    <title>Icons/ILI/walk-times/02/active</title>
    <desc>Created with Sketch.</desc>
    <defs></defs>
    <g id="Icons/ILI/walk-times/02/active" stroke="none" stroke-width="1" fill="none" fill-rule="evenodd">
        <rect id="Rectangle-4" x="0" y="0" width="160" height="50"></rect>
        <g id="Group" transform="translate(32.000000, 7.000000)" stroke="#FFFFFF">
            <path d="M10.5344262,31.135082 C10.5344262,31.135082 28.5974557,36.3519639 30.0517918,34.4259197 C31.5049574,32.4998754 28.2966393,14.6053967 37.1151246,8.81263279 C37.6874951,8.3818918 37.9649016,8.4685082 38.6502246,8.19344262" id="Stroke-1" stroke-width="3"></path>
            <path d="M47.404918,8.19344262 C47.404918,8.19344262 47.8321475,8.51766885 47.9843115,9.0754082 C49.9917049,11.8360131 53.5622902,22.8895525 62.1665754,22.093618 C70.7708607,21.2976836 76.2323754,17.8406361 77.2015426,16.7959721" id="Stroke-3" stroke-width="3"></path>
            <path d="M48.1343783,7.73485376 C46.9334538,10.5610062 43.6695374,11.87898 40.8433849,10.6786406 C38.0172324,9.4783013 36.6992587,6.21379966 37.899598,3.3876472 C39.0993521,0.561494743 42.364439,-0.756479027 45.1905915,0.443860317 C48.0167439,1.64419966 49.3347177,4.9087013 48.1343783,7.73485376 Z" id="Stroke-5" stroke-width="2"></path>
            <path d="M86.7603619,15.9282964 C85.5600226,18.7544488 82.2955209,20.0724226 79.4693685,18.8720833 C76.643216,17.6717439 75.3252423,14.4072423 76.5261669,11.5810898 C77.7259209,8.75493737 80.9904226,7.4369636 83.816575,8.63730294 C86.6427275,9.83822753 87.9612865,13.1021439 86.7603619,15.9282964 Z" id="Stroke-7" stroke-width="2"></path>
            <path d="M10.6786406,31.7299357 C9.47771605,34.5560882 6.21379966,35.874062 3.3876472,34.6737226 C0.561494743,33.4733833 -0.756479027,30.2088816 0.443860317,27.3827292 C1.64419966,24.5565767 4.9087013,23.2386029 7.73485376,24.4389423 C10.5610062,25.6392816 11.87898,28.9037833 10.6786406,31.7299357 Z" id="Stroke-9" stroke-width="2"></path>
        </g>
    </g>
</svg>