<?xml version="1.0" encoding="UTF-8"?>
<svg width="160px" height="160px" viewBox="0 0 160 160" version="1.1" xmlns="http://www.w3.org/2000/svg" xmlns:xlink="http://www.w3.org/1999/xlink">
    <!-- Generator: Sketch 50.2 (55047) - http://www.bohemiancoding.com/sketch -->
    <title>Icons/Urbanobservatory/Data/NO2</title>
    <desc>Created with Sketch.</desc>
    <defs></defs>
    <g id="Icons/Urbanobservatory/Data/NO2" stroke="none" stroke-width="1" fill="none" fill-rule="evenodd">
        <g id="Group" transform="translate(26.000000, 53.000000)" fill="#FFFFFF">
            <path d="M11.555767,15.6218261 C12.2891003,16.1462706 13.1276188,16.3551595 13.8609522,16.2499743 C14.6994707,16.0410854 15.3261374,15.8321965 15.8505818,15.0973817 C16.3750263,14.3655298 16.5839151,13.5270113 16.47873,12.793678 C16.3750263,12.0603447 16.0609522,11.3270113 15.3276188,10.8040484 C14.5942855,10.2796039 13.755767,10.0692335 13.0224337,10.1744187 C12.2891003,10.2796039 11.555767,10.593678 11.0313226,11.3270113 C10.5083596,12.0603447 10.2979892,12.8988632 10.4031744,13.6321965 C10.4031744,14.2603447 10.8224337,14.8884928 11.2416929,15.3077521 C11.3468781,15.4129373 11.4505818,15.5181224 11.555767,15.6218261 M26.0120633,11.2218261 C26.6416929,14.5744187 25.8031744,17.9270113 23.7083596,20.6499743 C21.6120633,23.3744187 18.6802114,25.2588632 15.3276188,25.6796039 C8.41354477,26.7270113 1.91872996,21.9077521 0.871322552,14.993678 C0.241692922,11.6410854 1.08021144,8.28849281 3.17502626,5.56552984 C5.26984107,2.84256688 8.2031744,0.956640954 11.555767,0.537381695 C14.9083596,-0.0907664531 18.2594707,0.746270584 20.9839151,2.84256688 C21.6120633,3.26034466 22.0313226,3.67960392 22.4505818,4.09886318 C24.4402114,6.08849281 25.592804,8.49886318 26.0120633,11.2218261" id="Fill-1"></path>
            <path d="M93.0372485,15.4129373 C93.7705818,15.9373817 94.6091003,16.1462706 95.3424337,16.0410854 C97.0179892,15.8321965 98.1705818,14.2603447 97.9602114,12.5833076 C97.8565077,11.8514558 97.4372485,11.0129373 96.8076188,10.593678 C96.075767,10.070715 95.2372485,9.86034466 94.5039151,9.96552984 C93.7705818,10.070715 93.0372485,10.3833076 92.512804,11.1181224 C91.9898411,11.8514558 91.7794707,12.6884928 91.8846559,13.4218261 C91.8846559,14.0514558 92.3039151,14.6796039 92.7231744,15.0988632 C92.8268781,15.2025669 92.9320633,15.3077521 93.0372485,15.4129373 M107.493545,11.2218261 C108.540952,18.1359002 103.721693,24.630715 96.8076188,25.6781224 C93.4565077,26.3077521 90.1039151,25.4692335 87.3809522,23.3744187 C84.6565077,21.2781224 82.7705818,18.3447891 82.352804,14.993678 C81.7231744,11.6410854 82.5616929,8.28849281 84.6565077,5.56552984 C86.7513226,2.84256688 89.6846559,0.956640954 93.0372485,0.537381695 C96.3898411,-0.0907664531 99.7409522,0.746270584 102.465397,2.84256688 C103.093545,3.26034466 103.512804,3.67960392 103.932063,4.09886318 C105.817989,5.9847891 107.179471,8.39367799 107.493545,11.2218261" id="Fill-3"></path>
            <polygon id="Fill-5" points="63.9362963 36.4622222 62.8888889 35.4148148 78.7111111 19.5925926 79.7585185 20.64"></polygon>
            <polygon id="Fill-7" points="40.3555556 42.5511111 24.3703704 26.5659259 25.4177778 25.5185185 41.402963 41.5037037"></polygon>
            <polygon id="Fill-9" points="69.8622222 42.3881481 68.8148148 41.3407407 84.637037 25.5185185 85.6844444 26.5659259"></polygon>
            <path d="M42.2912033,52.0320318 C41.2437959,45.1179578 46.0630551,38.6216615 52.9771292,37.5742541 C56.3297218,36.9461059 59.6808329,37.7846244 62.4052774,39.8794393 C65.1282403,41.9742541 67.0141663,44.9075874 67.4334255,48.26018 C68.0615737,51.6127726 67.2245366,54.9638837 65.1282403,57.6883281 C63.0334255,60.4112911 60.1000922,62.2986985 56.7474996,62.7164763 C53.3963885,63.3461059 50.0437959,62.5061059 47.3208329,60.4112911 C46.6912033,59.9935133 46.271944,59.5742541 45.8526848,59.1549948 C43.9682403,57.2690689 42.6052774,54.86018 42.2912033,52.0320318" id="Fill-11"></path>
        </g>
    </g>
</svg>