<?xml version="1.0" encoding="UTF-8"?>
<svg width="160px" height="160px" viewBox="0 0 160 160" version="1.1" xmlns="http://www.w3.org/2000/svg" xmlns:xlink="http://www.w3.org/1999/xlink">
    <!-- Generator: Sketch 50.2 (55047) - http://www.bohemiancoding.com/sketch -->
    <title>Icons/Urbanobservatory/Data/PM10</title>
    <desc>Created with Sketch.</desc>
    <defs></defs>
    <g id="Icons/Urbanobservatory/Data/PM10" stroke="none" stroke-width="1" fill="none" fill-rule="evenodd">
        <g id="Group" transform="translate(37.000000, 37.000000)" fill="#FFFFFF">
            <path d="M44.4814815,12.6296296 C44.4814815,5.67555556 38.842963,0.037037037 31.8888889,0.037037037 C24.9348148,0.037037037 19.2962963,5.67555556 19.2962963,12.6296296 C19.2962963,19.5837037 24.9348148,25.2222222 31.8888889,25.2222222 C38.842963,25.2222222 44.4814815,19.5837037 44.4814815,12.6296296" id="Fill-3"></path>
            <path d="M25.2222222,40.7777778 C25.2222222,33.8237037 19.5837037,28.1851852 12.6296296,28.1851852 C5.67555556,28.1851852 0.037037037,33.8237037 0.037037037,40.7777778 C0.037037037,47.7318519 5.67555556,53.3703704 12.6296296,53.3703704 C19.5837037,53.3703704 25.2222222,47.7318519 25.2222222,40.7777778" id="Fill-5"></path>
            <path d="M35.5925926,68.9259259 C35.5925926,61.9718519 29.9540741,56.3333333 23,56.3333333 C16.0459259,56.3333333 10.4074074,61.9718519 10.4074074,68.9259259 C10.4074074,75.88 16.0459259,81.5185185 23,81.5185185 C29.9540741,81.5185185 35.5925926,75.88 35.5925926,68.9259259" id="Fill-7"></path>
            <path d="M77.0740741,15.5925926 C77.0740741,8.63851852 71.4355556,3 64.4814815,3 C57.5274074,3 51.8888889,8.63851852 51.8888889,15.5925926 C51.8888889,22.5466667 57.5274074,28.1851852 64.4814815,28.1851852 C71.4355556,28.1851852 77.0740741,22.5466667 77.0740741,15.5925926" id="Fill-9"></path>
            <path d="M91.8888889,42.2592593 C91.8888889,35.3051852 86.2503704,29.6666667 79.2962963,29.6666667 C72.3422222,29.6666667 66.7037037,35.3051852 66.7037037,42.2592593 C66.7037037,49.2133333 72.3422222,54.8518519 79.2962963,54.8518519 C86.2503704,54.8518519 91.8888889,49.2133333 91.8888889,42.2592593" id="Fill-11"></path>
            <path d="M59.2962963,43.7407407 C59.2962963,36.7866667 53.6577778,31.1481481 46.7037037,31.1481481 C39.7496296,31.1481481 34.1111111,36.7866667 34.1111111,43.7407407 C34.1111111,50.6948148 39.7496296,56.3333333 46.7037037,56.3333333 C53.6577778,56.3333333 59.2962963,50.6948148 59.2962963,43.7407407" id="Fill-13"></path>
        </g>
    </g>
</svg>