<?xml version="1.0" encoding="UTF-8"?>
<svg width="160px" height="160px" viewBox="0 0 160 160" version="1.1" xmlns="http://www.w3.org/2000/svg" xmlns:xlink="http://www.w3.org/1999/xlink">
    <!-- Generator: Sketch 50.2 (55047) - http://www.bohemiancoding.com/sketch -->
    <title>Icons/Urbanobservatory/Data/wind</title>
    <desc>Created with Sketch.</desc>
    <defs>
        <polygon id="path-1" points="1 2 153.97635 2 153.97635 154.976208 1 154.976208"></polygon>
    </defs>
    <g id="Icons/Urbanobservatory/Data/wind" stroke="none" stroke-width="1" fill="none" fill-rule="evenodd">
        <mask id="mask-2" fill="white">
            <use xlink:href="#path-1"></use>
        </mask>
        <g id="Clip-2"></g>
        <path d="M1,96.1396957 L1,107.907069 L41.2663921,107.907069 L42.1858067,107.907069 C52.0023481,107.907069 59.8368668,115.741588 59.8368668,125.558129 C59.8368668,135.375379 52.0023481,143.209189 42.1858067,143.209189 C35.3430083,143.209189 29.5075253,139.276334 26.5571754,133.648553 C25.0337968,130.754204 21.4532544,129.643393 18.5596148,131.166062 C15.6645574,132.689441 14.5537457,136.269983 16.0771243,139.164332 C20.9988637,148.552002 30.9061414,154.976562 42.1858067,154.976562 C58.3631096,154.976562 71.604949,141.735432 71.604949,125.558129 C71.604949,109.380826 58.3631096,96.1396957 42.1858067,96.1396957 L41.0827927,96.1396957 L1,96.1396957 Z M1,72.604949 L1,84.3723224 L118.674442,84.3723224 C131.738353,84.3723224 142.209189,94.843158 142.209189,107.907069 C142.209189,120.969562 131.768126,131.037755 118.490134,131.441816 C108.464474,131.748051 100.624284,125.994089 96.978525,115.997493 C96.032173,112.888354 92.7443973,111.135299 89.6352587,112.081651 C86.5261202,113.028003 84.7730651,116.31507 85.7194171,119.424209 C85.783925,119.634745 85.8590661,119.841029 85.9462581,120.04235 C91.0778253,134.110032 103.807855,143.668542 118.858042,143.209189 C138.059418,142.625074 153.976562,127.334577 153.976562,107.907069 C153.976562,88.4809788 138.099824,72.604949 118.674442,72.604949 L1,72.604949 Z M77.4879268,2 C65.0534993,2 54.3650382,9.76292203 50.0919221,20.7547829 C48.4834781,23.5782437 49.4688184,27.1715458 52.2922791,28.7799898 C55.1164488,30.3884338 58.709042,29.4030935 60.3181949,26.5796328 C60.601746,26.0805827 60.8115739,25.5432532 60.9405897,24.9832397 C63.4925502,18.4183213 69.9419214,13.7673734 77.4879268,13.7673734 C87.305177,13.7673734 95.1396957,21.601892 95.1396957,31.4184334 C95.1396957,41.2356836 87.305177,49.0702023 77.4879268,49.0702023 L1,49.0702023 L1,60.8375757 L77.4879268,60.8375757 C93.6659385,60.8375757 106.90636,47.5964451 106.90636,31.4184334 C106.90636,15.2411305 93.6659385,2 77.4879268,2 Z" id="Fill-1" fill="#FFFFFF" mask="url(#mask-2)"></path>
    </g>
</svg>