<?xml version="1.0" encoding="UTF-8"?>
<svg width="160px" height="160px" viewBox="0 0 160 160" version="1.1" xmlns="http://www.w3.org/2000/svg" xmlns:xlink="http://www.w3.org/1999/xlink">
    <!-- Generator: Sketch 50.2 (55047) - http://www.bohemiancoding.com/sketch -->
    <title>Icons/Urbanobservatory/Data/solarradiation</title>
    <desc>Created with Sketch.</desc>
    <defs>
        <polygon id="path-1" points="0.408363636 0.140756098 7.79381818 0.140756098 7.79381818 28.5896854 0.408363636 28.5896854"></polygon>
    </defs>
    <g id="Icons/Urbanobservatory/Data/solarradiation" stroke="none" stroke-width="1" fill="none" fill-rule="evenodd">
        <g id="Group" transform="translate(1.000000, 2.000000)">
            <path d="M109.731708,77.5 C109.731708,95.2724234 95.2724234,109.731708 77.5,109.731708 C59.7275766,109.731708 45.268292,95.2724234 45.268292,77.5 C45.268292,59.7268609 59.7275766,45.268292 77.5,45.268292 C95.2724234,45.268292 109.731708,59.7268609 109.731708,77.5 M77.5,38 C55.7194589,38 38,55.7194589 38,77.5 C38,99.2805411 55.7194589,117 77.5,117 C99.2798253,117 117,99.2805411 117,77.5 C117,55.7194589 99.2798253,38 77.5,38" id="Fill-1" fill="#FFFFFF"></path>
            <g id="Group-5" transform="translate(74.000000, 0.000000)">
                <mask id="mask-2" fill="white">
                    <use xlink:href="#path-1"></use>
                </mask>
                <g id="Clip-4"></g>
                <path d="M4.10145455,28.5896854 C6.13709091,28.5896854 7.79381818,26.9784171 7.79381818,24.9986366 L7.79381818,3.73173415 C7.79381818,1.75195366 6.13709091,0.140685366 4.10145455,0.140685366 L4.10072727,0.140685366 C2.06509091,0.140685366 0.408363636,1.75195366 0.408363636,3.73173415 L0.408363636,24.9986366 C0.408363636,26.9784171 2.06509091,28.5896854 4.10145455,28.5896854" id="Fill-3" fill="#FFFFFF" mask="url(#mask-2)"></path>
            </g>
            <path d="M77.5003447,125 L77.4996553,125 C75.570261,125 74,126.641754 74,128.6606 L74,150.3394 C74,152.357525 75.570261,154 77.5003447,154 C79.429739,154 81,152.357525 81,150.3394 L81,128.6606 C81,126.641754 79.429739,125 77.5003447,125" id="Fill-6" fill="#FFFFFF"></path>
            <path d="M114.556249,44 C115.505889,44 116.398803,43.6302286 117.070414,42.9586172 L131.958617,28.0704145 C132.630229,27.3981028 133,26.5058891 133,25.5562488 C133,24.6066085 132.630229,23.7136945 131.959318,23.0420831 C131.287706,22.3704718 130.394792,22 129.445152,22 C128.494811,22 127.601897,22.3704718 126.930286,23.0420831 L112.042083,37.9302859 C111.370472,38.6018972 111,39.4948112 111,40.4444515 C111,41.3940918 111.370472,42.2870058 112.042083,42.9586172 C112.713695,43.6302286 113.606609,44 114.556249,44" id="Fill-8" fill="#FFFFFF"></path>
            <path d="M40.4443383,111 C39.4946678,111 38.6017254,111.369783 37.9300926,112.041416 L23.0400153,126.932194 C21.6533282,128.31818 21.6533282,130.573998 23.0400153,131.959985 C23.7333588,132.653328 24.6431095,133 25.554261,133 C26.4647121,133 27.3751631,132.653328 28.0685067,131.959985 L42.9578837,117.069907 C43.6302168,116.398275 44,115.506033 44,114.556362 C44,113.605991 43.6302168,112.713049 42.958584,112.041416 C42.2869513,111.369783 41.3940088,111 40.4443383,111" id="Fill-10" fill="#FFFFFF"></path>
            <path d="M151.3394,74 L129.6606,74 C127.642475,74 126,75.570261 126,77.5003447 C126,79.429739 127.642475,81 129.6606,81 L151.3394,81 C153.357525,81 155,79.429739 155,77.4996553 C155,75.570261 153.357525,74 151.3394,74" id="Fill-12" fill="#FFFFFF"></path>
            <path d="M29,77.5003447 L29,77.4996553 C29,75.570261 27.3575247,74 25.3393998,74 L3.66060018,74 C1.64247532,74 0,75.570261 0,77.5003447 C0,79.429739 1.64247532,81 3.66060018,81 L25.3393998,81 C27.3575247,81 29,79.429739 29,77.5003447" id="Fill-14" fill="#FFFFFF"></path>
            <path d="M117.070294,112.041416 C116.398618,111.369783 115.505619,111 114.555888,111 C113.606157,111 112.713158,111.369783 112.041482,112.041416 C111.369807,112.713049 111,113.605991 111,114.555662 C111,115.505332 111.369807,116.398275 112.041482,117.069907 L126.931807,131.959985 C127.624495,132.653328 128.535004,133 129.445513,133 C130.356722,133 131.267231,132.653328 131.959918,131.959985 C133.346694,130.573298 133.346694,128.31818 131.959918,126.931493 L117.070294,112.041416 Z" id="Fill-16" fill="#FFFFFF"></path>
            <path d="M37.9304791,42.958584 C38.6020691,43.6302168 39.4949546,44 40.4445647,44 C41.3941748,44 42.2870603,43.6302168 42.9586503,42.958584 C43.6302403,42.2876516 44,41.3947092 44,40.4450387 C44,39.4946678 43.6302403,38.6017254 42.9586503,37.9300926 L28.0695209,23.041416 C27.3979309,22.3697832 26.5050454,22 25.5554353,22 C24.6058252,22 23.7129397,22.3697832 23.0413497,23.041416 C22.3697597,23.7130487 22,24.6059912 22,25.5556617 C22,26.5053322 22.3697597,27.3982746 23.0413497,28.0699074 L37.9304791,42.958584 Z" id="Fill-18" fill="#FFFFFF"></path>
        </g>
    </g>
</svg>