<?xml version="1.0" encoding="UTF-8"?>
<svg width="160px" height="160px" viewBox="0 0 160 160" version="1.1" xmlns="http://www.w3.org/2000/svg" xmlns:xlink="http://www.w3.org/1999/xlink">
    <!-- Generator: Sketch 50.2 (55047) - http://www.bohemiancoding.com/sketch -->
    <title>Icons/Urbanobservatory/Data/CO2</title>
    <desc>Created with Sketch.</desc>
    <defs>
        <polygon id="path-1" points="0 160 160 160 160 0 0 0"></polygon>
    </defs>
    <g id="Icons/Urbanobservatory/Data/CO2" stroke="none" stroke-width="1" fill="none" fill-rule="evenodd">
        <g id="Group">
            <path d="M59.9562328,56.1240402 C60.104381,57.0129291 60.5488254,57.7536698 61.141418,58.1981143 C61.8821587,58.6425587 62.4747513,58.938855 63.3636402,58.7907069 C64.2525291,58.6425587 64.9932699,58.1981143 65.4377143,57.6055217 C65.8821587,57.0129291 66.178455,56.2721884 66.0303069,55.3832995 C65.8821587,54.4944106 65.4377143,53.7536698 64.8451217,53.3092254 C64.2525291,52.864781 63.5117884,52.5684847 62.6228995,52.7166328 C61.7340106,52.864781 60.9932699,53.3092254 60.5488254,53.901818 C60.104381,54.3462624 59.9562328,55.0870032 59.9562328,55.6795958 L59.9562328,56.1240402 Z M73.2895661,63.2351513 C71.3636402,66.0499661 68.4006773,67.8277439 64.9932699,68.2721884 C61.5858624,68.7166328 58.178455,67.9758921 55.5117884,65.901818 C49.8821587,61.7536698 48.6969736,53.7536698 52.8451217,48.1240402 C54.7710476,45.3092254 57.7340106,43.5314476 61.141418,43.0870032 C64.5488254,42.6425587 67.9562328,43.3832995 70.6228995,45.4573735 C73.4377143,47.3832995 75.2154921,50.3462624 75.6599365,53.7536698 C75.8080847,54.4944106 75.8080847,55.0870032 75.8080847,55.6795958 C75.8080847,58.4944106 74.9191958,61.0129291 73.2895661,63.2351513 Z" id="Fill-1" fill="#FFFFFF"></path>
            <path d="M106.049966,100.420346 C106.198114,101.309235 106.642559,102.049976 107.235151,102.492939 C108.568485,103.531457 110.494411,103.233679 111.531448,101.901827 C111.975892,101.309235 112.272188,100.420346 112.12404,99.6796052 C111.975892,98.7892348 111.531448,98.0484941 110.938855,97.6055311 C110.346262,97.1610867 109.605522,96.8647904 108.716633,97.0114571 C107.827744,97.1610867 107.087003,97.6055311 106.642559,98.1981237 C106.198114,98.6425682 106.049966,99.3833089 106.049966,99.97442 L106.049966,100.420346 Z M119.235151,107.678124 C115.087003,113.307753 107.087003,114.49442 101.457374,110.34479 C98.6425587,108.418864 96.864781,105.455901 96.4203365,102.049976 C95.9758921,98.6425682 96.7166328,95.2351608 98.7907069,92.5670126 C100.716633,89.7536793 103.679596,87.9759015 107.087003,87.5314571 C110.494411,87.0870126 113.901818,87.8277534 116.568485,89.9003459 C119.383299,91.8262719 121.161077,94.7892348 121.605522,98.1981237 C121.75367,98.9388645 121.75367,99.5299756 121.75367,100.12405 C121.75367,102.790716 121.012929,105.455901 119.235151,107.678124 Z" id="Fill-3" fill="#FFFFFF"></path>
            <mask id="mask-2" fill="white">
                <use xlink:href="#path-1"></use>
            </mask>
            <g id="Clip-6"></g>
            <polygon id="Fill-5" fill="#FFFFFF" mask="url(#mask-2)" points="81.4814815 96.2962963 93.3333333 96.2962963 93.3333333 94.8148148 81.4814815 94.8148148"></polygon>
            <polygon id="Fill-7" fill="#FFFFFF" mask="url(#mask-2)" points="81.4814815 103.703704 93.3333333 103.703704 93.3333333 102.222222 81.4814815 102.222222"></polygon>
            <path d="M63.1244444,87.4074074 C59.2222222,87.4074074 55.3688889,89.1851852 52.8888889,92.5496296 C51.1111111,94.7718519 50.3703704,97.4385185 50.3703704,100.103704 C50.3703704,100.697778 50.3703704,101.29037 50.5185185,102.031111 C50.962963,105.438519 52.7407407,108.401481 55.5555556,110.327407 C57.7274074,112.016296 60.3911111,112.820741 63.1481481,112.820741 C63.7733333,112.820741 64.4059259,112.779259 65.037037,112.696296 C68.4444444,112.253333 71.4074074,110.474074 73.3333333,107.660741 C75.4074074,104.994074 76.1481481,101.585185 75.7037037,98.1792593 C75.2592593,94.7718519 73.4814815,91.8088889 70.6666667,89.882963 C68.4014815,88.2133333 65.7525926,87.4074074 63.1244444,87.4074074 M63.1259259,88.8888889 C65.5437037,88.8888889 67.8474074,89.6459259 69.8296296,91.1051852 C72.2785185,92.7792593 73.8414815,95.36 74.2340741,98.3703704 C74.6459259,101.527407 73.9111111,104.503704 72.1644444,106.751111 L72.1362963,106.786667 L72.1096296,106.822222 C70.437037,109.271111 67.8548148,110.835556 64.8459259,111.228148 C64.277037,111.302222 63.7066667,111.339259 63.1481481,111.339259 C60.6118519,111.339259 58.3007407,110.585185 56.4651852,109.158519 L56.4281481,109.128889 L56.3925926,109.105185 C53.9451852,107.42963 52.3807407,104.848889 51.9866667,101.838519 L51.9822222,101.78963 L51.9718519,101.740741 C51.8518519,101.142222 51.8518519,100.660741 51.8518519,100.103704 C51.8518519,97.5614815 52.6103704,95.2696296 54.0814815,93.4266667 C56.1762963,90.5866667 59.557037,88.8888889 63.1259259,88.8888889" id="Fill-8" fill="#FFFFFF" mask="url(#mask-2)"></path>
            <polygon id="Fill-10" fill="#FFFFFF" mask="url(#mask-2)" points="66.6666667 82.6518519 68.1481481 82.6518519 68.1481481 71.1111111 66.6666667 71.1111111"></polygon>
            <polygon id="Fill-11" fill="#FFFFFF" mask="url(#mask-2)" points="59.2592593 82.6518519 60.7407407 82.6518519 60.7407407 71.1111111 59.2592593 71.1111111"></polygon>
        </g>
    </g>
</svg>