<?xml version="1.0" encoding="UTF-8"?>
<svg width="160px" height="160px" viewBox="0 0 160 160" version="1.1" xmlns="http://www.w3.org/2000/svg" xmlns:xlink="http://www.w3.org/1999/xlink">
    <!-- Generator: Sketch 50.2 (55047) - http://www.bohemiancoding.com/sketch -->
    <title>Icons/Urbanobservatory/Data/Ozone</title>
    <desc>Created with Sketch.</desc>
    <defs></defs>
    <g id="Icons/Urbanobservatory/Data/Ozone" stroke="none" stroke-width="1" fill="none" fill-rule="evenodd">
        <g id="Group-2" transform="translate(26.000000, 51.000000)">
            <path d="M51.3002335,16.656108 C52.1102335,17.2353807 53.0364154,17.466108 53.8464154,17.3499261 C55.6971426,17.1191989 56.9702335,15.3830171 56.7378699,13.5306534 C56.6233245,12.7222898 56.1602335,11.796108 55.464779,11.3330171 C54.6564154,10.7553807 53.7302335,10.5230171 52.9202335,10.6391989 C52.1102335,10.7553807 51.3002335,11.1006534 50.7209608,11.9122898 C50.1433245,12.7222898 49.9109608,13.6468352 50.0271426,14.4568352 C50.0271426,15.1522898 50.4902335,15.846108 50.9533245,16.3091989 C51.0678699,16.4237443 51.1840517,16.5399261 51.3002335,16.656108 M67.2678699,12.0268352 C68.424779,19.6637443 63.1016881,26.8375625 55.464779,27.9944716 C51.7633245,28.6899261 48.0602335,27.7637443 45.0525972,25.4499261 C42.0433245,23.1344716 39.9602335,19.8944716 39.498779,16.1930171 C38.8033245,12.4899261 39.7295063,8.78683524 42.0433245,5.77919887 C44.3571426,2.77156251 47.5971426,0.6884716 51.3002335,0.22538069 C55.0033245,-0.468437491 58.704779,0.456107963 61.7140517,2.77156251 C62.4078699,3.23301705 62.8709608,3.69610796 63.3340517,4.15919887 C65.4171426,6.24228978 66.9209608,8.90301705 67.2678699,12.0268352" id="Fill-1" fill="#FFFFFF"></path>
            <path d="M12.0275063,52.6552898 C12.8375063,53.2345625 13.7636881,53.4652898 14.5736881,53.3507443 C16.4244154,53.1183807 17.6975063,51.3838352 17.4651426,49.5314716 C17.3505972,48.7214716 16.8875063,47.7952898 16.1920517,47.3321989 C15.3836881,46.7545625 14.4575063,46.5238352 13.6475063,46.6383807 C12.8375063,46.7545625 12.0275063,47.1014716 11.4482335,47.913108 C10.8705972,48.7214716 10.6382335,49.6476534 10.7544154,50.4560171 C10.7544154,51.1514716 11.2175063,51.8452898 11.6805972,52.3083807 C11.7951426,52.4229261 11.9113245,52.5407443 12.0275063,52.6552898 M27.9951426,48.0276534 C29.1520517,55.6645625 23.8289608,62.8383807 16.1920517,63.9952898 C12.4905972,64.689108 8.78750627,63.7629261 5.77986991,61.449108 C2.77059718,59.1352898 0.687506273,55.8952898 0.226051728,52.1938352 C-0.469402818,48.4907443 0.456779,44.7876534 2.77059718,41.7800171 C5.08441536,38.7707443 8.32441536,36.6876534 12.0275063,36.2245625 C15.7305972,35.5307443 19.4320517,36.4569261 22.4413245,38.7707443 C23.1351426,39.2338352 23.5982335,39.6969261 24.0613245,40.1583807 C26.1444154,42.2414716 27.6482335,44.9038352 27.9951426,48.0276534" id="Fill-3" fill="#FFFFFF"></path>
            <path d="M90.5729608,52.6552898 C91.3829608,53.2345625 92.3091426,53.4652898 93.1191426,53.3507443 C94.9698699,53.1183807 96.2429608,51.3838352 96.0105972,49.5314716 C95.8960517,48.7214716 95.4329608,47.7952898 94.7375063,47.3321989 C93.9291426,46.7545625 93.0029608,46.5238352 92.1929608,46.6383807 C91.3829608,46.7545625 90.5729608,47.1014716 89.9936881,47.913108 C89.4160517,48.7214716 89.1836881,49.6476534 89.2998699,50.4560171 C89.2998699,51.1514716 89.7629608,51.8452898 90.2260517,52.3083807 C90.3405972,52.4229261 90.456779,52.5407443 90.5729608,52.6552898 M106.540597,48.0276534 C107.697506,55.6645625 102.374415,62.8383807 94.7375063,63.9952898 C91.0360517,64.689108 87.3329608,63.7629261 84.3253245,61.449108 C81.3160517,59.1352898 79.2329608,55.8952898 78.7715063,52.1938352 C78.0760517,48.4907443 79.0022335,44.7876534 81.3160517,41.7800171 C83.6298699,38.7707443 86.8698699,36.6876534 90.5729608,36.2245625 C94.2760517,35.5307443 97.9775063,36.4569261 100.986779,38.7707443 C101.680597,39.2338352 102.143688,39.6969261 102.606779,40.1583807 C104.68987,42.2414716 106.193688,44.9038352 106.540597,48.0276534" id="Fill-5" fill="#FFFFFF"></path>
            <path d="M36.9205245,20.3482352 L22.063979,35.2064171" id="Stroke-7" stroke="#FFFFFF"></path>
            <path d="M67.8819972,20.3482352 L82.7385426,35.2064171" id="Stroke-9" stroke="#FFFFFF"></path>
        </g>
    </g>
</svg>