<?xml version="1.0" encoding="UTF-8"?>
<svg width="175px" height="195px" viewBox="0 0 175 195" version="1.1" xmlns="http://www.w3.org/2000/svg" xmlns:xlink="http://www.w3.org/1999/xlink">
    <!-- Generator: Sketch 50.2 (55047) - http://www.bohemiancoding.com/sketch -->
    <title>Icons/ILI/Weather/cloud</title>
    <desc>Created with Sketch.</desc>
    <defs></defs>
    <g id="Icons/ILI/Weather/cloud" stroke="none" stroke-width="1" fill="none" fill-rule="evenodd">
        <g id="Group" transform="translate(0.000000, 37.000000)">
            <path d="M132.964645,70.4882581 L140.009806,70.4882581 C150.296258,70.4882581 158.66443,62.1218065 158.66443,51.831914 C158.66443,44.5355699 154.370237,38.0013763 147.856688,34.9648172 C147.473032,16.0968602 132.037333,0.860731183 113.074753,0.860731183 C98.580129,0.860731183 86.1328172,9.77944086 80.9061505,22.4091183 C80.8545376,22.4091183 80.808086,22.403957 80.7581935,22.403957 C67.5074409,22.403957 56.7220645,33.1893333 56.7220645,46.4418065 C56.7220645,58.6465376 65.8644301,68.7299785 77.6545376,70.2646022 L132.964645,70.4882581 Z" id="Fill-1" fill="#FFFFFF"></path>
            <path d="M132.964645,70.4882581 L140.009806,70.4882581 C150.296258,70.4882581 158.66443,62.1218065 158.66443,51.831914 C158.66443,44.5355699 154.370237,38.0013763 147.856688,34.9648172 C147.473032,16.0968602 132.037333,0.860731183 113.074753,0.860731183 C98.580129,0.860731183 86.1328172,9.77944086 80.9061505,22.4091183 C80.8545376,22.4091183 80.808086,22.403957 80.7581935,22.403957 C67.5074409,22.403957 56.7220645,33.1893333 56.7220645,46.4418065 C56.7220645,58.6465376 65.8644301,68.7299785 77.6545376,70.2646022 L132.964645,70.4882581 Z" id="Stroke-3" stroke="#1D1D1B"></path>
            <path d="M140.00757,65.4983226 L80.7593978,65.4983226 C70.2578925,65.4983226 61.7073548,56.9546667 61.7073548,46.4428387 C61.7073548,36.4368172 69.4664946,28.2269247 79.2832688,27.4699355 C78.6415484,30.1021935 78.2647742,32.8411183 78.2647742,35.6729462 C78.2647742,37.0544516 79.3796129,38.1710108 80.7593978,38.1710108 C82.1391828,38.1710108 83.2540215,37.0544516 83.2540215,35.6729462 C83.2540215,19.2307957 96.632086,5.85101075 113.074237,5.85101075 C128.764559,5.85101075 141.628215,18.0350968 142.784344,33.4312258 C140.365419,33.0716559 137.877677,33.1404731 135.494882,33.7288602 C134.158108,34.0574624 133.339183,35.4062796 133.672946,36.7447742 C133.998108,38.0832688 135.353806,38.9193978 136.68714,38.5701505 C139.278108,37.9353118 142.042839,38.0591828 144.549505,38.940043 L144.554667,38.940043 C150.00843,40.860043 153.674667,46.0454194 153.674667,51.8295054 C153.676387,59.3684301 147.543054,65.4983226 140.00757,65.4983226 Z M132.964129,70.4875699 L140.00929,70.4875699 C150.295742,70.4875699 158.665634,62.1228387 158.665634,51.8329462 C158.663914,44.5348817 154.371441,38.0006882 147.856172,34.964129 C147.472516,16.096172 132.036817,0.860043011 113.075957,0.860043011 C98.5796129,0.860043011 86.1340215,9.77875269 80.9056344,22.4101505 C80.8557419,22.4101505 80.8075699,22.4049892 80.7593978,22.4049892 C67.5069247,22.4049892 56.7215484,33.1886452 56.7215484,46.4411183 C56.7215484,58.6475699 65.863914,68.7292903 77.6540215,70.263914 L132.964129,70.4875699 Z" id="Fill-5" fill="#1D1D1B"></path>
            <path d="M140.00757,65.4983226 L80.7593978,65.4983226 C70.2578925,65.4983226 61.7073548,56.9546667 61.7073548,46.4428387 C61.7073548,36.4368172 69.4664946,28.2269247 79.2832688,27.4699355 C78.6415484,30.1021935 78.2647742,32.8411183 78.2647742,35.6729462 C78.2647742,37.0544516 79.3796129,38.1710108 80.7593978,38.1710108 C82.1391828,38.1710108 83.2540215,37.0544516 83.2540215,35.6729462 C83.2540215,19.2307957 96.632086,5.85101075 113.074237,5.85101075 C128.764559,5.85101075 141.628215,18.0350968 142.784344,33.4312258 C140.365419,33.0716559 137.877677,33.1404731 135.494882,33.7288602 C134.158108,34.0574624 133.339183,35.4062796 133.672946,36.7447742 C133.998108,38.0832688 135.353806,38.9193978 136.68714,38.5701505 C139.278108,37.9353118 142.042839,38.0591828 144.549505,38.940043 L144.554667,38.940043 C150.00843,40.860043 153.674667,46.0454194 153.674667,51.8295054 C153.676387,59.3684301 147.543054,65.4983226 140.00757,65.4983226 Z M132.964129,70.4875699 L140.00929,70.4875699 C150.295742,70.4875699 158.665634,62.1228387 158.665634,51.8329462 C158.663914,44.5348817 154.371441,38.0006882 147.856172,34.964129 C147.472516,16.096172 132.036817,0.860043011 113.075957,0.860043011 C98.5796129,0.860043011 86.1340215,9.77875269 80.9056344,22.4101505 C80.8557419,22.4101505 80.8075699,22.4049892 80.7593978,22.4049892 C67.5069247,22.4049892 56.7215484,33.1886452 56.7215484,46.4411183 C56.7215484,58.6475699 65.863914,68.7292903 77.6540215,70.263914 L132.964129,70.4875699 Z" id="Stroke-7" stroke="#1D1D1B" stroke-width="0.25"></path>
            <path d="M77.5655914,105.302538 L84.6090323,105.302538 C94.8989247,105.302538 103.265376,96.9378065 103.265376,86.6461935 C103.263656,79.348129 98.9711828,72.8156559 92.4576344,69.7790968 C92.0739785,50.9111398 76.6382796,35.6750108 57.6756989,35.6750108 C43.1810753,35.6750108 30.7337634,44.5937204 25.5070968,57.2233978 C25.4554839,57.2233978 25.4090323,57.2182366 25.3591398,57.2182366 C12.1083871,57.2182366 1.32301075,68.0036129 1.32301075,81.2543656 C1.32301075,93.4608172 10.4653763,103.545978 22.2554839,105.077161 L77.5655914,105.302538 Z" id="Fill-9" fill="#FFFFFF"></path>
            <path d="M77.5655914,105.302538 L84.6090323,105.302538 C94.8989247,105.302538 103.265376,96.9378065 103.265376,86.6461935 C103.263656,79.348129 98.9711828,72.8156559 92.4576344,69.7790968 C92.0739785,50.9111398 76.6382796,35.6750108 57.6756989,35.6750108 C43.1810753,35.6750108 30.7337634,44.5937204 25.5070968,57.2233978 C25.4554839,57.2233978 25.4090323,57.2182366 25.3591398,57.2182366 C12.1083871,57.2182366 1.32301075,68.0036129 1.32301075,81.2543656 C1.32301075,93.4608172 10.4653763,103.545978 22.2554839,105.077161 L77.5655914,105.302538 Z" id="Stroke-11" stroke="#1D1D1B"></path>
            <path d="M84.607828,100.312602 L25.3596559,100.312602 C14.8581505,100.312602 6.3076129,91.7689462 6.3076129,81.2571183 C6.3076129,71.2510968 14.0684731,63.0412043 23.8835269,62.2842151 C23.2418065,64.9164731 22.8667527,67.6553978 22.8667527,70.4872258 C22.8667527,71.8670108 23.979871,72.9852903 25.3596559,72.9852903 C26.7411613,72.9852903 27.8542796,71.8687312 27.8542796,70.4872258 C27.8542796,54.0450753 41.2340645,40.6652903 57.6744946,40.6652903 C73.3648172,40.6652903 86.2301935,52.8493763 87.3863226,68.2437849 C84.9656774,67.8859355 82.4779355,67.9547527 80.0951398,68.5431398 C78.7583656,68.8700215 77.9411613,70.2205591 78.2732043,71.5590538 C78.5983656,72.8975484 79.9540645,73.731957 81.2891183,73.3827097 C83.880086,72.7495914 86.6430968,72.8717419 89.1514839,73.7526022 L89.1549247,73.7526022 C94.6104086,75.6743226 98.2766452,80.8596989 98.2766452,86.6437849 C98.2783656,94.1827097 92.1433118,100.312602 84.607828,100.312602 Z M77.5661075,105.301849 L84.6095484,105.301849 C94.8977204,105.301849 103.265892,96.9371183 103.265892,86.6472258 C103.264172,79.3474409 98.9716989,72.8149677 92.4564301,69.7784086 C92.0744946,50.9104516 76.6387957,35.6743226 57.6762151,35.6743226 C43.179871,35.6743226 30.7342796,44.5930323 25.5058925,57.2244301 C25.456,57.2244301 25.407828,57.2175484 25.3596559,57.2175484 C12.1071828,57.2175484 1.32180645,68.0029247 1.32180645,81.2553978 C1.32180645,93.4618495 10.4658925,103.54529 22.256,105.078194 L77.5661075,105.301849 Z" id="Fill-13" fill="#1D1D1B"></path>
            <path d="M84.607828,100.312602 L25.3596559,100.312602 C14.8581505,100.312602 6.3076129,91.7689462 6.3076129,81.2571183 C6.3076129,71.2510968 14.0684731,63.0412043 23.8835269,62.2842151 C23.2418065,64.9164731 22.8667527,67.6553978 22.8667527,70.4872258 C22.8667527,71.8670108 23.979871,72.9852903 25.3596559,72.9852903 C26.7411613,72.9852903 27.8542796,71.8687312 27.8542796,70.4872258 C27.8542796,54.0450753 41.2340645,40.6652903 57.6744946,40.6652903 C73.3648172,40.6652903 86.2301935,52.8493763 87.3863226,68.2437849 C84.9656774,67.8859355 82.4779355,67.9547527 80.0951398,68.5431398 C78.7583656,68.8700215 77.9411613,70.2205591 78.2732043,71.5590538 C78.5983656,72.8975484 79.9540645,73.731957 81.2891183,73.3827097 C83.880086,72.7495914 86.6430968,72.8717419 89.1514839,73.7526022 L89.1549247,73.7526022 C94.6104086,75.6743226 98.2766452,80.8596989 98.2766452,86.6437849 C98.2783656,94.1827097 92.1433118,100.312602 84.607828,100.312602 Z M77.5661075,105.301849 L84.6095484,105.301849 C94.8977204,105.301849 103.265892,96.9371183 103.265892,86.6472258 C103.264172,79.3474409 98.9716989,72.8149677 92.4564301,69.7784086 C92.0744946,50.9104516 76.6387957,35.6743226 57.6762151,35.6743226 C43.179871,35.6743226 30.7342796,44.5930323 25.5058925,57.2244301 C25.456,57.2244301 25.407828,57.2175484 25.3596559,57.2175484 C12.1071828,57.2175484 1.32180645,68.0029247 1.32180645,81.2553978 C1.32180645,93.4618495 10.4658925,103.54529 22.256,105.078194 L77.5661075,105.301849 Z" id="Stroke-15" stroke="#1D1D1B"></path>
            <path d="M83.5005591,100.312602 L69.4016344,100.312602 L24.2523871,100.312602 C13.7508817,100.312602 5.20034409,91.7689462 5.20034409,81.2571183 C5.20034409,71.2510968 12.9612043,63.0412043 22.7762581,62.2842151 C22.1362581,64.9164731 21.7594839,67.6553978 21.7594839,70.4872258 C21.7594839,71.8670108 22.8726022,72.9852903 24.2523871,72.9852903 C25.6338925,72.9852903 26.7470108,71.8687312 26.7470108,70.4872258 C26.7470108,54.0450753 40.1267957,40.6652903 56.5672258,40.6652903 C72.2592688,40.6652903 85.1229247,52.8493763 86.2790538,68.2437849 C83.8584086,67.8859355 81.3706667,67.9547527 78.987871,68.5431398 C77.6510968,68.8700215 76.8338925,70.2205591 77.1676559,71.5590538 C77.4910968,72.8975484 78.8485161,73.731957 80.1818495,73.3827097 C82.7728172,72.7495914 85.5375484,72.8717419 88.0442151,73.7526022 L88.0493763,73.7526022 C93.5031398,75.6743226 97.1693763,80.8596989 97.1693763,86.6437849 C97.1710968,94.1827097 91.0377634,100.312602 83.5005591,100.312602 M91.3508817,69.7784086 C90.9672258,50.9104516 75.5315269,35.6743226 56.5689462,35.6743226 C42.0743226,35.6743226 29.6270108,44.5930323 24.4003441,57.2244301 C24.3504516,57.2244301 24.3022796,57.2175484 24.2523871,57.2175484 C10.999914,57.2175484 0.214537634,68.0029247 0.214537634,81.2553978 C0.214537634,93.4618495 9.35862366,103.54529 21.1487312,105.078194 L0.94744086,125.279484 C-0.0280430108,126.258409 -0.0280430108,127.832602 0.94744086,128.811527 C1.43260215,129.296688 2.07088172,129.54271 2.71088172,129.54271 C3.34744086,129.54271 3.98744086,129.296688 4.47260215,128.811527 L27.9805591,105.301849 L45.1659355,105.301849 L40.3332473,110.132817 C39.3612043,111.106581 39.3612043,112.687656 40.3332473,113.661419 C40.8184086,114.151742 41.460129,114.394323 42.0984086,114.394323 C42.7384086,114.394323 43.3749677,114.151742 43.8618495,113.661419 L52.2179785,105.301849 L69.4016344,105.301849 L49.4257204,125.279484 C48.451957,126.258409 48.451957,127.832602 49.4257204,128.811527 C49.9126022,129.296688 50.5526022,129.54271 51.1891613,129.54271 C51.8257204,129.54271 52.4674409,129.296688 52.9526022,128.811527 L76.4588387,105.301849 L83.5022796,105.301849 C93.7904516,105.301849 102.158624,96.9371183 102.158624,86.6472258 C102.156903,79.3474409 97.8661505,72.8149677 91.3508817,69.7784086" id="Fill-17" fill="#1D1D1B"></path>
            <path d="M83.5005591,100.312602 L69.4016344,100.312602 L24.2523871,100.312602 C13.7508817,100.312602 5.20034409,91.7689462 5.20034409,81.2571183 C5.20034409,71.2510968 12.9612043,63.0412043 22.7762581,62.2842151 C22.1362581,64.9164731 21.7594839,67.6553978 21.7594839,70.4872258 C21.7594839,71.8670108 22.8726022,72.9852903 24.2523871,72.9852903 C25.6338925,72.9852903 26.7470108,71.8687312 26.7470108,70.4872258 C26.7470108,54.0450753 40.1267957,40.6652903 56.5672258,40.6652903 C72.2592688,40.6652903 85.1229247,52.8493763 86.2790538,68.2437849 C83.8584086,67.8859355 81.3706667,67.9547527 78.987871,68.5431398 C77.6510968,68.8700215 76.8338925,70.2205591 77.1676559,71.5590538 C77.4910968,72.8975484 78.8485161,73.731957 80.1818495,73.3827097 C82.7728172,72.7495914 85.5375484,72.8717419 88.0442151,73.7526022 L88.0493763,73.7526022 C93.5031398,75.6743226 97.1693763,80.8596989 97.1693763,86.6437849 C97.1710968,94.1827097 91.0377634,100.312602 83.5005591,100.312602 Z M91.3508817,69.7784086 C90.9672258,50.9104516 75.5315269,35.6743226 56.5689462,35.6743226 C42.0743226,35.6743226 29.6270108,44.5930323 24.4003441,57.2244301 C24.3504516,57.2244301 24.3022796,57.2175484 24.2523871,57.2175484 C10.999914,57.2175484 0.214537634,68.0029247 0.214537634,81.2553978 C0.214537634,93.4618495 9.35862366,103.54529 21.1487312,105.078194 L0.94744086,125.279484 C-0.0280430108,126.258409 -0.0280430108,127.832602 0.94744086,128.811527 C1.43260215,129.296688 2.07088172,129.54271 2.71088172,129.54271 C3.34744086,129.54271 3.98744086,129.296688 4.47260215,128.811527 L27.9805591,105.301849 L45.1659355,105.301849 L40.3332473,110.132817 C39.3612043,111.106581 39.3612043,112.687656 40.3332473,113.661419 C40.8184086,114.151742 41.460129,114.394323 42.0984086,114.394323 C42.7384086,114.394323 43.3749677,114.151742 43.8618495,113.661419 L52.2179785,105.301849 L69.4016344,105.301849 L49.4257204,125.279484 C48.451957,126.258409 48.451957,127.832602 49.4257204,128.811527 C49.9126022,129.296688 50.5526022,129.54271 51.1891613,129.54271 C51.8257204,129.54271 52.4674409,129.296688 52.9526022,128.811527 L76.4588387,105.301849 L83.5022796,105.301849 C93.7904516,105.301849 102.158624,96.9371183 102.158624,86.6472258 C102.156903,79.3474409 97.8661505,72.8149677 91.3508817,69.7784086 Z" id="Stroke-19" stroke="#1D1D1B" stroke-width="0.25"></path>
            <path d="M32.8142796,117.652989 L25.1824516,125.281376 C24.2104086,126.260301 24.2104086,127.834495 25.1824516,128.813419 C25.6693333,129.298581 26.3093333,129.544602 26.9510538,129.544602 C27.5858925,129.544602 28.224172,129.298581 28.7110538,128.813419 L36.3411613,121.183312 C37.3149247,120.206108 37.3149247,118.630194 36.3411613,117.652989 C35.3691183,116.679226 33.7914839,116.679226 32.8142796,117.652989" id="Fill-21" fill="#1D1D1B"></path>
            <path d="M32.8142796,117.652989 L25.1824516,125.281376 C24.2104086,126.260301 24.2104086,127.834495 25.1824516,128.813419 C25.6693333,129.298581 26.3093333,129.544602 26.9510538,129.544602 C27.5858925,129.544602 28.224172,129.298581 28.7110538,128.813419 L36.3411613,121.183312 C37.3149247,120.206108 37.3149247,118.630194 36.3411613,117.652989 C35.3691183,116.679226 33.7914839,116.679226 32.8142796,117.652989 Z" id="Stroke-23" stroke="#1D1D1B" stroke-width="0.25"></path>
        </g>
    </g>
</svg>