<?xml version="1.0" encoding="UTF-8"?>
<svg width="175px" height="195px" viewBox="0 0 175 195" version="1.1" xmlns="http://www.w3.org/2000/svg" xmlns:xlink="http://www.w3.org/1999/xlink">
    <!-- Generator: Sketch 50.2 (55047) - http://www.bohemiancoding.com/sketch -->
    <title>Icons/ILI/Weather/cloudy</title>
    <desc>Created with Sketch.</desc>
    <defs></defs>
    <g id="Icons/ILI/Weather/cloudy" stroke="none" stroke-width="1" fill="none" fill-rule="evenodd">
        <g id="Group" transform="translate(9.000000, 48.000000)">
            <path d="M112.005527,102.285507 L122.354067,102.285507 C137.46835,102.285507 149.759934,89.9957349 149.759934,74.8792415 C149.759121,64.1585146 143.452763,54.5605087 133.883067,50.0997042 C133.318853,22.3820683 110.642957,0 82.7875068,0 C61.4920668,0 43.2071259,13.1019364 35.5284426,31.6565093 C35.4544605,31.6565093 35.3845435,31.6475665 35.3121874,31.6475665 C15.8443472,31.6475665 0,47.4924872 0,66.9600331 C0,84.8902396 13.4322081,99.7026796 30.7521308,101.956252 L112.005527,102.285507 Z" id="Fill-1" fill="#FEFEFE"></path>
            <path d="M122.352441,94.9557072 L35.3121874,94.9557072 C19.8849037,94.9557072 7.32503301,82.4041561 7.32503301,66.9616591 C7.32503301,52.2638489 18.7247681,40.2025229 33.1439451,39.0895575 C32.2016906,42.9568888 31.6496709,46.9811247 31.6496709,51.1403147 C31.6496709,53.1695052 33.2862182,54.8100927 35.3121874,54.8100927 C37.3414086,54.8100927 38.9779559,53.1719441 38.9779559,51.1403147 C38.9779559,26.9875827 58.6319706,7.33223907 82.7850678,7.33223907 C105.836565,7.33223907 124.735312,25.2291135 126.43446,47.8469451 C122.877632,47.3185101 119.222432,47.4201322 115.722514,48.2843267 C113.758332,48.7664221 112.556734,50.7492728 113.046966,52.7158641 C113.523378,54.6824553 115.516827,55.9092375 117.476944,55.3954361 C121.282547,54.4637645 125.341802,54.6450583 129.025457,55.9401306 L129.031147,55.9401306 C137.045595,58.7611606 142.432462,66.3787546 142.432462,74.8759896 C142.434901,85.9495486 133.422102,94.9557072 122.352441,94.9557072 Z M112.005527,102.28632 L122.354067,102.28632 C137.469163,102.28632 149.760747,89.9957349 149.760747,74.8800545 C149.759121,64.1585146 143.452763,54.5605087 133.88388,50.0997042 C133.318853,22.3820683 110.64377,0 82.7875068,0 C61.4928798,0 43.2079389,13.1019364 35.5292555,31.6573222 C35.4544605,31.6573222 35.3845435,31.6483795 35.3121874,31.6483795 C15.8443472,31.6483795 0,47.4924872 0,66.9600331 C0,84.8902396 13.4322081,99.7034926 30.7529438,101.956252 L112.005527,102.28632 Z" id="Fill-5" fill="#1D1D1B"></path>
            <path d="M122.352441,94.9557072 L35.3121874,94.9557072 C19.8849037,94.9557072 7.32503301,82.4041561 7.32503301,66.9616591 C7.32503301,52.2638489 18.7247681,40.2025229 33.1439451,39.0895575 C32.2016906,42.9568888 31.6496709,46.9811247 31.6496709,51.1403147 C31.6496709,53.1695052 33.2862182,54.8100927 35.3121874,54.8100927 C37.3414086,54.8100927 38.9779559,53.1719441 38.9779559,51.1403147 C38.9779559,26.9875827 58.6319706,7.33223907 82.7850678,7.33223907 C105.836565,7.33223907 124.735312,25.2291135 126.43446,47.8469451 C122.877632,47.3185101 119.222432,47.4201322 115.722514,48.2843267 C113.758332,48.7664221 112.556734,50.7492728 113.046966,52.7158641 C113.523378,54.6824553 115.516827,55.9092375 117.476944,55.3954361 C121.282547,54.4637645 125.341802,54.6450583 129.025457,55.9401306 L129.031147,55.9401306 C137.045595,58.7611606 142.432462,66.3787546 142.432462,74.8759896 C142.434901,85.9495486 133.422102,94.9557072 122.352441,94.9557072 Z M112.005527,102.28632 L122.354067,102.28632 C137.469163,102.28632 149.760747,89.9957349 149.760747,74.8800545 C149.759121,64.1585146 143.452763,54.5605087 133.88388,50.0997042 C133.318853,22.3820683 110.64377,0 82.7875068,0 C61.4928798,0 43.2079389,13.1019364 35.5292555,31.6573222 C35.4544605,31.6573222 35.3845435,31.6483795 35.3121874,31.6483795 C15.8443472,31.6483795 0,47.4924872 0,66.9600331 C0,84.8902396 13.4322081,99.7034926 30.7529438,101.956252 L112.005527,102.28632 Z" id="Stroke-7" stroke="#1D1D1B"></path>
        </g>
    </g>
</svg>