<?xml version="1.0" encoding="UTF-8"?>
<svg width="175px" height="195px" viewBox="0 0 175 195" version="1.1" xmlns="http://www.w3.org/2000/svg" xmlns:xlink="http://www.w3.org/1999/xlink">
    <!-- Generator: Sketch 50.2 (55047) - http://www.bohemiancoding.com/sketch -->
    <title>Icons/ILI/Weather/Sun</title>
    <desc>Created with Sketch.</desc>
    <defs></defs>
    <g id="Icons/ILI/Weather/Sun" stroke="none" stroke-width="1" fill="none" fill-rule="evenodd">
        <path d="M48.2821333,97.24 C48.2821333,117.619733 64.8602667,134.2 85.24,134.2 C105.621867,134.2 122.2,117.619733 122.2,97.24 C122.2,76.8602667 105.621867,60.28 85.24,60.28 C64.8602667,60.28 48.2821333,76.8602667 48.2821333,97.24 M43,97.24 C43,73.9482667 61.9504,55 85.24,55 C108.531733,55 127.482133,73.9482667 127.482133,97.24 C127.482133,120.5296 108.531733,139.48 85.24,139.48 C61.9504,139.48 43,120.5296 43,97.24" id="Fill-1" fill="#1D1D1B"></path>
        <path d="M48.2821333,97.24 C48.2821333,117.619733 64.8602667,134.2 85.24,134.2 C105.621867,134.2 122.2,117.619733 122.2,97.24 C122.2,76.8602667 105.621867,60.28 85.24,60.28 C64.8602667,60.28 48.2821333,76.8602667 48.2821333,97.24 Z M43,97.24 C43,73.9482667 61.9504,55 85.24,55 C108.531733,55 127.482133,73.9482667 127.482133,97.24 C127.482133,120.5296 108.531733,139.48 85.24,139.48 C61.9504,139.48 43,120.5296 43,97.24 Z" id="Stroke-3" stroke="#1D1D1B" stroke-width="0.75"></path>
        <path d="M85.6389333,42.0410667 L85.6410667,42.0410667 C87.0981333,42.0410667 88.28,40.8592 88.28,39.4021333 L88.28,15.6410667 C88.28,14.1818667 87.0981333,13 85.6410667,13 L85.6389333,13 C84.1797333,13 83,14.1818667 83,15.6410667 L83,39.4021333 C83,40.8592 84.1797333,42.0410667 85.6389333,42.0410667" id="Fill-5" fill="#1D1D1B"></path>
        <path d="M85.6389333,42.0410667 L85.6410667,42.0410667 C87.0981333,42.0410667 88.28,40.8592 88.28,39.4021333 L88.28,15.6410667 C88.28,14.1818667 87.0981333,13 85.6410667,13 L85.6389333,13 C84.1797333,13 83,14.1818667 83,15.6410667 L83,39.4021333 C83,40.8592 84.1797333,42.0410667 85.6389333,42.0410667 Z" id="Stroke-7" stroke="#1D1D1B"></path>
        <path d="M85.6389333,182.041067 L85.6410667,182.041067 C87.0981333,182.041067 88.28,180.8592 88.28,179.402133 L88.28,155.641067 C88.28,154.181867 87.0981333,153 85.6410667,153 L85.6389333,153 C84.1797333,153 83,154.181867 83,155.641067 L83,179.402133 C83,180.8592 84.1797333,182.041067 85.6389333,182.041067 Z" id="Stroke-7-Copy" stroke="#1D1D1B" fill="#000000" transform="translate(85.640000, 167.520533) scale(1, -1) translate(-85.640000, -167.520533) "></path>
        <path d="M128.506133,58.3061333 L145.306133,41.5061333 C146.336533,40.4757333 146.336533,38.8032 145.306133,37.7728 C144.275733,36.7424 142.6032,36.7424 141.5728,37.7728 L124.7728,54.5728 C123.7424,55.6032 123.7424,57.2757333 124.7728,58.3061333 C125.8032,59.3365333 127.475733,59.3365333 128.506133,58.3061333" id="Fill-9" fill="#1D1D1B"></path>
        <path d="M128.506133,58.3061333 L145.306133,41.5061333 C146.336533,40.4757333 146.336533,38.8032 145.306133,37.7728 C144.275733,36.7424 142.6032,36.7424 141.5728,37.7728 L124.7728,54.5728 C123.7424,55.6032 123.7424,57.2757333 124.7728,58.3061333 C125.8032,59.3365333 127.475733,59.3365333 128.506133,58.3061333 Z" id="Stroke-11" stroke="#1D1D1B"></path>
        <path d="M128.506133,165.306133 L145.306133,148.506133 C146.336533,147.475733 146.336533,145.8032 145.306133,144.7728 C144.275733,143.7424 142.6032,143.7424 141.5728,144.7728 L124.7728,161.5728 C123.7424,162.6032 123.7424,164.275733 124.7728,165.306133 C125.8032,166.336533 127.475733,166.336533 128.506133,165.306133 Z" id="Stroke-11-Copy" stroke="#1D1D1B" fill="#000000" transform="translate(135.039467, 155.039467) scale(1, -1) translate(-135.039467, -155.039467) "></path>
        <path d="M3.63893333,100.28 L27.4,100.28 C28.8570667,100.28 30.0389333,99.0981333 30.0389333,97.6410667 L30.0389333,97.6389333 C30.0389333,96.1818667 28.8570667,95 27.4,95 L3.63893333,95 C2.17973333,95 1,96.1818667 1,97.6389333 L1,97.6410667 C1,99.0981333 2.17973333,100.28 3.63893333,100.28" id="Fill-13" fill="#1D1D1B"></path>
        <path d="M3.63893333,100.28 L27.4,100.28 C28.8570667,100.28 30.0389333,99.0981333 30.0389333,97.6410667 L30.0389333,97.6389333 C30.0389333,96.1818667 28.8570667,95 27.4,95 L3.63893333,95 C2.17973333,95 1,96.1818667 1,97.6389333 L1,97.6410667 C1,99.0981333 2.17973333,100.28 3.63893333,100.28 Z" id="Stroke-15" stroke="#1D1D1B"></path>
        <path d="M144.638933,100.28 L168.4,100.28 C169.857067,100.28 171.038933,99.0981333 171.038933,97.6410667 L171.038933,97.6389333 C171.038933,96.1818667 169.857067,95 168.4,95 L144.638933,95 C143.179733,95 142,96.1818667 142,97.6389333 L142,97.6410667 C142,99.0981333 143.179733,100.28 144.638933,100.28 Z" id="Stroke-15-Copy" stroke="#1D1D1B" fill="#000000"></path>
        <path d="M46.3061333,58.3061333 C47.3365333,57.2757333 47.3365333,55.6032 46.3061333,54.5728 L29.5061333,37.7728 C28.4757333,36.7424 26.8032,36.7424 25.7728,37.7728 C24.7424,38.8032 24.7424,40.4757333 25.7728,41.5061333 L42.5749333,58.3061333 C43.6032,59.3365333 45.2778667,59.3365333 46.3061333,58.3061333" id="Fill-17" fill="#1D1D1B"></path>
        <path d="M46.3061333,58.3061333 C47.3365333,57.2757333 47.3365333,55.6032 46.3061333,54.5728 L29.5061333,37.7728 C28.4757333,36.7424 26.8032,36.7424 25.7728,37.7728 C24.7424,38.8032 24.7424,40.4757333 25.7728,41.5061333 L42.5749333,58.3061333 C43.6032,59.3365333 45.2778667,59.3365333 46.3061333,58.3061333 Z" id="Stroke-19" stroke="#1D1D1B"></path>
        <path d="M46.3061333,165.306133 C47.3365333,164.275733 47.3365333,162.6032 46.3061333,161.5728 L29.5061333,144.7728 C28.4757333,143.7424 26.8032,143.7424 25.7728,144.7728 C24.7424,145.8032 24.7424,147.475733 25.7728,148.506133 L42.5749333,165.306133 C43.6032,166.336533 45.2778667,166.336533 46.3061333,165.306133 Z" id="Stroke-19-Copy" stroke="#1D1D1B" fill="#000000" transform="translate(36.039467, 155.039467) scale(1, -1) translate(-36.039467, -155.039467) "></path>
    </g>
</svg>