<?xml version="1.0" encoding="UTF-8"?>
<svg width="175px" height="195px" viewBox="0 0 175 195" version="1.1" xmlns="http://www.w3.org/2000/svg" xmlns:xlink="http://www.w3.org/1999/xlink">
    <!-- Generator: Sketch 50.2 (55047) - http://www.bohemiancoding.com/sketch -->
    <title>Icons/ILI/Weather/night</title>
    <desc>Created with Sketch.</desc>
    <defs>
        <polygon id="path-1" points="0.0323 0.336166667 7.4213 0.336166667 7.4213 8 0.0323 8"></polygon>
    </defs>
    <g id="Icons/ILI/Weather/night" stroke="none" stroke-width="1" fill="none" fill-rule="evenodd">
        <g id="Group" transform="translate(17.000000, 35.000000)">
            <path d="M59.6361469,104.1875 C53.7352929,104.1875 48.1365064,102.895833 43.0739483,100.594318 C59.8585998,93.5253788 71.6907487,76.757197 71.6907487,57.2365909 C71.6907487,43.3218182 65.6751559,30.8090909 56.1424667,22.2065909 C57.2945382,22.1056061 58.4583177,22.042197 59.6361469,22.042197 C82.0055352,22.042197 100.204518,40.4684091 100.204518,63.1148485 C100.204518,85.7612879 82.0055352,104.1875 59.6361469,104.1875 M59.6361469,17 C56.2010069,17 52.8571896,17.3875 49.635136,18.1014394 C46.9610188,18.6932576 46.4833306,22.8876515 48.5743872,24.3601515 C59.0390367,31.7273485 65.8976087,43.9089394 65.8976087,57.6757576 C65.8976087,76.2663636 53.3957596,91.9706818 36.3863138,96.8132576 C33.9486991,97.5084091 33.0167388,101.641742 35.3279066,103.074318 C42.4019066,107.461288 50.7263257,110 59.6361469,110 C85.1994896,110 106,89.1384091 106,63.5 C106,37.8592424 85.1994896,17 59.6361469,17" id="Fill-1" fill="#1D1D1B"></path>
            <path d="M59.6361469,104.1875 C53.7352929,104.1875 48.1365064,102.895833 43.0739483,100.594318 C59.8585998,93.5253788 71.6907487,76.757197 71.6907487,57.2365909 C71.6907487,43.3218182 65.6751559,30.8090909 56.1424667,22.2065909 C57.2945382,22.1056061 58.4583177,22.042197 59.6361469,22.042197 C82.0055352,22.042197 100.204518,40.4684091 100.204518,63.1148485 C100.204518,85.7612879 82.0055352,104.1875 59.6361469,104.1875 Z M59.6361469,17 C56.2010069,17 52.8571896,17.3875 49.635136,18.1014394 C46.9610188,18.6932576 46.4833306,22.8876515 48.5743872,24.3601515 C59.0390367,31.7273485 65.8976087,43.9089394 65.8976087,57.6757576 C65.8976087,76.2663636 53.3957596,91.9706818 36.3863138,96.8132576 C33.9486991,97.5084091 33.0167388,101.641742 35.3279066,103.074318 C42.4019066,107.461288 50.7263257,110 59.6361469,110 C85.1994896,110 106,89.1384091 106,63.5 C106,37.8592424 85.1994896,17 59.6361469,17 Z" id="Stroke-3" stroke="#1D1D1B" stroke-width="0.75"></path>
            <g id="Group-8" transform="translate(0.000000, 24.000000)">
                <path d="M0.415966667,0.69345 L7.82663333,8.5977" id="Fill-5" fill="#1D1D1B"></path>
                <path d="M0.415966667,0.69345 L7.82663333,8.5977" id="Stroke-7" stroke="#1D1D1B" stroke-width="2.5" stroke-linecap="round"></path>
            </g>
            <g id="Group-12" transform="translate(0.000000, 24.000000)">
                <path d="M7.82593333,0.69345 L0.415266667,8.5977" id="Fill-9" fill="#1D1D1B"></path>
                <path d="M7.82593333,0.69345 L0.415266667,8.5977" id="Stroke-11" stroke="#1D1D1B" stroke-width="2.5" stroke-linecap="round"></path>
            </g>
            <g id="Group-16" transform="translate(119.000000, 97.000000)">
                <path d="M0.6804,0.0570342857 L7.8264,8.18943429" id="Fill-13" fill="#1D1D1B"></path>
                <path d="M0.6804,0.0570342857 L7.8264,8.18943429" id="Stroke-15" stroke="#1D1D1B" stroke-width="2.5" stroke-linecap="round"></path>
            </g>
            <g id="Group-20" transform="translate(119.000000, 97.000000)">
                <path d="M7.82595,0.0570342857 L0.67995,8.18943429" id="Fill-17" fill="#1D1D1B"></path>
                <path d="M7.82595,0.0570342857 L0.67995,8.18943429" id="Stroke-19" stroke="#1D1D1B" stroke-width="2.5" stroke-linecap="round"></path>
            </g>
            <g id="Group-24" transform="translate(81.000000, 0.000000)">
                <path d="M0.4232,0.467 L5.4052,5.979" id="Fill-21" fill="#1D1D1B"></path>
                <path d="M0.4232,0.467 L5.4052,5.979" id="Stroke-23" stroke="#1D1D1B" stroke-width="2.5" stroke-linecap="round"></path>
            </g>
            <g id="Group-28" transform="translate(81.000000, 0.000000)">
                <path d="M5.4056,0.467 L0.4236,5.979" id="Fill-25" fill="#1D1D1B"></path>
                <path d="M5.4056,0.467 L0.4236,5.979" id="Stroke-27" stroke="#1D1D1B" stroke-width="2.5" stroke-linecap="round"></path>
            </g>
            <path d="M19,74 C19,76.2095006 17.2095006,78 15,78 C12.7904994,78 11,76.2095006 11,74 C11,71.7904994 12.7904994,70 15,70 C17.2095006,70 19,71.7904994 19,74" id="Fill-29" fill="#1D1D1B"></path>
            <g id="Group-33" transform="translate(99.000000, 119.000000)">
                <mask id="mask-2" fill="white">
                    <use xlink:href="#path-1"></use>
                </mask>
                <g id="Clip-32"></g>
                <path d="M7.4213,4.16983333 C7.4213,6.28383333 5.76755,8.00116667 3.7268,8.00116667 C1.68605,8.00116667 0.0323,6.28383333 0.0323,4.16983333 C0.0323,2.0535 1.68605,0.336166667 3.7268,0.336166667 C5.76755,0.336166667 7.4213,2.0535 7.4213,4.16983333" id="Fill-31" fill="#1D1D1B" mask="url(#mask-2)"></path>
            </g>
        </g>
    </g>
</svg>