<?xml version="1.0" encoding="UTF-8"?>
<svg width="175px" height="195px" viewBox="0 0 175 195" version="1.1" xmlns="http://www.w3.org/2000/svg" xmlns:xlink="http://www.w3.org/1999/xlink">
    <!-- Generator: Sketch 50.2 (55047) - http://www.bohemiancoding.com/sketch -->
    <title>Icons/ILI/Weather/windy</title>
    <desc>Created with Sketch.</desc>
    <defs>
        <polygon id="path-1" points="0.390761982 0.462936975 48.1003463 0.462936975 48.1003463 49.1781165 0.390761982 49.1781165"></polygon>
        <polygon id="path-3" points="0 0.587587352 153.016777 0.587587352 153.016777 7.38600632 0 7.38600632"></polygon>
    </defs>
    <g id="Icons/ILI/Weather/windy" stroke="none" stroke-width="1" fill="none" fill-rule="evenodd">
        <g id="Group" transform="translate(1.000000, 37.000000)">
            <path d="M99.8709078,49.3623188 L35.9841647,49.3623188 C34.0081901,49.3623188 32.4057971,47.6886841 32.4057971,45.6231884 C32.4057971,43.5576928 34.0081901,41.884058 35.9841647,41.884058 L99.8709078,41.884058 C101.847598,41.884058 103.449275,43.5576928 103.449275,45.6231884 C103.449275,47.6886841 101.847598,49.3623188 99.8709078,49.3623188" id="Fill-1" fill="#1D1D1B"></path>
            <g id="Group-5" transform="translate(74.000000, 0.200001)">
                <mask id="mask-2" fill="white">
                    <use xlink:href="#path-1"></use>
                </mask>
                <g id="Clip-4"></g>
                <path d="M24.2459204,49.1781165 C22.222894,49.1781165 20.5836712,47.5043637 20.5836712,45.4387225 C20.5836712,43.3730813 22.222894,41.6993285 24.2459204,41.6993285 C33.360526,41.6993285 40.7758481,34.1270557 40.7758481,24.8204519 C40.7758481,15.5131003 33.360526,7.94157537 24.2459204,7.94157537 C15.1313147,7.94157537 7.71526024,15.5131003 7.71526024,24.8204519 C7.71526024,26.8853453 6.07530508,28.5598459 4.05301111,28.5598459 C2.02998469,28.5598459 0.390761982,26.8853453 0.390761982,24.8204519 C0.390761982,11.3900445 11.0918539,0.4627874 24.2459204,0.4627874 C37.3992544,0.4627874 48.1003463,11.3900445 48.1003463,24.8204519 C48.1003463,38.2516073 37.3992544,49.1781165 24.2459204,49.1781165" id="Fill-3" fill="#1D1D1B" mask="url(#mask-2)"></path>
            </g>
            <g id="Group-8" transform="translate(0.000000, 56.840580)">
                <mask id="mask-4" fill="white">
                    <use xlink:href="#path-3"></use>
                </mask>
                <g id="Clip-7"></g>
                <path d="M149.45156,7.38600632 L3.56500348,7.38600632 C1.59629043,7.38600632 -0.000213913043,5.86452016 -0.000213913043,3.98679684 C-0.000213913043,2.10907352 1.59629043,0.587587352 3.56500348,0.587587352 L149.45156,0.587587352 C151.420986,0.587587352 153.016777,2.10907352 153.016777,3.98679684 C153.016777,5.86452016 151.420986,7.38600632 149.45156,7.38600632" id="Fill-6" fill="#1D1D1B" mask="url(#mask-4)"></path>
            </g>
            <path d="M149.499655,64.3188406 C147.591522,64.3188406 146.045397,62.7727622 146.045397,60.8646887 C146.045397,58.9566152 147.591522,57.4105368 149.499655,57.4105368 C158.096612,57.4105368 165.091484,50.4158792 165.091484,41.819186 C165.091484,33.2218019 158.096612,26.2271444 149.499655,26.2271444 C140.902697,26.2271444 133.908516,33.2218019 133.908516,41.819186 C133.908516,43.7265687 132.361699,45.2733379 130.454258,45.2733379 C128.546126,45.2733379 127,43.7265687 127,41.819186 C127,29.4125632 137.093342,19.3188406 149.499655,19.3188406 C161.906658,19.3188406 172,29.4125632 172,41.819186 C172,54.2258088 161.906658,64.3188406 149.499655,64.3188406" id="Fill-9" fill="#1D1D1B"></path>
            <path d="M122.338514,80.5217391 L17.2556887,80.5217391 C15.2971303,80.5217391 13.7101449,78.8481043 13.7101449,76.7826087 C13.7101449,74.717113 15.2971303,73.0434783 17.2556887,73.0434783 L122.338514,73.0434783 C124.297073,73.0434783 125.884058,74.717113 125.884058,76.7826087 C125.884058,78.8481043 124.297073,80.5217391 122.338514,80.5217391" id="Fill-11" fill="#1D1D1B"></path>
            <path d="M121.848194,121 C108.626044,121 97.8695652,110.243686 97.8695652,97.0217391 C97.8695652,94.9882731 99.5172723,93.3405913 101.55077,93.3405913 C103.583531,93.3405913 105.231974,94.9882731 105.231974,97.0217391 C105.231974,106.18338 112.686413,113.637704 121.848194,113.637704 C131.009976,113.637704 138.463678,106.18338 138.463678,97.0217391 C138.463678,87.8593621 131.009976,80.405774 121.848194,80.405774 C119.814697,80.405774 118.16699,78.7580922 118.16699,76.7246261 C118.16699,74.6918963 119.814697,73.0434783 121.848194,73.0434783 C135.069608,73.0434783 145.826087,83.8005285 145.826087,97.0217391 C145.826087,110.243686 135.069608,121 121.848194,121" id="Fill-13" fill="#1D1D1B"></path>
        </g>
    </g>
</svg>