<?xml version="1.0" encoding="UTF-8"?>
<svg width="175px" height="195px" viewBox="0 0 175 195" version="1.1" xmlns="http://www.w3.org/2000/svg" xmlns:xlink="http://www.w3.org/1999/xlink">
    <!-- Generator: Sketch 50.2 (55047) - http://www.bohemiancoding.com/sketch -->
    <title>Icons/ILI/Weather/lightrain</title>
    <desc>Created with Sketch.</desc>
    <defs></defs>
    <g id="Icons/ILI/Weather/lightrain" stroke="none" stroke-width="1" fill="none" fill-rule="evenodd">
        <g id="Group" transform="translate(13.000000, 39.000000)">
            <path d="M110.413721,100.220435 L120.534711,100.220435 C135.316651,100.220435 147.337961,88.2809858 147.337961,73.595392 C147.336371,63.180262 141.169476,53.8558498 131.810204,49.5222017 C131.258396,22.594664 109.081112,0.8498125 81.8373689,0.8498125 C61.0109811,0.8498125 43.1281006,13.5790647 35.6182608,31.6039449 C35.5459055,31.6039449 35.4767307,31.5960469 35.4067608,31.5960469 C16.3669913,31.5960469 0.871039223,46.989304 0.871039223,65.9019226 C0.871039223,83.321024 14.0078918,97.7112316 30.9469735,99.900565 L110.413721,100.220435 Z" id="Fill-1" fill="#FEFEFE"></path>
            <path d="M120.532325,93.0995729 L35.4067608,93.0995729 C20.3179065,93.0995729 8.03420984,80.905807 8.03420984,65.9035022 C8.03420984,51.6246568 19.1832806,39.9071421 33.2854,38.825902 C32.3646595,42.582994 31.8239828,46.492518 31.8239828,50.5331493 C31.8239828,52.5044972 33.4245448,54.0983193 35.4067608,54.0983193 C37.3905671,54.0983193 38.991129,52.5068666 38.991129,50.5331493 C38.991129,27.068897 58.2129793,7.97383403 81.8357787,7.97383403 C104.37961,7.97383403 122.862801,25.3605535 124.524586,47.3336581 C121.045968,46.8202862 117.471936,46.9190116 114.048976,47.758572 C112.127188,48.2269251 110.952012,50.1532542 111.431465,52.0637872 C111.897401,53.9743203 113.847017,55.1661327 115.764034,54.6669773 C119.485957,53.7618633 123.455955,53.9379893 127.058611,55.1961452 L127.064176,55.1961452 C134.903193,57.9367611 140.17161,65.3372136 140.17161,73.5922328 C140.1732,84.3501371 131.35858,93.0995729 120.532325,93.0995729 Z M110.413721,100.221225 L120.533915,100.221225 C135.316651,100.221225 147.337961,88.2809858 147.337961,73.5961818 C147.336371,63.180262 141.169476,53.8558498 131.810204,49.5222017 C131.258396,22.594664 109.081112,0.8498125 81.8373689,0.8498125 C61.0109811,0.8498125 43.1281006,13.5790647 35.6182608,31.6047347 C35.5459055,31.6047347 35.4767307,31.5968367 35.4067608,31.5968367 C16.3669913,31.5968367 0.871039223,46.989304 0.871039223,65.9019226 C0.871039223,83.321024 14.0078918,97.7120214 30.9469735,99.900565 L110.413721,100.221225 Z" id="Fill-5" fill="#1D1D1B"></path>
            <path d="M120.532325,93.0995729 L35.4067608,93.0995729 C20.3179065,93.0995729 8.03420984,80.905807 8.03420984,65.9035022 C8.03420984,51.6246568 19.1832806,39.9071421 33.2854,38.825902 C32.3646595,42.582994 31.8239828,46.492518 31.8239828,50.5331493 C31.8239828,52.5044972 33.4245448,54.0983193 35.4067608,54.0983193 C37.3905671,54.0983193 38.991129,52.5068666 38.991129,50.5331493 C38.991129,27.068897 58.2129793,7.97383403 81.8357787,7.97383403 C104.37961,7.97383403 122.862801,25.3605535 124.524586,47.3336581 C121.045968,46.8202862 117.471936,46.9190116 114.048976,47.758572 C112.127188,48.2269251 110.952012,50.1532542 111.431465,52.0637872 C111.897401,53.9743203 113.847017,55.1661327 115.764034,54.6669773 C119.485957,53.7618633 123.455955,53.9379893 127.058611,55.1961452 L127.064176,55.1961452 C134.903193,57.9367611 140.17161,65.3372136 140.17161,73.5922328 C140.1732,84.3501371 131.35858,93.0995729 120.532325,93.0995729 Z M110.413721,100.221225 L120.533915,100.221225 C135.316651,100.221225 147.337961,88.2809858 147.337961,73.5961818 C147.336371,63.180262 141.169476,53.8558498 131.810204,49.5222017 C131.258396,22.594664 109.081112,0.8498125 81.8373689,0.8498125 C61.0109811,0.8498125 43.1281006,13.5790647 35.6182608,31.6047347 C16.3669913,31.5968367 0.871039223,46.989304 0.871039223,65.9019226 C0.871039223,83.321024 14.0078918,97.7120214 30.9469735,99.900565 L110.413721,100.221225 Z" id="Stroke-7" stroke="#1D1D1B" stroke-width="0.5"></path>
            <path d="M72.5160635,102.987114 L61.5522541,113.872967 C60.155241,115.271708 60.155241,117.517907 61.5522541,118.915858 C62.250363,119.606935 63.1695134,119.959187 64.0926392,119.959187 C65.0038384,119.959187 65.9213985,119.606935 66.6210977,118.915858 L77.5849072,108.026057 C78.9819203,106.631265 78.9819203,104.383486 77.5849072,102.987114 C76.187099,101.597062 73.9218228,101.597062 72.5160635,102.987114" id="Fill-9" fill="#1D1D1B"></path>
            <path d="M72.5160635,102.987114 L61.5522541,113.872967 C60.155241,115.271708 60.155241,117.517907 61.5522541,118.915858 C62.250363,119.606935 63.1695134,119.959187 64.0926392,119.959187 C65.0038384,119.959187 65.9213985,119.606935 66.6210977,118.915858 L77.5849072,108.026057 C78.9819203,106.631265 78.9819203,104.383486 77.5849072,102.987114 C76.187099,101.597062 73.9218228,101.597062 72.5160635,102.987114 Z" id="Stroke-11" stroke="#1D1D1B"></path>
            <path d="M36.7359905,102.987114 L25.772181,113.872967 C24.375168,115.271708 24.375168,117.517907 25.772181,118.915858 C26.47029,119.606935 27.3894403,119.959187 28.3125662,119.959187 C29.2237654,119.959187 30.1413255,119.606935 30.8410247,118.915858 L41.8048342,108.026057 C43.2018473,106.631265 43.2018473,104.383486 41.8048342,102.987114 C40.4078211,101.597062 38.1417498,101.597062 36.7359905,102.987114" id="Fill-13" fill="#1D1D1B"></path>
            <path d="M36.7359905,102.987114 L25.772181,113.872967 C24.375168,115.271708 24.375168,117.517907 25.772181,118.915858 C26.47029,119.606935 27.3894403,119.959187 28.3125662,119.959187 C29.2237654,119.959187 30.1413255,119.606935 30.8410247,118.915858 L41.8048342,108.026057 C43.2018473,106.631265 43.2018473,104.383486 41.8048342,102.987114 C40.4078211,101.597062 38.1417498,101.597062 36.7359905,102.987114 Z" id="Stroke-15" stroke="#1D1D1B"></path>
            <path d="M107.501024,102.987114 L96.5372143,113.872967 C95.1402013,115.271708 95.1402013,117.517907 96.5372143,118.915858 C97.2353233,119.606935 98.1544736,119.959187 99.0775995,119.959187 C99.9887987,119.959187 100.906359,119.606935 101.606058,118.915858 L112.569867,108.026057 C113.966881,106.631265 113.966881,104.383486 112.569867,102.987114 C111.172059,101.597062 108.906783,101.597062 107.501024,102.987114" id="Fill-17" fill="#1D1D1B"></path>
            <path d="M107.501024,102.987114 L96.5372143,113.872967 C95.1402013,115.271708 95.1402013,117.517907 96.5372143,118.915858 C97.2353233,119.606935 98.1544736,119.959187 99.0775995,119.959187 C99.9887987,119.959187 100.906359,119.606935 101.606058,118.915858 L112.569867,108.026057 C113.966881,106.631265 113.966881,104.383486 112.569867,102.987114 C111.172059,101.597062 108.906783,101.597062 107.501024,102.987114 Z" id="Stroke-19" stroke="#1D1D1B"></path>
        </g>
    </g>
</svg>