<?xml version="1.0" encoding="UTF-8"?>
<svg width="175px" height="195px" viewBox="0 0 175 195" version="1.1" xmlns="http://www.w3.org/2000/svg" xmlns:xlink="http://www.w3.org/1999/xlink">
    <!-- Generator: Sketch 50.2 (55047) - http://www.bohemiancoding.com/sketch -->
    <title>Icons/ILI/Weather/snowing</title>
    <desc>Created with Sketch.</desc>
    <defs></defs>
    <g id="Icons/ILI/Weather/snowing" stroke="none" stroke-width="1" fill="none" fill-rule="evenodd">
        <g id="Group" transform="translate(20.000000, 27.000000)">
            <path d="M100.457681,91.7419182 L109.73928,91.7419182 C123.29527,91.7419182 134.320312,80.719063 134.320312,67.1608854 C134.318125,57.5453273 128.662686,48.9360231 120.080361,44.9357992 C119.573589,20.0747653 99.2355931,0 74.2513296,0 C55.152193,0 38.7524419,11.7512956 31.8654361,28.3931309 C31.7990816,28.3931309 31.7363731,28.3858392 31.671477,28.3858392 C14.2107843,28.3858392 0,42.5966235 0,60.0573162 C0,76.1391494 12.0473384,89.4246176 27.5815653,91.4458754 L100.457681,91.7419182 Z" id="Fill-1" fill="#FEFEFE"></path>
            <path d="M109.737092,85.1677261 L31.671477,85.1677261 C17.8340275,85.1677261 6.56908797,73.9100783 6.56908797,60.0595037 C6.56908797,46.8768484 16.7935026,36.0588898 29.7260528,35.0606568 C28.8816745,38.5293161 28.3858392,42.1379759 28.3858392,45.8691362 C28.3858392,47.6891433 29.8536574,49.1606073 31.671477,49.1606073 C33.4907549,49.1606073 34.9585731,47.6906016 34.9585731,45.8691362 C34.9585731,24.2062397 52.5862456,6.57710884 74.2498712,6.57710884 C94.9240139,6.57710884 111.874288,22.6283169 113.398252,42.9152706 C110.208136,42.4413104 106.930519,42.5317274 103.791444,43.3068346 C102.029041,43.7399613 100.951329,45.5176765 101.391018,47.2822667 C101.818311,49.0461277 103.606235,50.1457153 105.364263,49.6856093 C108.777505,48.8492519 112.418248,49.0125859 115.722115,50.1734237 L115.72722,50.1734237 C122.916102,52.704371 127.747579,59.5366892 127.747579,67.1579687 C127.749037,77.0899864 119.665464,85.1677261 109.737092,85.1677261 Z M100.457681,91.7426474 L109.738551,91.7426474 C123.29527,91.7426474 134.320312,80.719063 134.320312,67.1616146 C134.318125,57.5453273 128.662686,48.9367523 120.080361,44.9357992 C119.573589,20.0747653 99.2355931,0 74.2513296,0 C55.152193,0 38.7524419,11.7512956 31.8654361,28.3938601 C31.7990816,28.3938601 31.7363731,28.3865684 31.671477,28.3865684 C14.2107843,28.3865684 0,42.5966235 0,60.0573162 C0,76.1391494 12.0473384,89.4253468 27.5815653,91.4458754 L100.457681,91.7426474 Z" id="Fill-5" fill="#1D1D1B"></path>
            <path d="M109.737092,85.1677261 L31.671477,85.1677261 C17.8340275,85.1677261 6.56908797,73.9100783 6.56908797,60.0595037 C6.56908797,46.8768484 16.7935026,36.0588898 29.7260528,35.0606568 C28.8816745,38.5293161 28.3858392,42.1379759 28.3858392,45.8691362 C28.3858392,47.6891433 29.8536574,49.1606073 31.671477,49.1606073 C33.4907549,49.1606073 34.9585731,47.6906016 34.9585731,45.8691362 C34.9585731,24.2062397 52.5862456,6.57710884 74.2498712,6.57710884 C94.9240139,6.57710884 111.874288,22.6283169 113.398252,42.9152706 C110.208136,42.4413104 106.930519,42.5317274 103.791444,43.3068346 C102.029041,43.7399613 100.951329,45.5176765 101.391018,47.2822667 C101.818311,49.0461277 103.606235,50.1457153 105.364263,49.6856093 C108.777505,48.8492519 112.418248,49.0125859 115.722115,50.1734237 L115.72722,50.1734237 C122.916102,52.704371 127.747579,59.5366892 127.747579,67.1579687 C127.749037,77.0899864 119.665464,85.1677261 109.737092,85.1677261 Z M100.457681,91.7426474 L109.738551,91.7426474 C123.29527,91.7426474 134.320312,80.719063 134.320312,67.1616146 C134.318125,57.5453273 128.662686,48.9367523 120.080361,44.9357992 C119.573589,20.0747653 99.2355931,0 74.2513296,0 C55.152193,0 38.7524419,11.7512956 31.8654361,28.3938601 C31.7990816,28.3938601 31.7363731,28.3865684 31.671477,28.3865684 C14.2107843,28.3865684 0,42.5966235 0,60.0573162 C0,76.1391494 12.0473384,89.4253468 27.5815653,91.4458754 L100.457681,91.7426474 Z" id="Stroke-7" stroke="#1D1D1B"></path>
            <path d="M40.723486,108.702474 C40.4412974,108.733828 40.1481713,108.64414 39.906087,108.426118 L37.4261816,106.196318 C36.9449297,105.76465 36.8581585,104.980792 37.2329516,104.454332 C37.6106614,103.923497 38.3033725,103.846934 38.7882702,104.282248 L41.2681756,106.511319 C41.7494275,106.944446 41.8361987,107.726845 41.4606764,108.254034 C41.2718215,108.519452 41.0064038,108.671119 40.723486,108.702474" id="Fill-9" fill="#1D1D1B"></path>
            <path d="M40.723486,108.702474 C40.4412974,108.733828 40.1481713,108.64414 39.906087,108.426118 L37.4261816,106.196318 C36.9449297,105.76465 36.8581585,104.980792 37.2329516,104.454332 C37.6106614,103.923497 38.3033725,103.846934 38.7882702,104.282248 L41.2681756,106.511319 C41.7494275,106.944446 41.8361987,107.726845 41.4606764,108.254034 C41.2718215,108.519452 41.0064038,108.671119 40.723486,108.702474 Z" id="Stroke-11" stroke="#1D1D1B"></path>
            <path d="M34.723486,103.702474 C34.4412974,103.733828 34.1481713,103.64414 33.906087,103.426118 L31.4261816,101.196318 C30.9449297,100.76465 30.8581585,99.9807924 31.2329516,99.454332 C31.6106614,98.9234966 32.3033725,98.8469338 32.787541,99.282248 L35.2681756,101.512048 C35.7494275,101.944446 35.8361987,102.726845 35.4606764,103.254763 C35.2718215,103.519452 35.0064038,103.671119 34.723486,103.702474" id="Fill-13" fill="#1D1D1B"></path>
            <path d="M34.723486,103.702474 C34.4412974,103.733828 34.1481713,103.64414 33.906087,103.426118 L31.4261816,101.196318 C30.9449297,100.76465 30.8581585,99.9807924 31.2329516,99.454332 C31.6106614,98.9234966 32.3033725,98.8469338 32.787541,99.282248 L35.2681756,101.512048 C35.7494275,101.944446 35.8361987,102.726845 35.4606764,103.254763 C35.2718215,103.519452 35.0064038,103.671119 34.723486,103.702474 Z" id="Stroke-15" stroke="#1D1D1B"></path>
            <path d="M32.0264278,108.820953 C31.7427809,108.802724 31.4700715,108.663452 31.2688207,108.407514 C30.8706942,107.897824 30.9202777,107.11178 31.3811128,106.657507 L33.7560179,104.315415 C34.2197697,103.858225 34.9153974,103.903434 35.3171698,104.41604 C35.7160255,104.925 35.6657128,105.711045 35.2048777,106.165318 L32.8307018,108.506681 C32.5988259,108.73564 32.3100748,108.838453 32.0264278,108.820953" id="Fill-17" fill="#1D1D1B"></path>
            <path d="M32.0264278,108.820953 C31.7427809,108.802724 31.4700715,108.663452 31.2688207,108.407514 C30.8706942,107.897824 30.9202777,107.11178 31.3811128,106.657507 L33.7560179,104.315415 C34.2197697,103.858225 34.9153974,103.903434 35.3171698,104.41604 C35.7160255,104.925 35.6657128,105.711045 35.2048777,106.165318 L32.8307018,108.506681 C32.5988259,108.73564 32.3100748,108.838453 32.0264278,108.820953 Z" id="Stroke-19" stroke="#1D1D1B"></path>
            <path d="M38.0267244,103.82084 C37.7430774,103.802611 37.4703681,103.663339 37.2691173,103.407401 C36.8702616,102.897711 36.9205743,102.111666 37.3814094,101.657394 L39.7563144,99.3160306 C40.2193371,98.8581122 40.9156939,98.9033207 41.3174663,99.4159269 C41.716322,99.9248872 41.6660093,100.710932 41.2051742,101.165204 L38.8302692,103.506568 C38.5983933,103.735527 38.3103713,103.83834 38.0267244,103.82084" id="Fill-21" fill="#1D1D1B"></path>
            <path d="M38.0267244,103.82084 C37.7430774,103.802611 37.4703681,103.663339 37.2691173,103.407401 C36.8702616,102.897711 36.9205743,102.111666 37.3814094,101.657394 L39.7563144,99.3160306 C40.2193371,98.8581122 40.9156939,98.9033207 41.3174663,99.4159269 C41.716322,99.9248872 41.6660093,100.710932 41.2051742,101.165204 L38.8302692,103.506568 C38.5983933,103.735527 38.3103713,103.83834 38.0267244,103.82084 Z" id="Stroke-23" stroke="#1D1D1B"></path>
            <path d="M35.2972274,97.2966437 C35.4984782,97.0961221 35.7828543,96.9831009 36.1080639,97.0020593 C36.7541081,97.0385177 37.3111936,97.5956032 37.3476521,98.2409182 L37.5372361,101.571035 C37.5744238,102.221455 37.0815052,102.714373 36.431086,102.677185 C35.7850418,102.639998 35.2279563,102.082912 35.1914979,101.437597 L35.0019138,98.1074802 C34.9836846,97.7822706 35.0967058,97.4978945 35.2972274,97.2966437" id="Fill-25" fill="#1D1D1B"></path>
            <path d="M35.2972274,97.2966437 C35.4984782,97.0961221 35.7828543,96.9831009 36.1080639,97.0020593 C36.7541081,97.0385177 37.3111936,97.5956032 37.3476521,98.2409182 L37.5372361,101.571035 C37.5744238,102.221455 37.0815052,102.714373 36.431086,102.677185 C35.7850418,102.639998 35.2279563,102.082912 35.1914979,101.437597 L35.0019138,98.1074802 C34.9836846,97.7822706 35.0967058,97.4978945 35.2972274,97.2966437 Z" id="Stroke-27" stroke="#1D1D1B"></path>
            <path d="M36.2972274,105.296644 C36.4984782,105.096122 36.7828543,104.983101 37.1080639,105.002059 C37.7541081,105.038518 38.3111936,105.595603 38.3476521,106.240918 L38.5372361,109.570306 C38.5744238,110.220725 38.0815052,110.714373 37.431086,110.677185 C36.7850418,110.639998 36.2279563,110.082912 36.1914979,109.437597 L36.0019138,106.10748 C35.9836846,105.782271 36.0967058,105.497895 36.2972274,105.296644" id="Fill-29" fill="#1D1D1B"></path>
            <path d="M36.2972274,105.296644 C36.4984782,105.096122 36.7828543,104.983101 37.1080639,105.002059 C37.7541081,105.038518 38.3111936,105.595603 38.3476521,106.240918 L38.5372361,109.570306 C38.5744238,110.220725 38.0815052,110.714373 37.431086,110.677185 C36.7850418,110.639998 36.2279563,110.082912 36.1914979,109.437597 L36.0019138,106.10748 C35.9836846,105.782271 36.0967058,105.497895 36.2972274,105.296644 Z" id="Stroke-31" stroke="#1D1D1B"></path>
            <path d="M43.3817855,103.297362 C43.5823071,103.497884 43.6953284,103.782989 43.6770991,104.107469 C43.6399115,104.753513 43.082826,105.311328 42.437511,105.347787 L39.1081231,105.536641 C38.4577039,105.573829 37.9647853,105.080911 38.001973,104.431221 C38.0384314,103.785176 38.5955169,103.228091 39.2415611,103.190903 L42.570949,103.002048 C42.8961586,102.98309 43.1805347,103.09684 43.3817855,103.297362" id="Fill-33" fill="#1D1D1B"></path>
            <path d="M43.3817855,103.297362 C43.5823071,103.497884 43.6953284,103.782989 43.6770991,104.107469 C43.6399115,104.753513 43.082826,105.311328 42.437511,105.347787 L39.1081231,105.536641 C38.4577039,105.573829 37.9647853,105.080911 38.001973,104.431221 C38.0384314,103.785176 38.5955169,103.228091 39.2415611,103.190903 L42.570949,103.002048 C42.8961586,102.98309 43.1805347,103.09684 43.3817855,103.297362 Z" id="Stroke-35" stroke="#1D1D1B"></path>
            <path d="M35.3817855,103.297362 C35.5823071,103.497884 35.6953284,103.782989 35.6770991,104.107469 C35.6399115,104.753513 35.082826,105.311328 34.437511,105.347787 L31.1081231,105.537371 C30.4577039,105.573829 29.9647853,105.080911 30.001973,104.431221 C30.0384314,103.785176 30.5955169,103.228091 31.2415611,103.190903 L34.570949,103.002048 C34.8961586,102.98309 35.1812639,103.09684 35.3817855,103.297362" id="Fill-37" fill="#1D1D1B"></path>
            <path d="M35.3817855,103.297362 C35.5823071,103.497884 35.6953284,103.782989 35.6770991,104.107469 C35.6399115,104.753513 35.082826,105.311328 34.437511,105.347787 L31.1081231,105.537371 C30.4577039,105.573829 29.9647853,105.080911 30.001973,104.431221 C30.0384314,103.785176 30.5955169,103.228091 31.2415611,103.190903 L34.570949,103.002048 C34.8961586,102.98309 35.1812639,103.09684 35.3817855,103.297362 Z" id="Stroke-39" stroke="#1D1D1B"></path>
            <path d="M75.7237627,117.70217 C75.4415741,117.733524 75.148448,117.643837 74.9063637,117.425815 L72.4257291,115.196015 C71.9444772,114.764346 71.8584352,113.980489 72.2332284,113.454029 C72.610209,112.923193 73.3036492,112.84736 73.7878177,113.281945 L76.2684523,115.511745 C76.7497042,115.944142 76.8357462,116.72727 76.4609531,117.25446 C76.2720982,117.519149 76.0059513,117.670816 75.7237627,117.70217" id="Fill-41" fill="#1D1D1B"></path>
            <path d="M75.7237627,117.70217 C75.4415741,117.733524 75.148448,117.643837 74.9063637,117.425815 L72.4257291,115.196015 C71.9444772,114.764346 71.8584352,113.980489 72.2332284,113.454029 C72.610209,112.923193 73.3036492,112.84736 73.7878177,113.281945 L76.2684523,115.511745 C76.7497042,115.944142 76.8357462,116.72727 76.4609531,117.25446 C76.2720982,117.519149 76.0059513,117.670816 75.7237627,117.70217 Z" id="Stroke-43" stroke="#1D1D1B"></path>
            <path d="M69.7237627,112.70217 C69.4415741,112.733524 69.148448,112.643837 68.9063637,112.425815 L66.4257291,110.196015 C65.9444772,109.764346 65.8584352,108.980489 66.2332284,108.454029 C66.610209,107.923193 67.3036492,107.84736 67.7878177,108.281945 L70.2684523,110.511745 C70.7497042,110.944142 70.8357462,111.72727 70.4609531,112.25446 C70.2720982,112.519149 70.0059513,112.670816 69.7237627,112.70217" id="Fill-45" fill="#1D1D1B"></path>
            <path d="M69.7237627,112.70217 C69.4415741,112.733524 69.148448,112.643837 68.9063637,112.425815 L66.4257291,110.196015 C65.9444772,109.764346 65.8584352,108.980489 66.2332284,108.454029 C66.610209,107.923193 67.3036492,107.84736 67.7878177,108.281945 L70.2684523,110.511745 C70.7497042,110.944142 70.8357462,111.72727 70.4609531,112.25446 C70.2720982,112.519149 70.0059513,112.670816 69.7237627,112.70217 Z" id="Stroke-47" stroke="#1D1D1B"></path>
            <path d="M67.0267244,117.820548 C66.7430774,117.802318 66.4703681,117.663047 66.2691173,117.407108 C65.8702616,116.897419 65.9205743,116.111374 66.3814094,115.657102 L68.7563144,113.315738 C69.2193371,112.858549 69.9149647,112.903029 70.3174663,113.415635 C70.716322,113.924595 70.6660093,114.71064 70.2051742,115.164912 L67.8302692,117.506276 C67.5983933,117.735235 67.3103713,117.838048 67.0267244,117.820548" id="Fill-49" fill="#1D1D1B"></path>
            <path d="M67.0267244,117.820548 C66.7430774,117.802318 66.4703681,117.663047 66.2691173,117.407108 C65.8702616,116.897419 65.9205743,116.111374 66.3814094,115.657102 L68.7563144,113.315738 C69.2193371,112.858549 69.9149647,112.903029 70.3174663,113.415635 C70.716322,113.924595 70.6660093,114.71064 70.2051742,115.164912 L67.8302692,117.506276 C67.5983933,117.735235 67.3103713,117.838048 67.0267244,117.820548 Z" id="Stroke-51" stroke="#1D1D1B"></path>
            <path d="M73.0264278,111.820548 C72.7427809,111.803048 72.4700715,111.663047 72.2688207,111.407108 C71.8706942,110.897419 71.9202777,110.111374 72.3811128,109.657102 L74.7560179,107.315738 C75.2197697,106.858549 75.9153974,106.903029 76.3171698,107.415635 C76.7160255,107.924595 76.6657128,108.71064 76.2048777,109.164912 L73.8307018,111.506276 C73.5988259,111.735964 73.3100748,111.838777 73.0264278,111.820548" id="Fill-53" fill="#1D1D1B"></path>
            <path d="M73.0264278,111.820548 C72.7427809,111.803048 72.4700715,111.663047 72.2688207,111.407108 C71.8706942,110.897419 71.9202777,110.111374 72.3811128,109.657102 L74.7560179,107.315738 C75.2197697,106.858549 75.9153974,106.903029 76.3171698,107.415635 C76.7160255,107.924595 76.6657128,108.71064 76.2048777,109.164912 L73.8307018,111.506276 C73.5988259,111.735964 73.3100748,111.838777 73.0264278,111.820548 Z" id="Stroke-55" stroke="#1D1D1B"></path>
            <path d="M70.2973726,105.297362 C70.4978942,105.09684 70.7829995,104.98309 71.1082091,105.002048 C71.7535241,105.038507 72.3106096,105.595592 72.3477972,106.241636 L72.5373813,109.571024 C72.574569,110.221444 72.0809212,110.714362 71.4312312,110.677174 C70.785187,110.640716 70.2281015,110.082901 70.1909139,109.437586 L70.002059,106.107469 C69.9831006,105.782989 70.0961219,105.497884 70.2973726,105.297362" id="Fill-57" fill="#1D1D1B"></path>
            <path d="M70.2973726,105.297362 C70.4978942,105.09684 70.7829995,104.98309 71.1082091,105.002048 C71.7535241,105.038507 72.3106096,105.595592 72.3477972,106.241636 L72.5373813,109.571024 C72.574569,110.221444 72.0809212,110.714362 71.4312312,110.677174 C70.785187,110.640716 70.2281015,110.082901 70.1909139,109.437586 L70.002059,106.107469 C69.9831006,105.782989 70.0961219,105.497884 70.2973726,105.297362 Z" id="Stroke-59" stroke="#1D1D1B"></path>
            <path d="M71.2973726,113.297373 C71.4978942,113.096122 71.7829995,112.983101 72.1082091,113.002059 C72.7542533,113.038517 73.3106096,113.595603 73.3477972,114.241647 L73.5373813,117.571035 C73.574569,118.221454 73.0809212,118.714373 72.4312312,118.677185 C71.785187,118.639998 71.2281015,118.082912 71.1916431,117.437597 L71.002059,114.10748 C70.9831006,113.783 71.0961219,113.497894 71.2973726,113.297373" id="Fill-61" fill="#1D1D1B"></path>
            <path d="M71.2973726,113.297373 C71.4978942,113.096122 71.7829995,112.983101 72.1082091,113.002059 C72.7542533,113.038517 73.3106096,113.595603 73.3477972,114.241647 L73.5373813,117.571035 C73.574569,118.221454 73.0809212,118.714373 72.4312312,118.677185 C71.785187,118.639998 71.2281015,118.082912 71.1916431,117.437597 L71.002059,114.10748 C70.9831006,113.783 71.0961219,113.497894 71.2973726,113.297373 Z" id="Stroke-63" stroke="#1D1D1B"></path>
            <path d="M78.3817855,111.297362 C78.5830363,111.497884 78.6960575,111.782989 78.6770991,112.108198 C78.6406407,112.754243 78.0835552,113.311328 77.437511,113.348516 L74.1081231,113.537371 C73.4577039,113.574558 72.9647853,113.080911 73.001973,112.431221 C73.0384314,111.785906 73.5955169,111.228091 74.2415611,111.191632 L77.570949,111.002048 C77.8961586,110.98309 78.1812639,111.09684 78.3817855,111.297362" id="Fill-65" fill="#1D1D1B"></path>
            <path d="M78.3817855,111.297362 C78.5830363,111.497884 78.6960575,111.782989 78.6770991,112.108198 C78.6406407,112.754243 78.0835552,113.311328 77.437511,113.348516 L74.1081231,113.537371 C73.4577039,113.574558 72.9647853,113.080911 73.001973,112.431221 C73.0384314,111.785906 73.5955169,111.228091 74.2415611,111.191632 L77.570949,111.002048 C77.8961586,110.98309 78.1812639,111.09684 78.3817855,111.297362 Z" id="Stroke-67" stroke="#1D1D1B"></path>
            <path d="M70.3817855,111.297362 C70.5830363,111.497884 70.6960575,111.782989 70.6770991,112.108198 C70.6406407,112.754243 70.0835552,113.311328 69.437511,113.348516 L66.1081231,113.537371 C65.4577039,113.574558 64.9647853,113.080911 65.001973,112.431221 C65.0384314,111.785906 65.5955169,111.228091 66.2415611,111.191632 L69.570949,111.002048 C69.8961586,110.98309 70.1812639,111.09684 70.3817855,111.297362" id="Fill-69" fill="#1D1D1B"></path>
            <path d="M70.3817855,111.297362 C70.5830363,111.497884 70.6960575,111.782989 70.6770991,112.108198 C70.6406407,112.754243 70.0835552,113.311328 69.437511,113.348516 L66.1081231,113.537371 C65.4577039,113.574558 64.9647853,113.080911 65.001973,112.431221 C65.0384314,111.785906 65.5955169,111.228091 66.2415611,111.191632 L69.570949,111.002048 C69.8961586,110.98309 70.1812639,111.09684 70.3817855,111.297362 Z" id="Stroke-71" stroke="#1D1D1B"></path>
            <path d="M59.7237091,142.702474 C59.4415205,142.733828 59.1483943,142.643411 58.9063101,142.426118 L56.4264046,140.196318 C55.9444236,139.76465 55.8583816,138.980792 56.2331747,138.454332 C56.6108845,137.923497 57.3035955,137.846934 57.787764,138.282248 L60.2683987,140.511319 C60.7496505,140.943717 60.8356925,141.726845 60.4608994,142.254034 C60.2720445,142.519452 60.0066268,142.671119 59.7237091,142.702474" id="Fill-73" fill="#1D1D1B"></path>
            <path d="M59.7237091,142.702474 C59.4415205,142.733828 59.1483943,142.643411 58.9063101,142.426118 L56.4264046,140.196318 C55.9444236,139.76465 55.8583816,138.980792 56.2331747,138.454332 C56.6108845,137.923497 57.3035955,137.846934 57.787764,138.282248 L60.2683987,140.511319 C60.7496505,140.943717 60.8356925,141.726845 60.4608994,142.254034 C60.2720445,142.519452 60.0066268,142.671119 59.7237091,142.702474 Z" id="Stroke-75" stroke="#1D1D1B"></path>
            <path d="M53.7237627,136.702474 C53.4415741,136.733828 53.148448,136.643411 52.9063637,136.426118 L50.4257291,134.196318 C49.9444772,133.76465 49.8584352,132.980792 50.2332284,132.454332 C50.6109382,131.923497 51.3036492,131.846934 51.7878177,132.282248 L54.2684523,134.511319 C54.7497042,134.944446 54.8357462,135.726845 54.4609531,136.254034 C54.2720982,136.519452 54.0059513,136.671119 53.7237627,136.702474" id="Fill-77" fill="#1D1D1B"></path>
            <path d="M53.7237627,136.702474 C53.4415741,136.733828 53.148448,136.643411 52.9063637,136.426118 L50.4257291,134.196318 C49.9444772,133.76465 49.8584352,132.980792 50.2332284,132.454332 C50.6109382,131.923497 51.3036492,131.846934 51.7878177,132.282248 L54.2684523,134.511319 C54.7497042,134.944446 54.8357462,135.726845 54.4609531,136.254034 C54.2720982,136.519452 54.0059513,136.671119 53.7237627,136.702474 Z" id="Stroke-79" stroke="#1D1D1B"></path>
            <path d="M51.0264278,142.821025 C50.7427809,142.802796 50.4700715,142.663525 50.2688207,142.407586 C49.8706942,141.897897 49.9202777,141.111852 50.3811128,140.657579 L52.7560179,138.315487 C53.2197697,137.858298 53.9153974,137.903506 54.3171698,138.415383 C54.7160255,138.924343 54.6657128,139.711117 54.2048777,140.164661 L51.8307018,142.506753 C51.5988259,142.735712 51.3100748,142.838525 51.0264278,142.821025" id="Fill-81" fill="#1D1D1B"></path>
            <path d="M51.0264278,142.821025 C50.7427809,142.802796 50.4700715,142.663525 50.2688207,142.407586 C49.8706942,141.897897 49.9202777,141.111852 50.3811128,140.657579 L52.7560179,138.315487 C53.2197697,137.858298 53.9153974,137.903506 54.3171698,138.415383 C54.7160255,138.924343 54.6657128,139.711117 54.2048777,140.164661 L51.8307018,142.506753 C51.5988259,142.735712 51.3100748,142.838525 51.0264278,142.821025 Z" id="Stroke-83" stroke="#1D1D1B"></path>
            <path d="M57.0267244,136.820953 C56.7430774,136.802724 56.4703681,136.663452 56.2691173,136.407514 C55.8702616,135.897824 55.9205743,135.11178 56.3814094,134.657507 L58.7563144,132.315415 C59.2193371,131.858225 59.9149647,131.903434 60.3167371,132.41604 C60.716322,132.925 60.6660093,133.711045 60.2051742,134.165318 L57.8302692,136.506681 C57.5983933,136.73564 57.3103713,136.838453 57.0267244,136.820953" id="Fill-85" fill="#1D1D1B"></path>
            <path d="M57.0267244,136.820953 C56.7430774,136.802724 56.4703681,136.663452 56.2691173,136.407514 C55.8702616,135.897824 55.9205743,135.11178 56.3814094,134.657507 L58.7563144,132.315415 C59.2193371,131.858225 59.9149647,131.903434 60.3167371,132.41604 C60.716322,132.925 60.6660093,133.711045 60.2051742,134.165318 L57.8302692,136.506681 C57.5983933,136.73564 57.3103713,136.838453 57.0267244,136.820953 Z" id="Stroke-87" stroke="#1D1D1B"></path>
            <path d="M53.297362,130.297362 C53.4978836,130.09684 53.7829888,129.98309 54.1081984,130.002048 C54.7542426,130.039236 55.3113281,130.595592 55.3477866,131.241636 L55.5373706,134.571024 C55.5745583,135.221444 55.0816397,135.715091 54.4312205,135.677904 C53.7851764,135.640716 53.2280909,135.083631 53.1916324,134.438316 L53.0020483,131.108198 C52.9830899,130.782989 53.0968404,130.497884 53.297362,130.297362" id="Fill-89" fill="#1D1D1B"></path>
            <path d="M53.297362,130.297362 C53.4978836,130.09684 53.7829888,129.98309 54.1081984,130.002048 C54.7542426,130.039236 55.3113281,130.595592 55.3477866,131.241636 L55.5373706,134.571024 C55.5745583,135.221444 55.0816397,135.715091 54.4312205,135.677904 C53.7851764,135.640716 53.2280909,135.083631 53.1916324,134.438316 L53.0020483,131.108198 C52.9830899,130.782989 53.0968404,130.497884 53.297362,130.297362 Z" id="Stroke-91" stroke="#1D1D1B"></path>
            <path d="M54.2972274,138.297362 C54.497749,138.09684 54.7828543,137.98309 55.1080639,138.002048 C55.7541081,138.039236 56.3111936,138.595592 56.3476521,139.241636 L56.5372361,142.571024 C56.5744238,143.221444 56.0815052,143.715091 55.431086,143.677904 C54.7850418,143.640716 54.2279563,143.083631 54.1914979,142.438316 L54.0019138,139.108198 C53.9836846,138.782989 54.0967058,138.497884 54.2972274,138.297362" id="Fill-93" fill="#1D1D1B"></path>
            <path d="M54.2972274,138.297362 C54.497749,138.09684 54.7828543,137.98309 55.1080639,138.002048 C55.7541081,138.039236 56.3111936,138.595592 56.3476521,139.241636 L56.5372361,142.571024 C56.5744238,143.221444 56.0815052,143.715091 55.431086,143.677904 C54.7850418,143.640716 54.2279563,143.083631 54.1914979,142.438316 L54.0019138,139.108198 C53.9836846,138.782989 54.0967058,138.497884 54.2972274,138.297362 Z" id="Stroke-95" stroke="#1D1D1B"></path>
            <path d="M61.3817855,136.297362 C61.5823071,136.497884 61.6953284,136.782989 61.6770992,137.107469 C61.6399115,137.753513 61.082826,138.311328 60.437511,138.347787 L57.1073939,138.536641 C56.4577039,138.573829 55.9647853,138.080911 56.001973,137.431221 C56.0384315,136.785176 56.595517,136.228091 57.240832,136.190903 L60.570949,136.002048 C60.8954295,135.98309 61.1805347,136.09684 61.3817855,136.297362" id="Fill-97" fill="#1D1D1B"></path>
            <path d="M61.3817855,136.297362 C61.5823071,136.497884 61.6953284,136.782989 61.6770992,137.107469 C61.6399115,137.753513 61.082826,138.311328 60.437511,138.347787 L57.1073939,138.536641 C56.4577039,138.573829 55.9647853,138.080911 56.001973,137.431221 C56.0384315,136.785176 56.595517,136.228091 57.240832,136.190903 L60.570949,136.002048 C60.8954295,135.98309 61.1805347,136.09684 61.3817855,136.297362 Z" id="Stroke-99" stroke="#1D1D1B"></path>
            <path d="M53.3817855,136.297362 C53.5823071,136.497884 53.6953284,136.782989 53.6770992,137.107469 C53.6399115,137.753513 53.082826,138.311328 52.437511,138.347787 L49.1073939,138.536641 C48.4577039,138.573829 47.9647853,138.080911 48.001973,137.431221 C48.0384315,136.785176 48.595517,136.228091 49.2415611,136.190903 L52.570949,136.002048 C52.8961586,135.98309 53.1805347,136.09684 53.3817855,136.297362" id="Fill-101" fill="#1D1D1B"></path>
            <path d="M53.3817855,136.297362 C53.5823071,136.497884 53.6953284,136.782989 53.6770992,137.107469 C53.6399115,137.753513 53.082826,138.311328 52.437511,138.347787 L49.1073939,138.536641 C48.4577039,138.573829 47.9647853,138.080911 48.001973,137.431221 C48.0384315,136.785176 48.595517,136.228091 49.2415611,136.190903 L52.570949,136.002048 C52.8961586,135.98309 53.1805347,136.09684 53.3817855,136.297362 Z" id="Stroke-103" stroke="#1D1D1B"></path>
            <path d="M104.723486,115.70217 C104.441297,115.733524 104.148171,115.643837 103.906087,115.425815 L101.426182,113.196015 C100.94493,112.764346 100.858159,111.980489 101.232952,111.454029 C101.610661,110.923193 102.303372,110.84736 102.787541,111.281945 L105.268176,113.511745 C105.749427,113.944142 105.836199,114.72727 105.460676,115.25446 C105.271821,115.519149 105.006404,115.670816 104.723486,115.70217" id="Fill-105" fill="#1D1D1B"></path>
            <path d="M104.723486,115.70217 C104.441297,115.733524 104.148171,115.643837 103.906087,115.425815 L101.426182,113.196015 C100.94493,112.764346 100.858159,111.980489 101.232952,111.454029 C101.610661,110.923193 102.303372,110.84736 102.787541,111.281945 L105.268176,113.511745 C105.749427,113.944142 105.836199,114.72727 105.460676,115.25446 C105.271821,115.519149 105.006404,115.670816 104.723486,115.70217 Z" id="Stroke-107" stroke="#1D1D1B"></path>
            <path d="M98.7237627,110.70217 C98.4415741,110.733524 98.148448,110.643837 97.9063637,110.425815 L95.4257291,108.196015 C94.9444772,107.764346 94.8584352,106.980489 95.2332284,106.454029 C95.6109382,105.923193 96.3036492,105.84736 96.7878177,106.281945 L99.2684523,108.511745 C99.7497042,108.944142 99.8357462,109.72727 99.4609531,110.25446 C99.2720982,110.519149 99.0059513,110.670816 98.7237627,110.70217" id="Fill-109" fill="#1D1D1B"></path>
            <path d="M98.7237627,110.70217 C98.4415741,110.733524 98.148448,110.643837 97.9063637,110.425815 L95.4257291,108.196015 C94.9444772,107.764346 94.8584352,106.980489 95.2332284,106.454029 C95.6109382,105.923193 96.3036492,105.84736 96.7878177,106.281945 L99.2684523,108.511745 C99.7497042,108.944142 99.8357462,109.72727 99.4609531,110.25446 C99.2720982,110.519149 99.0059513,110.670816 98.7237627,110.70217 Z" id="Stroke-111" stroke="#1D1D1B"></path>
            <path d="M97.0264278,115.820548 C96.7427809,115.803048 96.4700715,115.663047 96.2688207,115.407108 C95.8706942,114.897419 95.9202777,114.111374 96.3811128,113.657102 L98.7560179,111.315738 C99.2197697,110.858549 99.9153974,110.903029 100.31717,111.415635 C100.716025,111.924595 100.665713,112.71064 100.204878,113.164912 L97.8307018,115.506276 C97.5988259,115.735235 97.3100748,115.838048 97.0264278,115.820548" id="Fill-113" fill="#1D1D1B"></path>
            <path d="M97.0264278,115.820548 C96.7427809,115.803048 96.4700715,115.663047 96.2688207,115.407108 C95.8706942,114.897419 95.9202777,114.111374 96.3811128,113.657102 L98.7560179,111.315738 C99.2197697,110.858549 99.9153974,110.903029 100.31717,111.415635 C100.716025,111.924595 100.665713,112.71064 100.204878,113.164912 L97.8307018,115.506276 C97.5988259,115.735235 97.3100748,115.838048 97.0264278,115.820548 Z" id="Stroke-115" stroke="#1D1D1B"></path>
            <path d="M102.026724,109.820548 C101.743077,109.803048 101.470368,109.663047 101.269117,109.407108 C100.870262,108.897419 100.920574,108.111374 101.381409,107.657102 L103.756314,105.315738 C104.219337,104.858549 104.914965,104.903029 105.316737,105.415635 C105.716322,105.924595 105.666009,106.71064 105.205174,107.164912 L102.830269,109.507005 C102.598393,109.735964 102.310371,109.838777 102.026724,109.820548" id="Fill-117" fill="#1D1D1B"></path>
            <path d="M102.026724,109.820548 C101.743077,109.803048 101.470368,109.663047 101.269117,109.407108 C100.870262,108.897419 100.920574,108.111374 101.381409,107.657102 L103.756314,105.315738 C104.219337,104.858549 104.914965,104.903029 105.316737,105.415635 C105.716322,105.924595 105.666009,106.71064 105.205174,107.164912 L102.830269,109.507005 C102.598393,109.735964 102.310371,109.838777 102.026724,109.820548 Z" id="Stroke-119" stroke="#1D1D1B"></path>
            <path d="M99.2972274,104.297362 C99.497749,104.09684 99.7828543,103.98309 100.108064,104.002048 C100.754108,104.039236 101.311194,104.595592 101.347652,105.241636 L101.537236,108.571024 C101.574424,109.221444 101.081505,109.714362 100.431086,109.677174 C99.7850418,109.640716 99.2279563,109.082901 99.1914979,108.437586 L99.0019138,105.107469 C98.9836846,104.782989 99.0967058,104.497884 99.2972274,104.297362" id="Fill-121" fill="#1D1D1B"></path>
            <path d="M99.2972274,104.297362 C99.497749,104.09684 99.7828543,103.98309 100.108064,104.002048 C100.754108,104.039236 101.311194,104.595592 101.347652,105.241636 L101.537236,108.571024 C101.574424,109.221444 101.081505,109.714362 100.431086,109.677174 C99.7850418,109.640716 99.2279563,109.082901 99.1914979,108.437586 L99.0019138,105.107469 C98.9836846,104.782989 99.0967058,104.497884 99.2972274,104.297362 Z" id="Stroke-123" stroke="#1D1D1B"></path>
            <path d="M99.2972274,112.297362 C99.4984782,112.09684 99.7828543,111.98309 100.108064,112.002048 C100.754108,112.038507 101.311194,112.595592 101.347652,113.241636 L101.537236,116.571024 C101.574424,117.221444 101.081505,117.714362 100.431086,117.677174 C99.7850418,117.639987 99.2279563,117.082901 99.1914979,116.437586 L99.0019138,113.107469 C98.9836846,112.782989 99.0967058,112.497884 99.2972274,112.297362" id="Fill-125" fill="#1D1D1B"></path>
            <path d="M99.2972274,112.297362 C99.4984782,112.09684 99.7828543,111.98309 100.108064,112.002048 C100.754108,112.038507 101.311194,112.595592 101.347652,113.241636 L101.537236,116.571024 C101.574424,117.221444 101.081505,117.714362 100.431086,117.677174 C99.7850418,117.639987 99.2279563,117.082901 99.1914979,116.437586 L99.0019138,113.107469 C98.9836846,112.782989 99.0967058,112.497884 99.2972274,112.297362 Z" id="Stroke-127" stroke="#1D1D1B"></path>
            <path d="M106.381786,109.297362 C106.582307,109.497884 106.695328,109.782989 106.677099,110.108198 C106.639912,110.754243 106.082826,111.311328 105.437511,111.348516 L102.107394,111.537371 C101.457704,111.574558 100.964785,111.080911 101.001973,110.431221 C101.038431,109.785906 101.595517,109.228091 102.240832,109.191632 L105.570949,109.002048 C105.896159,108.98309 106.180535,109.09684 106.381786,109.297362" id="Fill-129" fill="#1D1D1B"></path>
            <path d="M106.381786,109.297362 C106.582307,109.497884 106.695328,109.782989 106.677099,110.108198 C106.639912,110.754243 106.082826,111.311328 105.437511,111.348516 L102.107394,111.537371 C101.457704,111.574558 100.964785,111.080911 101.001973,110.431221 C101.038431,109.785906 101.595517,109.228091 102.240832,109.191632 L105.570949,109.002048 C105.896159,108.98309 106.180535,109.09684 106.381786,109.297362 Z" id="Stroke-131" stroke="#1D1D1B"></path>
            <path d="M98.3817855,110.297362 C98.5823071,110.497884 98.6953284,110.782989 98.6770991,111.108198 C98.6399115,111.754243 98.082826,112.311328 97.437511,112.348516 L94.1081231,112.537371 C93.4577039,112.574558 92.9647853,112.080911 93.001973,111.431221 C93.0384314,110.785906 93.5955169,110.228091 94.2415611,110.191632 L97.570949,110.002048 C97.8961586,109.98309 98.1805347,110.09684 98.3817855,110.297362" id="Fill-133" fill="#1D1D1B"></path>
            <path d="M98.3817855,110.297362 C98.5823071,110.497884 98.6953284,110.782989 98.6770991,111.108198 C98.6399115,111.754243 98.082826,112.311328 97.437511,112.348516 L94.1081231,112.537371 C93.4577039,112.574558 92.9647853,112.080911 93.001973,111.431221 C93.0384314,110.785906 93.5955169,110.228091 94.2415611,110.191632 L97.570949,110.002048 C97.8961586,109.98309 98.1805347,110.09684 98.3817855,110.297362 Z" id="Stroke-135" stroke="#1D1D1B"></path>
        </g>
    </g>
</svg>