<?xml version="1.0" encoding="UTF-8"?>
<svg width="175px" height="195px" viewBox="0 0 175 195" version="1.1" xmlns="http://www.w3.org/2000/svg" xmlns:xlink="http://www.w3.org/1999/xlink">
    <!-- Generator: Sketch 50.2 (55047) - http://www.bohemiancoding.com/sketch -->
    <title>Icons/ILI/Weather/foggy</title>
    <desc>Created with Sketch.</desc>
    <defs></defs>
    <g id="Icons/ILI/Weather/foggy" stroke="none" stroke-width="1" fill="none" fill-rule="evenodd">
        <g id="Group" transform="translate(16.000000, 27.000000)">
            <path d="M107.113372,98.477824 L117.009911,98.477824 C131.464035,98.477824 143.21875,86.645645 143.21875,72.0919944 C143.217973,61.7704395 137.187063,52.5298028 128.03535,48.2350905 C127.495779,21.5494842 105.810316,0 79.1715309,0 C58.8062288,0 41.3207113,12.6141031 33.9774159,30.4778209 C33.9058878,30.4778209 33.8390246,30.4699938 33.7698289,30.4699938 C15.152301,30.4699938 0,45.724167 0,64.4668645 C0,81.7294634 12.8455189,95.9911644 29.409723,98.1608277 L107.113372,98.477824 Z" id="Fill-1" fill="#FEFEFE"></path>
            <path d="M117.007578,91.4209393 L33.7690514,91.4209393 C19.0155974,91.4209393 7.00431422,79.3367287 7.00431422,64.4692127 C7.00431422,50.3186561 17.9053565,38.7064177 31.6955131,37.634892 C30.7944142,41.3582284 30.2665055,45.2318444 30.2665055,49.2369552 C30.2665055,51.1905914 31.8315721,52.7700938 33.7690514,52.7700938 C35.7096406,52.7700938 37.2747072,51.1929396 37.2747072,49.2369552 C37.2747072,25.9835183 56.0695004,7.06001552 79.168421,7.06001552 C101.213079,7.06001552 119.286371,24.2897407 120.911304,46.0662099 C117.50983,45.5574505 114.014282,45.6545061 110.668009,46.4865235 C108.788841,46.9514513 107.638948,48.8604732 108.108546,50.753841 C108.564149,52.6472088 110.470529,53.8283134 112.345033,53.3336427 C115.984415,52.4366607 119.866371,52.6112043 123.389131,53.8580563 L123.394574,53.8580563 C131.058968,56.574049 136.210548,63.9080119 136.210548,72.0888635 C136.212881,82.7501131 127.593741,91.4209393 117.007578,91.4209393 Z M107.112595,98.4786067 L117.009133,98.4786067 C131.464035,98.4786067 143.21875,86.645645 143.21875,72.0927771 C143.217195,61.7704395 137.186285,52.5298028 128.03535,48.2350905 C127.495001,21.5494842 105.810316,0 79.1707534,0 C58.8062288,0 41.3199338,12.6141031 33.9766385,30.4786036 C33.9051103,30.4786036 33.8382471,30.4707765 33.7690514,30.4707765 C15.1515235,30.4707765 0,45.724167 0,64.4668645 C0,81.7294634 12.8447414,95.9919471 29.4089455,98.1608277 L107.112595,98.4786067 Z" id="Fill-5" fill="#1D1D1B"></path>
            <path d="M117.007578,91.4209393 L33.7690514,91.4209393 C19.0155974,91.4209393 7.00431422,79.3367287 7.00431422,64.4692127 C7.00431422,50.3186561 17.9053565,38.7064177 31.6955131,37.634892 C30.7944142,41.3582284 30.2665055,45.2318444 30.2665055,49.2369552 C30.2665055,51.1905914 31.8315721,52.7700938 33.7690514,52.7700938 C35.7096406,52.7700938 37.2747072,51.1929396 37.2747072,49.2369552 C37.2747072,25.9835183 56.0695004,7.06001552 79.168421,7.06001552 C101.213079,7.06001552 119.286371,24.2897407 120.911304,46.0662099 C117.50983,45.5574505 114.014282,45.6545061 110.668009,46.4865235 C108.788841,46.9514513 107.638948,48.8604732 108.108546,50.753841 C108.564149,52.6472088 110.470529,53.8283134 112.345033,53.3336427 C115.984415,52.4366607 119.866371,52.6112043 123.389131,53.8580563 L123.394574,53.8580563 C131.058968,56.574049 136.210548,63.9080119 136.210548,72.0888635 C136.212881,82.7501131 127.593741,91.4209393 117.007578,91.4209393 Z M107.112595,98.4786067 L117.009133,98.4786067 C131.464035,98.4786067 143.21875,86.645645 143.21875,72.0927771 C143.217195,61.7704395 137.186285,52.5298028 128.03535,48.2350905 C127.495001,21.5494842 105.810316,0 79.1707534,0 C58.8062288,0 41.3199338,12.6141031 33.9766385,30.4786036 C33.9051103,30.4786036 33.8382471,30.4707765 33.7690514,30.4707765 C15.1515235,30.4707765 0,45.724167 0,64.4668645 C0,81.7294634 12.8447414,95.9919471 29.4089455,98.1608277 L107.112595,98.4786067 Z" id="Stroke-7" stroke="#1D1D1B"></path>
            <path d="M14,115 L129.213933,115" id="Stroke-9" stroke="#1D1D1B" stroke-width="10" stroke-linecap="round" stroke-linejoin="round"></path>
            <path d="M14,135 L129.213933,135" id="Stroke-11" stroke="#1D1D1B" stroke-width="10" stroke-linecap="round" stroke-linejoin="round"></path>
        </g>
    </g>
</svg>