<?xml version="1.0" encoding="UTF-8"?>
<svg width="172px" height="191px" viewBox="0 0 172 191" version="1.1" xmlns="http://www.w3.org/2000/svg" xmlns:xlink="http://www.w3.org/1999/xlink">
    <!-- Generator: Sketch 50.2 (55047) - http://www.bohemiancoding.com/sketch -->
    <title>Icons/Weather/Sun-cloud</title>
    <desc>Created with Sketch.</desc>
    <defs></defs>
    <g id="Symbols" stroke="none" stroke-width="1" fill="none" fill-rule="evenodd">
        <g id="COMPONENTS/ILI/Weather/sun-cloud" transform="translate(-39.000000, -64.000000)">
            <g id="Icons/ILI/Weather/Sun-cloud" transform="translate(39.000000, 64.000000)">
                <g id="Group" transform="translate(1.000000, 1.000000)">
                    <path d="M47.5879467,84.5473067 C47.5879467,104.92704 64.16608,121.507307 84.5458133,121.507307 C104.92768,121.507307 121.505813,104.92704 121.505813,84.5473067 C121.505813,64.1675733 104.92768,47.5873067 84.5458133,47.5873067 C64.16608,47.5873067 47.5879467,64.1675733 47.5879467,84.5473067 M42.3058133,84.5473067 C42.3058133,61.2555733 61.2562133,42.3073067 84.5458133,42.3073067 C107.837547,42.3073067 126.787947,61.2555733 126.787947,84.5473067 C126.787947,107.836907 107.837547,126.787307 84.5458133,126.787307 C61.2562133,126.787307 42.3058133,107.836907 42.3058133,84.5473067" id="Fill-1" fill="#1D1D1B"></path>
                    <path d="M47.5879467,84.5473067 C47.5879467,104.92704 64.16608,121.507307 84.5458133,121.507307 C104.92768,121.507307 121.505813,104.92704 121.505813,84.5473067 C121.505813,64.1675733 104.92768,47.5873067 84.5458133,47.5873067 C64.16608,47.5873067 47.5879467,64.1675733 47.5879467,84.5473067 Z M42.3058133,84.5473067 C42.3058133,61.2555733 61.2562133,42.3073067 84.5458133,42.3073067 C107.837547,42.3073067 126.787947,61.2555733 126.787947,84.5473067 C126.787947,107.836907 107.837547,126.787307 84.5458133,126.787307 C61.2562133,126.787307 42.3058133,107.836907 42.3058133,84.5473067 Z" id="Stroke-3" stroke="#1D1D1B" stroke-width="0.75"></path>
                    <path d="M84.54624,29.1066667 L84.5483733,29.1066667 C86.00544,29.1066667 87.1873067,27.9248 87.1873067,26.4677333 L87.1873067,2.70666667 C87.1873067,1.24746667 86.00544,0.0656 84.5483733,0.0656 L84.54624,0.0656 C83.08704,0.0656 81.9073067,1.24746667 81.9073067,2.70666667 L81.9073067,26.4677333 C81.9073067,27.9248 83.08704,29.1066667 84.54624,29.1066667" id="Fill-5" fill="#1D1D1B"></path>
                    <path d="M84.54624,29.1066667 L84.5483733,29.1066667 C86.00544,29.1066667 87.1873067,27.9248 87.1873067,26.4677333 L87.1873067,2.70666667 C87.1873067,1.24746667 86.00544,0.0656 84.5483733,0.0656 L84.54624,0.0656 C83.08704,0.0656 81.9073067,1.24746667 81.9073067,2.70666667 L81.9073067,26.4677333 C81.9073067,27.9248 83.08704,29.1066667 84.54624,29.1066667 Z" id="Stroke-7" stroke="#1D1D1B"></path>
                    <path d="M127.48384,45.3441067 L144.28384,28.5441067 C145.31424,27.5137067 145.31424,25.8411733 144.28384,24.8107733 C143.25344,23.7803733 141.580907,23.7803733 140.550507,24.8107733 L123.750507,41.6107733 C122.720107,42.6411733 122.720107,44.3137067 123.750507,45.3441067 C124.780907,46.3745067 126.45344,46.3745067 127.48384,45.3441067" id="Fill-9" fill="#1D1D1B"></path>
                    <path d="M127.48384,45.3441067 L144.28384,28.5441067 C145.31424,27.5137067 145.31424,25.8411733 144.28384,24.8107733 C143.25344,23.7803733 141.580907,23.7803733 140.550507,24.8107733 L123.750507,41.6107733 C122.720107,42.6411733 122.720107,44.3137067 123.750507,45.3441067 C124.780907,46.3745067 126.45344,46.3745067 127.48384,45.3441067 Z" id="Stroke-11" stroke="#1D1D1B"></path>
                    <path d="M2.70666667,87.18688 L26.4677333,87.18688 C27.9248,87.18688 29.1066667,86.0050133 29.1066667,84.5479467 L29.1066667,84.5458133 C29.1066667,83.0887467 27.9248,81.90688 26.4677333,81.90688 L2.70666667,81.90688 C1.24746667,81.90688 0.0677333333,83.0887467 0.0677333333,84.5458133 L0.0677333333,84.5479467 C0.0677333333,86.0050133 1.24746667,87.18688 2.70666667,87.18688" id="Fill-13" fill="#1D1D1B"></path>
                    <path d="M2.63893333,87.28 L26.4,87.28 C27.8570667,87.28 29.0389333,86.0981333 29.0389333,84.6410667 L29.0389333,84.6389333 C29.0389333,83.1818667 27.8570667,82 26.4,82 L2.63893333,82 C1.17973333,82 0,83.1818667 0,84.6389333 L0,84.6410667 C0,86.0981333 1.17973333,87.28 2.63893333,87.28 Z" id="Stroke-15" stroke="#1D1D1B"></path>
                    <path d="M143.638933,87.28 L167.4,87.28 C168.857067,87.28 170.038933,86.0981333 170.038933,84.6410667 L170.038933,84.6389333 C170.038933,83.1818667 168.857067,82 167.4,82 L143.638933,82 C142.179733,82 141,83.1818667 141,84.6389333 L141,84.6410667 C141,86.0981333 142.179733,87.28 143.638933,87.28 Z" id="Stroke-15-Copy" stroke="#1D1D1B" fill="#000000"></path>
                    <path d="M45.3441067,45.3441067 C46.3745067,44.3137067 46.3745067,42.6411733 45.3441067,41.6107733 L28.5441067,24.8107733 C27.5137067,23.7803733 25.8411733,23.7803733 24.8107733,24.8107733 C23.7803733,25.8411733 23.7803733,27.5137067 24.8107733,28.5441067 L41.6129067,45.3441067 C42.6411733,46.3745067 44.31584,46.3745067 45.3441067,45.3441067" id="Fill-17" fill="#1D1D1B"></path>
                    <path d="M45.3441067,45.3441067 C46.3745067,44.3137067 46.3745067,42.6411733 45.3441067,41.6107733 L28.5441067,24.8107733 C27.5137067,23.7803733 25.8411733,23.7803733 24.8107733,24.8107733 C23.7803733,25.8411733 23.7803733,27.5137067 24.8107733,28.5441067 L41.6129067,45.3441067 C42.6411733,46.3745067 44.31584,46.3745067 45.3441067,45.3441067 Z" id="Stroke-19" stroke="#1D1D1B"></path>
                    <path d="M126.787947,159.714027 L135.521813,159.758827 C148.279147,159.827093 158.709013,149.506027 158.775147,136.74656 C158.82208,127.69696 153.54208,119.56896 145.48448,115.76096 C145.130347,92.36256 126.090347,73.3694933 102.576747,73.24576 C84.6034133,73.1518933 69.1111467,84.13216 62.5490133,99.7588267 C62.4850133,99.7588267 62.42528,99.7524267 62.3655467,99.7524267 C45.9346133,99.66496 32.4903467,112.968427 32.40288,129.401493 C32.3239467,144.53536 43.59648,157.096427 58.20768,159.07616 L126.787947,159.714027 Z" id="Fill-21" fill="#FFFFFF"></path>
                    <path d="M126.787947,159.714027 L135.521813,159.758827 C148.279147,159.827093 158.709013,149.506027 158.775147,136.74656 C158.82208,127.69696 153.54208,119.56896 145.48448,115.76096 C145.130347,92.36256 126.090347,73.3694933 102.576747,73.24576 C84.6034133,73.1518933 69.1111467,84.13216 62.5490133,99.7588267 C62.4850133,99.7588267 62.42528,99.7524267 62.3655467,99.7524267 C45.9346133,99.66496 32.4903467,112.968427 32.40288,129.401493 C32.3239467,144.53536 43.59648,157.096427 58.20768,159.07616 L126.787947,159.714027 Z" id="Stroke-23" stroke="#1D1D1B"></path>
                    <path d="M135.073387,153.57024 L117.59072,153.478507 L61.6056533,153.184107 C48.5837867,153.11584 38.03872,142.46624 38.1069867,129.433707 C38.1709867,117.02624 47.8456533,106.89504 60.02272,106.020373 C59.20992,109.280107 58.7256533,112.67424 58.7085867,116.185707 C58.69792,117.89664 60.07392,119.289707 61.7848533,119.300373 C63.4957867,119.306773 64.8845867,117.932907 64.8952533,116.217707 C64.9997867,95.8315733 81.6760533,79.3259733 102.062187,79.4347733 C121.518187,79.53504 137.39232,94.7265067 138.727787,113.824107 C135.72832,113.361173 132.641387,113.431573 129.684587,114.14624 C128.02272,114.54304 127.000853,116.211307 127.406187,117.875307 C127.79872,119.537173 129.47552,120.580373 131.13312,120.15584 C134.348053,119.38784 137.77632,119.558507 140.878187,120.665707 L140.884587,120.665707 C147.636587,123.084907 152.148587,129.536107 152.110187,136.710507 C152.065387,146.05664 144.417387,153.617173 135.073387,153.57024 M145.004053,115.756907 C144.64992,92.36064 125.607787,73.3675733 102.098453,73.24384 C84.1229867,73.1499733 68.63072,84.1281067 62.0685867,99.7547733 C62.00672,99.7547733 61.9469867,99.7483733 61.88512,99.7483733 C45.4520533,99.6609067 32.00992,112.966507 31.9224533,129.39744 C31.84352,144.53344 43.1181867,157.094507 57.72512,159.07424 L32.5432533,183.991573 C31.3293867,185.19904 31.31872,187.15104 32.52192,188.371307 C33.1213867,188.977173 33.91072,189.286507 34.70432,189.290773 C35.4936533,189.29504 36.2893867,188.992107 36.8952533,188.394773 L66.1944533,159.396373 L87.5064533,159.507307 L81.48192,165.465707 C80.27232,166.668907 80.2616533,168.62944 81.4584533,169.841173 C82.05792,170.451307 82.85152,170.756373 83.6429867,170.76064 C84.43872,170.764907 85.2280533,170.468373 85.83392,169.86464 L96.2509867,159.55424 L117.556587,159.665173 L92.6584533,184.305173 C91.4445867,185.514773 91.43392,187.466773 92.6349867,188.68704 C93.2365867,189.290773 94.0280533,189.60224 94.8173867,189.606507 C95.60672,189.610773 96.4045867,189.30784 97.00832,188.710507 L126.309653,159.712107 L135.041387,159.756907 C147.800853,159.825173 158.228587,149.504107 158.296853,136.74464 C158.341653,127.69504 153.063787,119.56704 145.004053,115.756907" id="Fill-25" fill="#1D1D1B"></path>
                    <path d="M135.073387,153.57024 L117.59072,153.478507 L61.6056533,153.184107 C48.5837867,153.11584 38.03872,142.46624 38.1069867,129.433707 C38.1709867,117.02624 47.8456533,106.89504 60.02272,106.020373 C59.20992,109.280107 58.7256533,112.67424 58.7085867,116.185707 C58.69792,117.89664 60.07392,119.289707 61.7848533,119.300373 C63.4957867,119.306773 64.8845867,117.932907 64.8952533,116.217707 C64.9997867,95.8315733 81.6760533,79.3259733 102.062187,79.4347733 C121.518187,79.53504 137.39232,94.7265067 138.727787,113.824107 C135.72832,113.361173 132.641387,113.431573 129.684587,114.14624 C128.02272,114.54304 127.000853,116.211307 127.406187,117.875307 C127.79872,119.537173 129.47552,120.580373 131.13312,120.15584 C134.348053,119.38784 137.77632,119.558507 140.878187,120.665707 L140.884587,120.665707 C147.636587,123.084907 152.148587,129.536107 152.110187,136.710507 C152.065387,146.05664 144.417387,153.617173 135.073387,153.57024 Z M145.004053,115.756907 C144.64992,92.36064 125.607787,73.3675733 102.098453,73.24384 C84.1229867,73.1499733 68.63072,84.1281067 62.0685867,99.7547733 C62.00672,99.7547733 61.9469867,99.7483733 61.88512,99.7483733 C45.4520533,99.6609067 32.00992,112.966507 31.9224533,129.39744 C31.84352,144.53344 43.1181867,157.094507 57.72512,159.07424 L32.5432533,183.991573 C31.3293867,185.19904 31.31872,187.15104 32.52192,188.371307 C33.1213867,188.977173 33.91072,189.286507 34.70432,189.290773 C35.4936533,189.29504 36.2893867,188.992107 36.8952533,188.394773 L66.1944533,159.396373 L87.5064533,159.507307 L81.48192,165.465707 C80.27232,166.668907 80.2616533,168.62944 81.4584533,169.841173 C82.05792,170.451307 82.85152,170.756373 83.6429867,170.76064 C84.43872,170.764907 85.2280533,170.468373 85.83392,169.86464 L96.2509867,159.55424 L117.556587,159.665173 L92.6584533,184.305173 C91.4445867,185.514773 91.43392,187.466773 92.6349867,188.68704 C93.2365867,189.290773 94.0280533,189.60224 94.8173867,189.606507 C95.60672,189.610773 96.4045867,189.30784 97.00832,188.710507 L126.309653,159.712107 L135.041387,159.756907 C147.800853,159.825173 158.228587,149.504107 158.296853,136.74464 C158.341653,127.69504 153.063787,119.56704 145.004053,115.756907 Z" id="Stroke-27" stroke="#1D1D1B" stroke-width="0.25"></path>
                    <path d="M72.1086933,174.741013 L62.5982933,184.151147 C61.38656,185.358613 61.3758933,187.312747 62.5748267,188.533013 C63.1742933,189.134613 63.96576,189.44608 64.7636267,189.450347 C65.5486933,189.45248 66.3422933,189.15168 66.94816,188.55648 L76.4606933,179.14208 C77.6724267,177.936747 77.6830933,175.982613 76.48416,174.76448 C75.2830933,173.550613 73.3268267,173.54208 72.1086933,174.741013" id="Fill-29" fill="#1D1D1B"></path>
                    <path d="M72.1086933,174.741013 L62.5982933,184.151147 C61.38656,185.358613 61.3758933,187.312747 62.5748267,188.533013 C63.1742933,189.134613 63.96576,189.44608 64.7636267,189.450347 C65.5486933,189.45248 66.3422933,189.15168 66.94816,188.55648 L76.4606933,179.14208 C77.6724267,177.936747 77.6830933,175.982613 76.48416,174.76448 C75.2830933,173.550613 73.3268267,173.54208 72.1086933,174.741013 Z" id="Stroke-31" stroke="#1D1D1B" stroke-width="0.25"></path>
                </g>
            </g>
        </g>
    </g>
</svg>