<?xml version="1.0" encoding="UTF-8"?>
<svg width="175px" height="195px" viewBox="0 0 175 195" version="1.1" xmlns="http://www.w3.org/2000/svg" xmlns:xlink="http://www.w3.org/1999/xlink">
    <!-- Generator: Sketch 50.2 (55047) - http://www.bohemiancoding.com/sketch -->
    <title>Icons/ILI/Weather/Sun-cloud</title>
    <desc>Created with Sketch.</desc>
    <defs></defs>
    <g id="Icons/ILI/Weather/Sun-cloud" stroke="none" stroke-width="1" fill="none" fill-rule="evenodd">
        <path d="M48.5879467,100.547307 C48.5879467,120.92704 65.16608,137.507307 85.5458133,137.507307 C105.92768,137.507307 122.505813,120.92704 122.505813,100.547307 C122.505813,80.1675733 105.92768,63.5873067 85.5458133,63.5873067 C65.16608,63.5873067 48.5879467,80.1675733 48.5879467,100.547307 M43.3058133,100.547307 C43.3058133,77.2555733 62.2562133,58.3073067 85.5458133,58.3073067 C108.837547,58.3073067 127.787947,77.2555733 127.787947,100.547307 C127.787947,123.836907 108.837547,142.787307 85.5458133,142.787307 C62.2562133,142.787307 43.3058133,123.836907 43.3058133,100.547307" id="Fill-1" fill="#1D1D1B"></path>
        <path d="M85.54624,45.1066667 L85.5483733,45.1066667 C87.00544,45.1066667 88.1873067,43.9248 88.1873067,42.4677333 L88.1873067,18.7066667 C88.1873067,17.2474667 87.00544,16.0656 85.5483733,16.0656 L85.54624,16.0656 C84.08704,16.0656 82.9073067,17.2474667 82.9073067,18.7066667 L82.9073067,42.4677333 C82.9073067,43.9248 84.08704,45.1066667 85.54624,45.1066667" id="Fill-5" fill="#1D1D1B"></path>
        <path d="M128.48384,61.3441067 L145.28384,44.5441067 C146.31424,43.5137067 146.31424,41.8411733 145.28384,40.8107733 C144.25344,39.7803733 142.580907,39.7803733 141.550507,40.8107733 L124.750507,57.6107733 C123.720107,58.6411733 123.720107,60.3137067 124.750507,61.3441067 C125.780907,62.3745067 127.45344,62.3745067 128.48384,61.3441067" id="Fill-9" fill="#1D1D1B"></path>
        <path d="M3.70666667,103.18688 L27.4677333,103.18688 C28.9248,103.18688 30.1066667,102.005013 30.1066667,100.547947 L30.1066667,100.545813 C30.1066667,99.0887467 28.9248,97.90688 27.4677333,97.90688 L3.70666667,97.90688 C2.24746667,97.90688 1.06773333,99.0887467 1.06773333,100.545813 L1.06773333,100.547947 C1.06773333,102.005013 2.24746667,103.18688 3.70666667,103.18688" id="Fill-13" fill="#1D1D1B"></path>
        <path d="M144.638933,103.28 L168.4,103.28 C169.857067,103.28 171.038933,102.098133 171.038933,100.641067 C171.038933,99.1818667 169.857067,98 168.4,98 L144.638933,98 C143.179733,98 142,99.1818667 142,100.638933 C142,102.098133 143.179733,103.28 144.638933,103.28 Z" id="Stroke-15-Copy" stroke="#1D1D1B" fill="#000000"></path>
        <path d="M46.3441067,61.3441067 C47.3745067,60.3137067 47.3745067,58.6411733 46.3441067,57.6107733 L29.5441067,40.8107733 C28.5137067,39.7803733 26.8411733,39.7803733 25.8107733,40.8107733 C24.7803733,41.8411733 24.7803733,43.5137067 25.8107733,44.5441067 L42.6129067,61.3441067 C43.6411733,62.3745067 45.31584,62.3745067 46.3441067,61.3441067" id="Fill-17" fill="#1D1D1B"></path>
        <path d="M127.787947,175.714027 L136.521813,175.758827 C149.279147,175.827093 159.709013,165.506027 159.775147,152.74656 C159.82208,143.69696 154.54208,135.56896 146.48448,131.76096 C146.130347,108.36256 127.090347,89.3694933 103.576747,89.24576 C85.6034133,89.1518933 70.1111467,100.13216 63.5490133,115.758827 C63.4850133,115.758827 63.42528,115.752427 63.3655467,115.752427 C46.9346133,115.66496 33.4903467,128.968427 33.40288,145.401493 C33.3239467,160.53536 44.59648,173.096427 59.20768,175.07616 L127.787947,175.714027 Z" id="Fill-21" fill="#FFFFFF"></path>
        <path d="M136.073387,169.57024 L118.59072,169.478507 L62.6056533,169.184107 C49.5837867,169.11584 39.03872,158.46624 39.1069867,145.433707 C39.1709867,133.02624 48.8456533,122.89504 61.02272,122.020373 C60.20992,125.280107 59.7256533,128.67424 59.7085867,132.185707 C59.69792,133.89664 61.07392,135.289707 62.7848533,135.300373 C64.4957867,135.306773 65.8845867,133.932907 65.8952533,132.217707 C65.9997867,111.831573 82.6760533,95.3259733 103.062187,95.4347733 C122.518187,95.53504 138.39232,110.726507 139.727787,129.824107 C136.72832,129.361173 133.641387,129.431573 130.684587,130.14624 C129.02272,130.54304 128.000853,132.211307 128.406187,133.875307 C128.79872,135.537173 130.47552,136.580373 132.13312,136.15584 C135.348053,135.38784 138.77632,135.558507 141.878187,136.665707 L141.884587,136.665707 C148.636587,139.084907 153.148587,145.536107 153.110187,152.710507 C153.065387,162.05664 145.417387,169.617173 136.073387,169.57024 M103.098453,89.24384 C85.1229867,89.1499733 69.63072,100.128107 63.0685867,115.754773 C46.4520533,115.660907 33.00992,128.966507 32.9224533,145.39744 C32.84352,160.53344 44.1181867,173.094507 58.72512,175.07424 L67.1944533,175.396373 L88.5064533,175.507307 L97.2509867,175.55424 L118.556587,175.665173 L127.309653,175.712107 L136.041387,175.756907 C148.800853,175.825173 159.228587,165.504107 159.296853,152.74464 C159.341653,143.69504 154.063787,135.56704 146.004053,131.756907 C145.64992,108.36064 126.607787,89.3675733 103.098453,89.24384 Z" id="Fill-25" fill="#1D1D1B"></path>
    </g>
</svg>