<?xml version="1.0" encoding="UTF-8"?>
<svg width="175px" height="195px" viewBox="0 0 175 195" version="1.1" xmlns="http://www.w3.org/2000/svg" xmlns:xlink="http://www.w3.org/1999/xlink">
    <!-- Generator: Sketch 50.2 (55047) - http://www.bohemiancoding.com/sketch -->
    <title>Icons/ILI/Weather/night-cloud</title>
    <desc>Created with Sketch.</desc>
    <defs></defs>
    <g id="Icons/ILI/Weather/night-cloud" stroke="none" stroke-width="1" fill="none" fill-rule="evenodd">
        <g id="Group" transform="translate(7.000000, 41.000000)">
            <g id="Group-40" transform="translate(65.116279, 0.176558)">
                <path d="M0.395162791,1.61395349 L5.02772093,6.74139535" id="Fill-37" fill="#1D1D1B"></path>
                <path d="M0.395162791,1.61395349 L5.02772093,6.74139535" id="Stroke-39" stroke="#1D1D1B" stroke-width="2.5" stroke-linecap="round"></path>
            </g>
            <g id="Group-44" transform="translate(65.116279, 0.176558)">
                <path d="M5.02809302,1.61395349 L0.395534884,6.74139535" id="Fill-41" fill="#1D1D1B"></path>
                <path d="M5.02809302,1.61395349 L0.395534884,6.74139535" id="Stroke-43" stroke="#1D1D1B" stroke-width="2.5" stroke-linecap="round"></path>
            </g>
            <path d="M48.2658605,84.048 C43.5793488,84.048 39.1291163,83.0247442 35.1067907,81.2014884 C48.4426047,75.6033488 57.8435349,62.3177674 57.8435349,46.8535814 C57.8435349,35.8303256 53.064,25.9177674 45.491907,19.1028837 C46.4053953,19.0228837 47.3300465,18.9745116 48.2658605,18.9745116 C66.0388837,18.9745116 80.4984186,33.5698605 80.4984186,51.5103256 C80.4984186,69.4526512 66.0388837,84.048 48.2658605,84.048 M48.2658605,14.9782326 C45.5365581,14.9782326 42.879814,15.2852093 40.319814,15.8507907 C38.1951628,16.3196279 37.8156279,19.6424186 39.4770233,20.8107907 C47.7914419,26.6452093 53.2407442,36.2954419 53.2407442,47.2014884 C53.2407442,61.9289302 43.3095814,74.3717209 29.7933023,78.2061395 C27.8565581,78.7568372 27.116093,82.0312558 28.9523721,83.1661395 C34.5728372,86.6414884 41.1867907,88.6526512 48.2658605,88.6526512 C68.5765581,88.6526512 85.1030698,72.1261395 85.1030698,51.8154419 C85.1030698,31.5028837 68.5765581,14.9782326 48.2658605,14.9782326" id="Fill-1" fill="#1D1D1B"></path>
            <path d="M48.2658605,84.048 C43.5793488,84.048 39.1291163,83.0247442 35.1067907,81.2014884 C48.4426047,75.6033488 57.8435349,62.3177674 57.8435349,46.8535814 C57.8435349,35.8303256 53.064,25.9177674 45.491907,19.1028837 C46.4053953,19.0228837 47.3300465,18.9745116 48.2658605,18.9745116 C66.0388837,18.9745116 80.4984186,33.5698605 80.4984186,51.5103256 C80.4984186,69.4526512 66.0388837,84.048 48.2658605,84.048 Z M48.2658605,14.9782326 C45.5365581,14.9782326 42.879814,15.2852093 40.319814,15.8507907 C38.1951628,16.3196279 37.8156279,19.6424186 39.4770233,20.8107907 C47.7914419,26.6452093 53.2407442,36.2954419 53.2407442,47.2014884 C53.2407442,61.9289302 43.3095814,74.3717209 29.7933023,78.2061395 C27.8565581,78.7568372 27.116093,82.0312558 28.9523721,83.1661395 C34.5728372,86.6414884 41.1867907,88.6526512 48.2658605,88.6526512 C68.5765581,88.6526512 85.1030698,72.1261395 85.1030698,51.8154419 C85.1030698,31.5028837 68.5765581,14.9782326 48.2658605,14.9782326 Z" id="Stroke-3" stroke="#1D1D1B" stroke-width="0.75"></path>
            <path d="M131.389023,119.432186 L139.007628,119.432186 C150.133209,119.432186 159.180651,110.386605 159.180651,99.2573023 C159.180651,91.3652093 154.53693,84.3010233 147.493209,81.0173023 C147.078326,60.6135814 130.386233,44.1373023 109.880186,44.1373023 C94.2057674,44.1373023 80.7453023,53.7819535 75.0932093,67.4396279 C75.0392558,67.4396279 74.9871628,67.4340465 74.9332093,67.4340465 C60.603907,67.4340465 48.9406512,79.0973023 48.9406512,93.4266047 C48.9406512,106.626605 58.8271628,117.532651 71.5787907,119.188465 L131.389023,119.432186 Z" id="Fill-5" fill="#FFFFFF"></path>
            <path d="M131.389023,119.432186 L139.007628,119.432186 C150.133209,119.432186 159.180651,110.386605 159.180651,99.2573023 C159.180651,91.3652093 154.53693,84.3010233 147.493209,81.0173023 C147.078326,60.6135814 130.386233,44.1373023 109.880186,44.1373023 C94.2057674,44.1373023 80.7453023,53.7819535 75.0932093,67.4396279 C75.0392558,67.4396279 74.9871628,67.4340465 74.9332093,67.4340465 C60.603907,67.4340465 48.9406512,79.0973023 48.9406512,93.4266047 C48.9406512,106.626605 58.8271628,117.532651 71.5787907,119.188465 L131.389023,119.432186 Z" id="Stroke-7" stroke="#1D1D1B"></path>
            <path d="M139.005209,114.036093 L74.9345116,114.036093 C63.5782326,114.036093 54.3317209,104.797023 54.3317209,93.4295814 C54.3317209,82.6091163 62.7224186,73.7309767 73.3382326,72.9123721 C72.6442791,75.7588837 72.2368372,78.7207442 72.2368372,81.7830698 C72.2368372,83.2751628 73.4424186,84.4844651 74.9345116,84.4844651 C76.4266047,84.4844651 77.632186,83.2770233 77.632186,81.7830698 C77.632186,64.0026047 92.0991628,49.5337674 109.879628,49.5337674 C126.84707,49.5337674 140.757767,62.7095814 142.00986,79.3570233 C139.392186,78.9700465 136.701953,79.0444651 134.125209,79.6807442 C132.679628,80.0342326 131.794047,81.4946977 132.154977,82.9421395 C132.506605,84.3895814 133.972651,85.291907 135.416372,84.9142326 C138.218233,84.2295814 141.20614,84.3616744 143.918698,85.3142326 L143.922419,85.3142326 C149.820093,87.3923721 153.786605,92.999814 153.786605,99.2546977 C153.788465,107.407256 147.154047,114.036093 139.005209,114.036093 Z M131.388465,119.431442 L139.00707,119.431442 C150.132651,119.431442 159.181953,110.38586 159.181953,99.2584186 C159.180093,91.3644651 154.538233,84.3002791 147.492651,81.0165581 C147.077767,60.6128372 130.385674,44.1365581 109.881488,44.1365581 C94.2052093,44.1365581 80.7466047,53.7812093 75.0926512,67.4407442 C75.0386977,67.4407442 74.9866047,67.4333023 74.9345116,67.4333023 C60.6033488,67.4333023 48.940093,79.0965581 48.940093,93.4277209 C48.940093,106.627721 58.8266047,117.531907 71.5782326,119.189581 L131.388465,119.431442 Z" id="Fill-9" fill="#1D1D1B"></path>
            <path d="M139.005209,114.036093 L74.9345116,114.036093 C63.5782326,114.036093 54.3317209,104.797023 54.3317209,93.4295814 C54.3317209,82.6091163 62.7224186,73.7309767 73.3382326,72.9123721 C72.6442791,75.7588837 72.2368372,78.7207442 72.2368372,81.7830698 C72.2368372,83.2751628 73.4424186,84.4844651 74.9345116,84.4844651 C76.4266047,84.4844651 77.632186,83.2770233 77.632186,81.7830698 C77.632186,64.0026047 92.0991628,49.5337674 109.879628,49.5337674 C126.84707,49.5337674 140.757767,62.7095814 142.00986,79.3570233 C139.392186,78.9700465 136.701953,79.0444651 134.125209,79.6807442 C132.679628,80.0342326 131.794047,81.4946977 132.154977,82.9421395 C132.506605,84.3895814 133.972651,85.291907 135.416372,84.9142326 C138.218233,84.2295814 141.20614,84.3616744 143.918698,85.3142326 L143.922419,85.3142326 C149.820093,87.3923721 153.786605,92.999814 153.786605,99.2546977 C153.788465,107.407256 147.154047,114.036093 139.005209,114.036093 Z M131.388465,119.431442 L139.00707,119.431442 C150.132651,119.431442 159.181953,110.38586 159.181953,99.2584186 C159.180093,91.3644651 154.538233,84.3002791 147.492651,81.0165581 C147.077767,60.6128372 130.385674,44.1365581 109.881488,44.1365581 C94.2052093,44.1365581 80.7466047,53.7812093 75.0926512,67.4407442 C75.0386977,67.4407442 74.9866047,67.4333023 74.9345116,67.4333023 C60.6033488,67.4333023 48.940093,79.0965581 48.940093,93.4277209 C48.940093,106.627721 58.8266047,117.531907 71.5782326,119.189581 L131.388465,119.431442 Z" id="Stroke-11" stroke="#1D1D1B" stroke-width="0.25"></path>
            <g id="Group-32" transform="translate(0.000000, 18.781209)">
                <path d="M1.39627907,1.75293023 L7.30325581,8.29060465" id="Fill-29" fill="#1D1D1B"></path>
                <path d="M1.39627907,1.75293023 L7.30325581,8.29060465" id="Stroke-31" stroke="#1D1D1B" stroke-width="2.5" stroke-linecap="round"></path>
            </g>
            <g id="Group-36" transform="translate(0.000000, 18.781209)">
                <path d="M7.30288372,1.75293023 L1.39590698,8.29060465" id="Fill-33" fill="#1D1D1B"></path>
                <path d="M7.30288372,1.75293023 L1.39590698,8.29060465" id="Stroke-35" stroke="#1D1D1B" stroke-width="2.5" stroke-linecap="round"></path>
            </g>
            <path d="M15.9547907,59.6347907 C15.9547907,61.3222326 14.5873488,62.6896744 12.899907,62.6896744 C11.2124651,62.6896744 9.84688372,61.3222326 9.84688372,59.6347907 C9.84688372,57.9473488 11.2124651,56.579907 12.899907,56.579907 C14.5873488,56.579907 15.9547907,57.9473488 15.9547907,59.6347907" id="Fill-45" fill="#1D1D1B"></path>
        </g>
    </g>
</svg>